M48
; DRILL file {KiCad (7.0.0-rc2-153-g7d6218acb4)} date Sun Feb 19 17:36:38 2023
; FORMAT={-:-/ absolute / inch / decimal}
; #@! TF.CreationDate,2023-02-19T17:36:38+08:00
; #@! TF.GenerationSoftware,Kicad,Pcbnew,(7.0.0-rc2-153-g7d6218acb4)
; #@! TF.FileFunction,NonPlated,1,4,NPTH
FMAT,2
INCH
; #@! TA.AperFunction,NonPlated,NPTH,ComponentDrill
T1C0.0315
; #@! TA.AperFunction,NonPlated,NPTH,ComponentDrill
T2C0.0390
%
G90
G05
T1
X5.5394Y-2.7156
X6.189Y-3.2667
X6.4055Y-2.7156
X7.0551Y-3.2667
X7.2717Y-2.7156
X7.9213Y-3.2667
T2
X5.4777Y-4.0065
X5.5177Y-3.8065
X5.5577Y-4.0065
X6.1706Y-1.9758
X6.2106Y-2.1758
X6.2506Y-1.9758
X6.3439Y-4.0065
X6.3839Y-3.8065
X6.4239Y-4.0065
X7.0368Y-1.9758
X7.0768Y-2.1758
X7.1168Y-1.9758
X7.21Y-4.0065
X7.25Y-3.8065
X7.29Y-4.0065
X7.9029Y-1.9758
X7.9429Y-2.1758
X7.9829Y-1.9758
T0
M30
