%TF.GenerationSoftware,KiCad,Pcbnew,(7.0.0-rc2-153-g7d6218acb4)*%
%TF.CreationDate,2023-02-19T16:48:29+08:00*%
%TF.ProjectId,RAK3172-M.2-2230-Mod,52414b33-3137-4322-9d4d-2e322d323233,rev?*%
%TF.SameCoordinates,Original*%
%TF.FileFunction,Paste,Bot*%
%TF.FilePolarity,Positive*%
%FSLAX46Y46*%
G04 Gerber Fmt 4.6, Leading zero omitted, Abs format (unit mm)*
G04 Created by KiCad (PCBNEW (7.0.0-rc2-153-g7d6218acb4)) date 2023-02-19 16:48:29*
%MOMM*%
%LPD*%
G01*
G04 APERTURE LIST*
G04 Aperture macros list*
%AMRoundRect*
0 Rectangle with rounded corners*
0 $1 Rounding radius*
0 $2 $3 $4 $5 $6 $7 $8 $9 X,Y pos of 4 corners*
0 Add a 4 corners polygon primitive as box body*
4,1,4,$2,$3,$4,$5,$6,$7,$8,$9,$2,$3,0*
0 Add four circle primitives for the rounded corners*
1,1,$1+$1,$2,$3*
1,1,$1+$1,$4,$5*
1,1,$1+$1,$6,$7*
1,1,$1+$1,$8,$9*
0 Add four rect primitives between the rounded corners*
20,1,$1+$1,$2,$3,$4,$5,0*
20,1,$1+$1,$4,$5,$6,$7,0*
20,1,$1+$1,$6,$7,$8,$9,0*
20,1,$1+$1,$8,$9,$2,$3,0*%
G04 Aperture macros list end*
%ADD10RoundRect,0.243750X0.456250X-0.243750X0.456250X0.243750X-0.456250X0.243750X-0.456250X-0.243750X0*%
%ADD11RoundRect,0.140000X0.140000X0.170000X-0.140000X0.170000X-0.140000X-0.170000X0.140000X-0.170000X0*%
%ADD12RoundRect,0.140000X-0.140000X-0.170000X0.140000X-0.170000X0.140000X0.170000X-0.140000X0.170000X0*%
%ADD13RoundRect,0.135000X-0.185000X0.135000X-0.185000X-0.135000X0.185000X-0.135000X0.185000X0.135000X0*%
%ADD14RoundRect,0.135000X0.135000X0.185000X-0.135000X0.185000X-0.135000X-0.185000X0.135000X-0.185000X0*%
%ADD15RoundRect,0.140000X-0.170000X0.140000X-0.170000X-0.140000X0.170000X-0.140000X0.170000X0.140000X0*%
%ADD16RoundRect,0.218750X0.218750X0.256250X-0.218750X0.256250X-0.218750X-0.256250X0.218750X-0.256250X0*%
%ADD17RoundRect,0.135000X-0.135000X-0.185000X0.135000X-0.185000X0.135000X0.185000X-0.135000X0.185000X0*%
G04 APERTURE END LIST*
D10*
%TO.C,F301*%
X140200000Y-106112500D03*
X140200000Y-104237500D03*
%TD*%
D11*
%TO.C,C202*%
X145330000Y-98925000D03*
X144370000Y-98925000D03*
%TD*%
%TO.C,C201*%
X145330000Y-97775000D03*
X144370000Y-97775000D03*
%TD*%
D12*
%TO.C,C206*%
X141570000Y-87825000D03*
X142530000Y-87825000D03*
%TD*%
D13*
%TO.C,R302*%
X153750000Y-103465000D03*
X153750000Y-104485000D03*
%TD*%
D11*
%TO.C,C401*%
X148430000Y-102975000D03*
X147470000Y-102975000D03*
%TD*%
D14*
%TO.C,R403*%
X151660000Y-103775000D03*
X150640000Y-103775000D03*
%TD*%
%TO.C,R202*%
X145810000Y-87425000D03*
X144790000Y-87425000D03*
%TD*%
D15*
%TO.C,C203*%
X141750000Y-92045000D03*
X141750000Y-93005000D03*
%TD*%
D14*
%TO.C,R203*%
X147860000Y-86325000D03*
X146840000Y-86325000D03*
%TD*%
D15*
%TO.C,C301*%
X154750000Y-102295000D03*
X154750000Y-103255000D03*
%TD*%
D11*
%TO.C,C211*%
X145780000Y-86325000D03*
X144820000Y-86325000D03*
%TD*%
D16*
%TO.C,L203*%
X153225000Y-98775000D03*
X151650000Y-98775000D03*
%TD*%
%TO.C,L202*%
X141537500Y-89125000D03*
X139962500Y-89125000D03*
%TD*%
D15*
%TO.C,C204*%
X146350000Y-98945000D03*
X146350000Y-99905000D03*
%TD*%
D13*
%TO.C,R301*%
X155700000Y-103465000D03*
X155700000Y-104485000D03*
%TD*%
D16*
%TO.C,L201*%
X141537500Y-90775000D03*
X139962500Y-90775000D03*
%TD*%
D17*
%TO.C,R402*%
X145190000Y-104225000D03*
X146210000Y-104225000D03*
%TD*%
D14*
%TO.C,R401*%
X147440000Y-101875000D03*
X148460000Y-101875000D03*
%TD*%
D12*
%TO.C,C205*%
X144180000Y-91075000D03*
X143220000Y-91075000D03*
%TD*%
D15*
%TO.C,C210*%
X148600000Y-98945000D03*
X148600000Y-99905000D03*
%TD*%
D14*
%TO.C,R201*%
X140710000Y-92125000D03*
X139690000Y-92125000D03*
%TD*%
%TO.C,R404*%
X146210000Y-102975000D03*
X145190000Y-102975000D03*
%TD*%
D17*
%TO.C,R204*%
X149360000Y-87425000D03*
X148340000Y-87425000D03*
%TD*%
D12*
%TO.C,C209*%
X148600000Y-97775000D03*
X149560000Y-97775000D03*
%TD*%
D11*
%TO.C,C208*%
X147330000Y-97775000D03*
X146370000Y-97775000D03*
%TD*%
D15*
%TO.C,C212*%
X150350000Y-100535000D03*
X150350000Y-99575000D03*
%TD*%
%TO.C,C207*%
X147450000Y-98945000D03*
X147450000Y-99905000D03*
%TD*%
M02*
