%TF.GenerationSoftware,KiCad,Pcbnew,(7.0.0-rc2-153-g7d6218acb4)*%
%TF.CreationDate,2023-02-19T16:48:31+08:00*%
%TF.ProjectId,RAK3172-M.2-2230-Mod,52414b33-3137-4322-9d4d-2e322d323233,rev?*%
%TF.SameCoordinates,Original*%
%TF.FileFunction,Drillmap*%
%TF.FilePolarity,Positive*%
%FSLAX45Y45*%
G04 Gerber Fmt 4.5, Leading zero omitted, Abs format (unit mm)*
G04 Created by KiCad (PCBNEW (7.0.0-rc2-153-g7d6218acb4)) date 2023-02-19 16:48:31*
%MOMM*%
%LPD*%
G01*
G04 APERTURE LIST*
%ADD10C,0.100000*%
%ADD11C,0.200000*%
%ADD12C,0.080000*%
%ADD13C,0.099060*%
G04 APERTURE END LIST*
D10*
X13795000Y-10697500D02*
X13795000Y-8097500D01*
X13795000Y-8097500D02*
X15995000Y-8097500D01*
X15995000Y-8097500D02*
X15995000Y-10697500D01*
D11*
D12*
X15680000Y-8257500D02*
X15760000Y-8337500D01*
X15760000Y-8257500D02*
X15680000Y-8337500D01*
D13*
X13962930Y-10176500D02*
G75*
G03*
X13962930Y-10176500I-49530J0D01*
G01*
X14064530Y-9668500D02*
G75*
G03*
X14064530Y-9668500I-49530J0D01*
G01*
X14166130Y-10176500D02*
G75*
G03*
X14166130Y-10176500I-49530J0D01*
G01*
D11*
X14037619Y-11393476D02*
X14037619Y-11193476D01*
X14037619Y-11193476D02*
X14085238Y-11193476D01*
X14085238Y-11193476D02*
X14113809Y-11203000D01*
X14113809Y-11203000D02*
X14132857Y-11222048D01*
X14132857Y-11222048D02*
X14142381Y-11241095D01*
X14142381Y-11241095D02*
X14151905Y-11279190D01*
X14151905Y-11279190D02*
X14151905Y-11307762D01*
X14151905Y-11307762D02*
X14142381Y-11345857D01*
X14142381Y-11345857D02*
X14132857Y-11364905D01*
X14132857Y-11364905D02*
X14113809Y-11383952D01*
X14113809Y-11383952D02*
X14085238Y-11393476D01*
X14085238Y-11393476D02*
X14037619Y-11393476D01*
X14237619Y-11393476D02*
X14237619Y-11260143D01*
X14237619Y-11298238D02*
X14247143Y-11279190D01*
X14247143Y-11279190D02*
X14256667Y-11269667D01*
X14256667Y-11269667D02*
X14275714Y-11260143D01*
X14275714Y-11260143D02*
X14294762Y-11260143D01*
X14361428Y-11393476D02*
X14361428Y-11260143D01*
X14361428Y-11193476D02*
X14351905Y-11203000D01*
X14351905Y-11203000D02*
X14361428Y-11212524D01*
X14361428Y-11212524D02*
X14370952Y-11203000D01*
X14370952Y-11203000D02*
X14361428Y-11193476D01*
X14361428Y-11193476D02*
X14361428Y-11212524D01*
X14485238Y-11393476D02*
X14466190Y-11383952D01*
X14466190Y-11383952D02*
X14456667Y-11364905D01*
X14456667Y-11364905D02*
X14456667Y-11193476D01*
X14590000Y-11393476D02*
X14570952Y-11383952D01*
X14570952Y-11383952D02*
X14561428Y-11364905D01*
X14561428Y-11364905D02*
X14561428Y-11193476D01*
X14786190Y-11393476D02*
X14786190Y-11193476D01*
X14786190Y-11193476D02*
X14852857Y-11336333D01*
X14852857Y-11336333D02*
X14919524Y-11193476D01*
X14919524Y-11193476D02*
X14919524Y-11393476D01*
X15100476Y-11393476D02*
X15100476Y-11288714D01*
X15100476Y-11288714D02*
X15090952Y-11269667D01*
X15090952Y-11269667D02*
X15071905Y-11260143D01*
X15071905Y-11260143D02*
X15033809Y-11260143D01*
X15033809Y-11260143D02*
X15014762Y-11269667D01*
X15100476Y-11383952D02*
X15081428Y-11393476D01*
X15081428Y-11393476D02*
X15033809Y-11393476D01*
X15033809Y-11393476D02*
X15014762Y-11383952D01*
X15014762Y-11383952D02*
X15005238Y-11364905D01*
X15005238Y-11364905D02*
X15005238Y-11345857D01*
X15005238Y-11345857D02*
X15014762Y-11326809D01*
X15014762Y-11326809D02*
X15033809Y-11317286D01*
X15033809Y-11317286D02*
X15081428Y-11317286D01*
X15081428Y-11317286D02*
X15100476Y-11307762D01*
X15195714Y-11260143D02*
X15195714Y-11460143D01*
X15195714Y-11269667D02*
X15214762Y-11260143D01*
X15214762Y-11260143D02*
X15252857Y-11260143D01*
X15252857Y-11260143D02*
X15271905Y-11269667D01*
X15271905Y-11269667D02*
X15281428Y-11279190D01*
X15281428Y-11279190D02*
X15290952Y-11298238D01*
X15290952Y-11298238D02*
X15290952Y-11355381D01*
X15290952Y-11355381D02*
X15281428Y-11374428D01*
X15281428Y-11374428D02*
X15271905Y-11383952D01*
X15271905Y-11383952D02*
X15252857Y-11393476D01*
X15252857Y-11393476D02*
X15214762Y-11393476D01*
X15214762Y-11393476D02*
X15195714Y-11383952D01*
X15376667Y-11374428D02*
X15386190Y-11383952D01*
X15386190Y-11383952D02*
X15376667Y-11393476D01*
X15376667Y-11393476D02*
X15367143Y-11383952D01*
X15367143Y-11383952D02*
X15376667Y-11374428D01*
X15376667Y-11374428D02*
X15376667Y-11393476D01*
X15376667Y-11269667D02*
X15386190Y-11279190D01*
X15386190Y-11279190D02*
X15376667Y-11288714D01*
X15376667Y-11288714D02*
X15367143Y-11279190D01*
X15367143Y-11279190D02*
X15376667Y-11269667D01*
X15376667Y-11269667D02*
X15376667Y-11288714D01*
D12*
X13710000Y-11700000D02*
X13790000Y-11780000D01*
X13790000Y-11700000D02*
X13710000Y-11780000D01*
D11*
X14075714Y-11613476D02*
X14094762Y-11613476D01*
X14094762Y-11613476D02*
X14113809Y-11623000D01*
X14113809Y-11623000D02*
X14123333Y-11632524D01*
X14123333Y-11632524D02*
X14132857Y-11651571D01*
X14132857Y-11651571D02*
X14142381Y-11689667D01*
X14142381Y-11689667D02*
X14142381Y-11737286D01*
X14142381Y-11737286D02*
X14132857Y-11775381D01*
X14132857Y-11775381D02*
X14123333Y-11794428D01*
X14123333Y-11794428D02*
X14113809Y-11803952D01*
X14113809Y-11803952D02*
X14094762Y-11813476D01*
X14094762Y-11813476D02*
X14075714Y-11813476D01*
X14075714Y-11813476D02*
X14056667Y-11803952D01*
X14056667Y-11803952D02*
X14047143Y-11794428D01*
X14047143Y-11794428D02*
X14037619Y-11775381D01*
X14037619Y-11775381D02*
X14028095Y-11737286D01*
X14028095Y-11737286D02*
X14028095Y-11689667D01*
X14028095Y-11689667D02*
X14037619Y-11651571D01*
X14037619Y-11651571D02*
X14047143Y-11632524D01*
X14047143Y-11632524D02*
X14056667Y-11623000D01*
X14056667Y-11623000D02*
X14075714Y-11613476D01*
X14228095Y-11794428D02*
X14237619Y-11803952D01*
X14237619Y-11803952D02*
X14228095Y-11813476D01*
X14228095Y-11813476D02*
X14218571Y-11803952D01*
X14218571Y-11803952D02*
X14228095Y-11794428D01*
X14228095Y-11794428D02*
X14228095Y-11813476D01*
X14351905Y-11699190D02*
X14332857Y-11689667D01*
X14332857Y-11689667D02*
X14323333Y-11680143D01*
X14323333Y-11680143D02*
X14313809Y-11661095D01*
X14313809Y-11661095D02*
X14313809Y-11651571D01*
X14313809Y-11651571D02*
X14323333Y-11632524D01*
X14323333Y-11632524D02*
X14332857Y-11623000D01*
X14332857Y-11623000D02*
X14351905Y-11613476D01*
X14351905Y-11613476D02*
X14390000Y-11613476D01*
X14390000Y-11613476D02*
X14409048Y-11623000D01*
X14409048Y-11623000D02*
X14418571Y-11632524D01*
X14418571Y-11632524D02*
X14428095Y-11651571D01*
X14428095Y-11651571D02*
X14428095Y-11661095D01*
X14428095Y-11661095D02*
X14418571Y-11680143D01*
X14418571Y-11680143D02*
X14409048Y-11689667D01*
X14409048Y-11689667D02*
X14390000Y-11699190D01*
X14390000Y-11699190D02*
X14351905Y-11699190D01*
X14351905Y-11699190D02*
X14332857Y-11708714D01*
X14332857Y-11708714D02*
X14323333Y-11718238D01*
X14323333Y-11718238D02*
X14313809Y-11737286D01*
X14313809Y-11737286D02*
X14313809Y-11775381D01*
X14313809Y-11775381D02*
X14323333Y-11794428D01*
X14323333Y-11794428D02*
X14332857Y-11803952D01*
X14332857Y-11803952D02*
X14351905Y-11813476D01*
X14351905Y-11813476D02*
X14390000Y-11813476D01*
X14390000Y-11813476D02*
X14409048Y-11803952D01*
X14409048Y-11803952D02*
X14418571Y-11794428D01*
X14418571Y-11794428D02*
X14428095Y-11775381D01*
X14428095Y-11775381D02*
X14428095Y-11737286D01*
X14428095Y-11737286D02*
X14418571Y-11718238D01*
X14418571Y-11718238D02*
X14409048Y-11708714D01*
X14409048Y-11708714D02*
X14390000Y-11699190D01*
X14551905Y-11613476D02*
X14570952Y-11613476D01*
X14570952Y-11613476D02*
X14590000Y-11623000D01*
X14590000Y-11623000D02*
X14599524Y-11632524D01*
X14599524Y-11632524D02*
X14609048Y-11651571D01*
X14609048Y-11651571D02*
X14618571Y-11689667D01*
X14618571Y-11689667D02*
X14618571Y-11737286D01*
X14618571Y-11737286D02*
X14609048Y-11775381D01*
X14609048Y-11775381D02*
X14599524Y-11794428D01*
X14599524Y-11794428D02*
X14590000Y-11803952D01*
X14590000Y-11803952D02*
X14570952Y-11813476D01*
X14570952Y-11813476D02*
X14551905Y-11813476D01*
X14551905Y-11813476D02*
X14532857Y-11803952D01*
X14532857Y-11803952D02*
X14523333Y-11794428D01*
X14523333Y-11794428D02*
X14513809Y-11775381D01*
X14513809Y-11775381D02*
X14504286Y-11737286D01*
X14504286Y-11737286D02*
X14504286Y-11689667D01*
X14504286Y-11689667D02*
X14513809Y-11651571D01*
X14513809Y-11651571D02*
X14523333Y-11632524D01*
X14523333Y-11632524D02*
X14532857Y-11623000D01*
X14532857Y-11623000D02*
X14551905Y-11613476D01*
X14742381Y-11613476D02*
X14761429Y-11613476D01*
X14761429Y-11613476D02*
X14780476Y-11623000D01*
X14780476Y-11623000D02*
X14790000Y-11632524D01*
X14790000Y-11632524D02*
X14799524Y-11651571D01*
X14799524Y-11651571D02*
X14809048Y-11689667D01*
X14809048Y-11689667D02*
X14809048Y-11737286D01*
X14809048Y-11737286D02*
X14799524Y-11775381D01*
X14799524Y-11775381D02*
X14790000Y-11794428D01*
X14790000Y-11794428D02*
X14780476Y-11803952D01*
X14780476Y-11803952D02*
X14761429Y-11813476D01*
X14761429Y-11813476D02*
X14742381Y-11813476D01*
X14742381Y-11813476D02*
X14723333Y-11803952D01*
X14723333Y-11803952D02*
X14713809Y-11794428D01*
X14713809Y-11794428D02*
X14704286Y-11775381D01*
X14704286Y-11775381D02*
X14694762Y-11737286D01*
X14694762Y-11737286D02*
X14694762Y-11689667D01*
X14694762Y-11689667D02*
X14704286Y-11651571D01*
X14704286Y-11651571D02*
X14713809Y-11632524D01*
X14713809Y-11632524D02*
X14723333Y-11623000D01*
X14723333Y-11623000D02*
X14742381Y-11613476D01*
X14894762Y-11813476D02*
X14894762Y-11680143D01*
X14894762Y-11699190D02*
X14904286Y-11689667D01*
X14904286Y-11689667D02*
X14923333Y-11680143D01*
X14923333Y-11680143D02*
X14951905Y-11680143D01*
X14951905Y-11680143D02*
X14970952Y-11689667D01*
X14970952Y-11689667D02*
X14980476Y-11708714D01*
X14980476Y-11708714D02*
X14980476Y-11813476D01*
X14980476Y-11708714D02*
X14990000Y-11689667D01*
X14990000Y-11689667D02*
X15009048Y-11680143D01*
X15009048Y-11680143D02*
X15037619Y-11680143D01*
X15037619Y-11680143D02*
X15056667Y-11689667D01*
X15056667Y-11689667D02*
X15066190Y-11708714D01*
X15066190Y-11708714D02*
X15066190Y-11813476D01*
X15161429Y-11813476D02*
X15161429Y-11680143D01*
X15161429Y-11699190D02*
X15170952Y-11689667D01*
X15170952Y-11689667D02*
X15190000Y-11680143D01*
X15190000Y-11680143D02*
X15218571Y-11680143D01*
X15218571Y-11680143D02*
X15237619Y-11689667D01*
X15237619Y-11689667D02*
X15247143Y-11708714D01*
X15247143Y-11708714D02*
X15247143Y-11813476D01*
X15247143Y-11708714D02*
X15256667Y-11689667D01*
X15256667Y-11689667D02*
X15275714Y-11680143D01*
X15275714Y-11680143D02*
X15304286Y-11680143D01*
X15304286Y-11680143D02*
X15323333Y-11689667D01*
X15323333Y-11689667D02*
X15332857Y-11708714D01*
X15332857Y-11708714D02*
X15332857Y-11813476D01*
X15690952Y-11603952D02*
X15519524Y-11861095D01*
X15915714Y-11613476D02*
X15934762Y-11613476D01*
X15934762Y-11613476D02*
X15953810Y-11623000D01*
X15953810Y-11623000D02*
X15963333Y-11632524D01*
X15963333Y-11632524D02*
X15972857Y-11651571D01*
X15972857Y-11651571D02*
X15982381Y-11689667D01*
X15982381Y-11689667D02*
X15982381Y-11737286D01*
X15982381Y-11737286D02*
X15972857Y-11775381D01*
X15972857Y-11775381D02*
X15963333Y-11794428D01*
X15963333Y-11794428D02*
X15953810Y-11803952D01*
X15953810Y-11803952D02*
X15934762Y-11813476D01*
X15934762Y-11813476D02*
X15915714Y-11813476D01*
X15915714Y-11813476D02*
X15896667Y-11803952D01*
X15896667Y-11803952D02*
X15887143Y-11794428D01*
X15887143Y-11794428D02*
X15877619Y-11775381D01*
X15877619Y-11775381D02*
X15868095Y-11737286D01*
X15868095Y-11737286D02*
X15868095Y-11689667D01*
X15868095Y-11689667D02*
X15877619Y-11651571D01*
X15877619Y-11651571D02*
X15887143Y-11632524D01*
X15887143Y-11632524D02*
X15896667Y-11623000D01*
X15896667Y-11623000D02*
X15915714Y-11613476D01*
X16068095Y-11794428D02*
X16077619Y-11803952D01*
X16077619Y-11803952D02*
X16068095Y-11813476D01*
X16068095Y-11813476D02*
X16058571Y-11803952D01*
X16058571Y-11803952D02*
X16068095Y-11794428D01*
X16068095Y-11794428D02*
X16068095Y-11813476D01*
X16201429Y-11613476D02*
X16220476Y-11613476D01*
X16220476Y-11613476D02*
X16239524Y-11623000D01*
X16239524Y-11623000D02*
X16249048Y-11632524D01*
X16249048Y-11632524D02*
X16258571Y-11651571D01*
X16258571Y-11651571D02*
X16268095Y-11689667D01*
X16268095Y-11689667D02*
X16268095Y-11737286D01*
X16268095Y-11737286D02*
X16258571Y-11775381D01*
X16258571Y-11775381D02*
X16249048Y-11794428D01*
X16249048Y-11794428D02*
X16239524Y-11803952D01*
X16239524Y-11803952D02*
X16220476Y-11813476D01*
X16220476Y-11813476D02*
X16201429Y-11813476D01*
X16201429Y-11813476D02*
X16182381Y-11803952D01*
X16182381Y-11803952D02*
X16172857Y-11794428D01*
X16172857Y-11794428D02*
X16163333Y-11775381D01*
X16163333Y-11775381D02*
X16153810Y-11737286D01*
X16153810Y-11737286D02*
X16153810Y-11689667D01*
X16153810Y-11689667D02*
X16163333Y-11651571D01*
X16163333Y-11651571D02*
X16172857Y-11632524D01*
X16172857Y-11632524D02*
X16182381Y-11623000D01*
X16182381Y-11623000D02*
X16201429Y-11613476D01*
X16334762Y-11613476D02*
X16458571Y-11613476D01*
X16458571Y-11613476D02*
X16391905Y-11689667D01*
X16391905Y-11689667D02*
X16420476Y-11689667D01*
X16420476Y-11689667D02*
X16439524Y-11699190D01*
X16439524Y-11699190D02*
X16449048Y-11708714D01*
X16449048Y-11708714D02*
X16458571Y-11727762D01*
X16458571Y-11727762D02*
X16458571Y-11775381D01*
X16458571Y-11775381D02*
X16449048Y-11794428D01*
X16449048Y-11794428D02*
X16439524Y-11803952D01*
X16439524Y-11803952D02*
X16420476Y-11813476D01*
X16420476Y-11813476D02*
X16363333Y-11813476D01*
X16363333Y-11813476D02*
X16344286Y-11803952D01*
X16344286Y-11803952D02*
X16334762Y-11794428D01*
X16649048Y-11813476D02*
X16534762Y-11813476D01*
X16591905Y-11813476D02*
X16591905Y-11613476D01*
X16591905Y-11613476D02*
X16572857Y-11642048D01*
X16572857Y-11642048D02*
X16553810Y-11661095D01*
X16553810Y-11661095D02*
X16534762Y-11670619D01*
X16830000Y-11613476D02*
X16734762Y-11613476D01*
X16734762Y-11613476D02*
X16725238Y-11708714D01*
X16725238Y-11708714D02*
X16734762Y-11699190D01*
X16734762Y-11699190D02*
X16753810Y-11689667D01*
X16753810Y-11689667D02*
X16801429Y-11689667D01*
X16801429Y-11689667D02*
X16820476Y-11699190D01*
X16820476Y-11699190D02*
X16830000Y-11708714D01*
X16830000Y-11708714D02*
X16839524Y-11727762D01*
X16839524Y-11727762D02*
X16839524Y-11775381D01*
X16839524Y-11775381D02*
X16830000Y-11794428D01*
X16830000Y-11794428D02*
X16820476Y-11803952D01*
X16820476Y-11803952D02*
X16801429Y-11813476D01*
X16801429Y-11813476D02*
X16753810Y-11813476D01*
X16753810Y-11813476D02*
X16734762Y-11803952D01*
X16734762Y-11803952D02*
X16725238Y-11794428D01*
X16915714Y-11613476D02*
X16915714Y-11651571D01*
X16991905Y-11613476D02*
X16991905Y-11651571D01*
X17254762Y-11889667D02*
X17245238Y-11880143D01*
X17245238Y-11880143D02*
X17226191Y-11851571D01*
X17226191Y-11851571D02*
X17216667Y-11832524D01*
X17216667Y-11832524D02*
X17207143Y-11803952D01*
X17207143Y-11803952D02*
X17197619Y-11756333D01*
X17197619Y-11756333D02*
X17197619Y-11718238D01*
X17197619Y-11718238D02*
X17207143Y-11670619D01*
X17207143Y-11670619D02*
X17216667Y-11642048D01*
X17216667Y-11642048D02*
X17226191Y-11623000D01*
X17226191Y-11623000D02*
X17245238Y-11594428D01*
X17245238Y-11594428D02*
X17254762Y-11584905D01*
X17435714Y-11813476D02*
X17321429Y-11813476D01*
X17378572Y-11813476D02*
X17378572Y-11613476D01*
X17378572Y-11613476D02*
X17359524Y-11642048D01*
X17359524Y-11642048D02*
X17340476Y-11661095D01*
X17340476Y-11661095D02*
X17321429Y-11670619D01*
X17641429Y-11813476D02*
X17641429Y-11613476D01*
X17727143Y-11813476D02*
X17727143Y-11708714D01*
X17727143Y-11708714D02*
X17717619Y-11689667D01*
X17717619Y-11689667D02*
X17698572Y-11680143D01*
X17698572Y-11680143D02*
X17670000Y-11680143D01*
X17670000Y-11680143D02*
X17650953Y-11689667D01*
X17650953Y-11689667D02*
X17641429Y-11699190D01*
X17850953Y-11813476D02*
X17831905Y-11803952D01*
X17831905Y-11803952D02*
X17822381Y-11794428D01*
X17822381Y-11794428D02*
X17812857Y-11775381D01*
X17812857Y-11775381D02*
X17812857Y-11718238D01*
X17812857Y-11718238D02*
X17822381Y-11699190D01*
X17822381Y-11699190D02*
X17831905Y-11689667D01*
X17831905Y-11689667D02*
X17850953Y-11680143D01*
X17850953Y-11680143D02*
X17879524Y-11680143D01*
X17879524Y-11680143D02*
X17898572Y-11689667D01*
X17898572Y-11689667D02*
X17908095Y-11699190D01*
X17908095Y-11699190D02*
X17917619Y-11718238D01*
X17917619Y-11718238D02*
X17917619Y-11775381D01*
X17917619Y-11775381D02*
X17908095Y-11794428D01*
X17908095Y-11794428D02*
X17898572Y-11803952D01*
X17898572Y-11803952D02*
X17879524Y-11813476D01*
X17879524Y-11813476D02*
X17850953Y-11813476D01*
X18031905Y-11813476D02*
X18012857Y-11803952D01*
X18012857Y-11803952D02*
X18003334Y-11784905D01*
X18003334Y-11784905D02*
X18003334Y-11613476D01*
X18184286Y-11803952D02*
X18165238Y-11813476D01*
X18165238Y-11813476D02*
X18127143Y-11813476D01*
X18127143Y-11813476D02*
X18108095Y-11803952D01*
X18108095Y-11803952D02*
X18098572Y-11784905D01*
X18098572Y-11784905D02*
X18098572Y-11708714D01*
X18098572Y-11708714D02*
X18108095Y-11689667D01*
X18108095Y-11689667D02*
X18127143Y-11680143D01*
X18127143Y-11680143D02*
X18165238Y-11680143D01*
X18165238Y-11680143D02*
X18184286Y-11689667D01*
X18184286Y-11689667D02*
X18193810Y-11708714D01*
X18193810Y-11708714D02*
X18193810Y-11727762D01*
X18193810Y-11727762D02*
X18098572Y-11746809D01*
X18260476Y-11889667D02*
X18270000Y-11880143D01*
X18270000Y-11880143D02*
X18289048Y-11851571D01*
X18289048Y-11851571D02*
X18298572Y-11832524D01*
X18298572Y-11832524D02*
X18308095Y-11803952D01*
X18308095Y-11803952D02*
X18317619Y-11756333D01*
X18317619Y-11756333D02*
X18317619Y-11718238D01*
X18317619Y-11718238D02*
X18308095Y-11670619D01*
X18308095Y-11670619D02*
X18298572Y-11642048D01*
X18298572Y-11642048D02*
X18289048Y-11623000D01*
X18289048Y-11623000D02*
X18270000Y-11594428D01*
X18270000Y-11594428D02*
X18260476Y-11584905D01*
X18590000Y-11889667D02*
X18580476Y-11880143D01*
X18580476Y-11880143D02*
X18561429Y-11851571D01*
X18561429Y-11851571D02*
X18551905Y-11832524D01*
X18551905Y-11832524D02*
X18542381Y-11803952D01*
X18542381Y-11803952D02*
X18532857Y-11756333D01*
X18532857Y-11756333D02*
X18532857Y-11718238D01*
X18532857Y-11718238D02*
X18542381Y-11670619D01*
X18542381Y-11670619D02*
X18551905Y-11642048D01*
X18551905Y-11642048D02*
X18561429Y-11623000D01*
X18561429Y-11623000D02*
X18580476Y-11594428D01*
X18580476Y-11594428D02*
X18590000Y-11584905D01*
X18666191Y-11680143D02*
X18666191Y-11813476D01*
X18666191Y-11699190D02*
X18675714Y-11689667D01*
X18675714Y-11689667D02*
X18694762Y-11680143D01*
X18694762Y-11680143D02*
X18723334Y-11680143D01*
X18723334Y-11680143D02*
X18742381Y-11689667D01*
X18742381Y-11689667D02*
X18751905Y-11708714D01*
X18751905Y-11708714D02*
X18751905Y-11813476D01*
X18875714Y-11813476D02*
X18856667Y-11803952D01*
X18856667Y-11803952D02*
X18847143Y-11794428D01*
X18847143Y-11794428D02*
X18837619Y-11775381D01*
X18837619Y-11775381D02*
X18837619Y-11718238D01*
X18837619Y-11718238D02*
X18847143Y-11699190D01*
X18847143Y-11699190D02*
X18856667Y-11689667D01*
X18856667Y-11689667D02*
X18875714Y-11680143D01*
X18875714Y-11680143D02*
X18904286Y-11680143D01*
X18904286Y-11680143D02*
X18923334Y-11689667D01*
X18923334Y-11689667D02*
X18932857Y-11699190D01*
X18932857Y-11699190D02*
X18942381Y-11718238D01*
X18942381Y-11718238D02*
X18942381Y-11775381D01*
X18942381Y-11775381D02*
X18932857Y-11794428D01*
X18932857Y-11794428D02*
X18923334Y-11803952D01*
X18923334Y-11803952D02*
X18904286Y-11813476D01*
X18904286Y-11813476D02*
X18875714Y-11813476D01*
X18999524Y-11680143D02*
X19075714Y-11680143D01*
X19028095Y-11613476D02*
X19028095Y-11784905D01*
X19028095Y-11784905D02*
X19037619Y-11803952D01*
X19037619Y-11803952D02*
X19056667Y-11813476D01*
X19056667Y-11813476D02*
X19075714Y-11813476D01*
X19262381Y-11680143D02*
X19262381Y-11880143D01*
X19262381Y-11689667D02*
X19281429Y-11680143D01*
X19281429Y-11680143D02*
X19319524Y-11680143D01*
X19319524Y-11680143D02*
X19338572Y-11689667D01*
X19338572Y-11689667D02*
X19348095Y-11699190D01*
X19348095Y-11699190D02*
X19357619Y-11718238D01*
X19357619Y-11718238D02*
X19357619Y-11775381D01*
X19357619Y-11775381D02*
X19348095Y-11794428D01*
X19348095Y-11794428D02*
X19338572Y-11803952D01*
X19338572Y-11803952D02*
X19319524Y-11813476D01*
X19319524Y-11813476D02*
X19281429Y-11813476D01*
X19281429Y-11813476D02*
X19262381Y-11803952D01*
X19471905Y-11813476D02*
X19452857Y-11803952D01*
X19452857Y-11803952D02*
X19443334Y-11784905D01*
X19443334Y-11784905D02*
X19443334Y-11613476D01*
X19633810Y-11813476D02*
X19633810Y-11708714D01*
X19633810Y-11708714D02*
X19624286Y-11689667D01*
X19624286Y-11689667D02*
X19605238Y-11680143D01*
X19605238Y-11680143D02*
X19567143Y-11680143D01*
X19567143Y-11680143D02*
X19548095Y-11689667D01*
X19633810Y-11803952D02*
X19614762Y-11813476D01*
X19614762Y-11813476D02*
X19567143Y-11813476D01*
X19567143Y-11813476D02*
X19548095Y-11803952D01*
X19548095Y-11803952D02*
X19538572Y-11784905D01*
X19538572Y-11784905D02*
X19538572Y-11765857D01*
X19538572Y-11765857D02*
X19548095Y-11746809D01*
X19548095Y-11746809D02*
X19567143Y-11737286D01*
X19567143Y-11737286D02*
X19614762Y-11737286D01*
X19614762Y-11737286D02*
X19633810Y-11727762D01*
X19700476Y-11680143D02*
X19776667Y-11680143D01*
X19729048Y-11613476D02*
X19729048Y-11784905D01*
X19729048Y-11784905D02*
X19738572Y-11803952D01*
X19738572Y-11803952D02*
X19757619Y-11813476D01*
X19757619Y-11813476D02*
X19776667Y-11813476D01*
X19919524Y-11803952D02*
X19900476Y-11813476D01*
X19900476Y-11813476D02*
X19862381Y-11813476D01*
X19862381Y-11813476D02*
X19843334Y-11803952D01*
X19843334Y-11803952D02*
X19833810Y-11784905D01*
X19833810Y-11784905D02*
X19833810Y-11708714D01*
X19833810Y-11708714D02*
X19843334Y-11689667D01*
X19843334Y-11689667D02*
X19862381Y-11680143D01*
X19862381Y-11680143D02*
X19900476Y-11680143D01*
X19900476Y-11680143D02*
X19919524Y-11689667D01*
X19919524Y-11689667D02*
X19929048Y-11708714D01*
X19929048Y-11708714D02*
X19929048Y-11727762D01*
X19929048Y-11727762D02*
X19833810Y-11746809D01*
X20100476Y-11813476D02*
X20100476Y-11613476D01*
X20100476Y-11803952D02*
X20081429Y-11813476D01*
X20081429Y-11813476D02*
X20043334Y-11813476D01*
X20043334Y-11813476D02*
X20024286Y-11803952D01*
X20024286Y-11803952D02*
X20014762Y-11794428D01*
X20014762Y-11794428D02*
X20005238Y-11775381D01*
X20005238Y-11775381D02*
X20005238Y-11718238D01*
X20005238Y-11718238D02*
X20014762Y-11699190D01*
X20014762Y-11699190D02*
X20024286Y-11689667D01*
X20024286Y-11689667D02*
X20043334Y-11680143D01*
X20043334Y-11680143D02*
X20081429Y-11680143D01*
X20081429Y-11680143D02*
X20100476Y-11689667D01*
X20176667Y-11889667D02*
X20186191Y-11880143D01*
X20186191Y-11880143D02*
X20205238Y-11851571D01*
X20205238Y-11851571D02*
X20214762Y-11832524D01*
X20214762Y-11832524D02*
X20224286Y-11803952D01*
X20224286Y-11803952D02*
X20233810Y-11756333D01*
X20233810Y-11756333D02*
X20233810Y-11718238D01*
X20233810Y-11718238D02*
X20224286Y-11670619D01*
X20224286Y-11670619D02*
X20214762Y-11642048D01*
X20214762Y-11642048D02*
X20205238Y-11623000D01*
X20205238Y-11623000D02*
X20186191Y-11594428D01*
X20186191Y-11594428D02*
X20176667Y-11584905D01*
D13*
X13790000Y-12004000D02*
G75*
G03*
X13790000Y-12004000I-49530J0D01*
G01*
D11*
X14075714Y-11877476D02*
X14094762Y-11877476D01*
X14094762Y-11877476D02*
X14113809Y-11887000D01*
X14113809Y-11887000D02*
X14123333Y-11896524D01*
X14123333Y-11896524D02*
X14132857Y-11915571D01*
X14132857Y-11915571D02*
X14142381Y-11953667D01*
X14142381Y-11953667D02*
X14142381Y-12001286D01*
X14142381Y-12001286D02*
X14132857Y-12039381D01*
X14132857Y-12039381D02*
X14123333Y-12058428D01*
X14123333Y-12058428D02*
X14113809Y-12067952D01*
X14113809Y-12067952D02*
X14094762Y-12077476D01*
X14094762Y-12077476D02*
X14075714Y-12077476D01*
X14075714Y-12077476D02*
X14056667Y-12067952D01*
X14056667Y-12067952D02*
X14047143Y-12058428D01*
X14047143Y-12058428D02*
X14037619Y-12039381D01*
X14037619Y-12039381D02*
X14028095Y-12001286D01*
X14028095Y-12001286D02*
X14028095Y-11953667D01*
X14028095Y-11953667D02*
X14037619Y-11915571D01*
X14037619Y-11915571D02*
X14047143Y-11896524D01*
X14047143Y-11896524D02*
X14056667Y-11887000D01*
X14056667Y-11887000D02*
X14075714Y-11877476D01*
X14228095Y-12058428D02*
X14237619Y-12067952D01*
X14237619Y-12067952D02*
X14228095Y-12077476D01*
X14228095Y-12077476D02*
X14218571Y-12067952D01*
X14218571Y-12067952D02*
X14228095Y-12058428D01*
X14228095Y-12058428D02*
X14228095Y-12077476D01*
X14332857Y-12077476D02*
X14370952Y-12077476D01*
X14370952Y-12077476D02*
X14390000Y-12067952D01*
X14390000Y-12067952D02*
X14399524Y-12058428D01*
X14399524Y-12058428D02*
X14418571Y-12029857D01*
X14418571Y-12029857D02*
X14428095Y-11991762D01*
X14428095Y-11991762D02*
X14428095Y-11915571D01*
X14428095Y-11915571D02*
X14418571Y-11896524D01*
X14418571Y-11896524D02*
X14409048Y-11887000D01*
X14409048Y-11887000D02*
X14390000Y-11877476D01*
X14390000Y-11877476D02*
X14351905Y-11877476D01*
X14351905Y-11877476D02*
X14332857Y-11887000D01*
X14332857Y-11887000D02*
X14323333Y-11896524D01*
X14323333Y-11896524D02*
X14313809Y-11915571D01*
X14313809Y-11915571D02*
X14313809Y-11963190D01*
X14313809Y-11963190D02*
X14323333Y-11982238D01*
X14323333Y-11982238D02*
X14332857Y-11991762D01*
X14332857Y-11991762D02*
X14351905Y-12001286D01*
X14351905Y-12001286D02*
X14390000Y-12001286D01*
X14390000Y-12001286D02*
X14409048Y-11991762D01*
X14409048Y-11991762D02*
X14418571Y-11982238D01*
X14418571Y-11982238D02*
X14428095Y-11963190D01*
X14523333Y-12077476D02*
X14561428Y-12077476D01*
X14561428Y-12077476D02*
X14580476Y-12067952D01*
X14580476Y-12067952D02*
X14590000Y-12058428D01*
X14590000Y-12058428D02*
X14609048Y-12029857D01*
X14609048Y-12029857D02*
X14618571Y-11991762D01*
X14618571Y-11991762D02*
X14618571Y-11915571D01*
X14618571Y-11915571D02*
X14609048Y-11896524D01*
X14609048Y-11896524D02*
X14599524Y-11887000D01*
X14599524Y-11887000D02*
X14580476Y-11877476D01*
X14580476Y-11877476D02*
X14542381Y-11877476D01*
X14542381Y-11877476D02*
X14523333Y-11887000D01*
X14523333Y-11887000D02*
X14513809Y-11896524D01*
X14513809Y-11896524D02*
X14504286Y-11915571D01*
X14504286Y-11915571D02*
X14504286Y-11963190D01*
X14504286Y-11963190D02*
X14513809Y-11982238D01*
X14513809Y-11982238D02*
X14523333Y-11991762D01*
X14523333Y-11991762D02*
X14542381Y-12001286D01*
X14542381Y-12001286D02*
X14580476Y-12001286D01*
X14580476Y-12001286D02*
X14599524Y-11991762D01*
X14599524Y-11991762D02*
X14609048Y-11982238D01*
X14609048Y-11982238D02*
X14618571Y-11963190D01*
X14809048Y-12077476D02*
X14694762Y-12077476D01*
X14751905Y-12077476D02*
X14751905Y-11877476D01*
X14751905Y-11877476D02*
X14732857Y-11906048D01*
X14732857Y-11906048D02*
X14713809Y-11925095D01*
X14713809Y-11925095D02*
X14694762Y-11934619D01*
X14894762Y-12077476D02*
X14894762Y-11944143D01*
X14894762Y-11963190D02*
X14904286Y-11953667D01*
X14904286Y-11953667D02*
X14923333Y-11944143D01*
X14923333Y-11944143D02*
X14951905Y-11944143D01*
X14951905Y-11944143D02*
X14970952Y-11953667D01*
X14970952Y-11953667D02*
X14980476Y-11972714D01*
X14980476Y-11972714D02*
X14980476Y-12077476D01*
X14980476Y-11972714D02*
X14990000Y-11953667D01*
X14990000Y-11953667D02*
X15009048Y-11944143D01*
X15009048Y-11944143D02*
X15037619Y-11944143D01*
X15037619Y-11944143D02*
X15056667Y-11953667D01*
X15056667Y-11953667D02*
X15066190Y-11972714D01*
X15066190Y-11972714D02*
X15066190Y-12077476D01*
X15161429Y-12077476D02*
X15161429Y-11944143D01*
X15161429Y-11963190D02*
X15170952Y-11953667D01*
X15170952Y-11953667D02*
X15190000Y-11944143D01*
X15190000Y-11944143D02*
X15218571Y-11944143D01*
X15218571Y-11944143D02*
X15237619Y-11953667D01*
X15237619Y-11953667D02*
X15247143Y-11972714D01*
X15247143Y-11972714D02*
X15247143Y-12077476D01*
X15247143Y-11972714D02*
X15256667Y-11953667D01*
X15256667Y-11953667D02*
X15275714Y-11944143D01*
X15275714Y-11944143D02*
X15304286Y-11944143D01*
X15304286Y-11944143D02*
X15323333Y-11953667D01*
X15323333Y-11953667D02*
X15332857Y-11972714D01*
X15332857Y-11972714D02*
X15332857Y-12077476D01*
X15690952Y-11867952D02*
X15519524Y-12125095D01*
X15915714Y-11877476D02*
X15934762Y-11877476D01*
X15934762Y-11877476D02*
X15953810Y-11887000D01*
X15953810Y-11887000D02*
X15963333Y-11896524D01*
X15963333Y-11896524D02*
X15972857Y-11915571D01*
X15972857Y-11915571D02*
X15982381Y-11953667D01*
X15982381Y-11953667D02*
X15982381Y-12001286D01*
X15982381Y-12001286D02*
X15972857Y-12039381D01*
X15972857Y-12039381D02*
X15963333Y-12058428D01*
X15963333Y-12058428D02*
X15953810Y-12067952D01*
X15953810Y-12067952D02*
X15934762Y-12077476D01*
X15934762Y-12077476D02*
X15915714Y-12077476D01*
X15915714Y-12077476D02*
X15896667Y-12067952D01*
X15896667Y-12067952D02*
X15887143Y-12058428D01*
X15887143Y-12058428D02*
X15877619Y-12039381D01*
X15877619Y-12039381D02*
X15868095Y-12001286D01*
X15868095Y-12001286D02*
X15868095Y-11953667D01*
X15868095Y-11953667D02*
X15877619Y-11915571D01*
X15877619Y-11915571D02*
X15887143Y-11896524D01*
X15887143Y-11896524D02*
X15896667Y-11887000D01*
X15896667Y-11887000D02*
X15915714Y-11877476D01*
X16068095Y-12058428D02*
X16077619Y-12067952D01*
X16077619Y-12067952D02*
X16068095Y-12077476D01*
X16068095Y-12077476D02*
X16058571Y-12067952D01*
X16058571Y-12067952D02*
X16068095Y-12058428D01*
X16068095Y-12058428D02*
X16068095Y-12077476D01*
X16201429Y-11877476D02*
X16220476Y-11877476D01*
X16220476Y-11877476D02*
X16239524Y-11887000D01*
X16239524Y-11887000D02*
X16249048Y-11896524D01*
X16249048Y-11896524D02*
X16258571Y-11915571D01*
X16258571Y-11915571D02*
X16268095Y-11953667D01*
X16268095Y-11953667D02*
X16268095Y-12001286D01*
X16268095Y-12001286D02*
X16258571Y-12039381D01*
X16258571Y-12039381D02*
X16249048Y-12058428D01*
X16249048Y-12058428D02*
X16239524Y-12067952D01*
X16239524Y-12067952D02*
X16220476Y-12077476D01*
X16220476Y-12077476D02*
X16201429Y-12077476D01*
X16201429Y-12077476D02*
X16182381Y-12067952D01*
X16182381Y-12067952D02*
X16172857Y-12058428D01*
X16172857Y-12058428D02*
X16163333Y-12039381D01*
X16163333Y-12039381D02*
X16153810Y-12001286D01*
X16153810Y-12001286D02*
X16153810Y-11953667D01*
X16153810Y-11953667D02*
X16163333Y-11915571D01*
X16163333Y-11915571D02*
X16172857Y-11896524D01*
X16172857Y-11896524D02*
X16182381Y-11887000D01*
X16182381Y-11887000D02*
X16201429Y-11877476D01*
X16334762Y-11877476D02*
X16458571Y-11877476D01*
X16458571Y-11877476D02*
X16391905Y-11953667D01*
X16391905Y-11953667D02*
X16420476Y-11953667D01*
X16420476Y-11953667D02*
X16439524Y-11963190D01*
X16439524Y-11963190D02*
X16449048Y-11972714D01*
X16449048Y-11972714D02*
X16458571Y-11991762D01*
X16458571Y-11991762D02*
X16458571Y-12039381D01*
X16458571Y-12039381D02*
X16449048Y-12058428D01*
X16449048Y-12058428D02*
X16439524Y-12067952D01*
X16439524Y-12067952D02*
X16420476Y-12077476D01*
X16420476Y-12077476D02*
X16363333Y-12077476D01*
X16363333Y-12077476D02*
X16344286Y-12067952D01*
X16344286Y-12067952D02*
X16334762Y-12058428D01*
X16553810Y-12077476D02*
X16591905Y-12077476D01*
X16591905Y-12077476D02*
X16610952Y-12067952D01*
X16610952Y-12067952D02*
X16620476Y-12058428D01*
X16620476Y-12058428D02*
X16639524Y-12029857D01*
X16639524Y-12029857D02*
X16649048Y-11991762D01*
X16649048Y-11991762D02*
X16649048Y-11915571D01*
X16649048Y-11915571D02*
X16639524Y-11896524D01*
X16639524Y-11896524D02*
X16630000Y-11887000D01*
X16630000Y-11887000D02*
X16610952Y-11877476D01*
X16610952Y-11877476D02*
X16572857Y-11877476D01*
X16572857Y-11877476D02*
X16553810Y-11887000D01*
X16553810Y-11887000D02*
X16544286Y-11896524D01*
X16544286Y-11896524D02*
X16534762Y-11915571D01*
X16534762Y-11915571D02*
X16534762Y-11963190D01*
X16534762Y-11963190D02*
X16544286Y-11982238D01*
X16544286Y-11982238D02*
X16553810Y-11991762D01*
X16553810Y-11991762D02*
X16572857Y-12001286D01*
X16572857Y-12001286D02*
X16610952Y-12001286D01*
X16610952Y-12001286D02*
X16630000Y-11991762D01*
X16630000Y-11991762D02*
X16639524Y-11982238D01*
X16639524Y-11982238D02*
X16649048Y-11963190D01*
X16772857Y-11877476D02*
X16791905Y-11877476D01*
X16791905Y-11877476D02*
X16810953Y-11887000D01*
X16810953Y-11887000D02*
X16820476Y-11896524D01*
X16820476Y-11896524D02*
X16830000Y-11915571D01*
X16830000Y-11915571D02*
X16839524Y-11953667D01*
X16839524Y-11953667D02*
X16839524Y-12001286D01*
X16839524Y-12001286D02*
X16830000Y-12039381D01*
X16830000Y-12039381D02*
X16820476Y-12058428D01*
X16820476Y-12058428D02*
X16810953Y-12067952D01*
X16810953Y-12067952D02*
X16791905Y-12077476D01*
X16791905Y-12077476D02*
X16772857Y-12077476D01*
X16772857Y-12077476D02*
X16753810Y-12067952D01*
X16753810Y-12067952D02*
X16744286Y-12058428D01*
X16744286Y-12058428D02*
X16734762Y-12039381D01*
X16734762Y-12039381D02*
X16725238Y-12001286D01*
X16725238Y-12001286D02*
X16725238Y-11953667D01*
X16725238Y-11953667D02*
X16734762Y-11915571D01*
X16734762Y-11915571D02*
X16744286Y-11896524D01*
X16744286Y-11896524D02*
X16753810Y-11887000D01*
X16753810Y-11887000D02*
X16772857Y-11877476D01*
X16915714Y-11877476D02*
X16915714Y-11915571D01*
X16991905Y-11877476D02*
X16991905Y-11915571D01*
X17254762Y-12153667D02*
X17245238Y-12144143D01*
X17245238Y-12144143D02*
X17226191Y-12115571D01*
X17226191Y-12115571D02*
X17216667Y-12096524D01*
X17216667Y-12096524D02*
X17207143Y-12067952D01*
X17207143Y-12067952D02*
X17197619Y-12020333D01*
X17197619Y-12020333D02*
X17197619Y-11982238D01*
X17197619Y-11982238D02*
X17207143Y-11934619D01*
X17207143Y-11934619D02*
X17216667Y-11906048D01*
X17216667Y-11906048D02*
X17226191Y-11887000D01*
X17226191Y-11887000D02*
X17245238Y-11858428D01*
X17245238Y-11858428D02*
X17254762Y-11848905D01*
X17311905Y-11877476D02*
X17435714Y-11877476D01*
X17435714Y-11877476D02*
X17369048Y-11953667D01*
X17369048Y-11953667D02*
X17397619Y-11953667D01*
X17397619Y-11953667D02*
X17416667Y-11963190D01*
X17416667Y-11963190D02*
X17426191Y-11972714D01*
X17426191Y-11972714D02*
X17435714Y-11991762D01*
X17435714Y-11991762D02*
X17435714Y-12039381D01*
X17435714Y-12039381D02*
X17426191Y-12058428D01*
X17426191Y-12058428D02*
X17416667Y-12067952D01*
X17416667Y-12067952D02*
X17397619Y-12077476D01*
X17397619Y-12077476D02*
X17340476Y-12077476D01*
X17340476Y-12077476D02*
X17321429Y-12067952D01*
X17321429Y-12067952D02*
X17311905Y-12058428D01*
X17641429Y-12077476D02*
X17641429Y-11877476D01*
X17727143Y-12077476D02*
X17727143Y-11972714D01*
X17727143Y-11972714D02*
X17717619Y-11953667D01*
X17717619Y-11953667D02*
X17698572Y-11944143D01*
X17698572Y-11944143D02*
X17670000Y-11944143D01*
X17670000Y-11944143D02*
X17650953Y-11953667D01*
X17650953Y-11953667D02*
X17641429Y-11963190D01*
X17850953Y-12077476D02*
X17831905Y-12067952D01*
X17831905Y-12067952D02*
X17822381Y-12058428D01*
X17822381Y-12058428D02*
X17812857Y-12039381D01*
X17812857Y-12039381D02*
X17812857Y-11982238D01*
X17812857Y-11982238D02*
X17822381Y-11963190D01*
X17822381Y-11963190D02*
X17831905Y-11953667D01*
X17831905Y-11953667D02*
X17850953Y-11944143D01*
X17850953Y-11944143D02*
X17879524Y-11944143D01*
X17879524Y-11944143D02*
X17898572Y-11953667D01*
X17898572Y-11953667D02*
X17908095Y-11963190D01*
X17908095Y-11963190D02*
X17917619Y-11982238D01*
X17917619Y-11982238D02*
X17917619Y-12039381D01*
X17917619Y-12039381D02*
X17908095Y-12058428D01*
X17908095Y-12058428D02*
X17898572Y-12067952D01*
X17898572Y-12067952D02*
X17879524Y-12077476D01*
X17879524Y-12077476D02*
X17850953Y-12077476D01*
X18031905Y-12077476D02*
X18012857Y-12067952D01*
X18012857Y-12067952D02*
X18003334Y-12048905D01*
X18003334Y-12048905D02*
X18003334Y-11877476D01*
X18184286Y-12067952D02*
X18165238Y-12077476D01*
X18165238Y-12077476D02*
X18127143Y-12077476D01*
X18127143Y-12077476D02*
X18108095Y-12067952D01*
X18108095Y-12067952D02*
X18098572Y-12048905D01*
X18098572Y-12048905D02*
X18098572Y-11972714D01*
X18098572Y-11972714D02*
X18108095Y-11953667D01*
X18108095Y-11953667D02*
X18127143Y-11944143D01*
X18127143Y-11944143D02*
X18165238Y-11944143D01*
X18165238Y-11944143D02*
X18184286Y-11953667D01*
X18184286Y-11953667D02*
X18193810Y-11972714D01*
X18193810Y-11972714D02*
X18193810Y-11991762D01*
X18193810Y-11991762D02*
X18098572Y-12010809D01*
X18270000Y-12067952D02*
X18289048Y-12077476D01*
X18289048Y-12077476D02*
X18327143Y-12077476D01*
X18327143Y-12077476D02*
X18346191Y-12067952D01*
X18346191Y-12067952D02*
X18355715Y-12048905D01*
X18355715Y-12048905D02*
X18355715Y-12039381D01*
X18355715Y-12039381D02*
X18346191Y-12020333D01*
X18346191Y-12020333D02*
X18327143Y-12010809D01*
X18327143Y-12010809D02*
X18298572Y-12010809D01*
X18298572Y-12010809D02*
X18279524Y-12001286D01*
X18279524Y-12001286D02*
X18270000Y-11982238D01*
X18270000Y-11982238D02*
X18270000Y-11972714D01*
X18270000Y-11972714D02*
X18279524Y-11953667D01*
X18279524Y-11953667D02*
X18298572Y-11944143D01*
X18298572Y-11944143D02*
X18327143Y-11944143D01*
X18327143Y-11944143D02*
X18346191Y-11953667D01*
X18422381Y-12153667D02*
X18431905Y-12144143D01*
X18431905Y-12144143D02*
X18450953Y-12115571D01*
X18450953Y-12115571D02*
X18460476Y-12096524D01*
X18460476Y-12096524D02*
X18470000Y-12067952D01*
X18470000Y-12067952D02*
X18479524Y-12020333D01*
X18479524Y-12020333D02*
X18479524Y-11982238D01*
X18479524Y-11982238D02*
X18470000Y-11934619D01*
X18470000Y-11934619D02*
X18460476Y-11906048D01*
X18460476Y-11906048D02*
X18450953Y-11887000D01*
X18450953Y-11887000D02*
X18431905Y-11858428D01*
X18431905Y-11858428D02*
X18422381Y-11848905D01*
X18751905Y-12153667D02*
X18742381Y-12144143D01*
X18742381Y-12144143D02*
X18723334Y-12115571D01*
X18723334Y-12115571D02*
X18713810Y-12096524D01*
X18713810Y-12096524D02*
X18704286Y-12067952D01*
X18704286Y-12067952D02*
X18694762Y-12020333D01*
X18694762Y-12020333D02*
X18694762Y-11982238D01*
X18694762Y-11982238D02*
X18704286Y-11934619D01*
X18704286Y-11934619D02*
X18713810Y-11906048D01*
X18713810Y-11906048D02*
X18723334Y-11887000D01*
X18723334Y-11887000D02*
X18742381Y-11858428D01*
X18742381Y-11858428D02*
X18751905Y-11848905D01*
X18828095Y-11944143D02*
X18828095Y-12077476D01*
X18828095Y-11963190D02*
X18837619Y-11953667D01*
X18837619Y-11953667D02*
X18856667Y-11944143D01*
X18856667Y-11944143D02*
X18885238Y-11944143D01*
X18885238Y-11944143D02*
X18904286Y-11953667D01*
X18904286Y-11953667D02*
X18913810Y-11972714D01*
X18913810Y-11972714D02*
X18913810Y-12077476D01*
X19037619Y-12077476D02*
X19018572Y-12067952D01*
X19018572Y-12067952D02*
X19009048Y-12058428D01*
X19009048Y-12058428D02*
X18999524Y-12039381D01*
X18999524Y-12039381D02*
X18999524Y-11982238D01*
X18999524Y-11982238D02*
X19009048Y-11963190D01*
X19009048Y-11963190D02*
X19018572Y-11953667D01*
X19018572Y-11953667D02*
X19037619Y-11944143D01*
X19037619Y-11944143D02*
X19066191Y-11944143D01*
X19066191Y-11944143D02*
X19085238Y-11953667D01*
X19085238Y-11953667D02*
X19094762Y-11963190D01*
X19094762Y-11963190D02*
X19104286Y-11982238D01*
X19104286Y-11982238D02*
X19104286Y-12039381D01*
X19104286Y-12039381D02*
X19094762Y-12058428D01*
X19094762Y-12058428D02*
X19085238Y-12067952D01*
X19085238Y-12067952D02*
X19066191Y-12077476D01*
X19066191Y-12077476D02*
X19037619Y-12077476D01*
X19161429Y-11944143D02*
X19237619Y-11944143D01*
X19190000Y-11877476D02*
X19190000Y-12048905D01*
X19190000Y-12048905D02*
X19199524Y-12067952D01*
X19199524Y-12067952D02*
X19218572Y-12077476D01*
X19218572Y-12077476D02*
X19237619Y-12077476D01*
X19424286Y-11944143D02*
X19424286Y-12144143D01*
X19424286Y-11953667D02*
X19443334Y-11944143D01*
X19443334Y-11944143D02*
X19481429Y-11944143D01*
X19481429Y-11944143D02*
X19500476Y-11953667D01*
X19500476Y-11953667D02*
X19510000Y-11963190D01*
X19510000Y-11963190D02*
X19519524Y-11982238D01*
X19519524Y-11982238D02*
X19519524Y-12039381D01*
X19519524Y-12039381D02*
X19510000Y-12058428D01*
X19510000Y-12058428D02*
X19500476Y-12067952D01*
X19500476Y-12067952D02*
X19481429Y-12077476D01*
X19481429Y-12077476D02*
X19443334Y-12077476D01*
X19443334Y-12077476D02*
X19424286Y-12067952D01*
X19633810Y-12077476D02*
X19614762Y-12067952D01*
X19614762Y-12067952D02*
X19605238Y-12048905D01*
X19605238Y-12048905D02*
X19605238Y-11877476D01*
X19795715Y-12077476D02*
X19795715Y-11972714D01*
X19795715Y-11972714D02*
X19786191Y-11953667D01*
X19786191Y-11953667D02*
X19767143Y-11944143D01*
X19767143Y-11944143D02*
X19729048Y-11944143D01*
X19729048Y-11944143D02*
X19710000Y-11953667D01*
X19795715Y-12067952D02*
X19776667Y-12077476D01*
X19776667Y-12077476D02*
X19729048Y-12077476D01*
X19729048Y-12077476D02*
X19710000Y-12067952D01*
X19710000Y-12067952D02*
X19700476Y-12048905D01*
X19700476Y-12048905D02*
X19700476Y-12029857D01*
X19700476Y-12029857D02*
X19710000Y-12010809D01*
X19710000Y-12010809D02*
X19729048Y-12001286D01*
X19729048Y-12001286D02*
X19776667Y-12001286D01*
X19776667Y-12001286D02*
X19795715Y-11991762D01*
X19862381Y-11944143D02*
X19938572Y-11944143D01*
X19890953Y-11877476D02*
X19890953Y-12048905D01*
X19890953Y-12048905D02*
X19900476Y-12067952D01*
X19900476Y-12067952D02*
X19919524Y-12077476D01*
X19919524Y-12077476D02*
X19938572Y-12077476D01*
X20081429Y-12067952D02*
X20062381Y-12077476D01*
X20062381Y-12077476D02*
X20024286Y-12077476D01*
X20024286Y-12077476D02*
X20005238Y-12067952D01*
X20005238Y-12067952D02*
X19995715Y-12048905D01*
X19995715Y-12048905D02*
X19995715Y-11972714D01*
X19995715Y-11972714D02*
X20005238Y-11953667D01*
X20005238Y-11953667D02*
X20024286Y-11944143D01*
X20024286Y-11944143D02*
X20062381Y-11944143D01*
X20062381Y-11944143D02*
X20081429Y-11953667D01*
X20081429Y-11953667D02*
X20090953Y-11972714D01*
X20090953Y-11972714D02*
X20090953Y-11991762D01*
X20090953Y-11991762D02*
X19995715Y-12010809D01*
X20262381Y-12077476D02*
X20262381Y-11877476D01*
X20262381Y-12067952D02*
X20243334Y-12077476D01*
X20243334Y-12077476D02*
X20205238Y-12077476D01*
X20205238Y-12077476D02*
X20186191Y-12067952D01*
X20186191Y-12067952D02*
X20176667Y-12058428D01*
X20176667Y-12058428D02*
X20167143Y-12039381D01*
X20167143Y-12039381D02*
X20167143Y-11982238D01*
X20167143Y-11982238D02*
X20176667Y-11963190D01*
X20176667Y-11963190D02*
X20186191Y-11953667D01*
X20186191Y-11953667D02*
X20205238Y-11944143D01*
X20205238Y-11944143D02*
X20243334Y-11944143D01*
X20243334Y-11944143D02*
X20262381Y-11953667D01*
X20338572Y-12153667D02*
X20348096Y-12144143D01*
X20348096Y-12144143D02*
X20367143Y-12115571D01*
X20367143Y-12115571D02*
X20376667Y-12096524D01*
X20376667Y-12096524D02*
X20386191Y-12067952D01*
X20386191Y-12067952D02*
X20395715Y-12020333D01*
X20395715Y-12020333D02*
X20395715Y-11982238D01*
X20395715Y-11982238D02*
X20386191Y-11934619D01*
X20386191Y-11934619D02*
X20376667Y-11906048D01*
X20376667Y-11906048D02*
X20367143Y-11887000D01*
X20367143Y-11887000D02*
X20348096Y-11858428D01*
X20348096Y-11858428D02*
X20338572Y-11848905D01*
M02*
