%TF.GenerationSoftware,KiCad,Pcbnew,(7.0.0-rc2-153-g7d6218acb4)*%
%TF.CreationDate,2023-02-19T16:48:31+08:00*%
%TF.ProjectId,RAK3172-M.2-2230-Mod,52414b33-3137-4322-9d4d-2e322d323233,rev?*%
%TF.SameCoordinates,Original*%
%TF.FileFunction,Drillmap*%
%TF.FilePolarity,Positive*%
%FSLAX45Y45*%
G04 Gerber Fmt 4.5, Leading zero omitted, Abs format (unit mm)*
G04 Created by KiCad (PCBNEW (7.0.0-rc2-153-g7d6218acb4)) date 2023-02-19 16:48:31*
%MOMM*%
%LPD*%
G01*
G04 APERTURE LIST*
%ADD10C,0.100000*%
%ADD11C,0.200000*%
%ADD12C,0.030000*%
%ADD13C,0.033020*%
%ADD14C,0.220000*%
G04 APERTURE END LIST*
D10*
X13795000Y-10697500D02*
X13795000Y-8097500D01*
X13795000Y-8097500D02*
X15995000Y-8097500D01*
X15995000Y-8097500D02*
X15995000Y-10697500D01*
D11*
D12*
X13835000Y-9904500D02*
X13865000Y-9934500D01*
X13865000Y-9904500D02*
X13835000Y-9934500D01*
X13850000Y-9452500D02*
X13880000Y-9482500D01*
X13880000Y-9452500D02*
X13850000Y-9482500D01*
X13853000Y-9258500D02*
X13883000Y-9288500D01*
X13883000Y-9258500D02*
X13853000Y-9288500D01*
X13860000Y-8665500D02*
X13890000Y-8695500D01*
X13890000Y-8665500D02*
X13860000Y-8695500D01*
X13870000Y-8182500D02*
X13900000Y-8212500D01*
X13900000Y-8182500D02*
X13870000Y-8212500D01*
X13870000Y-8542500D02*
X13900000Y-8572500D01*
X13900000Y-8542500D02*
X13870000Y-8572500D01*
X13875000Y-10597500D02*
X13905000Y-10627500D01*
X13905000Y-10597500D02*
X13875000Y-10627500D01*
X13880000Y-10282500D02*
X13910000Y-10312500D01*
X13910000Y-10282500D02*
X13880000Y-10312500D01*
X13950000Y-9457500D02*
X13980000Y-9487500D01*
X13980000Y-9457500D02*
X13950000Y-9487500D01*
X13980000Y-10282500D02*
X14010000Y-10312500D01*
X14010000Y-10282500D02*
X13980000Y-10312500D01*
X13995000Y-9507500D02*
X14025000Y-9537500D01*
X14025000Y-9507500D02*
X13995000Y-9537500D01*
X14070000Y-9262500D02*
X14100000Y-9292500D01*
X14100000Y-9262500D02*
X14070000Y-9292500D01*
X14090000Y-10282500D02*
X14120000Y-10312500D01*
X14120000Y-10282500D02*
X14090000Y-10312500D01*
X14120000Y-10642500D02*
X14150000Y-10672500D01*
X14150000Y-10642500D02*
X14120000Y-10672500D01*
X14140000Y-10532500D02*
X14170000Y-10562500D01*
X14170000Y-10532500D02*
X14140000Y-10562500D01*
X14160000Y-9362500D02*
X14190000Y-9392500D01*
X14190000Y-9362500D02*
X14160000Y-9392500D01*
X14160000Y-10362500D02*
X14190000Y-10392500D01*
X14190000Y-10362500D02*
X14160000Y-10392500D01*
X14160000Y-10442500D02*
X14190000Y-10472500D01*
X14190000Y-10442500D02*
X14160000Y-10472500D01*
X14190000Y-8542500D02*
X14220000Y-8572500D01*
X14220000Y-8542500D02*
X14190000Y-8572500D01*
X14200000Y-8182500D02*
X14230000Y-8212500D01*
X14230000Y-8182500D02*
X14200000Y-8212500D01*
X14220000Y-9287500D02*
X14250000Y-9317500D01*
X14250000Y-9287500D02*
X14220000Y-9317500D01*
X14225000Y-9572500D02*
X14255000Y-9602500D01*
X14255000Y-9572500D02*
X14225000Y-9602500D01*
X14225000Y-9632500D02*
X14255000Y-9662500D01*
X14255000Y-9632500D02*
X14225000Y-9662500D01*
X14230000Y-10652500D02*
X14260000Y-10682500D01*
X14260000Y-10652500D02*
X14230000Y-10682500D01*
X14237650Y-9092500D02*
X14267650Y-9122500D01*
X14267650Y-9092500D02*
X14237650Y-9122500D01*
X14240000Y-8972500D02*
X14270000Y-9002500D01*
X14270000Y-8972500D02*
X14240000Y-9002500D01*
X14240000Y-9032500D02*
X14270000Y-9062500D01*
X14270000Y-9032500D02*
X14240000Y-9062500D01*
X14240000Y-10362500D02*
X14270000Y-10392500D01*
X14270000Y-10362500D02*
X14240000Y-10392500D01*
X14240000Y-10442500D02*
X14270000Y-10472500D01*
X14270000Y-10442500D02*
X14240000Y-10472500D01*
X14260000Y-8482500D02*
X14290000Y-8512500D01*
X14290000Y-8482500D02*
X14260000Y-8512500D01*
X14280000Y-8192500D02*
X14310000Y-8222500D01*
X14310000Y-8192500D02*
X14280000Y-8222500D01*
X14320000Y-9732500D02*
X14350000Y-9762500D01*
X14350000Y-9732500D02*
X14320000Y-9762500D01*
X14320000Y-10322500D02*
X14350000Y-10352500D01*
X14350000Y-10322500D02*
X14320000Y-10352500D01*
X14330000Y-8262500D02*
X14360000Y-8292500D01*
X14360000Y-8262500D02*
X14330000Y-8292500D01*
X14360000Y-8622500D02*
X14390000Y-8652500D01*
X14390000Y-8622500D02*
X14360000Y-8652500D01*
X14415000Y-9177500D02*
X14445000Y-9207500D01*
X14445000Y-9177500D02*
X14415000Y-9207500D01*
X14420000Y-8262500D02*
X14450000Y-8292500D01*
X14450000Y-8262500D02*
X14420000Y-8292500D01*
X14420000Y-9002500D02*
X14450000Y-9032500D01*
X14450000Y-9002500D02*
X14420000Y-9032500D01*
X14420000Y-9962500D02*
X14450000Y-9992500D01*
X14450000Y-9962500D02*
X14420000Y-9992500D01*
X14420000Y-10652500D02*
X14450000Y-10682500D01*
X14450000Y-10652500D02*
X14420000Y-10682500D01*
X14430611Y-8796263D02*
X14460611Y-8826263D01*
X14460611Y-8796263D02*
X14430611Y-8826263D01*
X14440000Y-8452500D02*
X14470000Y-8482500D01*
X14470000Y-8452500D02*
X14440000Y-8482500D01*
X14440000Y-10432500D02*
X14470000Y-10462500D01*
X14470000Y-10432500D02*
X14440000Y-10462500D01*
X14490000Y-10652500D02*
X14520000Y-10682500D01*
X14520000Y-10652500D02*
X14490000Y-10682500D01*
X14510000Y-8262500D02*
X14540000Y-8292500D01*
X14540000Y-8262500D02*
X14510000Y-8292500D01*
X14530000Y-8452500D02*
X14560000Y-8482500D01*
X14560000Y-8452500D02*
X14530000Y-8482500D01*
X14530000Y-9972500D02*
X14560000Y-10002500D01*
X14560000Y-9972500D02*
X14530000Y-10002500D01*
X14550000Y-9822500D02*
X14580000Y-9852500D01*
X14580000Y-9822500D02*
X14550000Y-9852500D01*
X14555000Y-8857500D02*
X14585000Y-8887500D01*
X14585000Y-8857500D02*
X14555000Y-8887500D01*
X14555000Y-8957500D02*
X14585000Y-8987500D01*
X14585000Y-8957500D02*
X14555000Y-8987500D01*
X14555000Y-9132500D02*
X14585000Y-9162500D01*
X14585000Y-9132500D02*
X14555000Y-9162500D01*
X14555000Y-9232500D02*
X14585000Y-9262500D01*
X14585000Y-9232500D02*
X14555000Y-9262500D01*
X14555000Y-9407500D02*
X14585000Y-9437500D01*
X14585000Y-9407500D02*
X14555000Y-9437500D01*
X14555000Y-9507500D02*
X14585000Y-9537500D01*
X14585000Y-9507500D02*
X14555000Y-9537500D01*
X14560000Y-10652500D02*
X14590000Y-10682500D01*
X14590000Y-10652500D02*
X14560000Y-10682500D01*
X14580000Y-10062500D02*
X14610000Y-10092500D01*
X14610000Y-10062500D02*
X14580000Y-10092500D01*
X14600000Y-8262500D02*
X14630000Y-8292500D01*
X14630000Y-8262500D02*
X14600000Y-8292500D01*
X14620000Y-8452500D02*
X14650000Y-8482500D01*
X14650000Y-8452500D02*
X14620000Y-8482500D01*
X14620000Y-9832500D02*
X14650000Y-9862500D01*
X14650000Y-9832500D02*
X14620000Y-9862500D01*
X14645000Y-8727500D02*
X14675000Y-8757500D01*
X14675000Y-8727500D02*
X14645000Y-8757500D01*
X14650000Y-10542500D02*
X14680000Y-10572500D01*
X14680000Y-10542500D02*
X14650000Y-10572500D01*
X14650000Y-10622500D02*
X14680000Y-10652500D01*
X14680000Y-10622500D02*
X14650000Y-10652500D01*
X14655000Y-8857500D02*
X14685000Y-8887500D01*
X14685000Y-8857500D02*
X14655000Y-8887500D01*
X14655000Y-8957500D02*
X14685000Y-8987500D01*
X14685000Y-8957500D02*
X14655000Y-8987500D01*
X14655000Y-9132500D02*
X14685000Y-9162500D01*
X14685000Y-9132500D02*
X14655000Y-9162500D01*
X14655000Y-9232500D02*
X14685000Y-9262500D01*
X14685000Y-9232500D02*
X14655000Y-9262500D01*
X14655000Y-9407500D02*
X14685000Y-9437500D01*
X14685000Y-9407500D02*
X14655000Y-9437500D01*
X14655000Y-9507500D02*
X14685000Y-9537500D01*
X14685000Y-9507500D02*
X14655000Y-9537500D01*
X14660000Y-10312500D02*
X14690000Y-10342500D01*
X14690000Y-10312500D02*
X14660000Y-10342500D01*
X14660000Y-10402500D02*
X14690000Y-10432500D01*
X14690000Y-10402500D02*
X14660000Y-10432500D01*
X14690000Y-8262500D02*
X14720000Y-8292500D01*
X14720000Y-8262500D02*
X14690000Y-8292500D01*
X14730000Y-9822500D02*
X14760000Y-9852500D01*
X14760000Y-9822500D02*
X14730000Y-9852500D01*
X14740000Y-8727500D02*
X14770000Y-8757500D01*
X14770000Y-8727500D02*
X14740000Y-8757500D01*
X14780000Y-10652500D02*
X14810000Y-10682500D01*
X14810000Y-10652500D02*
X14780000Y-10682500D01*
X14790000Y-9822500D02*
X14820000Y-9852500D01*
X14820000Y-9822500D02*
X14790000Y-9852500D01*
X14830000Y-8857500D02*
X14860000Y-8887500D01*
X14860000Y-8857500D02*
X14830000Y-8887500D01*
X14830000Y-8957500D02*
X14860000Y-8987500D01*
X14860000Y-8957500D02*
X14830000Y-8987500D01*
X14830000Y-9132500D02*
X14860000Y-9162500D01*
X14860000Y-9132500D02*
X14830000Y-9162500D01*
X14830000Y-9232500D02*
X14860000Y-9262500D01*
X14860000Y-9232500D02*
X14830000Y-9262500D01*
X14830000Y-9407500D02*
X14860000Y-9437500D01*
X14860000Y-9407500D02*
X14830000Y-9437500D01*
X14830000Y-9507500D02*
X14860000Y-9537500D01*
X14860000Y-9507500D02*
X14830000Y-9537500D01*
X14830000Y-10382500D02*
X14860000Y-10412500D01*
X14860000Y-10382500D02*
X14830000Y-10412500D01*
X14830065Y-10481000D02*
X14860065Y-10511000D01*
X14860065Y-10481000D02*
X14830065Y-10511000D01*
X14840000Y-8442500D02*
X14870000Y-8472500D01*
X14870000Y-8442500D02*
X14840000Y-8472500D01*
X14930000Y-8442500D02*
X14960000Y-8472500D01*
X14960000Y-8442500D02*
X14930000Y-8472500D01*
X14930000Y-8857500D02*
X14960000Y-8887500D01*
X14960000Y-8857500D02*
X14930000Y-8887500D01*
X14930000Y-8957500D02*
X14960000Y-8987500D01*
X14960000Y-8957500D02*
X14930000Y-8987500D01*
X14930000Y-9132500D02*
X14960000Y-9162500D01*
X14960000Y-9132500D02*
X14930000Y-9162500D01*
X14930000Y-9232500D02*
X14960000Y-9262500D01*
X14960000Y-9232500D02*
X14930000Y-9262500D01*
X14930000Y-9407500D02*
X14960000Y-9437500D01*
X14960000Y-9407500D02*
X14930000Y-9437500D01*
X14930000Y-9507500D02*
X14960000Y-9537500D01*
X14960000Y-9507500D02*
X14930000Y-9537500D01*
X14930000Y-10652500D02*
X14960000Y-10682500D01*
X14960000Y-10652500D02*
X14930000Y-10682500D01*
X14981075Y-10330191D02*
X15011075Y-10360191D01*
X15011075Y-10330191D02*
X14981075Y-10360191D01*
X14990000Y-10172500D02*
X15020000Y-10202500D01*
X15020000Y-10172500D02*
X14990000Y-10202500D01*
X14990000Y-10232500D02*
X15020000Y-10262500D01*
X15020000Y-10232500D02*
X14990000Y-10262500D01*
X15000000Y-8482500D02*
X15030000Y-8512500D01*
X15030000Y-8482500D02*
X15000000Y-8512500D01*
X15004000Y-10397500D02*
X15034000Y-10427500D01*
X15034000Y-10397500D02*
X15004000Y-10427500D01*
X15010000Y-8302500D02*
X15040000Y-8332500D01*
X15040000Y-8302500D02*
X15010000Y-8332500D01*
X15020000Y-8742500D02*
X15050000Y-8772500D01*
X15050000Y-8742500D02*
X15020000Y-8772500D01*
X15050000Y-9862500D02*
X15080000Y-9892500D01*
X15080000Y-9862500D02*
X15050000Y-9892500D01*
X15060000Y-10142500D02*
X15090000Y-10172500D01*
X15090000Y-10142500D02*
X15060000Y-10172500D01*
X15070000Y-10652500D02*
X15100000Y-10682500D01*
X15100000Y-10652500D02*
X15070000Y-10682500D01*
X15090000Y-9662500D02*
X15120000Y-9692500D01*
X15120000Y-9662500D02*
X15090000Y-9692500D01*
X15100000Y-9962500D02*
X15130000Y-9992500D01*
X15130000Y-9962500D02*
X15100000Y-9992500D01*
X15100000Y-10032500D02*
X15130000Y-10062500D01*
X15130000Y-10032500D02*
X15100000Y-10062500D01*
X15105000Y-8857500D02*
X15135000Y-8887500D01*
X15135000Y-8857500D02*
X15105000Y-8887500D01*
X15105000Y-8957500D02*
X15135000Y-8987500D01*
X15135000Y-8957500D02*
X15105000Y-8987500D01*
X15105000Y-9132500D02*
X15135000Y-9162500D01*
X15135000Y-9132500D02*
X15105000Y-9162500D01*
X15105000Y-9232500D02*
X15135000Y-9262500D01*
X15135000Y-9232500D02*
X15105000Y-9262500D01*
X15105000Y-9407500D02*
X15135000Y-9437500D01*
X15135000Y-9407500D02*
X15105000Y-9437500D01*
X15105000Y-9507500D02*
X15135000Y-9537500D01*
X15135000Y-9507500D02*
X15105000Y-9537500D01*
X15130000Y-8412500D02*
X15160000Y-8442500D01*
X15160000Y-8412500D02*
X15130000Y-8442500D01*
X15130000Y-10142500D02*
X15160000Y-10172500D01*
X15160000Y-10142500D02*
X15130000Y-10172500D01*
X15160000Y-8482500D02*
X15190000Y-8512500D01*
X15190000Y-8482500D02*
X15160000Y-8512500D01*
X15180000Y-8742500D02*
X15210000Y-8772500D01*
X15210000Y-8742500D02*
X15180000Y-8772500D01*
X15200000Y-10142500D02*
X15230000Y-10172500D01*
X15230000Y-10142500D02*
X15200000Y-10172500D01*
X15205000Y-8307500D02*
X15235000Y-8337500D01*
X15235000Y-8307500D02*
X15205000Y-8337500D01*
X15205000Y-8857500D02*
X15235000Y-8887500D01*
X15235000Y-8857500D02*
X15205000Y-8887500D01*
X15205000Y-8957500D02*
X15235000Y-8987500D01*
X15235000Y-8957500D02*
X15205000Y-8987500D01*
X15205000Y-9132500D02*
X15235000Y-9162500D01*
X15235000Y-9132500D02*
X15205000Y-9162500D01*
X15205000Y-9232500D02*
X15235000Y-9262500D01*
X15235000Y-9232500D02*
X15205000Y-9262500D01*
X15205000Y-9407500D02*
X15235000Y-9437500D01*
X15235000Y-9407500D02*
X15205000Y-9437500D01*
X15205000Y-9507500D02*
X15235000Y-9537500D01*
X15235000Y-9507500D02*
X15205000Y-9537500D01*
X15240000Y-10652500D02*
X15270000Y-10682500D01*
X15270000Y-10652500D02*
X15240000Y-10682500D01*
X15290000Y-10502500D02*
X15320000Y-10532500D01*
X15320000Y-10502500D02*
X15290000Y-10532500D01*
X15310000Y-10072500D02*
X15340000Y-10102500D01*
X15340000Y-10072500D02*
X15310000Y-10102500D01*
X15360000Y-8322500D02*
X15390000Y-8352500D01*
X15390000Y-8322500D02*
X15360000Y-8352500D01*
X15360000Y-10502500D02*
X15390000Y-10532500D01*
X15390000Y-10502500D02*
X15360000Y-10532500D01*
X15380000Y-10032500D02*
X15410000Y-10062500D01*
X15410000Y-10032500D02*
X15380000Y-10062500D01*
X15390000Y-9862500D02*
X15420000Y-9892500D01*
X15420000Y-9862500D02*
X15390000Y-9892500D01*
X15430000Y-8322500D02*
X15460000Y-8352500D01*
X15460000Y-8322500D02*
X15430000Y-8352500D01*
X15430000Y-8632500D02*
X15460000Y-8662500D01*
X15460000Y-8632500D02*
X15430000Y-8662500D01*
X15430000Y-10602500D02*
X15460000Y-10632500D01*
X15460000Y-10602500D02*
X15430000Y-10632500D01*
X15460000Y-10342500D02*
X15490000Y-10372500D01*
X15490000Y-10342500D02*
X15460000Y-10372500D01*
X15460000Y-10493347D02*
X15490000Y-10523347D01*
X15490000Y-10493347D02*
X15460000Y-10523347D01*
X15508258Y-10157500D02*
X15538258Y-10187500D01*
X15538258Y-10157500D02*
X15508258Y-10187500D01*
X15530000Y-9572500D02*
X15560000Y-9602500D01*
X15560000Y-9572500D02*
X15530000Y-9602500D01*
X15530000Y-9632500D02*
X15560000Y-9662500D01*
X15560000Y-9632500D02*
X15530000Y-9662500D01*
X15540000Y-9902500D02*
X15570000Y-9932500D01*
X15570000Y-9902500D02*
X15540000Y-9932500D01*
X15540000Y-9962500D02*
X15570000Y-9992500D01*
X15570000Y-9962500D02*
X15540000Y-9992500D01*
X15555000Y-8632500D02*
X15585000Y-8662500D01*
X15585000Y-8632500D02*
X15555000Y-8662500D01*
X15555000Y-10502500D02*
X15585000Y-10532500D01*
X15585000Y-10502500D02*
X15555000Y-10532500D01*
X15570000Y-8972500D02*
X15600000Y-9002500D01*
X15600000Y-8972500D02*
X15570000Y-9002500D01*
X15570000Y-9702500D02*
X15600000Y-9732500D01*
X15600000Y-9702500D02*
X15570000Y-9732500D01*
X15570000Y-9822500D02*
X15600000Y-9852500D01*
X15600000Y-9822500D02*
X15570000Y-9852500D01*
X15575267Y-10653095D02*
X15605267Y-10683095D01*
X15605267Y-10653095D02*
X15575267Y-10683095D01*
X15617838Y-10492702D02*
X15647838Y-10522702D01*
X15647838Y-10492702D02*
X15617838Y-10522702D01*
X15630000Y-9407500D02*
X15660000Y-9437500D01*
X15660000Y-9407500D02*
X15630000Y-9437500D01*
X15680000Y-9457500D02*
X15710000Y-9487500D01*
X15710000Y-9457500D02*
X15680000Y-9487500D01*
X15750000Y-8682500D02*
X15780000Y-8712500D01*
X15780000Y-8682500D02*
X15750000Y-8712500D01*
X15750000Y-8782500D02*
X15780000Y-8812500D01*
X15780000Y-8782500D02*
X15750000Y-8812500D01*
X15770000Y-8902500D02*
X15800000Y-8932500D01*
X15800000Y-8902500D02*
X15770000Y-8932500D01*
X15780000Y-9557500D02*
X15810000Y-9587500D01*
X15810000Y-9557500D02*
X15780000Y-9587500D01*
X15784616Y-8978183D02*
X15814616Y-9008183D01*
X15814616Y-8978183D02*
X15784616Y-9008183D01*
X15784616Y-9344766D02*
X15814616Y-9374766D01*
X15814616Y-9344766D02*
X15784616Y-9374766D01*
X15785046Y-9476348D02*
X15815046Y-9506348D01*
X15815046Y-9476348D02*
X15785046Y-9506348D01*
X15820000Y-8682500D02*
X15850000Y-8712500D01*
X15850000Y-8682500D02*
X15820000Y-8712500D01*
X15820000Y-8782500D02*
X15850000Y-8812500D01*
X15850000Y-8782500D02*
X15820000Y-8812500D01*
X15830000Y-8432500D02*
X15860000Y-8462500D01*
X15860000Y-8432500D02*
X15830000Y-8462500D01*
X15850000Y-10632500D02*
X15880000Y-10662500D01*
X15880000Y-10632500D02*
X15850000Y-10662500D01*
X15910000Y-10582500D02*
X15940000Y-10612500D01*
X15940000Y-10582500D02*
X15910000Y-10612500D01*
D13*
X13951510Y-8912500D02*
G75*
G03*
X13951510Y-8912500I-16510J0D01*
G01*
X13951510Y-9077500D02*
G75*
G03*
X13951510Y-9077500I-16510J0D01*
G01*
D14*
X14895000Y-7987500D02*
X14895000Y-8207500D01*
X14785000Y-8097500D02*
X15005000Y-8097500D01*
D11*
X14037619Y-11393476D02*
X14037619Y-11193476D01*
X14037619Y-11193476D02*
X14085238Y-11193476D01*
X14085238Y-11193476D02*
X14113809Y-11203000D01*
X14113809Y-11203000D02*
X14132857Y-11222048D01*
X14132857Y-11222048D02*
X14142381Y-11241095D01*
X14142381Y-11241095D02*
X14151905Y-11279190D01*
X14151905Y-11279190D02*
X14151905Y-11307762D01*
X14151905Y-11307762D02*
X14142381Y-11345857D01*
X14142381Y-11345857D02*
X14132857Y-11364905D01*
X14132857Y-11364905D02*
X14113809Y-11383952D01*
X14113809Y-11383952D02*
X14085238Y-11393476D01*
X14085238Y-11393476D02*
X14037619Y-11393476D01*
X14237619Y-11393476D02*
X14237619Y-11260143D01*
X14237619Y-11298238D02*
X14247143Y-11279190D01*
X14247143Y-11279190D02*
X14256667Y-11269667D01*
X14256667Y-11269667D02*
X14275714Y-11260143D01*
X14275714Y-11260143D02*
X14294762Y-11260143D01*
X14361428Y-11393476D02*
X14361428Y-11260143D01*
X14361428Y-11193476D02*
X14351905Y-11203000D01*
X14351905Y-11203000D02*
X14361428Y-11212524D01*
X14361428Y-11212524D02*
X14370952Y-11203000D01*
X14370952Y-11203000D02*
X14361428Y-11193476D01*
X14361428Y-11193476D02*
X14361428Y-11212524D01*
X14485238Y-11393476D02*
X14466190Y-11383952D01*
X14466190Y-11383952D02*
X14456667Y-11364905D01*
X14456667Y-11364905D02*
X14456667Y-11193476D01*
X14590000Y-11393476D02*
X14570952Y-11383952D01*
X14570952Y-11383952D02*
X14561428Y-11364905D01*
X14561428Y-11364905D02*
X14561428Y-11193476D01*
X14786190Y-11393476D02*
X14786190Y-11193476D01*
X14786190Y-11193476D02*
X14852857Y-11336333D01*
X14852857Y-11336333D02*
X14919524Y-11193476D01*
X14919524Y-11193476D02*
X14919524Y-11393476D01*
X15100476Y-11393476D02*
X15100476Y-11288714D01*
X15100476Y-11288714D02*
X15090952Y-11269667D01*
X15090952Y-11269667D02*
X15071905Y-11260143D01*
X15071905Y-11260143D02*
X15033809Y-11260143D01*
X15033809Y-11260143D02*
X15014762Y-11269667D01*
X15100476Y-11383952D02*
X15081428Y-11393476D01*
X15081428Y-11393476D02*
X15033809Y-11393476D01*
X15033809Y-11393476D02*
X15014762Y-11383952D01*
X15014762Y-11383952D02*
X15005238Y-11364905D01*
X15005238Y-11364905D02*
X15005238Y-11345857D01*
X15005238Y-11345857D02*
X15014762Y-11326809D01*
X15014762Y-11326809D02*
X15033809Y-11317286D01*
X15033809Y-11317286D02*
X15081428Y-11317286D01*
X15081428Y-11317286D02*
X15100476Y-11307762D01*
X15195714Y-11260143D02*
X15195714Y-11460143D01*
X15195714Y-11269667D02*
X15214762Y-11260143D01*
X15214762Y-11260143D02*
X15252857Y-11260143D01*
X15252857Y-11260143D02*
X15271905Y-11269667D01*
X15271905Y-11269667D02*
X15281428Y-11279190D01*
X15281428Y-11279190D02*
X15290952Y-11298238D01*
X15290952Y-11298238D02*
X15290952Y-11355381D01*
X15290952Y-11355381D02*
X15281428Y-11374428D01*
X15281428Y-11374428D02*
X15271905Y-11383952D01*
X15271905Y-11383952D02*
X15252857Y-11393476D01*
X15252857Y-11393476D02*
X15214762Y-11393476D01*
X15214762Y-11393476D02*
X15195714Y-11383952D01*
X15376667Y-11374428D02*
X15386190Y-11383952D01*
X15386190Y-11383952D02*
X15376667Y-11393476D01*
X15376667Y-11393476D02*
X15367143Y-11383952D01*
X15367143Y-11383952D02*
X15376667Y-11374428D01*
X15376667Y-11374428D02*
X15376667Y-11393476D01*
X15376667Y-11269667D02*
X15386190Y-11279190D01*
X15386190Y-11279190D02*
X15376667Y-11288714D01*
X15376667Y-11288714D02*
X15367143Y-11279190D01*
X15367143Y-11279190D02*
X15376667Y-11269667D01*
X15376667Y-11269667D02*
X15376667Y-11288714D01*
D12*
X13760000Y-11725000D02*
X13790000Y-11755000D01*
X13790000Y-11725000D02*
X13760000Y-11755000D01*
D11*
X14075714Y-11613476D02*
X14094762Y-11613476D01*
X14094762Y-11613476D02*
X14113809Y-11623000D01*
X14113809Y-11623000D02*
X14123333Y-11632524D01*
X14123333Y-11632524D02*
X14132857Y-11651571D01*
X14132857Y-11651571D02*
X14142381Y-11689667D01*
X14142381Y-11689667D02*
X14142381Y-11737286D01*
X14142381Y-11737286D02*
X14132857Y-11775381D01*
X14132857Y-11775381D02*
X14123333Y-11794428D01*
X14123333Y-11794428D02*
X14113809Y-11803952D01*
X14113809Y-11803952D02*
X14094762Y-11813476D01*
X14094762Y-11813476D02*
X14075714Y-11813476D01*
X14075714Y-11813476D02*
X14056667Y-11803952D01*
X14056667Y-11803952D02*
X14047143Y-11794428D01*
X14047143Y-11794428D02*
X14037619Y-11775381D01*
X14037619Y-11775381D02*
X14028095Y-11737286D01*
X14028095Y-11737286D02*
X14028095Y-11689667D01*
X14028095Y-11689667D02*
X14037619Y-11651571D01*
X14037619Y-11651571D02*
X14047143Y-11632524D01*
X14047143Y-11632524D02*
X14056667Y-11623000D01*
X14056667Y-11623000D02*
X14075714Y-11613476D01*
X14228095Y-11794428D02*
X14237619Y-11803952D01*
X14237619Y-11803952D02*
X14228095Y-11813476D01*
X14228095Y-11813476D02*
X14218571Y-11803952D01*
X14218571Y-11803952D02*
X14228095Y-11794428D01*
X14228095Y-11794428D02*
X14228095Y-11813476D01*
X14304286Y-11613476D02*
X14428095Y-11613476D01*
X14428095Y-11613476D02*
X14361428Y-11689667D01*
X14361428Y-11689667D02*
X14390000Y-11689667D01*
X14390000Y-11689667D02*
X14409048Y-11699190D01*
X14409048Y-11699190D02*
X14418571Y-11708714D01*
X14418571Y-11708714D02*
X14428095Y-11727762D01*
X14428095Y-11727762D02*
X14428095Y-11775381D01*
X14428095Y-11775381D02*
X14418571Y-11794428D01*
X14418571Y-11794428D02*
X14409048Y-11803952D01*
X14409048Y-11803952D02*
X14390000Y-11813476D01*
X14390000Y-11813476D02*
X14332857Y-11813476D01*
X14332857Y-11813476D02*
X14313809Y-11803952D01*
X14313809Y-11803952D02*
X14304286Y-11794428D01*
X14551905Y-11613476D02*
X14570952Y-11613476D01*
X14570952Y-11613476D02*
X14590000Y-11623000D01*
X14590000Y-11623000D02*
X14599524Y-11632524D01*
X14599524Y-11632524D02*
X14609048Y-11651571D01*
X14609048Y-11651571D02*
X14618571Y-11689667D01*
X14618571Y-11689667D02*
X14618571Y-11737286D01*
X14618571Y-11737286D02*
X14609048Y-11775381D01*
X14609048Y-11775381D02*
X14599524Y-11794428D01*
X14599524Y-11794428D02*
X14590000Y-11803952D01*
X14590000Y-11803952D02*
X14570952Y-11813476D01*
X14570952Y-11813476D02*
X14551905Y-11813476D01*
X14551905Y-11813476D02*
X14532857Y-11803952D01*
X14532857Y-11803952D02*
X14523333Y-11794428D01*
X14523333Y-11794428D02*
X14513809Y-11775381D01*
X14513809Y-11775381D02*
X14504286Y-11737286D01*
X14504286Y-11737286D02*
X14504286Y-11689667D01*
X14504286Y-11689667D02*
X14513809Y-11651571D01*
X14513809Y-11651571D02*
X14523333Y-11632524D01*
X14523333Y-11632524D02*
X14532857Y-11623000D01*
X14532857Y-11623000D02*
X14551905Y-11613476D01*
X14742381Y-11613476D02*
X14761429Y-11613476D01*
X14761429Y-11613476D02*
X14780476Y-11623000D01*
X14780476Y-11623000D02*
X14790000Y-11632524D01*
X14790000Y-11632524D02*
X14799524Y-11651571D01*
X14799524Y-11651571D02*
X14809048Y-11689667D01*
X14809048Y-11689667D02*
X14809048Y-11737286D01*
X14809048Y-11737286D02*
X14799524Y-11775381D01*
X14799524Y-11775381D02*
X14790000Y-11794428D01*
X14790000Y-11794428D02*
X14780476Y-11803952D01*
X14780476Y-11803952D02*
X14761429Y-11813476D01*
X14761429Y-11813476D02*
X14742381Y-11813476D01*
X14742381Y-11813476D02*
X14723333Y-11803952D01*
X14723333Y-11803952D02*
X14713809Y-11794428D01*
X14713809Y-11794428D02*
X14704286Y-11775381D01*
X14704286Y-11775381D02*
X14694762Y-11737286D01*
X14694762Y-11737286D02*
X14694762Y-11689667D01*
X14694762Y-11689667D02*
X14704286Y-11651571D01*
X14704286Y-11651571D02*
X14713809Y-11632524D01*
X14713809Y-11632524D02*
X14723333Y-11623000D01*
X14723333Y-11623000D02*
X14742381Y-11613476D01*
X14894762Y-11813476D02*
X14894762Y-11680143D01*
X14894762Y-11699190D02*
X14904286Y-11689667D01*
X14904286Y-11689667D02*
X14923333Y-11680143D01*
X14923333Y-11680143D02*
X14951905Y-11680143D01*
X14951905Y-11680143D02*
X14970952Y-11689667D01*
X14970952Y-11689667D02*
X14980476Y-11708714D01*
X14980476Y-11708714D02*
X14980476Y-11813476D01*
X14980476Y-11708714D02*
X14990000Y-11689667D01*
X14990000Y-11689667D02*
X15009048Y-11680143D01*
X15009048Y-11680143D02*
X15037619Y-11680143D01*
X15037619Y-11680143D02*
X15056667Y-11689667D01*
X15056667Y-11689667D02*
X15066190Y-11708714D01*
X15066190Y-11708714D02*
X15066190Y-11813476D01*
X15161429Y-11813476D02*
X15161429Y-11680143D01*
X15161429Y-11699190D02*
X15170952Y-11689667D01*
X15170952Y-11689667D02*
X15190000Y-11680143D01*
X15190000Y-11680143D02*
X15218571Y-11680143D01*
X15218571Y-11680143D02*
X15237619Y-11689667D01*
X15237619Y-11689667D02*
X15247143Y-11708714D01*
X15247143Y-11708714D02*
X15247143Y-11813476D01*
X15247143Y-11708714D02*
X15256667Y-11689667D01*
X15256667Y-11689667D02*
X15275714Y-11680143D01*
X15275714Y-11680143D02*
X15304286Y-11680143D01*
X15304286Y-11680143D02*
X15323333Y-11689667D01*
X15323333Y-11689667D02*
X15332857Y-11708714D01*
X15332857Y-11708714D02*
X15332857Y-11813476D01*
X15690952Y-11603952D02*
X15519524Y-11861095D01*
X15915714Y-11613476D02*
X15934762Y-11613476D01*
X15934762Y-11613476D02*
X15953810Y-11623000D01*
X15953810Y-11623000D02*
X15963333Y-11632524D01*
X15963333Y-11632524D02*
X15972857Y-11651571D01*
X15972857Y-11651571D02*
X15982381Y-11689667D01*
X15982381Y-11689667D02*
X15982381Y-11737286D01*
X15982381Y-11737286D02*
X15972857Y-11775381D01*
X15972857Y-11775381D02*
X15963333Y-11794428D01*
X15963333Y-11794428D02*
X15953810Y-11803952D01*
X15953810Y-11803952D02*
X15934762Y-11813476D01*
X15934762Y-11813476D02*
X15915714Y-11813476D01*
X15915714Y-11813476D02*
X15896667Y-11803952D01*
X15896667Y-11803952D02*
X15887143Y-11794428D01*
X15887143Y-11794428D02*
X15877619Y-11775381D01*
X15877619Y-11775381D02*
X15868095Y-11737286D01*
X15868095Y-11737286D02*
X15868095Y-11689667D01*
X15868095Y-11689667D02*
X15877619Y-11651571D01*
X15877619Y-11651571D02*
X15887143Y-11632524D01*
X15887143Y-11632524D02*
X15896667Y-11623000D01*
X15896667Y-11623000D02*
X15915714Y-11613476D01*
X16068095Y-11794428D02*
X16077619Y-11803952D01*
X16077619Y-11803952D02*
X16068095Y-11813476D01*
X16068095Y-11813476D02*
X16058571Y-11803952D01*
X16058571Y-11803952D02*
X16068095Y-11794428D01*
X16068095Y-11794428D02*
X16068095Y-11813476D01*
X16201429Y-11613476D02*
X16220476Y-11613476D01*
X16220476Y-11613476D02*
X16239524Y-11623000D01*
X16239524Y-11623000D02*
X16249048Y-11632524D01*
X16249048Y-11632524D02*
X16258571Y-11651571D01*
X16258571Y-11651571D02*
X16268095Y-11689667D01*
X16268095Y-11689667D02*
X16268095Y-11737286D01*
X16268095Y-11737286D02*
X16258571Y-11775381D01*
X16258571Y-11775381D02*
X16249048Y-11794428D01*
X16249048Y-11794428D02*
X16239524Y-11803952D01*
X16239524Y-11803952D02*
X16220476Y-11813476D01*
X16220476Y-11813476D02*
X16201429Y-11813476D01*
X16201429Y-11813476D02*
X16182381Y-11803952D01*
X16182381Y-11803952D02*
X16172857Y-11794428D01*
X16172857Y-11794428D02*
X16163333Y-11775381D01*
X16163333Y-11775381D02*
X16153810Y-11737286D01*
X16153810Y-11737286D02*
X16153810Y-11689667D01*
X16153810Y-11689667D02*
X16163333Y-11651571D01*
X16163333Y-11651571D02*
X16172857Y-11632524D01*
X16172857Y-11632524D02*
X16182381Y-11623000D01*
X16182381Y-11623000D02*
X16201429Y-11613476D01*
X16458571Y-11813476D02*
X16344286Y-11813476D01*
X16401429Y-11813476D02*
X16401429Y-11613476D01*
X16401429Y-11613476D02*
X16382381Y-11642048D01*
X16382381Y-11642048D02*
X16363333Y-11661095D01*
X16363333Y-11661095D02*
X16344286Y-11670619D01*
X16649048Y-11813476D02*
X16534762Y-11813476D01*
X16591905Y-11813476D02*
X16591905Y-11613476D01*
X16591905Y-11613476D02*
X16572857Y-11642048D01*
X16572857Y-11642048D02*
X16553810Y-11661095D01*
X16553810Y-11661095D02*
X16534762Y-11670619D01*
X16763333Y-11699190D02*
X16744286Y-11689667D01*
X16744286Y-11689667D02*
X16734762Y-11680143D01*
X16734762Y-11680143D02*
X16725238Y-11661095D01*
X16725238Y-11661095D02*
X16725238Y-11651571D01*
X16725238Y-11651571D02*
X16734762Y-11632524D01*
X16734762Y-11632524D02*
X16744286Y-11623000D01*
X16744286Y-11623000D02*
X16763333Y-11613476D01*
X16763333Y-11613476D02*
X16801429Y-11613476D01*
X16801429Y-11613476D02*
X16820476Y-11623000D01*
X16820476Y-11623000D02*
X16830000Y-11632524D01*
X16830000Y-11632524D02*
X16839524Y-11651571D01*
X16839524Y-11651571D02*
X16839524Y-11661095D01*
X16839524Y-11661095D02*
X16830000Y-11680143D01*
X16830000Y-11680143D02*
X16820476Y-11689667D01*
X16820476Y-11689667D02*
X16801429Y-11699190D01*
X16801429Y-11699190D02*
X16763333Y-11699190D01*
X16763333Y-11699190D02*
X16744286Y-11708714D01*
X16744286Y-11708714D02*
X16734762Y-11718238D01*
X16734762Y-11718238D02*
X16725238Y-11737286D01*
X16725238Y-11737286D02*
X16725238Y-11775381D01*
X16725238Y-11775381D02*
X16734762Y-11794428D01*
X16734762Y-11794428D02*
X16744286Y-11803952D01*
X16744286Y-11803952D02*
X16763333Y-11813476D01*
X16763333Y-11813476D02*
X16801429Y-11813476D01*
X16801429Y-11813476D02*
X16820476Y-11803952D01*
X16820476Y-11803952D02*
X16830000Y-11794428D01*
X16830000Y-11794428D02*
X16839524Y-11775381D01*
X16839524Y-11775381D02*
X16839524Y-11737286D01*
X16839524Y-11737286D02*
X16830000Y-11718238D01*
X16830000Y-11718238D02*
X16820476Y-11708714D01*
X16820476Y-11708714D02*
X16801429Y-11699190D01*
X16915714Y-11613476D02*
X16915714Y-11651571D01*
X16991905Y-11613476D02*
X16991905Y-11651571D01*
X17254762Y-11889667D02*
X17245238Y-11880143D01*
X17245238Y-11880143D02*
X17226191Y-11851571D01*
X17226191Y-11851571D02*
X17216667Y-11832524D01*
X17216667Y-11832524D02*
X17207143Y-11803952D01*
X17207143Y-11803952D02*
X17197619Y-11756333D01*
X17197619Y-11756333D02*
X17197619Y-11718238D01*
X17197619Y-11718238D02*
X17207143Y-11670619D01*
X17207143Y-11670619D02*
X17216667Y-11642048D01*
X17216667Y-11642048D02*
X17226191Y-11623000D01*
X17226191Y-11623000D02*
X17245238Y-11594428D01*
X17245238Y-11594428D02*
X17254762Y-11584905D01*
X17435714Y-11813476D02*
X17321429Y-11813476D01*
X17378572Y-11813476D02*
X17378572Y-11613476D01*
X17378572Y-11613476D02*
X17359524Y-11642048D01*
X17359524Y-11642048D02*
X17340476Y-11661095D01*
X17340476Y-11661095D02*
X17321429Y-11670619D01*
X17607143Y-11613476D02*
X17569048Y-11613476D01*
X17569048Y-11613476D02*
X17550000Y-11623000D01*
X17550000Y-11623000D02*
X17540476Y-11632524D01*
X17540476Y-11632524D02*
X17521429Y-11661095D01*
X17521429Y-11661095D02*
X17511905Y-11699190D01*
X17511905Y-11699190D02*
X17511905Y-11775381D01*
X17511905Y-11775381D02*
X17521429Y-11794428D01*
X17521429Y-11794428D02*
X17530953Y-11803952D01*
X17530953Y-11803952D02*
X17550000Y-11813476D01*
X17550000Y-11813476D02*
X17588095Y-11813476D01*
X17588095Y-11813476D02*
X17607143Y-11803952D01*
X17607143Y-11803952D02*
X17616667Y-11794428D01*
X17616667Y-11794428D02*
X17626191Y-11775381D01*
X17626191Y-11775381D02*
X17626191Y-11727762D01*
X17626191Y-11727762D02*
X17616667Y-11708714D01*
X17616667Y-11708714D02*
X17607143Y-11699190D01*
X17607143Y-11699190D02*
X17588095Y-11689667D01*
X17588095Y-11689667D02*
X17550000Y-11689667D01*
X17550000Y-11689667D02*
X17530953Y-11699190D01*
X17530953Y-11699190D02*
X17521429Y-11708714D01*
X17521429Y-11708714D02*
X17511905Y-11727762D01*
X17816667Y-11813476D02*
X17702381Y-11813476D01*
X17759524Y-11813476D02*
X17759524Y-11613476D01*
X17759524Y-11613476D02*
X17740476Y-11642048D01*
X17740476Y-11642048D02*
X17721429Y-11661095D01*
X17721429Y-11661095D02*
X17702381Y-11670619D01*
X18022381Y-11813476D02*
X18022381Y-11613476D01*
X18108095Y-11813476D02*
X18108095Y-11708714D01*
X18108095Y-11708714D02*
X18098572Y-11689667D01*
X18098572Y-11689667D02*
X18079524Y-11680143D01*
X18079524Y-11680143D02*
X18050953Y-11680143D01*
X18050953Y-11680143D02*
X18031905Y-11689667D01*
X18031905Y-11689667D02*
X18022381Y-11699190D01*
X18231905Y-11813476D02*
X18212857Y-11803952D01*
X18212857Y-11803952D02*
X18203334Y-11794428D01*
X18203334Y-11794428D02*
X18193810Y-11775381D01*
X18193810Y-11775381D02*
X18193810Y-11718238D01*
X18193810Y-11718238D02*
X18203334Y-11699190D01*
X18203334Y-11699190D02*
X18212857Y-11689667D01*
X18212857Y-11689667D02*
X18231905Y-11680143D01*
X18231905Y-11680143D02*
X18260476Y-11680143D01*
X18260476Y-11680143D02*
X18279524Y-11689667D01*
X18279524Y-11689667D02*
X18289048Y-11699190D01*
X18289048Y-11699190D02*
X18298572Y-11718238D01*
X18298572Y-11718238D02*
X18298572Y-11775381D01*
X18298572Y-11775381D02*
X18289048Y-11794428D01*
X18289048Y-11794428D02*
X18279524Y-11803952D01*
X18279524Y-11803952D02*
X18260476Y-11813476D01*
X18260476Y-11813476D02*
X18231905Y-11813476D01*
X18412857Y-11813476D02*
X18393810Y-11803952D01*
X18393810Y-11803952D02*
X18384286Y-11784905D01*
X18384286Y-11784905D02*
X18384286Y-11613476D01*
X18565238Y-11803952D02*
X18546191Y-11813476D01*
X18546191Y-11813476D02*
X18508095Y-11813476D01*
X18508095Y-11813476D02*
X18489048Y-11803952D01*
X18489048Y-11803952D02*
X18479524Y-11784905D01*
X18479524Y-11784905D02*
X18479524Y-11708714D01*
X18479524Y-11708714D02*
X18489048Y-11689667D01*
X18489048Y-11689667D02*
X18508095Y-11680143D01*
X18508095Y-11680143D02*
X18546191Y-11680143D01*
X18546191Y-11680143D02*
X18565238Y-11689667D01*
X18565238Y-11689667D02*
X18574762Y-11708714D01*
X18574762Y-11708714D02*
X18574762Y-11727762D01*
X18574762Y-11727762D02*
X18479524Y-11746809D01*
X18650953Y-11803952D02*
X18670000Y-11813476D01*
X18670000Y-11813476D02*
X18708095Y-11813476D01*
X18708095Y-11813476D02*
X18727143Y-11803952D01*
X18727143Y-11803952D02*
X18736667Y-11784905D01*
X18736667Y-11784905D02*
X18736667Y-11775381D01*
X18736667Y-11775381D02*
X18727143Y-11756333D01*
X18727143Y-11756333D02*
X18708095Y-11746809D01*
X18708095Y-11746809D02*
X18679524Y-11746809D01*
X18679524Y-11746809D02*
X18660476Y-11737286D01*
X18660476Y-11737286D02*
X18650953Y-11718238D01*
X18650953Y-11718238D02*
X18650953Y-11708714D01*
X18650953Y-11708714D02*
X18660476Y-11689667D01*
X18660476Y-11689667D02*
X18679524Y-11680143D01*
X18679524Y-11680143D02*
X18708095Y-11680143D01*
X18708095Y-11680143D02*
X18727143Y-11689667D01*
X18803334Y-11889667D02*
X18812857Y-11880143D01*
X18812857Y-11880143D02*
X18831905Y-11851571D01*
X18831905Y-11851571D02*
X18841429Y-11832524D01*
X18841429Y-11832524D02*
X18850953Y-11803952D01*
X18850953Y-11803952D02*
X18860476Y-11756333D01*
X18860476Y-11756333D02*
X18860476Y-11718238D01*
X18860476Y-11718238D02*
X18850953Y-11670619D01*
X18850953Y-11670619D02*
X18841429Y-11642048D01*
X18841429Y-11642048D02*
X18831905Y-11623000D01*
X18831905Y-11623000D02*
X18812857Y-11594428D01*
X18812857Y-11594428D02*
X18803334Y-11584905D01*
D13*
X13790000Y-12004000D02*
G75*
G03*
X13790000Y-12004000I-16510J0D01*
G01*
D11*
X14075714Y-11877476D02*
X14094762Y-11877476D01*
X14094762Y-11877476D02*
X14113809Y-11887000D01*
X14113809Y-11887000D02*
X14123333Y-11896524D01*
X14123333Y-11896524D02*
X14132857Y-11915571D01*
X14132857Y-11915571D02*
X14142381Y-11953667D01*
X14142381Y-11953667D02*
X14142381Y-12001286D01*
X14142381Y-12001286D02*
X14132857Y-12039381D01*
X14132857Y-12039381D02*
X14123333Y-12058428D01*
X14123333Y-12058428D02*
X14113809Y-12067952D01*
X14113809Y-12067952D02*
X14094762Y-12077476D01*
X14094762Y-12077476D02*
X14075714Y-12077476D01*
X14075714Y-12077476D02*
X14056667Y-12067952D01*
X14056667Y-12067952D02*
X14047143Y-12058428D01*
X14047143Y-12058428D02*
X14037619Y-12039381D01*
X14037619Y-12039381D02*
X14028095Y-12001286D01*
X14028095Y-12001286D02*
X14028095Y-11953667D01*
X14028095Y-11953667D02*
X14037619Y-11915571D01*
X14037619Y-11915571D02*
X14047143Y-11896524D01*
X14047143Y-11896524D02*
X14056667Y-11887000D01*
X14056667Y-11887000D02*
X14075714Y-11877476D01*
X14228095Y-12058428D02*
X14237619Y-12067952D01*
X14237619Y-12067952D02*
X14228095Y-12077476D01*
X14228095Y-12077476D02*
X14218571Y-12067952D01*
X14218571Y-12067952D02*
X14228095Y-12058428D01*
X14228095Y-12058428D02*
X14228095Y-12077476D01*
X14304286Y-11877476D02*
X14428095Y-11877476D01*
X14428095Y-11877476D02*
X14361428Y-11953667D01*
X14361428Y-11953667D02*
X14390000Y-11953667D01*
X14390000Y-11953667D02*
X14409048Y-11963190D01*
X14409048Y-11963190D02*
X14418571Y-11972714D01*
X14418571Y-11972714D02*
X14428095Y-11991762D01*
X14428095Y-11991762D02*
X14428095Y-12039381D01*
X14428095Y-12039381D02*
X14418571Y-12058428D01*
X14418571Y-12058428D02*
X14409048Y-12067952D01*
X14409048Y-12067952D02*
X14390000Y-12077476D01*
X14390000Y-12077476D02*
X14332857Y-12077476D01*
X14332857Y-12077476D02*
X14313809Y-12067952D01*
X14313809Y-12067952D02*
X14304286Y-12058428D01*
X14494762Y-11877476D02*
X14618571Y-11877476D01*
X14618571Y-11877476D02*
X14551905Y-11953667D01*
X14551905Y-11953667D02*
X14580476Y-11953667D01*
X14580476Y-11953667D02*
X14599524Y-11963190D01*
X14599524Y-11963190D02*
X14609048Y-11972714D01*
X14609048Y-11972714D02*
X14618571Y-11991762D01*
X14618571Y-11991762D02*
X14618571Y-12039381D01*
X14618571Y-12039381D02*
X14609048Y-12058428D01*
X14609048Y-12058428D02*
X14599524Y-12067952D01*
X14599524Y-12067952D02*
X14580476Y-12077476D01*
X14580476Y-12077476D02*
X14523333Y-12077476D01*
X14523333Y-12077476D02*
X14504286Y-12067952D01*
X14504286Y-12067952D02*
X14494762Y-12058428D01*
X14742381Y-11877476D02*
X14761429Y-11877476D01*
X14761429Y-11877476D02*
X14780476Y-11887000D01*
X14780476Y-11887000D02*
X14790000Y-11896524D01*
X14790000Y-11896524D02*
X14799524Y-11915571D01*
X14799524Y-11915571D02*
X14809048Y-11953667D01*
X14809048Y-11953667D02*
X14809048Y-12001286D01*
X14809048Y-12001286D02*
X14799524Y-12039381D01*
X14799524Y-12039381D02*
X14790000Y-12058428D01*
X14790000Y-12058428D02*
X14780476Y-12067952D01*
X14780476Y-12067952D02*
X14761429Y-12077476D01*
X14761429Y-12077476D02*
X14742381Y-12077476D01*
X14742381Y-12077476D02*
X14723333Y-12067952D01*
X14723333Y-12067952D02*
X14713809Y-12058428D01*
X14713809Y-12058428D02*
X14704286Y-12039381D01*
X14704286Y-12039381D02*
X14694762Y-12001286D01*
X14694762Y-12001286D02*
X14694762Y-11953667D01*
X14694762Y-11953667D02*
X14704286Y-11915571D01*
X14704286Y-11915571D02*
X14713809Y-11896524D01*
X14713809Y-11896524D02*
X14723333Y-11887000D01*
X14723333Y-11887000D02*
X14742381Y-11877476D01*
X14894762Y-12077476D02*
X14894762Y-11944143D01*
X14894762Y-11963190D02*
X14904286Y-11953667D01*
X14904286Y-11953667D02*
X14923333Y-11944143D01*
X14923333Y-11944143D02*
X14951905Y-11944143D01*
X14951905Y-11944143D02*
X14970952Y-11953667D01*
X14970952Y-11953667D02*
X14980476Y-11972714D01*
X14980476Y-11972714D02*
X14980476Y-12077476D01*
X14980476Y-11972714D02*
X14990000Y-11953667D01*
X14990000Y-11953667D02*
X15009048Y-11944143D01*
X15009048Y-11944143D02*
X15037619Y-11944143D01*
X15037619Y-11944143D02*
X15056667Y-11953667D01*
X15056667Y-11953667D02*
X15066190Y-11972714D01*
X15066190Y-11972714D02*
X15066190Y-12077476D01*
X15161429Y-12077476D02*
X15161429Y-11944143D01*
X15161429Y-11963190D02*
X15170952Y-11953667D01*
X15170952Y-11953667D02*
X15190000Y-11944143D01*
X15190000Y-11944143D02*
X15218571Y-11944143D01*
X15218571Y-11944143D02*
X15237619Y-11953667D01*
X15237619Y-11953667D02*
X15247143Y-11972714D01*
X15247143Y-11972714D02*
X15247143Y-12077476D01*
X15247143Y-11972714D02*
X15256667Y-11953667D01*
X15256667Y-11953667D02*
X15275714Y-11944143D01*
X15275714Y-11944143D02*
X15304286Y-11944143D01*
X15304286Y-11944143D02*
X15323333Y-11953667D01*
X15323333Y-11953667D02*
X15332857Y-11972714D01*
X15332857Y-11972714D02*
X15332857Y-12077476D01*
X15690952Y-11867952D02*
X15519524Y-12125095D01*
X15915714Y-11877476D02*
X15934762Y-11877476D01*
X15934762Y-11877476D02*
X15953810Y-11887000D01*
X15953810Y-11887000D02*
X15963333Y-11896524D01*
X15963333Y-11896524D02*
X15972857Y-11915571D01*
X15972857Y-11915571D02*
X15982381Y-11953667D01*
X15982381Y-11953667D02*
X15982381Y-12001286D01*
X15982381Y-12001286D02*
X15972857Y-12039381D01*
X15972857Y-12039381D02*
X15963333Y-12058428D01*
X15963333Y-12058428D02*
X15953810Y-12067952D01*
X15953810Y-12067952D02*
X15934762Y-12077476D01*
X15934762Y-12077476D02*
X15915714Y-12077476D01*
X15915714Y-12077476D02*
X15896667Y-12067952D01*
X15896667Y-12067952D02*
X15887143Y-12058428D01*
X15887143Y-12058428D02*
X15877619Y-12039381D01*
X15877619Y-12039381D02*
X15868095Y-12001286D01*
X15868095Y-12001286D02*
X15868095Y-11953667D01*
X15868095Y-11953667D02*
X15877619Y-11915571D01*
X15877619Y-11915571D02*
X15887143Y-11896524D01*
X15887143Y-11896524D02*
X15896667Y-11887000D01*
X15896667Y-11887000D02*
X15915714Y-11877476D01*
X16068095Y-12058428D02*
X16077619Y-12067952D01*
X16077619Y-12067952D02*
X16068095Y-12077476D01*
X16068095Y-12077476D02*
X16058571Y-12067952D01*
X16058571Y-12067952D02*
X16068095Y-12058428D01*
X16068095Y-12058428D02*
X16068095Y-12077476D01*
X16201429Y-11877476D02*
X16220476Y-11877476D01*
X16220476Y-11877476D02*
X16239524Y-11887000D01*
X16239524Y-11887000D02*
X16249048Y-11896524D01*
X16249048Y-11896524D02*
X16258571Y-11915571D01*
X16258571Y-11915571D02*
X16268095Y-11953667D01*
X16268095Y-11953667D02*
X16268095Y-12001286D01*
X16268095Y-12001286D02*
X16258571Y-12039381D01*
X16258571Y-12039381D02*
X16249048Y-12058428D01*
X16249048Y-12058428D02*
X16239524Y-12067952D01*
X16239524Y-12067952D02*
X16220476Y-12077476D01*
X16220476Y-12077476D02*
X16201429Y-12077476D01*
X16201429Y-12077476D02*
X16182381Y-12067952D01*
X16182381Y-12067952D02*
X16172857Y-12058428D01*
X16172857Y-12058428D02*
X16163333Y-12039381D01*
X16163333Y-12039381D02*
X16153810Y-12001286D01*
X16153810Y-12001286D02*
X16153810Y-11953667D01*
X16153810Y-11953667D02*
X16163333Y-11915571D01*
X16163333Y-11915571D02*
X16172857Y-11896524D01*
X16172857Y-11896524D02*
X16182381Y-11887000D01*
X16182381Y-11887000D02*
X16201429Y-11877476D01*
X16458571Y-12077476D02*
X16344286Y-12077476D01*
X16401429Y-12077476D02*
X16401429Y-11877476D01*
X16401429Y-11877476D02*
X16382381Y-11906048D01*
X16382381Y-11906048D02*
X16363333Y-11925095D01*
X16363333Y-11925095D02*
X16344286Y-11934619D01*
X16525238Y-11877476D02*
X16649048Y-11877476D01*
X16649048Y-11877476D02*
X16582381Y-11953667D01*
X16582381Y-11953667D02*
X16610952Y-11953667D01*
X16610952Y-11953667D02*
X16630000Y-11963190D01*
X16630000Y-11963190D02*
X16639524Y-11972714D01*
X16639524Y-11972714D02*
X16649048Y-11991762D01*
X16649048Y-11991762D02*
X16649048Y-12039381D01*
X16649048Y-12039381D02*
X16639524Y-12058428D01*
X16639524Y-12058428D02*
X16630000Y-12067952D01*
X16630000Y-12067952D02*
X16610952Y-12077476D01*
X16610952Y-12077476D02*
X16553810Y-12077476D01*
X16553810Y-12077476D02*
X16534762Y-12067952D01*
X16534762Y-12067952D02*
X16525238Y-12058428D01*
X16772857Y-11877476D02*
X16791905Y-11877476D01*
X16791905Y-11877476D02*
X16810953Y-11887000D01*
X16810953Y-11887000D02*
X16820476Y-11896524D01*
X16820476Y-11896524D02*
X16830000Y-11915571D01*
X16830000Y-11915571D02*
X16839524Y-11953667D01*
X16839524Y-11953667D02*
X16839524Y-12001286D01*
X16839524Y-12001286D02*
X16830000Y-12039381D01*
X16830000Y-12039381D02*
X16820476Y-12058428D01*
X16820476Y-12058428D02*
X16810953Y-12067952D01*
X16810953Y-12067952D02*
X16791905Y-12077476D01*
X16791905Y-12077476D02*
X16772857Y-12077476D01*
X16772857Y-12077476D02*
X16753810Y-12067952D01*
X16753810Y-12067952D02*
X16744286Y-12058428D01*
X16744286Y-12058428D02*
X16734762Y-12039381D01*
X16734762Y-12039381D02*
X16725238Y-12001286D01*
X16725238Y-12001286D02*
X16725238Y-11953667D01*
X16725238Y-11953667D02*
X16734762Y-11915571D01*
X16734762Y-11915571D02*
X16744286Y-11896524D01*
X16744286Y-11896524D02*
X16753810Y-11887000D01*
X16753810Y-11887000D02*
X16772857Y-11877476D01*
X16915714Y-11877476D02*
X16915714Y-11915571D01*
X16991905Y-11877476D02*
X16991905Y-11915571D01*
X17254762Y-12153667D02*
X17245238Y-12144143D01*
X17245238Y-12144143D02*
X17226191Y-12115571D01*
X17226191Y-12115571D02*
X17216667Y-12096524D01*
X17216667Y-12096524D02*
X17207143Y-12067952D01*
X17207143Y-12067952D02*
X17197619Y-12020333D01*
X17197619Y-12020333D02*
X17197619Y-11982238D01*
X17197619Y-11982238D02*
X17207143Y-11934619D01*
X17207143Y-11934619D02*
X17216667Y-11906048D01*
X17216667Y-11906048D02*
X17226191Y-11887000D01*
X17226191Y-11887000D02*
X17245238Y-11858428D01*
X17245238Y-11858428D02*
X17254762Y-11848905D01*
X17321429Y-11896524D02*
X17330953Y-11887000D01*
X17330953Y-11887000D02*
X17350000Y-11877476D01*
X17350000Y-11877476D02*
X17397619Y-11877476D01*
X17397619Y-11877476D02*
X17416667Y-11887000D01*
X17416667Y-11887000D02*
X17426191Y-11896524D01*
X17426191Y-11896524D02*
X17435714Y-11915571D01*
X17435714Y-11915571D02*
X17435714Y-11934619D01*
X17435714Y-11934619D02*
X17426191Y-11963190D01*
X17426191Y-11963190D02*
X17311905Y-12077476D01*
X17311905Y-12077476D02*
X17435714Y-12077476D01*
X17641429Y-12077476D02*
X17641429Y-11877476D01*
X17727143Y-12077476D02*
X17727143Y-11972714D01*
X17727143Y-11972714D02*
X17717619Y-11953667D01*
X17717619Y-11953667D02*
X17698572Y-11944143D01*
X17698572Y-11944143D02*
X17670000Y-11944143D01*
X17670000Y-11944143D02*
X17650953Y-11953667D01*
X17650953Y-11953667D02*
X17641429Y-11963190D01*
X17850953Y-12077476D02*
X17831905Y-12067952D01*
X17831905Y-12067952D02*
X17822381Y-12058428D01*
X17822381Y-12058428D02*
X17812857Y-12039381D01*
X17812857Y-12039381D02*
X17812857Y-11982238D01*
X17812857Y-11982238D02*
X17822381Y-11963190D01*
X17822381Y-11963190D02*
X17831905Y-11953667D01*
X17831905Y-11953667D02*
X17850953Y-11944143D01*
X17850953Y-11944143D02*
X17879524Y-11944143D01*
X17879524Y-11944143D02*
X17898572Y-11953667D01*
X17898572Y-11953667D02*
X17908095Y-11963190D01*
X17908095Y-11963190D02*
X17917619Y-11982238D01*
X17917619Y-11982238D02*
X17917619Y-12039381D01*
X17917619Y-12039381D02*
X17908095Y-12058428D01*
X17908095Y-12058428D02*
X17898572Y-12067952D01*
X17898572Y-12067952D02*
X17879524Y-12077476D01*
X17879524Y-12077476D02*
X17850953Y-12077476D01*
X18031905Y-12077476D02*
X18012857Y-12067952D01*
X18012857Y-12067952D02*
X18003334Y-12048905D01*
X18003334Y-12048905D02*
X18003334Y-11877476D01*
X18184286Y-12067952D02*
X18165238Y-12077476D01*
X18165238Y-12077476D02*
X18127143Y-12077476D01*
X18127143Y-12077476D02*
X18108095Y-12067952D01*
X18108095Y-12067952D02*
X18098572Y-12048905D01*
X18098572Y-12048905D02*
X18098572Y-11972714D01*
X18098572Y-11972714D02*
X18108095Y-11953667D01*
X18108095Y-11953667D02*
X18127143Y-11944143D01*
X18127143Y-11944143D02*
X18165238Y-11944143D01*
X18165238Y-11944143D02*
X18184286Y-11953667D01*
X18184286Y-11953667D02*
X18193810Y-11972714D01*
X18193810Y-11972714D02*
X18193810Y-11991762D01*
X18193810Y-11991762D02*
X18098572Y-12010809D01*
X18270000Y-12067952D02*
X18289048Y-12077476D01*
X18289048Y-12077476D02*
X18327143Y-12077476D01*
X18327143Y-12077476D02*
X18346191Y-12067952D01*
X18346191Y-12067952D02*
X18355715Y-12048905D01*
X18355715Y-12048905D02*
X18355715Y-12039381D01*
X18355715Y-12039381D02*
X18346191Y-12020333D01*
X18346191Y-12020333D02*
X18327143Y-12010809D01*
X18327143Y-12010809D02*
X18298572Y-12010809D01*
X18298572Y-12010809D02*
X18279524Y-12001286D01*
X18279524Y-12001286D02*
X18270000Y-11982238D01*
X18270000Y-11982238D02*
X18270000Y-11972714D01*
X18270000Y-11972714D02*
X18279524Y-11953667D01*
X18279524Y-11953667D02*
X18298572Y-11944143D01*
X18298572Y-11944143D02*
X18327143Y-11944143D01*
X18327143Y-11944143D02*
X18346191Y-11953667D01*
X18422381Y-12153667D02*
X18431905Y-12144143D01*
X18431905Y-12144143D02*
X18450953Y-12115571D01*
X18450953Y-12115571D02*
X18460476Y-12096524D01*
X18460476Y-12096524D02*
X18470000Y-12067952D01*
X18470000Y-12067952D02*
X18479524Y-12020333D01*
X18479524Y-12020333D02*
X18479524Y-11982238D01*
X18479524Y-11982238D02*
X18470000Y-11934619D01*
X18470000Y-11934619D02*
X18460476Y-11906048D01*
X18460476Y-11906048D02*
X18450953Y-11887000D01*
X18450953Y-11887000D02*
X18431905Y-11858428D01*
X18431905Y-11858428D02*
X18422381Y-11848905D01*
X13690000Y-12168000D02*
X13690000Y-12368000D01*
X13590000Y-12268000D02*
X13790000Y-12268000D01*
X14028095Y-12160524D02*
X14037619Y-12151000D01*
X14037619Y-12151000D02*
X14056667Y-12141476D01*
X14056667Y-12141476D02*
X14104286Y-12141476D01*
X14104286Y-12141476D02*
X14123333Y-12151000D01*
X14123333Y-12151000D02*
X14132857Y-12160524D01*
X14132857Y-12160524D02*
X14142381Y-12179571D01*
X14142381Y-12179571D02*
X14142381Y-12198619D01*
X14142381Y-12198619D02*
X14132857Y-12227190D01*
X14132857Y-12227190D02*
X14018571Y-12341476D01*
X14018571Y-12341476D02*
X14142381Y-12341476D01*
X14228095Y-12322428D02*
X14237619Y-12331952D01*
X14237619Y-12331952D02*
X14228095Y-12341476D01*
X14228095Y-12341476D02*
X14218571Y-12331952D01*
X14218571Y-12331952D02*
X14228095Y-12322428D01*
X14228095Y-12322428D02*
X14228095Y-12341476D01*
X14313809Y-12160524D02*
X14323333Y-12151000D01*
X14323333Y-12151000D02*
X14342381Y-12141476D01*
X14342381Y-12141476D02*
X14390000Y-12141476D01*
X14390000Y-12141476D02*
X14409048Y-12151000D01*
X14409048Y-12151000D02*
X14418571Y-12160524D01*
X14418571Y-12160524D02*
X14428095Y-12179571D01*
X14428095Y-12179571D02*
X14428095Y-12198619D01*
X14428095Y-12198619D02*
X14418571Y-12227190D01*
X14418571Y-12227190D02*
X14304286Y-12341476D01*
X14304286Y-12341476D02*
X14428095Y-12341476D01*
X14551905Y-12141476D02*
X14570952Y-12141476D01*
X14570952Y-12141476D02*
X14590000Y-12151000D01*
X14590000Y-12151000D02*
X14599524Y-12160524D01*
X14599524Y-12160524D02*
X14609048Y-12179571D01*
X14609048Y-12179571D02*
X14618571Y-12217667D01*
X14618571Y-12217667D02*
X14618571Y-12265286D01*
X14618571Y-12265286D02*
X14609048Y-12303381D01*
X14609048Y-12303381D02*
X14599524Y-12322428D01*
X14599524Y-12322428D02*
X14590000Y-12331952D01*
X14590000Y-12331952D02*
X14570952Y-12341476D01*
X14570952Y-12341476D02*
X14551905Y-12341476D01*
X14551905Y-12341476D02*
X14532857Y-12331952D01*
X14532857Y-12331952D02*
X14523333Y-12322428D01*
X14523333Y-12322428D02*
X14513809Y-12303381D01*
X14513809Y-12303381D02*
X14504286Y-12265286D01*
X14504286Y-12265286D02*
X14504286Y-12217667D01*
X14504286Y-12217667D02*
X14513809Y-12179571D01*
X14513809Y-12179571D02*
X14523333Y-12160524D01*
X14523333Y-12160524D02*
X14532857Y-12151000D01*
X14532857Y-12151000D02*
X14551905Y-12141476D01*
X14742381Y-12141476D02*
X14761429Y-12141476D01*
X14761429Y-12141476D02*
X14780476Y-12151000D01*
X14780476Y-12151000D02*
X14790000Y-12160524D01*
X14790000Y-12160524D02*
X14799524Y-12179571D01*
X14799524Y-12179571D02*
X14809048Y-12217667D01*
X14809048Y-12217667D02*
X14809048Y-12265286D01*
X14809048Y-12265286D02*
X14799524Y-12303381D01*
X14799524Y-12303381D02*
X14790000Y-12322428D01*
X14790000Y-12322428D02*
X14780476Y-12331952D01*
X14780476Y-12331952D02*
X14761429Y-12341476D01*
X14761429Y-12341476D02*
X14742381Y-12341476D01*
X14742381Y-12341476D02*
X14723333Y-12331952D01*
X14723333Y-12331952D02*
X14713809Y-12322428D01*
X14713809Y-12322428D02*
X14704286Y-12303381D01*
X14704286Y-12303381D02*
X14694762Y-12265286D01*
X14694762Y-12265286D02*
X14694762Y-12217667D01*
X14694762Y-12217667D02*
X14704286Y-12179571D01*
X14704286Y-12179571D02*
X14713809Y-12160524D01*
X14713809Y-12160524D02*
X14723333Y-12151000D01*
X14723333Y-12151000D02*
X14742381Y-12141476D01*
X14894762Y-12341476D02*
X14894762Y-12208143D01*
X14894762Y-12227190D02*
X14904286Y-12217667D01*
X14904286Y-12217667D02*
X14923333Y-12208143D01*
X14923333Y-12208143D02*
X14951905Y-12208143D01*
X14951905Y-12208143D02*
X14970952Y-12217667D01*
X14970952Y-12217667D02*
X14980476Y-12236714D01*
X14980476Y-12236714D02*
X14980476Y-12341476D01*
X14980476Y-12236714D02*
X14990000Y-12217667D01*
X14990000Y-12217667D02*
X15009048Y-12208143D01*
X15009048Y-12208143D02*
X15037619Y-12208143D01*
X15037619Y-12208143D02*
X15056667Y-12217667D01*
X15056667Y-12217667D02*
X15066190Y-12236714D01*
X15066190Y-12236714D02*
X15066190Y-12341476D01*
X15161429Y-12341476D02*
X15161429Y-12208143D01*
X15161429Y-12227190D02*
X15170952Y-12217667D01*
X15170952Y-12217667D02*
X15190000Y-12208143D01*
X15190000Y-12208143D02*
X15218571Y-12208143D01*
X15218571Y-12208143D02*
X15237619Y-12217667D01*
X15237619Y-12217667D02*
X15247143Y-12236714D01*
X15247143Y-12236714D02*
X15247143Y-12341476D01*
X15247143Y-12236714D02*
X15256667Y-12217667D01*
X15256667Y-12217667D02*
X15275714Y-12208143D01*
X15275714Y-12208143D02*
X15304286Y-12208143D01*
X15304286Y-12208143D02*
X15323333Y-12217667D01*
X15323333Y-12217667D02*
X15332857Y-12236714D01*
X15332857Y-12236714D02*
X15332857Y-12341476D01*
X15690952Y-12131952D02*
X15519524Y-12389095D01*
X15915714Y-12141476D02*
X15934762Y-12141476D01*
X15934762Y-12141476D02*
X15953810Y-12151000D01*
X15953810Y-12151000D02*
X15963333Y-12160524D01*
X15963333Y-12160524D02*
X15972857Y-12179571D01*
X15972857Y-12179571D02*
X15982381Y-12217667D01*
X15982381Y-12217667D02*
X15982381Y-12265286D01*
X15982381Y-12265286D02*
X15972857Y-12303381D01*
X15972857Y-12303381D02*
X15963333Y-12322428D01*
X15963333Y-12322428D02*
X15953810Y-12331952D01*
X15953810Y-12331952D02*
X15934762Y-12341476D01*
X15934762Y-12341476D02*
X15915714Y-12341476D01*
X15915714Y-12341476D02*
X15896667Y-12331952D01*
X15896667Y-12331952D02*
X15887143Y-12322428D01*
X15887143Y-12322428D02*
X15877619Y-12303381D01*
X15877619Y-12303381D02*
X15868095Y-12265286D01*
X15868095Y-12265286D02*
X15868095Y-12217667D01*
X15868095Y-12217667D02*
X15877619Y-12179571D01*
X15877619Y-12179571D02*
X15887143Y-12160524D01*
X15887143Y-12160524D02*
X15896667Y-12151000D01*
X15896667Y-12151000D02*
X15915714Y-12141476D01*
X16068095Y-12322428D02*
X16077619Y-12331952D01*
X16077619Y-12331952D02*
X16068095Y-12341476D01*
X16068095Y-12341476D02*
X16058571Y-12331952D01*
X16058571Y-12331952D02*
X16068095Y-12322428D01*
X16068095Y-12322428D02*
X16068095Y-12341476D01*
X16201429Y-12141476D02*
X16220476Y-12141476D01*
X16220476Y-12141476D02*
X16239524Y-12151000D01*
X16239524Y-12151000D02*
X16249048Y-12160524D01*
X16249048Y-12160524D02*
X16258571Y-12179571D01*
X16258571Y-12179571D02*
X16268095Y-12217667D01*
X16268095Y-12217667D02*
X16268095Y-12265286D01*
X16268095Y-12265286D02*
X16258571Y-12303381D01*
X16258571Y-12303381D02*
X16249048Y-12322428D01*
X16249048Y-12322428D02*
X16239524Y-12331952D01*
X16239524Y-12331952D02*
X16220476Y-12341476D01*
X16220476Y-12341476D02*
X16201429Y-12341476D01*
X16201429Y-12341476D02*
X16182381Y-12331952D01*
X16182381Y-12331952D02*
X16172857Y-12322428D01*
X16172857Y-12322428D02*
X16163333Y-12303381D01*
X16163333Y-12303381D02*
X16153810Y-12265286D01*
X16153810Y-12265286D02*
X16153810Y-12217667D01*
X16153810Y-12217667D02*
X16163333Y-12179571D01*
X16163333Y-12179571D02*
X16172857Y-12160524D01*
X16172857Y-12160524D02*
X16182381Y-12151000D01*
X16182381Y-12151000D02*
X16201429Y-12141476D01*
X16382381Y-12227190D02*
X16363333Y-12217667D01*
X16363333Y-12217667D02*
X16353810Y-12208143D01*
X16353810Y-12208143D02*
X16344286Y-12189095D01*
X16344286Y-12189095D02*
X16344286Y-12179571D01*
X16344286Y-12179571D02*
X16353810Y-12160524D01*
X16353810Y-12160524D02*
X16363333Y-12151000D01*
X16363333Y-12151000D02*
X16382381Y-12141476D01*
X16382381Y-12141476D02*
X16420476Y-12141476D01*
X16420476Y-12141476D02*
X16439524Y-12151000D01*
X16439524Y-12151000D02*
X16449048Y-12160524D01*
X16449048Y-12160524D02*
X16458571Y-12179571D01*
X16458571Y-12179571D02*
X16458571Y-12189095D01*
X16458571Y-12189095D02*
X16449048Y-12208143D01*
X16449048Y-12208143D02*
X16439524Y-12217667D01*
X16439524Y-12217667D02*
X16420476Y-12227190D01*
X16420476Y-12227190D02*
X16382381Y-12227190D01*
X16382381Y-12227190D02*
X16363333Y-12236714D01*
X16363333Y-12236714D02*
X16353810Y-12246238D01*
X16353810Y-12246238D02*
X16344286Y-12265286D01*
X16344286Y-12265286D02*
X16344286Y-12303381D01*
X16344286Y-12303381D02*
X16353810Y-12322428D01*
X16353810Y-12322428D02*
X16363333Y-12331952D01*
X16363333Y-12331952D02*
X16382381Y-12341476D01*
X16382381Y-12341476D02*
X16420476Y-12341476D01*
X16420476Y-12341476D02*
X16439524Y-12331952D01*
X16439524Y-12331952D02*
X16449048Y-12322428D01*
X16449048Y-12322428D02*
X16458571Y-12303381D01*
X16458571Y-12303381D02*
X16458571Y-12265286D01*
X16458571Y-12265286D02*
X16449048Y-12246238D01*
X16449048Y-12246238D02*
X16439524Y-12236714D01*
X16439524Y-12236714D02*
X16420476Y-12227190D01*
X16630000Y-12141476D02*
X16591905Y-12141476D01*
X16591905Y-12141476D02*
X16572857Y-12151000D01*
X16572857Y-12151000D02*
X16563333Y-12160524D01*
X16563333Y-12160524D02*
X16544286Y-12189095D01*
X16544286Y-12189095D02*
X16534762Y-12227190D01*
X16534762Y-12227190D02*
X16534762Y-12303381D01*
X16534762Y-12303381D02*
X16544286Y-12322428D01*
X16544286Y-12322428D02*
X16553810Y-12331952D01*
X16553810Y-12331952D02*
X16572857Y-12341476D01*
X16572857Y-12341476D02*
X16610952Y-12341476D01*
X16610952Y-12341476D02*
X16630000Y-12331952D01*
X16630000Y-12331952D02*
X16639524Y-12322428D01*
X16639524Y-12322428D02*
X16649048Y-12303381D01*
X16649048Y-12303381D02*
X16649048Y-12255762D01*
X16649048Y-12255762D02*
X16639524Y-12236714D01*
X16639524Y-12236714D02*
X16630000Y-12227190D01*
X16630000Y-12227190D02*
X16610952Y-12217667D01*
X16610952Y-12217667D02*
X16572857Y-12217667D01*
X16572857Y-12217667D02*
X16553810Y-12227190D01*
X16553810Y-12227190D02*
X16544286Y-12236714D01*
X16544286Y-12236714D02*
X16534762Y-12255762D01*
X16820476Y-12141476D02*
X16782381Y-12141476D01*
X16782381Y-12141476D02*
X16763333Y-12151000D01*
X16763333Y-12151000D02*
X16753810Y-12160524D01*
X16753810Y-12160524D02*
X16734762Y-12189095D01*
X16734762Y-12189095D02*
X16725238Y-12227190D01*
X16725238Y-12227190D02*
X16725238Y-12303381D01*
X16725238Y-12303381D02*
X16734762Y-12322428D01*
X16734762Y-12322428D02*
X16744286Y-12331952D01*
X16744286Y-12331952D02*
X16763333Y-12341476D01*
X16763333Y-12341476D02*
X16801429Y-12341476D01*
X16801429Y-12341476D02*
X16820476Y-12331952D01*
X16820476Y-12331952D02*
X16830000Y-12322428D01*
X16830000Y-12322428D02*
X16839524Y-12303381D01*
X16839524Y-12303381D02*
X16839524Y-12255762D01*
X16839524Y-12255762D02*
X16830000Y-12236714D01*
X16830000Y-12236714D02*
X16820476Y-12227190D01*
X16820476Y-12227190D02*
X16801429Y-12217667D01*
X16801429Y-12217667D02*
X16763333Y-12217667D01*
X16763333Y-12217667D02*
X16744286Y-12227190D01*
X16744286Y-12227190D02*
X16734762Y-12236714D01*
X16734762Y-12236714D02*
X16725238Y-12255762D01*
X16915714Y-12141476D02*
X16915714Y-12179571D01*
X16991905Y-12141476D02*
X16991905Y-12179571D01*
X17254762Y-12417667D02*
X17245238Y-12408143D01*
X17245238Y-12408143D02*
X17226191Y-12379571D01*
X17226191Y-12379571D02*
X17216667Y-12360524D01*
X17216667Y-12360524D02*
X17207143Y-12331952D01*
X17207143Y-12331952D02*
X17197619Y-12284333D01*
X17197619Y-12284333D02*
X17197619Y-12246238D01*
X17197619Y-12246238D02*
X17207143Y-12198619D01*
X17207143Y-12198619D02*
X17216667Y-12170048D01*
X17216667Y-12170048D02*
X17226191Y-12151000D01*
X17226191Y-12151000D02*
X17245238Y-12122428D01*
X17245238Y-12122428D02*
X17254762Y-12112905D01*
X17435714Y-12341476D02*
X17321429Y-12341476D01*
X17378572Y-12341476D02*
X17378572Y-12141476D01*
X17378572Y-12141476D02*
X17359524Y-12170048D01*
X17359524Y-12170048D02*
X17340476Y-12189095D01*
X17340476Y-12189095D02*
X17321429Y-12198619D01*
X17641429Y-12341476D02*
X17641429Y-12141476D01*
X17727143Y-12341476D02*
X17727143Y-12236714D01*
X17727143Y-12236714D02*
X17717619Y-12217667D01*
X17717619Y-12217667D02*
X17698572Y-12208143D01*
X17698572Y-12208143D02*
X17670000Y-12208143D01*
X17670000Y-12208143D02*
X17650953Y-12217667D01*
X17650953Y-12217667D02*
X17641429Y-12227190D01*
X17850953Y-12341476D02*
X17831905Y-12331952D01*
X17831905Y-12331952D02*
X17822381Y-12322428D01*
X17822381Y-12322428D02*
X17812857Y-12303381D01*
X17812857Y-12303381D02*
X17812857Y-12246238D01*
X17812857Y-12246238D02*
X17822381Y-12227190D01*
X17822381Y-12227190D02*
X17831905Y-12217667D01*
X17831905Y-12217667D02*
X17850953Y-12208143D01*
X17850953Y-12208143D02*
X17879524Y-12208143D01*
X17879524Y-12208143D02*
X17898572Y-12217667D01*
X17898572Y-12217667D02*
X17908095Y-12227190D01*
X17908095Y-12227190D02*
X17917619Y-12246238D01*
X17917619Y-12246238D02*
X17917619Y-12303381D01*
X17917619Y-12303381D02*
X17908095Y-12322428D01*
X17908095Y-12322428D02*
X17898572Y-12331952D01*
X17898572Y-12331952D02*
X17879524Y-12341476D01*
X17879524Y-12341476D02*
X17850953Y-12341476D01*
X18031905Y-12341476D02*
X18012857Y-12331952D01*
X18012857Y-12331952D02*
X18003334Y-12312905D01*
X18003334Y-12312905D02*
X18003334Y-12141476D01*
X18184286Y-12331952D02*
X18165238Y-12341476D01*
X18165238Y-12341476D02*
X18127143Y-12341476D01*
X18127143Y-12341476D02*
X18108095Y-12331952D01*
X18108095Y-12331952D02*
X18098572Y-12312905D01*
X18098572Y-12312905D02*
X18098572Y-12236714D01*
X18098572Y-12236714D02*
X18108095Y-12217667D01*
X18108095Y-12217667D02*
X18127143Y-12208143D01*
X18127143Y-12208143D02*
X18165238Y-12208143D01*
X18165238Y-12208143D02*
X18184286Y-12217667D01*
X18184286Y-12217667D02*
X18193810Y-12236714D01*
X18193810Y-12236714D02*
X18193810Y-12255762D01*
X18193810Y-12255762D02*
X18098572Y-12274809D01*
X18260476Y-12417667D02*
X18270000Y-12408143D01*
X18270000Y-12408143D02*
X18289048Y-12379571D01*
X18289048Y-12379571D02*
X18298572Y-12360524D01*
X18298572Y-12360524D02*
X18308095Y-12331952D01*
X18308095Y-12331952D02*
X18317619Y-12284333D01*
X18317619Y-12284333D02*
X18317619Y-12246238D01*
X18317619Y-12246238D02*
X18308095Y-12198619D01*
X18308095Y-12198619D02*
X18298572Y-12170048D01*
X18298572Y-12170048D02*
X18289048Y-12151000D01*
X18289048Y-12151000D02*
X18270000Y-12122428D01*
X18270000Y-12122428D02*
X18260476Y-12112905D01*
M02*
