%TF.GenerationSoftware,KiCad,Pcbnew,(7.0.0-rc2-153-g7d6218acb4)*%
%TF.CreationDate,2023-02-19T16:48:28+08:00*%
%TF.ProjectId,RAK3172-M.2-2230-Mod,52414b33-3137-4322-9d4d-2e322d323233,rev?*%
%TF.SameCoordinates,Original*%
%TF.FileFunction,Copper,L2,Inr*%
%TF.FilePolarity,Positive*%
%FSLAX46Y46*%
G04 Gerber Fmt 4.6, Leading zero omitted, Abs format (unit mm)*
G04 Created by KiCad (PCBNEW (7.0.0-rc2-153-g7d6218acb4)) date 2023-02-19 16:48:28*
%MOMM*%
%LPD*%
G01*
G04 APERTURE LIST*
%TA.AperFunction,ComponentPad*%
%ADD10C,2.600000*%
%TD*%
%TA.AperFunction,ViaPad*%
%ADD11C,0.450000*%
%TD*%
%TA.AperFunction,ViaPad*%
%ADD12C,0.600000*%
%TD*%
%TA.AperFunction,ViaPad*%
%ADD13C,0.685800*%
%TD*%
G04 APERTURE END LIST*
D10*
%TO.N,GND*%
%TO.C,H301*%
X148950000Y-80975000D03*
%TD*%
D11*
%TO.N,GND*%
X155902670Y-106680949D03*
X138750000Y-86805000D03*
X138680000Y-92735000D03*
X138650000Y-94675000D03*
X138500000Y-99195000D03*
X155700000Y-86475000D03*
X154450000Y-86475000D03*
X151950000Y-87575000D03*
X150350000Y-87575000D03*
X143750000Y-86375000D03*
X141050000Y-102975000D03*
X138950000Y-102975000D03*
X139950000Y-102975000D03*
X151050000Y-96775000D03*
X143350000Y-97475000D03*
X144350000Y-99775000D03*
X145450000Y-99875000D03*
X154450000Y-83375000D03*
X153750000Y-83375000D03*
X155850000Y-89875000D03*
X157996159Y-89931828D03*
X157996159Y-93597655D03*
X158000459Y-94913483D03*
X153250000Y-100875000D03*
X155850000Y-98375000D03*
X155850000Y-97175000D03*
X146650000Y-105575000D03*
X159250000Y-105975000D03*
X158650000Y-106475000D03*
X152550000Y-106675000D03*
X150850000Y-106675000D03*
X149450000Y-106675000D03*
X147950000Y-106675000D03*
X142450000Y-106675000D03*
X144350000Y-106675000D03*
X145050000Y-106675000D03*
X145750000Y-106675000D03*
X145950000Y-100775000D03*
D12*
X138900000Y-106125000D03*
D11*
%TO.N,DFU_~{RST}*%
X141550000Y-105475000D03*
%TO.N,CTS*%
X154450000Y-106175000D03*
%TO.N,RTS*%
X156328379Y-105077016D03*
%TO.N,CTS*%
X155550000Y-99175000D03*
%TO.N,RTS*%
X155550000Y-99775000D03*
%TO.N,F1{slash}~{CS}*%
X157850000Y-89175000D03*
X156450000Y-94225000D03*
%TO.N,TX*%
X156950000Y-94725000D03*
X157950000Y-95725000D03*
%TO.N,3.3V*%
X144456114Y-88112627D03*
%TO.N,SPI_SDI*%
X158350000Y-86975000D03*
%TO.N,SPI_SDO*%
X157650000Y-86975000D03*
X157650000Y-87975000D03*
%TO.N,SPI_SDI*%
X158350000Y-87975000D03*
%TO.N,F1{slash}~{CS}*%
X153950000Y-100475000D03*
%TO.N,PWR_EN*%
X141350000Y-106575000D03*
%TO.N,F1{slash}~{CS}*%
X146650000Y-106375000D03*
%TO.N,DFU_FC_RX*%
X155450000Y-95875000D03*
%TO.N,DFU_FC_TX*%
X155450000Y-96475000D03*
%TO.N,I2C_SCL*%
X142400000Y-96475000D03*
%TO.N,I2C_SDA*%
X142400000Y-95875000D03*
%TO.N,GND*%
X142350000Y-93025000D03*
X141750000Y-93775000D03*
D12*
%TO.N,3.3V*%
X140100000Y-95225000D03*
D11*
%TO.N,GND*%
X144350000Y-90175000D03*
X144300000Y-91925000D03*
%TO.N,DFU_~{RST}*%
X139650000Y-94725000D03*
D13*
%TO.N,3.3V*%
X139350000Y-89125000D03*
X139350000Y-90775000D03*
D11*
%TO.N,Net-(D201-A)*%
X152200000Y-83225000D03*
%TO.N,/RAK3172/PB1*%
X140850000Y-92775000D03*
%TO.N,Net-(SW201-B)*%
X158450000Y-84475000D03*
%TO.N,/RAK3172/BOOT0*%
X147550000Y-87425000D03*
%TO.N,DFU_~{RST}*%
X146600000Y-87425000D03*
%TO.N,/RAK3172/VDDRF*%
X142550000Y-90475000D03*
%TO.N,/RAK3172/VDDPA*%
X142550000Y-89875000D03*
%TO.N,3.3V*%
X142526500Y-91075000D03*
X148050000Y-98375000D03*
X147450000Y-98375000D03*
X146350001Y-98475001D03*
X145650000Y-98375000D03*
D12*
%TO.N,GND*%
X138850000Y-85575000D03*
X142050000Y-85575000D03*
X142150000Y-81975000D03*
X138850000Y-81975000D03*
X142950000Y-82075000D03*
X142750000Y-84975000D03*
X143450000Y-82775000D03*
X144350000Y-82775000D03*
X145250000Y-82775000D03*
X146150000Y-82775000D03*
X147050000Y-82775000D03*
X150250000Y-83175000D03*
X151450000Y-84275000D03*
X151750000Y-84975000D03*
X144550000Y-84675000D03*
X145450000Y-84675000D03*
X146350000Y-84675000D03*
X148550000Y-84575000D03*
X149450000Y-84575000D03*
X150150000Y-84975000D03*
%TO.N,3.3V*%
X154050000Y-98775000D03*
%TO.N,GND*%
X151150000Y-100475000D03*
X151150000Y-99775000D03*
%TO.N,/RAK3172/VDDSMPS*%
X150650000Y-98775000D03*
D11*
%TO.N,/M.2 E-Key Connector/EEPROM_WP*%
X153050000Y-105175000D03*
%TO.N,3.3V*%
X155232578Y-101725000D03*
%TO.N,GND*%
X154750000Y-103575000D03*
%TO.N,I2C_SDA*%
X155700000Y-105175000D03*
%TO.N,I2C_SCL*%
X153750000Y-105175000D03*
D12*
%TO.N,GND*%
X154750000Y-105083466D03*
D11*
%TO.N,3.3V*%
X150050000Y-102475000D03*
X150050000Y-101875000D03*
X151450000Y-101575000D03*
X152150000Y-101575000D03*
X150750000Y-101575000D03*
%TO.N,+5V*%
X144550000Y-104475000D03*
%TO.N,Net-(U401-FB)*%
X146750000Y-103275000D03*
%TO.N,/Power Supply/3.3VPG*%
X146750000Y-104175000D03*
%TO.N,PWR_EN*%
X150190000Y-104125000D03*
D12*
%TO.N,GND*%
X149960746Y-103451906D03*
D11*
X148450652Y-104960000D03*
X148450000Y-103975000D03*
%TO.N,/M.2 E-Key Connector/V_{CC}Fused*%
X143350000Y-103375000D03*
X142550000Y-103775000D03*
X142550000Y-104575000D03*
X141750000Y-104575000D03*
X141750000Y-103775000D03*
D12*
%TO.N,GND*%
X145700000Y-95225000D03*
X149450000Y-89725000D03*
X149450000Y-91475000D03*
X151200000Y-91475000D03*
X148450000Y-91475000D03*
X152200000Y-91475000D03*
X152200000Y-88725000D03*
X151200000Y-94225000D03*
X148450000Y-88725000D03*
X148450000Y-92475000D03*
X146700000Y-92475000D03*
X149450000Y-94225000D03*
X145700000Y-88725000D03*
X152200000Y-95225000D03*
X145700000Y-91475000D03*
X148450000Y-94225000D03*
X152200000Y-94225000D03*
X149450000Y-92475000D03*
X151200000Y-89725000D03*
X149450000Y-95225000D03*
X151200000Y-95225000D03*
X145700000Y-94225000D03*
X149450000Y-88725000D03*
X151200000Y-88725000D03*
X146700000Y-94225000D03*
X152200000Y-92475000D03*
X145700000Y-89725000D03*
X148450000Y-95225000D03*
X146700000Y-89725000D03*
X146700000Y-95225000D03*
X151200000Y-92475000D03*
X152200000Y-89725000D03*
X148450000Y-89725000D03*
X145700000Y-92475000D03*
X146700000Y-88725000D03*
X146700000Y-91475000D03*
%TD*%
%TA.AperFunction,Conductor*%
%TO.N,GND*%
G36*
X159586500Y-81292381D02*
G01*
X159632619Y-81338500D01*
X159649500Y-81401500D01*
X159649500Y-106548500D01*
X159632619Y-106611500D01*
X159586500Y-106657619D01*
X159523500Y-106674500D01*
X159422595Y-106674500D01*
X159375000Y-106674500D01*
X159296158Y-106674500D01*
X159290100Y-106675705D01*
X159290090Y-106675706D01*
X159147567Y-106704056D01*
X159147559Y-106704058D01*
X159141503Y-106705263D01*
X159135796Y-106707626D01*
X159135789Y-106707629D01*
X159001542Y-106763235D01*
X159001531Y-106763240D01*
X158995821Y-106765606D01*
X158990675Y-106769043D01*
X158990670Y-106769047D01*
X158869857Y-106849772D01*
X158869853Y-106849774D01*
X158864711Y-106853211D01*
X158860337Y-106857584D01*
X158860332Y-106857589D01*
X158779827Y-106938095D01*
X158738950Y-106965409D01*
X158690732Y-106975000D01*
X147032409Y-106975000D01*
X146970449Y-106958713D01*
X146924507Y-106914063D01*
X146906460Y-106852593D01*
X146920974Y-106790194D01*
X146954444Y-106753728D01*
X146952844Y-106751881D01*
X146959648Y-106745984D01*
X146967235Y-106741109D01*
X147057529Y-106636903D01*
X147114808Y-106511480D01*
X147134431Y-106375000D01*
X147114808Y-106238520D01*
X147085799Y-106175000D01*
X153965569Y-106175000D01*
X153985192Y-106311480D01*
X153988934Y-106319674D01*
X153988935Y-106319677D01*
X154018276Y-106383923D01*
X154042471Y-106436903D01*
X154132765Y-106541109D01*
X154140348Y-106545982D01*
X154140349Y-106545983D01*
X154241175Y-106610780D01*
X154241177Y-106610781D01*
X154248760Y-106615654D01*
X154381058Y-106654500D01*
X154509933Y-106654500D01*
X154518942Y-106654500D01*
X154651240Y-106615654D01*
X154767235Y-106541109D01*
X154857529Y-106436903D01*
X154914808Y-106311480D01*
X154934431Y-106175000D01*
X154914808Y-106038520D01*
X154857529Y-105913097D01*
X154767235Y-105808891D01*
X154759651Y-105804017D01*
X154759650Y-105804016D01*
X154658824Y-105739219D01*
X154658819Y-105739216D01*
X154651240Y-105734346D01*
X154632028Y-105728705D01*
X154527586Y-105698038D01*
X154527585Y-105698037D01*
X154518942Y-105695500D01*
X154381058Y-105695500D01*
X154372415Y-105698037D01*
X154372413Y-105698038D01*
X154257409Y-105731806D01*
X154257406Y-105731807D01*
X154248760Y-105734346D01*
X154241183Y-105739215D01*
X154241175Y-105739219D01*
X154140349Y-105804016D01*
X154140344Y-105804020D01*
X154132765Y-105808891D01*
X154126863Y-105815701D01*
X154126862Y-105815703D01*
X154048372Y-105906286D01*
X154048369Y-105906289D01*
X154042471Y-105913097D01*
X154038728Y-105921291D01*
X154038727Y-105921294D01*
X153988935Y-106030322D01*
X153988933Y-106030327D01*
X153985192Y-106038520D01*
X153965569Y-106175000D01*
X147085799Y-106175000D01*
X147057529Y-106113097D01*
X146967235Y-106008891D01*
X146959651Y-106004017D01*
X146959650Y-106004016D01*
X146858824Y-105939219D01*
X146858819Y-105939216D01*
X146851240Y-105934346D01*
X146836251Y-105929945D01*
X146727586Y-105898038D01*
X146727585Y-105898037D01*
X146718942Y-105895500D01*
X146581058Y-105895500D01*
X146572415Y-105898037D01*
X146572413Y-105898038D01*
X146457409Y-105931806D01*
X146457406Y-105931807D01*
X146448760Y-105934346D01*
X146441183Y-105939215D01*
X146441175Y-105939219D01*
X146340349Y-106004016D01*
X146340344Y-106004020D01*
X146332765Y-106008891D01*
X146326863Y-106015701D01*
X146326862Y-106015703D01*
X146248372Y-106106286D01*
X146248369Y-106106289D01*
X146242471Y-106113097D01*
X146238728Y-106121291D01*
X146238727Y-106121294D01*
X146188935Y-106230322D01*
X146188933Y-106230327D01*
X146185192Y-106238520D01*
X146165569Y-106375000D01*
X146185192Y-106511480D01*
X146188934Y-106519674D01*
X146188935Y-106519677D01*
X146218276Y-106583923D01*
X146242471Y-106636903D01*
X146332765Y-106741109D01*
X146340350Y-106745983D01*
X146347156Y-106751881D01*
X146345555Y-106753728D01*
X146379026Y-106790194D01*
X146393540Y-106852593D01*
X146375493Y-106914063D01*
X146329551Y-106958713D01*
X146267591Y-106975000D01*
X141890522Y-106975000D01*
X141830136Y-106959587D01*
X141784524Y-106917120D01*
X141764843Y-106857988D01*
X141775909Y-106796657D01*
X141811063Y-106719680D01*
X141814808Y-106711480D01*
X141834431Y-106575000D01*
X141814808Y-106438520D01*
X141757529Y-106313097D01*
X141667235Y-106208891D01*
X141612489Y-106173708D01*
X141572711Y-106132777D01*
X141555073Y-106078493D01*
X141563196Y-106021997D01*
X141595413Y-105974881D01*
X141645111Y-105946816D01*
X141751240Y-105915654D01*
X141867235Y-105841109D01*
X141957529Y-105736903D01*
X142014808Y-105611480D01*
X142034431Y-105475000D01*
X142014808Y-105338520D01*
X141957529Y-105213097D01*
X141940612Y-105193574D01*
X141930470Y-105175000D01*
X152565569Y-105175000D01*
X152585192Y-105311480D01*
X152588934Y-105319674D01*
X152588935Y-105319677D01*
X152597723Y-105338919D01*
X152642471Y-105436903D01*
X152732765Y-105541109D01*
X152740348Y-105545982D01*
X152740349Y-105545983D01*
X152841175Y-105610780D01*
X152841177Y-105610781D01*
X152848760Y-105615654D01*
X152981058Y-105654500D01*
X153109933Y-105654500D01*
X153118942Y-105654500D01*
X153251240Y-105615654D01*
X153331881Y-105563829D01*
X153400000Y-105543828D01*
X153468118Y-105563829D01*
X153548760Y-105615654D01*
X153681058Y-105654500D01*
X153809933Y-105654500D01*
X153818942Y-105654500D01*
X153951240Y-105615654D01*
X154067235Y-105541109D01*
X154157529Y-105436903D01*
X154214808Y-105311480D01*
X154234431Y-105175000D01*
X155215569Y-105175000D01*
X155235192Y-105311480D01*
X155238934Y-105319674D01*
X155238935Y-105319677D01*
X155247723Y-105338919D01*
X155292471Y-105436903D01*
X155382765Y-105541109D01*
X155390348Y-105545982D01*
X155390349Y-105545983D01*
X155491175Y-105610780D01*
X155491177Y-105610781D01*
X155498760Y-105615654D01*
X155631058Y-105654500D01*
X155759933Y-105654500D01*
X155768942Y-105654500D01*
X155901240Y-105615654D01*
X156017235Y-105541109D01*
X156017377Y-105541330D01*
X156067524Y-105516229D01*
X156129805Y-105518452D01*
X156259437Y-105556516D01*
X156388312Y-105556516D01*
X156397321Y-105556516D01*
X156529619Y-105517670D01*
X156645614Y-105443125D01*
X156735908Y-105338919D01*
X156793187Y-105213496D01*
X156812810Y-105077016D01*
X156793187Y-104940536D01*
X156735908Y-104815113D01*
X156645614Y-104710907D01*
X156638030Y-104706033D01*
X156638029Y-104706032D01*
X156537203Y-104641235D01*
X156537198Y-104641232D01*
X156529619Y-104636362D01*
X156444878Y-104611480D01*
X156405965Y-104600054D01*
X156405964Y-104600053D01*
X156397321Y-104597516D01*
X156259437Y-104597516D01*
X156250794Y-104600053D01*
X156250792Y-104600054D01*
X156135788Y-104633822D01*
X156135785Y-104633823D01*
X156127139Y-104636362D01*
X156119562Y-104641231D01*
X156119554Y-104641235D01*
X156018719Y-104706038D01*
X156018715Y-104706041D01*
X156013201Y-104709584D01*
X156013193Y-104709589D01*
X156011144Y-104710907D01*
X156011002Y-104710686D01*
X155960847Y-104735788D01*
X155898572Y-104733562D01*
X155777586Y-104698038D01*
X155777585Y-104698037D01*
X155768942Y-104695500D01*
X155631058Y-104695500D01*
X155622415Y-104698037D01*
X155622413Y-104698038D01*
X155507409Y-104731806D01*
X155507406Y-104731807D01*
X155498760Y-104734346D01*
X155491183Y-104739215D01*
X155491175Y-104739219D01*
X155390349Y-104804016D01*
X155390344Y-104804020D01*
X155382765Y-104808891D01*
X155376863Y-104815701D01*
X155376862Y-104815703D01*
X155298372Y-104906286D01*
X155298369Y-104906289D01*
X155292471Y-104913097D01*
X155288728Y-104921291D01*
X155288727Y-104921294D01*
X155238935Y-105030322D01*
X155238933Y-105030327D01*
X155235192Y-105038520D01*
X155215569Y-105175000D01*
X154234431Y-105175000D01*
X154214808Y-105038520D01*
X154157529Y-104913097D01*
X154067235Y-104808891D01*
X154059651Y-104804017D01*
X154059650Y-104804016D01*
X153958824Y-104739219D01*
X153958819Y-104739216D01*
X153951240Y-104734346D01*
X153932028Y-104728705D01*
X153827586Y-104698038D01*
X153827585Y-104698037D01*
X153818942Y-104695500D01*
X153681058Y-104695500D01*
X153672415Y-104698037D01*
X153672413Y-104698038D01*
X153557409Y-104731806D01*
X153557406Y-104731807D01*
X153548760Y-104734346D01*
X153541178Y-104739218D01*
X153541177Y-104739219D01*
X153468118Y-104786170D01*
X153399998Y-104806171D01*
X153331879Y-104786169D01*
X153258824Y-104739219D01*
X153258819Y-104739216D01*
X153251240Y-104734346D01*
X153232028Y-104728705D01*
X153127586Y-104698038D01*
X153127585Y-104698037D01*
X153118942Y-104695500D01*
X152981058Y-104695500D01*
X152972415Y-104698037D01*
X152972413Y-104698038D01*
X152857409Y-104731806D01*
X152857406Y-104731807D01*
X152848760Y-104734346D01*
X152841183Y-104739215D01*
X152841175Y-104739219D01*
X152740349Y-104804016D01*
X152740344Y-104804020D01*
X152732765Y-104808891D01*
X152726863Y-104815701D01*
X152726862Y-104815703D01*
X152648372Y-104906286D01*
X152648369Y-104906289D01*
X152642471Y-104913097D01*
X152638728Y-104921291D01*
X152638727Y-104921294D01*
X152588935Y-105030322D01*
X152588933Y-105030327D01*
X152585192Y-105038520D01*
X152565569Y-105175000D01*
X141930470Y-105175000D01*
X141914941Y-105146561D01*
X141911120Y-105093130D01*
X141929839Y-105042941D01*
X141967711Y-105005068D01*
X142067235Y-104941109D01*
X142070032Y-104937880D01*
X142120294Y-104911969D01*
X142179706Y-104911969D01*
X142229967Y-104937880D01*
X142232765Y-104941109D01*
X142249651Y-104951961D01*
X142341175Y-105010780D01*
X142341177Y-105010781D01*
X142348760Y-105015654D01*
X142481058Y-105054500D01*
X142609933Y-105054500D01*
X142618942Y-105054500D01*
X142751240Y-105015654D01*
X142867235Y-104941109D01*
X142957529Y-104836903D01*
X143014808Y-104711480D01*
X143034431Y-104575000D01*
X143020053Y-104475000D01*
X144065569Y-104475000D01*
X144085192Y-104611480D01*
X144088934Y-104619674D01*
X144088935Y-104619677D01*
X144128375Y-104706038D01*
X144142471Y-104736903D01*
X144232765Y-104841109D01*
X144240348Y-104845982D01*
X144240349Y-104845983D01*
X144341175Y-104910780D01*
X144341177Y-104910781D01*
X144348760Y-104915654D01*
X144481058Y-104954500D01*
X144609933Y-104954500D01*
X144618942Y-104954500D01*
X144751240Y-104915654D01*
X144867235Y-104841109D01*
X144957529Y-104736903D01*
X145014808Y-104611480D01*
X145034431Y-104475000D01*
X145014808Y-104338520D01*
X144957529Y-104213097D01*
X144924518Y-104175000D01*
X146265569Y-104175000D01*
X146285192Y-104311480D01*
X146288934Y-104319674D01*
X146288935Y-104319677D01*
X146322747Y-104393713D01*
X146342471Y-104436903D01*
X146432765Y-104541109D01*
X146440348Y-104545982D01*
X146440349Y-104545983D01*
X146541175Y-104610780D01*
X146541177Y-104610781D01*
X146548760Y-104615654D01*
X146681058Y-104654500D01*
X146809933Y-104654500D01*
X146818942Y-104654500D01*
X146951240Y-104615654D01*
X147067235Y-104541109D01*
X147157529Y-104436903D01*
X147214808Y-104311480D01*
X147234431Y-104175000D01*
X147227242Y-104125000D01*
X149705569Y-104125000D01*
X149725192Y-104261480D01*
X149728934Y-104269674D01*
X149728935Y-104269677D01*
X149778727Y-104378705D01*
X149782471Y-104386903D01*
X149872765Y-104491109D01*
X149880348Y-104495982D01*
X149880349Y-104495983D01*
X149981175Y-104560780D01*
X149981177Y-104560781D01*
X149988760Y-104565654D01*
X150121058Y-104604500D01*
X150249933Y-104604500D01*
X150258942Y-104604500D01*
X150391240Y-104565654D01*
X150507235Y-104491109D01*
X150597529Y-104386903D01*
X150654808Y-104261480D01*
X150674431Y-104125000D01*
X150654808Y-103988520D01*
X150597529Y-103863097D01*
X150507235Y-103758891D01*
X150499651Y-103754017D01*
X150499650Y-103754016D01*
X150398824Y-103689219D01*
X150398819Y-103689216D01*
X150391240Y-103684346D01*
X150351400Y-103672648D01*
X150267586Y-103648038D01*
X150267585Y-103648037D01*
X150258942Y-103645500D01*
X150121058Y-103645500D01*
X150112415Y-103648037D01*
X150112413Y-103648038D01*
X149997409Y-103681806D01*
X149997406Y-103681807D01*
X149988760Y-103684346D01*
X149981183Y-103689215D01*
X149981175Y-103689219D01*
X149880349Y-103754016D01*
X149880344Y-103754020D01*
X149872765Y-103758891D01*
X149866863Y-103765701D01*
X149866862Y-103765703D01*
X149788372Y-103856286D01*
X149788369Y-103856289D01*
X149782471Y-103863097D01*
X149778728Y-103871291D01*
X149778727Y-103871294D01*
X149728935Y-103980322D01*
X149728933Y-103980327D01*
X149725192Y-103988520D01*
X149723909Y-103997440D01*
X149723909Y-103997442D01*
X149717256Y-104043713D01*
X149705569Y-104125000D01*
X147227242Y-104125000D01*
X147214808Y-104038520D01*
X147157529Y-103913097D01*
X147067235Y-103808891D01*
X147067234Y-103808891D01*
X147068836Y-103807503D01*
X147046259Y-103777352D01*
X147034868Y-103725000D01*
X147046259Y-103672648D01*
X147068836Y-103642496D01*
X147067235Y-103641109D01*
X147077983Y-103628705D01*
X147157529Y-103536903D01*
X147214808Y-103411480D01*
X147234431Y-103275000D01*
X147214808Y-103138520D01*
X147157529Y-103013097D01*
X147067235Y-102908891D01*
X147059651Y-102904017D01*
X147059650Y-102904016D01*
X146958824Y-102839219D01*
X146958819Y-102839216D01*
X146951240Y-102834346D01*
X146818942Y-102795500D01*
X146681058Y-102795500D01*
X146672415Y-102798037D01*
X146672413Y-102798038D01*
X146557409Y-102831806D01*
X146557406Y-102831807D01*
X146548760Y-102834346D01*
X146541183Y-102839215D01*
X146541175Y-102839219D01*
X146440349Y-102904016D01*
X146440344Y-102904020D01*
X146432765Y-102908891D01*
X146426863Y-102915701D01*
X146426862Y-102915703D01*
X146348372Y-103006286D01*
X146348369Y-103006289D01*
X146342471Y-103013097D01*
X146338728Y-103021291D01*
X146338727Y-103021294D01*
X146288935Y-103130322D01*
X146288933Y-103130327D01*
X146285192Y-103138520D01*
X146265569Y-103275000D01*
X146285192Y-103411480D01*
X146288934Y-103419674D01*
X146288935Y-103419677D01*
X146338727Y-103528705D01*
X146342471Y-103536903D01*
X146348372Y-103543713D01*
X146432765Y-103641109D01*
X146430302Y-103643242D01*
X146460029Y-103689507D01*
X146460029Y-103760493D01*
X146430302Y-103806757D01*
X146432765Y-103808891D01*
X146348372Y-103906286D01*
X146348369Y-103906289D01*
X146342471Y-103913097D01*
X146338728Y-103921291D01*
X146338727Y-103921294D01*
X146288935Y-104030322D01*
X146288933Y-104030327D01*
X146285192Y-104038520D01*
X146283909Y-104047440D01*
X146283909Y-104047442D01*
X146275775Y-104104016D01*
X146265569Y-104175000D01*
X144924518Y-104175000D01*
X144867235Y-104108891D01*
X144859651Y-104104017D01*
X144859650Y-104104016D01*
X144758824Y-104039219D01*
X144758819Y-104039216D01*
X144751240Y-104034346D01*
X144737535Y-104030322D01*
X144627586Y-103998038D01*
X144627585Y-103998037D01*
X144618942Y-103995500D01*
X144481058Y-103995500D01*
X144472415Y-103998037D01*
X144472413Y-103998038D01*
X144357409Y-104031806D01*
X144357406Y-104031807D01*
X144348760Y-104034346D01*
X144341183Y-104039215D01*
X144341175Y-104039219D01*
X144240349Y-104104016D01*
X144240344Y-104104020D01*
X144232765Y-104108891D01*
X144226863Y-104115701D01*
X144226862Y-104115703D01*
X144148372Y-104206286D01*
X144148369Y-104206289D01*
X144142471Y-104213097D01*
X144138728Y-104221291D01*
X144138727Y-104221294D01*
X144088935Y-104330322D01*
X144088933Y-104330327D01*
X144085192Y-104338520D01*
X144083909Y-104347440D01*
X144083909Y-104347442D01*
X144077256Y-104393713D01*
X144065569Y-104475000D01*
X143020053Y-104475000D01*
X143014808Y-104438520D01*
X142957529Y-104313097D01*
X142909363Y-104257510D01*
X142882141Y-104204706D01*
X142882141Y-104145294D01*
X142909363Y-104092489D01*
X142957529Y-104036903D01*
X143014808Y-103911480D01*
X143015600Y-103905969D01*
X143048559Y-103851893D01*
X143105804Y-103820634D01*
X143171005Y-103822185D01*
X143281058Y-103854500D01*
X143409933Y-103854500D01*
X143418942Y-103854500D01*
X143551240Y-103815654D01*
X143667235Y-103741109D01*
X143757529Y-103636903D01*
X143814808Y-103511480D01*
X143834431Y-103375000D01*
X143814808Y-103238520D01*
X143757529Y-103113097D01*
X143667235Y-103008891D01*
X143659651Y-103004017D01*
X143659650Y-103004016D01*
X143558824Y-102939219D01*
X143558819Y-102939216D01*
X143551240Y-102934346D01*
X143487747Y-102915703D01*
X143427586Y-102898038D01*
X143427585Y-102898037D01*
X143418942Y-102895500D01*
X143281058Y-102895500D01*
X143272415Y-102898037D01*
X143272413Y-102898038D01*
X143157409Y-102931806D01*
X143157406Y-102931807D01*
X143148760Y-102934346D01*
X143141183Y-102939215D01*
X143141175Y-102939219D01*
X143040349Y-103004016D01*
X143040344Y-103004020D01*
X143032765Y-103008891D01*
X143026863Y-103015701D01*
X143026862Y-103015703D01*
X142948372Y-103106286D01*
X142948369Y-103106289D01*
X142942471Y-103113097D01*
X142938728Y-103121291D01*
X142938727Y-103121294D01*
X142888933Y-103230327D01*
X142888931Y-103230330D01*
X142885192Y-103238520D01*
X142884399Y-103244031D01*
X142851437Y-103298109D01*
X142794193Y-103329365D01*
X142728990Y-103327813D01*
X142665804Y-103309259D01*
X142627586Y-103298038D01*
X142627585Y-103298037D01*
X142618942Y-103295500D01*
X142481058Y-103295500D01*
X142472415Y-103298037D01*
X142472413Y-103298038D01*
X142357409Y-103331806D01*
X142357406Y-103331807D01*
X142348760Y-103334346D01*
X142341183Y-103339215D01*
X142341175Y-103339219D01*
X142240348Y-103404017D01*
X142240344Y-103404019D01*
X142232765Y-103408891D01*
X142229967Y-103412119D01*
X142179706Y-103438031D01*
X142120294Y-103438031D01*
X142070032Y-103412119D01*
X142067235Y-103408891D01*
X142028384Y-103383923D01*
X141958824Y-103339219D01*
X141958819Y-103339216D01*
X141951240Y-103334346D01*
X141934276Y-103329365D01*
X141827586Y-103298038D01*
X141827585Y-103298037D01*
X141818942Y-103295500D01*
X141681058Y-103295500D01*
X141672415Y-103298037D01*
X141672413Y-103298038D01*
X141557409Y-103331806D01*
X141557406Y-103331807D01*
X141548760Y-103334346D01*
X141541183Y-103339215D01*
X141541175Y-103339219D01*
X141440349Y-103404016D01*
X141440344Y-103404020D01*
X141432765Y-103408891D01*
X141426863Y-103415701D01*
X141426862Y-103415703D01*
X141348372Y-103506286D01*
X141348369Y-103506289D01*
X141342471Y-103513097D01*
X141338728Y-103521291D01*
X141338727Y-103521294D01*
X141288935Y-103630322D01*
X141288933Y-103630327D01*
X141285192Y-103638520D01*
X141283909Y-103647440D01*
X141283909Y-103647442D01*
X141277861Y-103689507D01*
X141265569Y-103775000D01*
X141285192Y-103911480D01*
X141288934Y-103919674D01*
X141288935Y-103919677D01*
X141324722Y-103998038D01*
X141342471Y-104036903D01*
X141348372Y-104043713D01*
X141390635Y-104092488D01*
X141417858Y-104145295D01*
X141417858Y-104204705D01*
X141390635Y-104257512D01*
X141348372Y-104306286D01*
X141348369Y-104306289D01*
X141342471Y-104313097D01*
X141338728Y-104321291D01*
X141338727Y-104321294D01*
X141288935Y-104430322D01*
X141288933Y-104430327D01*
X141285192Y-104438520D01*
X141265569Y-104575000D01*
X141285192Y-104711480D01*
X141288934Y-104719674D01*
X141288935Y-104719677D01*
X141296293Y-104735788D01*
X141342471Y-104836903D01*
X141348372Y-104843713D01*
X141359386Y-104856424D01*
X141385058Y-104903438D01*
X141388880Y-104956868D01*
X141370160Y-105007057D01*
X141332283Y-105044935D01*
X141296248Y-105068093D01*
X141232765Y-105108891D01*
X141226863Y-105115701D01*
X141226862Y-105115703D01*
X141148372Y-105206286D01*
X141148369Y-105206289D01*
X141142471Y-105213097D01*
X141138728Y-105221291D01*
X141138727Y-105221294D01*
X141088935Y-105330322D01*
X141088933Y-105330327D01*
X141085192Y-105338520D01*
X141065569Y-105475000D01*
X141085192Y-105611480D01*
X141088934Y-105619674D01*
X141088935Y-105619677D01*
X141123563Y-105695500D01*
X141142471Y-105736903D01*
X141232765Y-105841109D01*
X141240348Y-105845982D01*
X141240349Y-105845983D01*
X141287508Y-105876290D01*
X141334001Y-105929945D01*
X141344106Y-106000219D01*
X141314613Y-106064800D01*
X141254887Y-106103184D01*
X141157408Y-106131806D01*
X141157403Y-106131808D01*
X141148760Y-106134346D01*
X141141183Y-106139215D01*
X141141175Y-106139219D01*
X141040349Y-106204016D01*
X141040346Y-106204019D01*
X141032765Y-106208891D01*
X141026863Y-106215701D01*
X141026862Y-106215703D01*
X140948372Y-106306286D01*
X140948369Y-106306289D01*
X140942471Y-106313097D01*
X140938728Y-106321291D01*
X140938727Y-106321294D01*
X140888935Y-106430322D01*
X140888933Y-106430327D01*
X140885192Y-106438520D01*
X140865569Y-106575000D01*
X140885192Y-106711480D01*
X140888934Y-106719674D01*
X140888936Y-106719680D01*
X140924091Y-106796657D01*
X140935157Y-106857988D01*
X140915476Y-106917120D01*
X140869864Y-106959587D01*
X140809478Y-106975000D01*
X139209268Y-106975000D01*
X139161050Y-106965409D01*
X139120173Y-106938095D01*
X139039667Y-106857589D01*
X139035289Y-106853211D01*
X138904179Y-106765606D01*
X138898464Y-106763238D01*
X138898457Y-106763235D01*
X138764210Y-106707629D01*
X138764206Y-106707627D01*
X138758497Y-106705263D01*
X138752437Y-106704057D01*
X138752432Y-106704056D01*
X138609909Y-106675706D01*
X138609900Y-106675705D01*
X138603842Y-106674500D01*
X138597655Y-106674500D01*
X138376500Y-106674500D01*
X138313500Y-106657619D01*
X138267381Y-106611500D01*
X138250500Y-106548500D01*
X138250500Y-102475000D01*
X149565569Y-102475000D01*
X149585192Y-102611480D01*
X149642471Y-102736903D01*
X149732765Y-102841109D01*
X149740348Y-102845982D01*
X149740349Y-102845983D01*
X149841175Y-102910780D01*
X149841177Y-102910781D01*
X149848760Y-102915654D01*
X149981058Y-102954500D01*
X150109933Y-102954500D01*
X150118942Y-102954500D01*
X150251240Y-102915654D01*
X150367235Y-102841109D01*
X150457529Y-102736903D01*
X150514808Y-102611480D01*
X150534431Y-102475000D01*
X150514808Y-102338520D01*
X150505446Y-102318021D01*
X150464035Y-102227343D01*
X150452648Y-102175001D01*
X150464034Y-102122659D01*
X150471786Y-102105683D01*
X150508511Y-102058983D01*
X150562554Y-102034302D01*
X150621897Y-102037128D01*
X150681058Y-102054500D01*
X150809933Y-102054500D01*
X150818942Y-102054500D01*
X150951240Y-102015654D01*
X151031881Y-101963829D01*
X151100000Y-101943828D01*
X151168118Y-101963829D01*
X151248760Y-102015654D01*
X151381058Y-102054500D01*
X151509933Y-102054500D01*
X151518942Y-102054500D01*
X151651240Y-102015654D01*
X151731881Y-101963829D01*
X151800000Y-101943828D01*
X151868118Y-101963829D01*
X151948760Y-102015654D01*
X152081058Y-102054500D01*
X152209933Y-102054500D01*
X152218942Y-102054500D01*
X152351240Y-102015654D01*
X152467235Y-101941109D01*
X152557529Y-101836903D01*
X152608634Y-101725000D01*
X154748147Y-101725000D01*
X154767770Y-101861480D01*
X154771512Y-101869674D01*
X154771513Y-101869677D01*
X154812299Y-101958985D01*
X154825049Y-101986903D01*
X154915343Y-102091109D01*
X154922926Y-102095982D01*
X154922927Y-102095983D01*
X155023753Y-102160780D01*
X155023755Y-102160781D01*
X155031338Y-102165654D01*
X155163636Y-102204500D01*
X155292511Y-102204500D01*
X155301520Y-102204500D01*
X155433818Y-102165654D01*
X155549813Y-102091109D01*
X155640107Y-101986903D01*
X155697386Y-101861480D01*
X155717009Y-101725000D01*
X155697386Y-101588520D01*
X155640107Y-101463097D01*
X155549813Y-101358891D01*
X155542229Y-101354017D01*
X155542228Y-101354016D01*
X155441402Y-101289219D01*
X155441397Y-101289216D01*
X155433818Y-101284346D01*
X155341162Y-101257140D01*
X155310164Y-101248038D01*
X155310163Y-101248037D01*
X155301520Y-101245500D01*
X155163636Y-101245500D01*
X155154993Y-101248037D01*
X155154991Y-101248038D01*
X155039987Y-101281806D01*
X155039984Y-101281807D01*
X155031338Y-101284346D01*
X155023761Y-101289215D01*
X155023753Y-101289219D01*
X154922927Y-101354016D01*
X154922922Y-101354020D01*
X154915343Y-101358891D01*
X154909441Y-101365701D01*
X154909440Y-101365703D01*
X154830950Y-101456286D01*
X154830947Y-101456289D01*
X154825049Y-101463097D01*
X154821306Y-101471291D01*
X154821305Y-101471294D01*
X154771513Y-101580322D01*
X154771511Y-101580327D01*
X154767770Y-101588520D01*
X154766487Y-101597440D01*
X154766487Y-101597442D01*
X154764236Y-101613097D01*
X154748147Y-101725000D01*
X152608634Y-101725000D01*
X152614808Y-101711480D01*
X152634431Y-101575000D01*
X152614808Y-101438520D01*
X152557529Y-101313097D01*
X152467235Y-101208891D01*
X152459651Y-101204017D01*
X152459650Y-101204016D01*
X152358824Y-101139219D01*
X152358819Y-101139216D01*
X152351240Y-101134346D01*
X152218942Y-101095500D01*
X152081058Y-101095500D01*
X152072415Y-101098037D01*
X152072413Y-101098038D01*
X151957409Y-101131806D01*
X151957406Y-101131807D01*
X151948760Y-101134346D01*
X151941181Y-101139216D01*
X151941180Y-101139217D01*
X151889274Y-101172574D01*
X151869706Y-101185151D01*
X151868120Y-101186170D01*
X151800000Y-101206171D01*
X151731880Y-101186170D01*
X151651240Y-101134346D01*
X151518942Y-101095500D01*
X151381058Y-101095500D01*
X151372415Y-101098037D01*
X151372413Y-101098038D01*
X151257409Y-101131806D01*
X151257406Y-101131807D01*
X151248760Y-101134346D01*
X151241181Y-101139216D01*
X151241180Y-101139217D01*
X151189274Y-101172574D01*
X151169706Y-101185151D01*
X151168120Y-101186170D01*
X151100000Y-101206171D01*
X151031880Y-101186170D01*
X150951240Y-101134346D01*
X150818942Y-101095500D01*
X150681058Y-101095500D01*
X150672415Y-101098037D01*
X150672413Y-101098038D01*
X150557409Y-101131806D01*
X150557406Y-101131807D01*
X150548760Y-101134346D01*
X150541183Y-101139215D01*
X150541175Y-101139219D01*
X150440349Y-101204016D01*
X150440344Y-101204020D01*
X150432765Y-101208891D01*
X150426863Y-101215701D01*
X150426862Y-101215703D01*
X150348372Y-101306286D01*
X150348369Y-101306289D01*
X150342471Y-101313097D01*
X150338730Y-101321287D01*
X150338727Y-101321293D01*
X150328212Y-101344319D01*
X150291486Y-101391017D01*
X150237445Y-101415697D01*
X150178102Y-101412870D01*
X150127589Y-101398038D01*
X150127582Y-101398037D01*
X150118942Y-101395500D01*
X149981058Y-101395500D01*
X149972415Y-101398037D01*
X149972413Y-101398038D01*
X149857409Y-101431806D01*
X149857406Y-101431807D01*
X149848760Y-101434346D01*
X149841183Y-101439215D01*
X149841175Y-101439219D01*
X149740349Y-101504016D01*
X149740344Y-101504020D01*
X149732765Y-101508891D01*
X149726863Y-101515701D01*
X149726862Y-101515703D01*
X149648372Y-101606286D01*
X149648369Y-101606289D01*
X149642471Y-101613097D01*
X149638728Y-101621291D01*
X149638727Y-101621294D01*
X149588935Y-101730322D01*
X149588933Y-101730327D01*
X149585192Y-101738520D01*
X149565569Y-101875000D01*
X149566852Y-101883923D01*
X149582869Y-101995327D01*
X149585192Y-102011480D01*
X149588933Y-102019672D01*
X149588935Y-102019678D01*
X149635965Y-102122658D01*
X149647351Y-102175000D01*
X149635965Y-102227342D01*
X149588935Y-102330321D01*
X149588932Y-102330329D01*
X149585192Y-102338520D01*
X149583909Y-102347440D01*
X149583909Y-102347442D01*
X149570632Y-102439785D01*
X149565569Y-102475000D01*
X138250500Y-102475000D01*
X138250500Y-101725583D01*
X138507489Y-101725583D01*
X138507986Y-101733487D01*
X138507986Y-101733493D01*
X138516554Y-101869677D01*
X138517369Y-101882629D01*
X138519818Y-101890166D01*
X138563545Y-102024745D01*
X138563547Y-102024750D01*
X138565995Y-102032283D01*
X138570240Y-102038972D01*
X138613708Y-102107468D01*
X138650310Y-102165143D01*
X138656089Y-102170569D01*
X138656090Y-102170571D01*
X138692221Y-102204500D01*
X138765018Y-102272860D01*
X138902910Y-102348667D01*
X139055322Y-102387800D01*
X139169224Y-102387800D01*
X139173183Y-102387800D01*
X139290115Y-102373028D01*
X139436421Y-102315102D01*
X139563724Y-102222610D01*
X139664027Y-102101365D01*
X139731026Y-101958985D01*
X139760511Y-101804417D01*
X139755551Y-101725583D01*
X140539489Y-101725583D01*
X140539986Y-101733487D01*
X140539986Y-101733493D01*
X140548554Y-101869677D01*
X140549369Y-101882629D01*
X140551818Y-101890166D01*
X140595545Y-102024745D01*
X140595547Y-102024750D01*
X140597995Y-102032283D01*
X140602240Y-102038972D01*
X140645708Y-102107468D01*
X140682310Y-102165143D01*
X140688089Y-102170569D01*
X140688090Y-102170571D01*
X140724221Y-102204500D01*
X140797018Y-102272860D01*
X140934910Y-102348667D01*
X141087322Y-102387800D01*
X141201224Y-102387800D01*
X141205183Y-102387800D01*
X141322115Y-102373028D01*
X141468421Y-102315102D01*
X141595724Y-102222610D01*
X141696027Y-102101365D01*
X141763026Y-101958985D01*
X141792511Y-101804417D01*
X141782631Y-101647371D01*
X141734005Y-101497717D01*
X141649690Y-101364857D01*
X141638145Y-101354016D01*
X141540758Y-101262564D01*
X141534982Y-101257140D01*
X141459609Y-101215703D01*
X141404036Y-101185151D01*
X141404032Y-101185149D01*
X141397090Y-101181333D01*
X141389415Y-101179362D01*
X141389409Y-101179360D01*
X141252357Y-101144171D01*
X141252352Y-101144170D01*
X141244678Y-101142200D01*
X141126817Y-101142200D01*
X141122896Y-101142695D01*
X141122885Y-101142696D01*
X141017752Y-101155978D01*
X141017750Y-101155978D01*
X141009885Y-101156972D01*
X141002518Y-101159888D01*
X141002513Y-101159890D01*
X140870953Y-101211978D01*
X140870950Y-101211979D01*
X140863579Y-101214898D01*
X140857166Y-101219557D01*
X140857163Y-101219559D01*
X140742689Y-101302730D01*
X140742686Y-101302732D01*
X140736276Y-101307390D01*
X140731230Y-101313488D01*
X140731224Y-101313495D01*
X140641022Y-101422531D01*
X140641019Y-101422534D01*
X140635973Y-101428635D01*
X140632600Y-101435802D01*
X140632598Y-101435806D01*
X140572349Y-101563841D01*
X140572347Y-101563846D01*
X140568974Y-101571015D01*
X140567489Y-101578797D01*
X140567488Y-101578802D01*
X140552899Y-101655282D01*
X140539489Y-101725583D01*
X139755551Y-101725583D01*
X139750631Y-101647371D01*
X139702005Y-101497717D01*
X139617690Y-101364857D01*
X139606145Y-101354016D01*
X139508758Y-101262564D01*
X139502982Y-101257140D01*
X139427609Y-101215703D01*
X139372036Y-101185151D01*
X139372032Y-101185149D01*
X139365090Y-101181333D01*
X139357415Y-101179362D01*
X139357409Y-101179360D01*
X139220357Y-101144171D01*
X139220352Y-101144170D01*
X139212678Y-101142200D01*
X139094817Y-101142200D01*
X139090896Y-101142695D01*
X139090885Y-101142696D01*
X138985752Y-101155978D01*
X138985750Y-101155978D01*
X138977885Y-101156972D01*
X138970518Y-101159888D01*
X138970513Y-101159890D01*
X138838953Y-101211978D01*
X138838950Y-101211979D01*
X138831579Y-101214898D01*
X138825166Y-101219557D01*
X138825163Y-101219559D01*
X138710689Y-101302730D01*
X138710686Y-101302732D01*
X138704276Y-101307390D01*
X138699230Y-101313488D01*
X138699224Y-101313495D01*
X138609022Y-101422531D01*
X138609019Y-101422534D01*
X138603973Y-101428635D01*
X138600600Y-101435802D01*
X138600598Y-101435806D01*
X138540349Y-101563841D01*
X138540347Y-101563846D01*
X138536974Y-101571015D01*
X138535489Y-101578797D01*
X138535488Y-101578802D01*
X138520899Y-101655282D01*
X138507489Y-101725583D01*
X138250500Y-101725583D01*
X138250500Y-100475000D01*
X153465569Y-100475000D01*
X153485192Y-100611480D01*
X153542471Y-100736903D01*
X153632765Y-100841109D01*
X153640348Y-100845982D01*
X153640349Y-100845983D01*
X153741175Y-100910780D01*
X153741177Y-100910781D01*
X153748760Y-100915654D01*
X153881058Y-100954500D01*
X154009933Y-100954500D01*
X154018942Y-100954500D01*
X154151240Y-100915654D01*
X154267235Y-100841109D01*
X154357529Y-100736903D01*
X154414808Y-100611480D01*
X154434431Y-100475000D01*
X154414808Y-100338520D01*
X154357529Y-100213097D01*
X154267235Y-100108891D01*
X154259651Y-100104017D01*
X154259650Y-100104016D01*
X154158824Y-100039219D01*
X154158819Y-100039216D01*
X154151240Y-100034346D01*
X154132028Y-100028705D01*
X154027586Y-99998038D01*
X154027585Y-99998037D01*
X154018942Y-99995500D01*
X153881058Y-99995500D01*
X153872415Y-99998037D01*
X153872413Y-99998038D01*
X153757409Y-100031806D01*
X153757406Y-100031807D01*
X153748760Y-100034346D01*
X153741183Y-100039215D01*
X153741175Y-100039219D01*
X153640349Y-100104016D01*
X153640344Y-100104020D01*
X153632765Y-100108891D01*
X153626863Y-100115701D01*
X153626862Y-100115703D01*
X153548372Y-100206286D01*
X153548369Y-100206289D01*
X153542471Y-100213097D01*
X153538728Y-100221291D01*
X153538727Y-100221294D01*
X153488935Y-100330322D01*
X153488933Y-100330327D01*
X153485192Y-100338520D01*
X153465569Y-100475000D01*
X138250500Y-100475000D01*
X138250500Y-99775000D01*
X155065569Y-99775000D01*
X155085192Y-99911480D01*
X155142471Y-100036903D01*
X155232765Y-100141109D01*
X155240348Y-100145982D01*
X155240349Y-100145983D01*
X155341175Y-100210780D01*
X155341177Y-100210781D01*
X155348760Y-100215654D01*
X155481058Y-100254500D01*
X155609933Y-100254500D01*
X155618942Y-100254500D01*
X155751240Y-100215654D01*
X155867235Y-100141109D01*
X155957529Y-100036903D01*
X156014808Y-99911480D01*
X156034431Y-99775000D01*
X156014808Y-99638520D01*
X155964035Y-99527342D01*
X155952648Y-99475000D01*
X155964035Y-99422657D01*
X156004393Y-99334285D01*
X156014808Y-99311480D01*
X156034431Y-99175000D01*
X156014808Y-99038520D01*
X155957529Y-98913097D01*
X155867235Y-98808891D01*
X155859651Y-98804017D01*
X155859650Y-98804016D01*
X155758824Y-98739219D01*
X155758819Y-98739216D01*
X155751240Y-98734346D01*
X155618942Y-98695500D01*
X155481058Y-98695500D01*
X155472415Y-98698037D01*
X155472413Y-98698038D01*
X155357409Y-98731806D01*
X155357406Y-98731807D01*
X155348760Y-98734346D01*
X155341183Y-98739215D01*
X155341175Y-98739219D01*
X155240349Y-98804016D01*
X155240344Y-98804020D01*
X155232765Y-98808891D01*
X155226863Y-98815701D01*
X155226862Y-98815703D01*
X155148372Y-98906286D01*
X155148369Y-98906289D01*
X155142471Y-98913097D01*
X155138728Y-98921291D01*
X155138727Y-98921294D01*
X155088935Y-99030322D01*
X155088933Y-99030327D01*
X155085192Y-99038520D01*
X155083909Y-99047440D01*
X155083909Y-99047442D01*
X155070632Y-99139785D01*
X155065569Y-99175000D01*
X155066852Y-99183923D01*
X155077697Y-99259355D01*
X155085192Y-99311480D01*
X155088933Y-99319672D01*
X155088935Y-99319678D01*
X155135965Y-99422658D01*
X155147351Y-99475000D01*
X155135965Y-99527342D01*
X155088935Y-99630321D01*
X155088932Y-99630329D01*
X155085192Y-99638520D01*
X155065569Y-99775000D01*
X138250500Y-99775000D01*
X138250500Y-98375000D01*
X145165569Y-98375000D01*
X145185192Y-98511480D01*
X145188934Y-98519674D01*
X145188935Y-98519677D01*
X145216807Y-98580707D01*
X145242471Y-98636903D01*
X145332765Y-98741109D01*
X145340348Y-98745982D01*
X145340349Y-98745983D01*
X145441175Y-98810780D01*
X145441177Y-98810781D01*
X145448760Y-98815654D01*
X145581058Y-98854500D01*
X145709933Y-98854500D01*
X145718942Y-98854500D01*
X145851240Y-98815654D01*
X145861816Y-98808856D01*
X145866860Y-98807110D01*
X145867020Y-98807038D01*
X145867026Y-98807053D01*
X145917958Y-98789423D01*
X145976765Y-98797875D01*
X146019890Y-98828582D01*
X146020052Y-98828396D01*
X146022002Y-98830085D01*
X146025161Y-98832335D01*
X146026858Y-98834293D01*
X146026862Y-98834296D01*
X146032766Y-98841110D01*
X146040349Y-98845983D01*
X146040350Y-98845984D01*
X146141176Y-98910781D01*
X146141178Y-98910782D01*
X146148761Y-98915655D01*
X146281059Y-98954501D01*
X146409934Y-98954501D01*
X146418943Y-98954501D01*
X146551241Y-98915655D01*
X146667236Y-98841110D01*
X146757530Y-98736904D01*
X146808221Y-98625905D01*
X146843076Y-98580706D01*
X146894297Y-98555522D01*
X146951374Y-98555523D01*
X147002596Y-98580707D01*
X147033792Y-98621164D01*
X147033855Y-98621124D01*
X147034325Y-98621856D01*
X147037449Y-98625907D01*
X147042471Y-98636903D01*
X147132765Y-98741109D01*
X147140348Y-98745982D01*
X147140349Y-98745983D01*
X147241175Y-98810780D01*
X147241177Y-98810781D01*
X147248760Y-98815654D01*
X147381058Y-98854500D01*
X147509933Y-98854500D01*
X147518942Y-98854500D01*
X147651240Y-98815654D01*
X147681878Y-98795963D01*
X147726154Y-98778238D01*
X147773846Y-98778238D01*
X147818121Y-98795963D01*
X147848760Y-98815654D01*
X147981058Y-98854500D01*
X148109933Y-98854500D01*
X148118942Y-98854500D01*
X148251240Y-98815654D01*
X148314499Y-98775000D01*
X150090715Y-98775000D01*
X150091793Y-98783188D01*
X150108693Y-98911565D01*
X150108694Y-98911571D01*
X150109772Y-98919754D01*
X150112931Y-98927382D01*
X150112932Y-98927383D01*
X150162484Y-99047013D01*
X150162485Y-99047016D01*
X150165645Y-99054643D01*
X150254526Y-99170474D01*
X150370357Y-99259355D01*
X150505246Y-99315228D01*
X150513433Y-99316305D01*
X150513434Y-99316306D01*
X150539063Y-99319680D01*
X150650000Y-99334285D01*
X150794754Y-99315228D01*
X150929643Y-99259355D01*
X151045474Y-99170474D01*
X151134355Y-99054643D01*
X151190228Y-98919754D01*
X151209285Y-98775000D01*
X153490715Y-98775000D01*
X153491793Y-98783188D01*
X153508693Y-98911565D01*
X153508694Y-98911571D01*
X153509772Y-98919754D01*
X153512931Y-98927382D01*
X153512932Y-98927383D01*
X153562484Y-99047013D01*
X153562485Y-99047016D01*
X153565645Y-99054643D01*
X153654526Y-99170474D01*
X153770357Y-99259355D01*
X153905246Y-99315228D01*
X153913433Y-99316305D01*
X153913434Y-99316306D01*
X153939063Y-99319680D01*
X154050000Y-99334285D01*
X154194754Y-99315228D01*
X154329643Y-99259355D01*
X154445474Y-99170474D01*
X154534355Y-99054643D01*
X154590228Y-98919754D01*
X154609285Y-98775000D01*
X154590228Y-98630246D01*
X154534355Y-98495358D01*
X154445474Y-98379526D01*
X154329643Y-98290645D01*
X154322016Y-98287485D01*
X154322013Y-98287484D01*
X154202383Y-98237932D01*
X154202382Y-98237931D01*
X154194754Y-98234772D01*
X154186571Y-98233694D01*
X154186565Y-98233693D01*
X154058188Y-98216793D01*
X154050000Y-98215715D01*
X154041812Y-98216793D01*
X153913431Y-98233694D01*
X153913427Y-98233694D01*
X153905246Y-98234772D01*
X153897627Y-98237927D01*
X153897619Y-98237930D01*
X153777986Y-98287485D01*
X153777983Y-98287486D01*
X153770358Y-98290645D01*
X153763810Y-98295668D01*
X153763807Y-98295671D01*
X153661071Y-98374503D01*
X153661067Y-98374506D01*
X153654526Y-98379526D01*
X153649506Y-98386067D01*
X153649503Y-98386071D01*
X153570671Y-98488807D01*
X153570668Y-98488810D01*
X153565645Y-98495358D01*
X153562486Y-98502983D01*
X153562485Y-98502986D01*
X153512930Y-98622619D01*
X153512927Y-98622627D01*
X153509772Y-98630246D01*
X153508694Y-98638427D01*
X153508694Y-98638431D01*
X153496074Y-98734296D01*
X153490715Y-98775000D01*
X151209285Y-98775000D01*
X151190228Y-98630246D01*
X151134355Y-98495358D01*
X151045474Y-98379526D01*
X150929643Y-98290645D01*
X150922016Y-98287485D01*
X150922013Y-98287484D01*
X150802383Y-98237932D01*
X150802382Y-98237931D01*
X150794754Y-98234772D01*
X150786571Y-98233694D01*
X150786565Y-98233693D01*
X150658188Y-98216793D01*
X150650000Y-98215715D01*
X150641812Y-98216793D01*
X150513431Y-98233694D01*
X150513427Y-98233694D01*
X150505246Y-98234772D01*
X150497627Y-98237927D01*
X150497619Y-98237930D01*
X150377986Y-98287485D01*
X150377983Y-98287486D01*
X150370358Y-98290645D01*
X150363810Y-98295668D01*
X150363807Y-98295671D01*
X150261071Y-98374503D01*
X150261067Y-98374506D01*
X150254526Y-98379526D01*
X150249506Y-98386067D01*
X150249503Y-98386071D01*
X150170671Y-98488807D01*
X150170668Y-98488810D01*
X150165645Y-98495358D01*
X150162486Y-98502983D01*
X150162485Y-98502986D01*
X150112930Y-98622619D01*
X150112927Y-98622627D01*
X150109772Y-98630246D01*
X150108694Y-98638427D01*
X150108694Y-98638431D01*
X150096074Y-98734296D01*
X150090715Y-98775000D01*
X148314499Y-98775000D01*
X148367235Y-98741109D01*
X148457529Y-98636903D01*
X148514808Y-98511480D01*
X148534431Y-98375000D01*
X148514808Y-98238520D01*
X148457529Y-98113097D01*
X148367235Y-98008891D01*
X148359651Y-98004017D01*
X148359650Y-98004016D01*
X148258824Y-97939219D01*
X148258819Y-97939216D01*
X148251240Y-97934346D01*
X148118942Y-97895500D01*
X147981058Y-97895500D01*
X147972415Y-97898037D01*
X147972413Y-97898038D01*
X147857405Y-97931807D01*
X147857401Y-97931808D01*
X147848760Y-97934346D01*
X147841185Y-97939213D01*
X147841176Y-97939218D01*
X147818115Y-97954038D01*
X147749997Y-97974037D01*
X147681879Y-97954036D01*
X147658818Y-97939216D01*
X147651240Y-97934346D01*
X147642595Y-97931807D01*
X147642594Y-97931807D01*
X147527586Y-97898038D01*
X147527585Y-97898037D01*
X147518942Y-97895500D01*
X147381058Y-97895500D01*
X147372415Y-97898037D01*
X147372413Y-97898038D01*
X147257409Y-97931806D01*
X147257406Y-97931807D01*
X147248760Y-97934346D01*
X147241183Y-97939215D01*
X147241175Y-97939219D01*
X147140349Y-98004016D01*
X147140344Y-98004020D01*
X147132765Y-98008891D01*
X147126863Y-98015701D01*
X147126862Y-98015703D01*
X147048372Y-98106286D01*
X147048369Y-98106289D01*
X147042471Y-98113097D01*
X147038729Y-98121290D01*
X147038725Y-98121297D01*
X146991778Y-98224095D01*
X146956923Y-98269295D01*
X146905700Y-98294478D01*
X146848622Y-98294476D01*
X146797401Y-98269290D01*
X146766209Y-98228835D01*
X146766146Y-98228877D01*
X146765668Y-98228133D01*
X146762549Y-98224088D01*
X146761274Y-98221296D01*
X146761273Y-98221295D01*
X146757530Y-98213098D01*
X146667236Y-98108892D01*
X146659652Y-98104018D01*
X146659651Y-98104017D01*
X146558825Y-98039220D01*
X146558820Y-98039217D01*
X146551241Y-98034347D01*
X146464545Y-98008891D01*
X146427587Y-97998039D01*
X146427586Y-97998038D01*
X146418943Y-97995501D01*
X146281059Y-97995501D01*
X146272416Y-97998038D01*
X146272414Y-97998039D01*
X146157410Y-98031807D01*
X146157407Y-98031808D01*
X146148761Y-98034347D01*
X146141184Y-98039216D01*
X146141176Y-98039220D01*
X146138175Y-98041150D01*
X146133129Y-98042895D01*
X146132983Y-98042963D01*
X146132976Y-98042948D01*
X146082032Y-98060579D01*
X146023227Y-98052122D01*
X145980110Y-98021418D01*
X145979949Y-98021605D01*
X145977993Y-98019910D01*
X145974833Y-98017660D01*
X145967235Y-98008891D01*
X145959651Y-98004017D01*
X145959650Y-98004016D01*
X145858824Y-97939219D01*
X145858819Y-97939216D01*
X145851240Y-97934346D01*
X145718942Y-97895500D01*
X145581058Y-97895500D01*
X145572415Y-97898037D01*
X145572413Y-97898038D01*
X145457409Y-97931806D01*
X145457406Y-97931807D01*
X145448760Y-97934346D01*
X145441183Y-97939215D01*
X145441175Y-97939219D01*
X145340349Y-98004016D01*
X145340344Y-98004020D01*
X145332765Y-98008891D01*
X145326863Y-98015701D01*
X145326862Y-98015703D01*
X145248372Y-98106286D01*
X145248369Y-98106289D01*
X145242471Y-98113097D01*
X145238728Y-98121291D01*
X145238727Y-98121294D01*
X145188935Y-98230322D01*
X145188933Y-98230327D01*
X145185192Y-98238520D01*
X145183909Y-98247440D01*
X145183909Y-98247442D01*
X145170814Y-98338521D01*
X145165569Y-98375000D01*
X138250500Y-98375000D01*
X138250500Y-96645583D01*
X139523489Y-96645583D01*
X139523986Y-96653487D01*
X139523986Y-96653493D01*
X139532871Y-96794717D01*
X139533369Y-96802629D01*
X139535818Y-96810166D01*
X139579545Y-96944745D01*
X139579547Y-96944750D01*
X139581995Y-96952283D01*
X139586240Y-96958972D01*
X139629708Y-97027468D01*
X139666310Y-97085143D01*
X139781018Y-97192860D01*
X139918910Y-97268667D01*
X140071322Y-97307800D01*
X140185224Y-97307800D01*
X140189183Y-97307800D01*
X140306115Y-97293028D01*
X140452421Y-97235102D01*
X140579724Y-97142610D01*
X140680027Y-97021365D01*
X140747026Y-96878985D01*
X140776511Y-96724417D01*
X140766631Y-96567371D01*
X140736618Y-96475000D01*
X141915569Y-96475000D01*
X141935192Y-96611480D01*
X141938934Y-96619674D01*
X141938935Y-96619677D01*
X141983156Y-96716506D01*
X141992471Y-96736903D01*
X142082765Y-96841109D01*
X142090348Y-96845982D01*
X142090349Y-96845983D01*
X142191175Y-96910780D01*
X142191177Y-96910781D01*
X142198760Y-96915654D01*
X142331058Y-96954500D01*
X142459933Y-96954500D01*
X142468942Y-96954500D01*
X142601240Y-96915654D01*
X142717235Y-96841109D01*
X142807529Y-96736903D01*
X142864808Y-96611480D01*
X142884431Y-96475000D01*
X154965569Y-96475000D01*
X154985192Y-96611480D01*
X154988934Y-96619674D01*
X154988935Y-96619677D01*
X155033156Y-96716506D01*
X155042471Y-96736903D01*
X155132765Y-96841109D01*
X155140348Y-96845982D01*
X155140349Y-96845983D01*
X155241175Y-96910780D01*
X155241177Y-96910781D01*
X155248760Y-96915654D01*
X155381058Y-96954500D01*
X155509933Y-96954500D01*
X155518942Y-96954500D01*
X155651240Y-96915654D01*
X155767235Y-96841109D01*
X155857529Y-96736903D01*
X155914808Y-96611480D01*
X155934431Y-96475000D01*
X155914808Y-96338520D01*
X155887821Y-96279428D01*
X155864035Y-96227343D01*
X155852648Y-96175000D01*
X155864035Y-96122657D01*
X155876217Y-96095983D01*
X155914808Y-96011480D01*
X155934431Y-95875000D01*
X155914808Y-95738520D01*
X155908634Y-95725000D01*
X157465569Y-95725000D01*
X157485192Y-95861480D01*
X157542471Y-95986903D01*
X157632765Y-96091109D01*
X157640348Y-96095982D01*
X157640349Y-96095983D01*
X157741175Y-96160780D01*
X157741177Y-96160781D01*
X157748760Y-96165654D01*
X157881058Y-96204500D01*
X158009933Y-96204500D01*
X158018942Y-96204500D01*
X158151240Y-96165654D01*
X158267235Y-96091109D01*
X158357529Y-95986903D01*
X158414808Y-95861480D01*
X158434431Y-95725000D01*
X158414808Y-95588520D01*
X158357529Y-95463097D01*
X158267235Y-95358891D01*
X158259651Y-95354017D01*
X158259650Y-95354016D01*
X158158824Y-95289219D01*
X158158819Y-95289216D01*
X158151240Y-95284346D01*
X158018942Y-95245500D01*
X157881058Y-95245500D01*
X157872415Y-95248037D01*
X157872413Y-95248038D01*
X157757409Y-95281806D01*
X157757406Y-95281807D01*
X157748760Y-95284346D01*
X157741183Y-95289215D01*
X157741175Y-95289219D01*
X157640349Y-95354016D01*
X157640344Y-95354020D01*
X157632765Y-95358891D01*
X157626863Y-95365701D01*
X157626862Y-95365703D01*
X157548372Y-95456286D01*
X157548369Y-95456289D01*
X157542471Y-95463097D01*
X157538728Y-95471291D01*
X157538727Y-95471294D01*
X157488935Y-95580322D01*
X157488933Y-95580327D01*
X157485192Y-95588520D01*
X157483909Y-95597440D01*
X157483909Y-95597442D01*
X157480598Y-95620474D01*
X157465569Y-95725000D01*
X155908634Y-95725000D01*
X155857529Y-95613097D01*
X155767235Y-95508891D01*
X155759651Y-95504017D01*
X155759650Y-95504016D01*
X155658824Y-95439219D01*
X155658819Y-95439216D01*
X155651240Y-95434346D01*
X155518942Y-95395500D01*
X155381058Y-95395500D01*
X155372415Y-95398037D01*
X155372413Y-95398038D01*
X155257409Y-95431806D01*
X155257406Y-95431807D01*
X155248760Y-95434346D01*
X155241183Y-95439215D01*
X155241175Y-95439219D01*
X155140349Y-95504016D01*
X155140344Y-95504020D01*
X155132765Y-95508891D01*
X155126863Y-95515701D01*
X155126862Y-95515703D01*
X155048372Y-95606286D01*
X155048369Y-95606289D01*
X155042471Y-95613097D01*
X155038728Y-95621291D01*
X155038727Y-95621294D01*
X154988935Y-95730322D01*
X154988933Y-95730327D01*
X154985192Y-95738520D01*
X154965569Y-95875000D01*
X154985192Y-96011480D01*
X154988934Y-96019674D01*
X154988935Y-96019677D01*
X155035965Y-96122657D01*
X155047351Y-96174999D01*
X155035965Y-96227341D01*
X154988935Y-96330321D01*
X154988932Y-96330329D01*
X154985192Y-96338520D01*
X154983909Y-96347440D01*
X154983909Y-96347442D01*
X154974767Y-96411027D01*
X154965569Y-96475000D01*
X142884431Y-96475000D01*
X142864808Y-96338520D01*
X142837821Y-96279428D01*
X142814035Y-96227343D01*
X142802648Y-96175000D01*
X142814035Y-96122657D01*
X142826217Y-96095983D01*
X142864808Y-96011480D01*
X142884431Y-95875000D01*
X142864808Y-95738520D01*
X142807529Y-95613097D01*
X142717235Y-95508891D01*
X142709651Y-95504017D01*
X142709650Y-95504016D01*
X142608824Y-95439219D01*
X142608819Y-95439216D01*
X142601240Y-95434346D01*
X142468942Y-95395500D01*
X142331058Y-95395500D01*
X142322415Y-95398037D01*
X142322413Y-95398038D01*
X142207409Y-95431806D01*
X142207406Y-95431807D01*
X142198760Y-95434346D01*
X142191183Y-95439215D01*
X142191175Y-95439219D01*
X142090349Y-95504016D01*
X142090344Y-95504020D01*
X142082765Y-95508891D01*
X142076863Y-95515701D01*
X142076862Y-95515703D01*
X141998372Y-95606286D01*
X141998369Y-95606289D01*
X141992471Y-95613097D01*
X141988728Y-95621291D01*
X141988727Y-95621294D01*
X141938935Y-95730322D01*
X141938933Y-95730327D01*
X141935192Y-95738520D01*
X141915569Y-95875000D01*
X141935192Y-96011480D01*
X141938934Y-96019674D01*
X141938935Y-96019677D01*
X141985965Y-96122657D01*
X141997351Y-96174999D01*
X141985965Y-96227341D01*
X141938935Y-96330321D01*
X141938932Y-96330329D01*
X141935192Y-96338520D01*
X141933909Y-96347440D01*
X141933909Y-96347442D01*
X141924767Y-96411027D01*
X141915569Y-96475000D01*
X140736618Y-96475000D01*
X140718005Y-96417717D01*
X140633690Y-96284857D01*
X140518982Y-96177140D01*
X140450623Y-96139559D01*
X140388036Y-96105151D01*
X140388032Y-96105149D01*
X140381090Y-96101333D01*
X140373415Y-96099362D01*
X140373409Y-96099360D01*
X140236357Y-96064171D01*
X140236352Y-96064170D01*
X140228678Y-96062200D01*
X140110817Y-96062200D01*
X140106896Y-96062695D01*
X140106885Y-96062696D01*
X140001752Y-96075978D01*
X140001750Y-96075978D01*
X139993885Y-96076972D01*
X139986518Y-96079888D01*
X139986513Y-96079890D01*
X139854953Y-96131978D01*
X139854950Y-96131979D01*
X139847579Y-96134898D01*
X139841166Y-96139557D01*
X139841163Y-96139559D01*
X139726689Y-96222730D01*
X139726686Y-96222732D01*
X139720276Y-96227390D01*
X139715230Y-96233488D01*
X139715224Y-96233495D01*
X139625022Y-96342531D01*
X139625019Y-96342534D01*
X139619973Y-96348635D01*
X139616600Y-96355802D01*
X139616598Y-96355806D01*
X139556349Y-96483841D01*
X139556347Y-96483846D01*
X139552974Y-96491015D01*
X139551489Y-96498797D01*
X139551488Y-96498802D01*
X139524974Y-96637797D01*
X139523489Y-96645583D01*
X138250500Y-96645583D01*
X138250500Y-94725000D01*
X139165569Y-94725000D01*
X139185192Y-94861480D01*
X139188934Y-94869674D01*
X139188935Y-94869677D01*
X139238727Y-94978705D01*
X139242471Y-94986903D01*
X139332765Y-95091109D01*
X139340348Y-95095982D01*
X139340349Y-95095983D01*
X139441175Y-95160780D01*
X139441177Y-95160781D01*
X139448760Y-95165654D01*
X139457564Y-95168239D01*
X139457975Y-95168452D01*
X139465604Y-95171936D01*
X139465431Y-95172314D01*
X139500347Y-95190400D01*
X139531685Y-95227001D01*
X139546993Y-95272689D01*
X139548528Y-95284346D01*
X139559772Y-95369754D01*
X139562931Y-95377382D01*
X139562932Y-95377383D01*
X139612484Y-95497013D01*
X139612485Y-95497016D01*
X139615645Y-95504643D01*
X139620671Y-95511194D01*
X139620673Y-95511196D01*
X139686853Y-95597442D01*
X139704526Y-95620474D01*
X139820357Y-95709355D01*
X139955246Y-95765228D01*
X140100000Y-95784285D01*
X140244754Y-95765228D01*
X140379643Y-95709355D01*
X140495474Y-95620474D01*
X140584355Y-95504643D01*
X140640228Y-95369754D01*
X140659285Y-95225000D01*
X140640228Y-95080246D01*
X140584355Y-94945358D01*
X140495474Y-94829526D01*
X140379643Y-94740645D01*
X140372016Y-94737485D01*
X140372013Y-94737484D01*
X140252383Y-94687932D01*
X140252382Y-94687931D01*
X140244754Y-94684772D01*
X140236568Y-94683694D01*
X140236560Y-94683692D01*
X140218923Y-94681370D01*
X140173239Y-94666063D01*
X140136640Y-94634728D01*
X140115616Y-94594145D01*
X140114808Y-94588520D01*
X140057529Y-94463097D01*
X139967235Y-94358891D01*
X139959651Y-94354017D01*
X139959650Y-94354016D01*
X139858824Y-94289219D01*
X139858819Y-94289216D01*
X139851240Y-94284346D01*
X139718942Y-94245500D01*
X139581058Y-94245500D01*
X139572415Y-94248037D01*
X139572413Y-94248038D01*
X139457409Y-94281806D01*
X139457406Y-94281807D01*
X139448760Y-94284346D01*
X139441183Y-94289215D01*
X139441175Y-94289219D01*
X139340349Y-94354016D01*
X139340344Y-94354020D01*
X139332765Y-94358891D01*
X139326863Y-94365701D01*
X139326862Y-94365703D01*
X139248372Y-94456286D01*
X139248369Y-94456289D01*
X139242471Y-94463097D01*
X139238728Y-94471291D01*
X139238727Y-94471294D01*
X139188935Y-94580322D01*
X139188933Y-94580327D01*
X139185192Y-94588520D01*
X139183909Y-94597440D01*
X139183909Y-94597442D01*
X139174102Y-94665654D01*
X139165569Y-94725000D01*
X138250500Y-94725000D01*
X138250500Y-94225000D01*
X155965569Y-94225000D01*
X155985192Y-94361480D01*
X155988934Y-94369674D01*
X155988935Y-94369677D01*
X156038727Y-94478705D01*
X156042471Y-94486903D01*
X156132765Y-94591109D01*
X156140348Y-94595982D01*
X156140349Y-94595983D01*
X156241175Y-94660780D01*
X156241177Y-94660781D01*
X156248760Y-94665654D01*
X156381058Y-94704500D01*
X156380778Y-94705453D01*
X156420975Y-94720444D01*
X156458855Y-94758322D01*
X156477576Y-94808512D01*
X156483909Y-94852557D01*
X156485192Y-94861480D01*
X156488934Y-94869674D01*
X156488935Y-94869677D01*
X156538727Y-94978705D01*
X156542471Y-94986903D01*
X156632765Y-95091109D01*
X156640348Y-95095982D01*
X156640349Y-95095983D01*
X156741175Y-95160780D01*
X156741177Y-95160781D01*
X156748760Y-95165654D01*
X156881058Y-95204500D01*
X157009933Y-95204500D01*
X157018942Y-95204500D01*
X157151240Y-95165654D01*
X157267235Y-95091109D01*
X157357529Y-94986903D01*
X157414808Y-94861480D01*
X157434431Y-94725000D01*
X157414808Y-94588520D01*
X157357529Y-94463097D01*
X157267235Y-94358891D01*
X157259651Y-94354017D01*
X157259650Y-94354016D01*
X157158824Y-94289219D01*
X157158819Y-94289216D01*
X157151240Y-94284346D01*
X157018942Y-94245500D01*
X157019221Y-94244547D01*
X156979015Y-94229549D01*
X156941140Y-94191672D01*
X156922424Y-94141490D01*
X156914808Y-94088520D01*
X156857529Y-93963097D01*
X156767235Y-93858891D01*
X156759651Y-93854017D01*
X156759650Y-93854016D01*
X156658824Y-93789219D01*
X156658819Y-93789216D01*
X156651240Y-93784346D01*
X156518942Y-93745500D01*
X156381058Y-93745500D01*
X156372415Y-93748037D01*
X156372413Y-93748038D01*
X156257409Y-93781806D01*
X156257406Y-93781807D01*
X156248760Y-93784346D01*
X156241183Y-93789215D01*
X156241175Y-93789219D01*
X156140349Y-93854016D01*
X156140344Y-93854020D01*
X156132765Y-93858891D01*
X156126863Y-93865701D01*
X156126862Y-93865703D01*
X156048372Y-93956286D01*
X156048369Y-93956289D01*
X156042471Y-93963097D01*
X156038728Y-93971291D01*
X156038727Y-93971294D01*
X155988935Y-94080322D01*
X155988933Y-94080327D01*
X155985192Y-94088520D01*
X155965569Y-94225000D01*
X138250500Y-94225000D01*
X138250500Y-92775000D01*
X140365569Y-92775000D01*
X140385192Y-92911480D01*
X140442471Y-93036903D01*
X140532765Y-93141109D01*
X140540348Y-93145982D01*
X140540349Y-93145983D01*
X140641175Y-93210780D01*
X140641177Y-93210781D01*
X140648760Y-93215654D01*
X140781058Y-93254500D01*
X140909933Y-93254500D01*
X140918942Y-93254500D01*
X141051240Y-93215654D01*
X141167235Y-93141109D01*
X141257529Y-93036903D01*
X141314808Y-92911480D01*
X141334431Y-92775000D01*
X141314808Y-92638520D01*
X141257529Y-92513097D01*
X141167235Y-92408891D01*
X141159651Y-92404017D01*
X141159650Y-92404016D01*
X141058824Y-92339219D01*
X141058819Y-92339216D01*
X141051240Y-92334346D01*
X140918942Y-92295500D01*
X140781058Y-92295500D01*
X140772415Y-92298037D01*
X140772413Y-92298038D01*
X140657409Y-92331806D01*
X140657406Y-92331807D01*
X140648760Y-92334346D01*
X140641183Y-92339215D01*
X140641175Y-92339219D01*
X140540349Y-92404016D01*
X140540344Y-92404020D01*
X140532765Y-92408891D01*
X140526863Y-92415701D01*
X140526862Y-92415703D01*
X140448372Y-92506286D01*
X140448369Y-92506289D01*
X140442471Y-92513097D01*
X140438728Y-92521291D01*
X140438727Y-92521294D01*
X140388935Y-92630322D01*
X140388933Y-92630327D01*
X140385192Y-92638520D01*
X140365569Y-92775000D01*
X138250500Y-92775000D01*
X138250500Y-90775000D01*
X138747445Y-90775000D01*
X138748523Y-90783188D01*
X138766898Y-90922763D01*
X138766899Y-90922768D01*
X138767977Y-90930953D01*
X138771135Y-90938578D01*
X138771137Y-90938584D01*
X138825011Y-91068648D01*
X138825013Y-91068651D01*
X138828172Y-91076278D01*
X138923929Y-91201071D01*
X139048722Y-91296828D01*
X139056351Y-91299988D01*
X139186415Y-91353862D01*
X139186416Y-91353862D01*
X139194047Y-91357023D01*
X139350000Y-91377555D01*
X139505953Y-91357023D01*
X139651278Y-91296828D01*
X139776071Y-91201071D01*
X139871828Y-91076278D01*
X139872357Y-91075000D01*
X142042069Y-91075000D01*
X142061692Y-91211480D01*
X142065434Y-91219674D01*
X142065435Y-91219677D01*
X142100669Y-91296828D01*
X142118971Y-91336903D01*
X142209265Y-91441109D01*
X142216848Y-91445982D01*
X142216849Y-91445983D01*
X142317675Y-91510780D01*
X142317677Y-91510781D01*
X142325260Y-91515654D01*
X142457558Y-91554500D01*
X142586433Y-91554500D01*
X142595442Y-91554500D01*
X142727740Y-91515654D01*
X142843735Y-91441109D01*
X142934029Y-91336903D01*
X142991308Y-91211480D01*
X143010931Y-91075000D01*
X142991308Y-90938520D01*
X142951397Y-90851127D01*
X142940332Y-90789792D01*
X142957884Y-90737065D01*
X142957529Y-90736903D01*
X142957529Y-90736902D01*
X143014808Y-90611480D01*
X143034431Y-90475000D01*
X143014808Y-90338520D01*
X142964035Y-90227342D01*
X142952648Y-90175000D01*
X142964035Y-90122657D01*
X143011063Y-90019680D01*
X143011064Y-90019678D01*
X143014808Y-90011480D01*
X143034431Y-89875000D01*
X143014808Y-89738520D01*
X142957529Y-89613097D01*
X142867235Y-89508891D01*
X142859651Y-89504017D01*
X142859650Y-89504016D01*
X142758824Y-89439219D01*
X142758819Y-89439216D01*
X142751240Y-89434346D01*
X142732028Y-89428705D01*
X142627586Y-89398038D01*
X142627585Y-89398037D01*
X142618942Y-89395500D01*
X142481058Y-89395500D01*
X142472415Y-89398037D01*
X142472413Y-89398038D01*
X142357409Y-89431806D01*
X142357406Y-89431807D01*
X142348760Y-89434346D01*
X142341183Y-89439215D01*
X142341175Y-89439219D01*
X142240349Y-89504016D01*
X142240344Y-89504020D01*
X142232765Y-89508891D01*
X142226863Y-89515701D01*
X142226862Y-89515703D01*
X142148372Y-89606286D01*
X142148369Y-89606289D01*
X142142471Y-89613097D01*
X142138728Y-89621291D01*
X142138727Y-89621294D01*
X142088935Y-89730322D01*
X142088933Y-89730327D01*
X142085192Y-89738520D01*
X142065569Y-89875000D01*
X142085192Y-90011480D01*
X142088933Y-90019672D01*
X142088935Y-90019678D01*
X142135965Y-90122658D01*
X142147351Y-90175000D01*
X142135965Y-90227342D01*
X142088935Y-90330321D01*
X142088932Y-90330329D01*
X142085192Y-90338520D01*
X142065569Y-90475000D01*
X142085192Y-90611480D01*
X142088933Y-90619672D01*
X142088935Y-90619678D01*
X142125102Y-90698871D01*
X142136167Y-90760196D01*
X142118617Y-90812935D01*
X142118971Y-90813097D01*
X142117471Y-90816380D01*
X142117469Y-90816385D01*
X142115234Y-90821279D01*
X142115230Y-90821286D01*
X142065435Y-90930322D01*
X142065433Y-90930327D01*
X142061692Y-90938520D01*
X142042069Y-91075000D01*
X139872357Y-91075000D01*
X139932023Y-90930953D01*
X139952555Y-90775000D01*
X139932023Y-90619047D01*
X139871828Y-90473723D01*
X139865961Y-90466077D01*
X139781093Y-90355474D01*
X139776071Y-90348929D01*
X139651278Y-90253172D01*
X139643651Y-90250013D01*
X139643648Y-90250011D01*
X139513584Y-90196137D01*
X139513578Y-90196135D01*
X139505953Y-90192977D01*
X139497768Y-90191899D01*
X139497763Y-90191898D01*
X139358188Y-90173523D01*
X139350000Y-90172445D01*
X139341812Y-90173523D01*
X139202236Y-90191898D01*
X139202229Y-90191899D01*
X139194047Y-90192977D01*
X139186421Y-90196135D01*
X139186416Y-90196137D01*
X139056352Y-90250011D01*
X139056346Y-90250014D01*
X139048723Y-90253172D01*
X139042178Y-90258193D01*
X139042171Y-90258198D01*
X138930474Y-90343906D01*
X138930470Y-90343909D01*
X138923929Y-90348929D01*
X138918909Y-90355470D01*
X138918906Y-90355474D01*
X138833198Y-90467171D01*
X138833193Y-90467178D01*
X138828172Y-90473723D01*
X138825014Y-90481346D01*
X138825011Y-90481352D01*
X138771137Y-90611416D01*
X138771135Y-90611421D01*
X138767977Y-90619047D01*
X138766899Y-90627229D01*
X138766898Y-90627236D01*
X138752439Y-90737065D01*
X138747445Y-90775000D01*
X138250500Y-90775000D01*
X138250500Y-89125000D01*
X138747445Y-89125000D01*
X138748523Y-89133188D01*
X138766898Y-89272763D01*
X138766899Y-89272768D01*
X138767977Y-89280953D01*
X138771135Y-89288578D01*
X138771137Y-89288584D01*
X138825011Y-89418648D01*
X138825013Y-89418651D01*
X138828172Y-89426278D01*
X138923929Y-89551071D01*
X139048722Y-89646828D01*
X139056351Y-89649988D01*
X139186415Y-89703862D01*
X139186416Y-89703862D01*
X139194047Y-89707023D01*
X139350000Y-89727555D01*
X139505953Y-89707023D01*
X139651278Y-89646828D01*
X139776071Y-89551071D01*
X139871828Y-89426278D01*
X139932023Y-89280953D01*
X139945972Y-89175000D01*
X157365569Y-89175000D01*
X157385192Y-89311480D01*
X157442471Y-89436903D01*
X157532765Y-89541109D01*
X157540348Y-89545982D01*
X157540349Y-89545983D01*
X157641175Y-89610780D01*
X157641177Y-89610781D01*
X157648760Y-89615654D01*
X157781058Y-89654500D01*
X157909933Y-89654500D01*
X157918942Y-89654500D01*
X158051240Y-89615654D01*
X158167235Y-89541109D01*
X158257529Y-89436903D01*
X158314808Y-89311480D01*
X158334431Y-89175000D01*
X158314808Y-89038520D01*
X158257529Y-88913097D01*
X158167235Y-88808891D01*
X158159651Y-88804017D01*
X158159650Y-88804016D01*
X158058824Y-88739219D01*
X158058819Y-88739216D01*
X158051240Y-88734346D01*
X157952910Y-88705474D01*
X157927586Y-88698038D01*
X157927585Y-88698037D01*
X157918942Y-88695500D01*
X157781058Y-88695500D01*
X157781034Y-88695506D01*
X157775139Y-88694873D01*
X157767252Y-88699553D01*
X157657408Y-88731806D01*
X157657403Y-88731808D01*
X157648760Y-88734346D01*
X157641183Y-88739215D01*
X157641175Y-88739219D01*
X157540349Y-88804016D01*
X157540344Y-88804020D01*
X157532765Y-88808891D01*
X157526863Y-88815701D01*
X157526862Y-88815703D01*
X157448372Y-88906286D01*
X157448369Y-88906289D01*
X157442471Y-88913097D01*
X157438728Y-88921291D01*
X157438727Y-88921294D01*
X157388935Y-89030322D01*
X157388933Y-89030327D01*
X157385192Y-89038520D01*
X157365569Y-89175000D01*
X139945972Y-89175000D01*
X139952555Y-89125000D01*
X139932023Y-88969047D01*
X139871828Y-88823723D01*
X139865674Y-88815703D01*
X139781093Y-88705474D01*
X139776071Y-88698929D01*
X139651278Y-88603172D01*
X139643651Y-88600013D01*
X139643648Y-88600011D01*
X139513584Y-88546137D01*
X139513578Y-88546135D01*
X139505953Y-88542977D01*
X139497768Y-88541899D01*
X139497763Y-88541898D01*
X139358188Y-88523523D01*
X139350000Y-88522445D01*
X139341812Y-88523523D01*
X139202236Y-88541898D01*
X139202229Y-88541899D01*
X139194047Y-88542977D01*
X139186421Y-88546135D01*
X139186416Y-88546137D01*
X139056352Y-88600011D01*
X139056346Y-88600014D01*
X139048723Y-88603172D01*
X139042178Y-88608193D01*
X139042171Y-88608198D01*
X138930474Y-88693906D01*
X138930470Y-88693909D01*
X138923929Y-88698929D01*
X138918909Y-88705470D01*
X138918906Y-88705474D01*
X138833198Y-88817171D01*
X138833193Y-88817178D01*
X138828172Y-88823723D01*
X138825014Y-88831346D01*
X138825011Y-88831352D01*
X138771137Y-88961416D01*
X138771135Y-88961421D01*
X138767977Y-88969047D01*
X138766899Y-88977229D01*
X138766898Y-88977236D01*
X138748698Y-89115479D01*
X138747445Y-89125000D01*
X138250500Y-89125000D01*
X138250500Y-88112627D01*
X143971683Y-88112627D01*
X143991306Y-88249107D01*
X143995048Y-88257301D01*
X143995049Y-88257304D01*
X144033322Y-88341109D01*
X144048585Y-88374530D01*
X144138879Y-88478736D01*
X144146462Y-88483609D01*
X144146463Y-88483610D01*
X144247289Y-88548407D01*
X144247291Y-88548408D01*
X144254874Y-88553281D01*
X144387172Y-88592127D01*
X144516047Y-88592127D01*
X144525056Y-88592127D01*
X144657354Y-88553281D01*
X144773349Y-88478736D01*
X144863643Y-88374530D01*
X144920922Y-88249107D01*
X144940545Y-88112627D01*
X144920922Y-87976147D01*
X144920398Y-87975000D01*
X157165569Y-87975000D01*
X157185192Y-88111480D01*
X157188934Y-88119674D01*
X157188935Y-88119677D01*
X157238727Y-88228705D01*
X157242471Y-88236903D01*
X157332765Y-88341109D01*
X157340348Y-88345982D01*
X157340349Y-88345983D01*
X157441175Y-88410780D01*
X157441177Y-88410781D01*
X157448760Y-88415654D01*
X157581058Y-88454500D01*
X157709925Y-88454500D01*
X157718942Y-88454500D01*
X157718962Y-88454494D01*
X157724857Y-88455127D01*
X157732747Y-88450446D01*
X157851240Y-88415654D01*
X157931881Y-88363829D01*
X158000000Y-88343828D01*
X158068118Y-88363829D01*
X158148760Y-88415654D01*
X158281058Y-88454500D01*
X158409933Y-88454500D01*
X158418942Y-88454500D01*
X158551240Y-88415654D01*
X158667235Y-88341109D01*
X158757529Y-88236903D01*
X158814808Y-88111480D01*
X158834431Y-87975000D01*
X158814808Y-87838520D01*
X158757529Y-87713097D01*
X158667235Y-87608891D01*
X158659651Y-87604017D01*
X158623830Y-87580996D01*
X158581364Y-87535383D01*
X158565952Y-87474997D01*
X158581366Y-87414611D01*
X158623829Y-87369003D01*
X158667235Y-87341109D01*
X158757529Y-87236903D01*
X158814808Y-87111480D01*
X158834431Y-86975000D01*
X158814808Y-86838520D01*
X158757529Y-86713097D01*
X158667235Y-86608891D01*
X158659651Y-86604017D01*
X158659650Y-86604016D01*
X158558824Y-86539219D01*
X158558819Y-86539216D01*
X158551240Y-86534346D01*
X158418942Y-86495500D01*
X158281058Y-86495500D01*
X158272415Y-86498037D01*
X158272413Y-86498038D01*
X158157409Y-86531806D01*
X158157406Y-86531807D01*
X158148760Y-86534346D01*
X158141181Y-86539216D01*
X158141180Y-86539217D01*
X158068120Y-86586170D01*
X158000000Y-86606171D01*
X157931880Y-86586170D01*
X157851240Y-86534346D01*
X157718942Y-86495500D01*
X157581058Y-86495500D01*
X157572415Y-86498037D01*
X157572413Y-86498038D01*
X157457409Y-86531806D01*
X157457406Y-86531807D01*
X157448760Y-86534346D01*
X157441183Y-86539215D01*
X157441175Y-86539219D01*
X157340349Y-86604016D01*
X157340344Y-86604020D01*
X157332765Y-86608891D01*
X157326863Y-86615701D01*
X157326862Y-86615703D01*
X157248372Y-86706286D01*
X157248369Y-86706289D01*
X157242471Y-86713097D01*
X157238728Y-86721291D01*
X157238727Y-86721294D01*
X157188935Y-86830322D01*
X157188933Y-86830327D01*
X157185192Y-86838520D01*
X157165569Y-86975000D01*
X157185192Y-87111480D01*
X157188934Y-87119674D01*
X157188935Y-87119677D01*
X157211666Y-87169450D01*
X157242471Y-87236903D01*
X157332765Y-87341109D01*
X157376163Y-87368999D01*
X157376168Y-87369002D01*
X157418635Y-87414615D01*
X157434047Y-87475000D01*
X157418635Y-87535385D01*
X157376168Y-87580997D01*
X157332765Y-87608891D01*
X157326863Y-87615701D01*
X157326862Y-87615703D01*
X157248372Y-87706286D01*
X157248369Y-87706289D01*
X157242471Y-87713097D01*
X157238728Y-87721291D01*
X157238727Y-87721294D01*
X157188935Y-87830322D01*
X157188933Y-87830327D01*
X157185192Y-87838520D01*
X157183909Y-87847440D01*
X157183909Y-87847442D01*
X157176070Y-87901961D01*
X157165569Y-87975000D01*
X144920398Y-87975000D01*
X144863643Y-87850724D01*
X144773349Y-87746518D01*
X144765765Y-87741644D01*
X144765764Y-87741643D01*
X144664938Y-87676846D01*
X144664933Y-87676843D01*
X144657354Y-87671973D01*
X144571295Y-87646704D01*
X144533700Y-87635665D01*
X144533699Y-87635664D01*
X144525056Y-87633127D01*
X144387172Y-87633127D01*
X144378529Y-87635664D01*
X144378527Y-87635665D01*
X144263523Y-87669433D01*
X144263520Y-87669434D01*
X144254874Y-87671973D01*
X144247297Y-87676842D01*
X144247289Y-87676846D01*
X144146463Y-87741643D01*
X144146458Y-87741647D01*
X144138879Y-87746518D01*
X144132977Y-87753328D01*
X144132976Y-87753330D01*
X144054486Y-87843913D01*
X144054483Y-87843916D01*
X144048585Y-87850724D01*
X144044842Y-87858918D01*
X144044841Y-87858921D01*
X143995049Y-87967949D01*
X143995047Y-87967954D01*
X143991306Y-87976147D01*
X143971683Y-88112627D01*
X138250500Y-88112627D01*
X138250500Y-87425000D01*
X146115569Y-87425000D01*
X146135192Y-87561480D01*
X146138934Y-87569674D01*
X146138935Y-87569677D01*
X146184493Y-87669433D01*
X146192471Y-87686903D01*
X146282765Y-87791109D01*
X146290348Y-87795982D01*
X146290349Y-87795983D01*
X146391175Y-87860780D01*
X146391177Y-87860781D01*
X146398760Y-87865654D01*
X146531058Y-87904500D01*
X146659933Y-87904500D01*
X146668942Y-87904500D01*
X146801240Y-87865654D01*
X146917235Y-87791109D01*
X146979775Y-87718932D01*
X147022657Y-87686832D01*
X147075000Y-87675445D01*
X147127343Y-87686832D01*
X147170224Y-87718932D01*
X147232765Y-87791109D01*
X147240348Y-87795982D01*
X147240349Y-87795983D01*
X147341175Y-87860780D01*
X147341177Y-87860781D01*
X147348760Y-87865654D01*
X147481058Y-87904500D01*
X147609933Y-87904500D01*
X147618942Y-87904500D01*
X147751240Y-87865654D01*
X147867235Y-87791109D01*
X147957529Y-87686903D01*
X148014808Y-87561480D01*
X148034431Y-87425000D01*
X148014808Y-87288520D01*
X147957529Y-87163097D01*
X147867235Y-87058891D01*
X147859651Y-87054017D01*
X147859650Y-87054016D01*
X147758824Y-86989219D01*
X147758819Y-86989216D01*
X147751240Y-86984346D01*
X147719410Y-86975000D01*
X147627586Y-86948038D01*
X147627585Y-86948037D01*
X147618942Y-86945500D01*
X147481058Y-86945500D01*
X147472415Y-86948037D01*
X147472413Y-86948038D01*
X147357409Y-86981806D01*
X147357406Y-86981807D01*
X147348760Y-86984346D01*
X147341183Y-86989215D01*
X147341175Y-86989219D01*
X147240349Y-87054016D01*
X147240344Y-87054020D01*
X147232765Y-87058891D01*
X147226865Y-87065699D01*
X147226858Y-87065706D01*
X147170224Y-87131066D01*
X147110498Y-87169450D01*
X147039502Y-87169450D01*
X146979776Y-87131066D01*
X146923141Y-87065706D01*
X146923137Y-87065703D01*
X146917235Y-87058891D01*
X146909651Y-87054017D01*
X146909650Y-87054016D01*
X146808824Y-86989219D01*
X146808819Y-86989216D01*
X146801240Y-86984346D01*
X146769410Y-86975000D01*
X146677586Y-86948038D01*
X146677585Y-86948037D01*
X146668942Y-86945500D01*
X146531058Y-86945500D01*
X146522415Y-86948037D01*
X146522413Y-86948038D01*
X146407409Y-86981806D01*
X146407406Y-86981807D01*
X146398760Y-86984346D01*
X146391183Y-86989215D01*
X146391175Y-86989219D01*
X146290349Y-87054016D01*
X146290344Y-87054020D01*
X146282765Y-87058891D01*
X146276863Y-87065701D01*
X146276862Y-87065703D01*
X146198372Y-87156286D01*
X146198369Y-87156289D01*
X146192471Y-87163097D01*
X146188728Y-87171291D01*
X146188727Y-87171294D01*
X146138935Y-87280322D01*
X146138933Y-87280327D01*
X146135192Y-87288520D01*
X146133909Y-87297440D01*
X146133909Y-87297442D01*
X146126930Y-87345980D01*
X146115569Y-87425000D01*
X138250500Y-87425000D01*
X138250500Y-84475000D01*
X157965569Y-84475000D01*
X157985192Y-84611480D01*
X158042471Y-84736903D01*
X158132765Y-84841109D01*
X158140348Y-84845982D01*
X158140349Y-84845983D01*
X158241175Y-84910780D01*
X158241177Y-84910781D01*
X158248760Y-84915654D01*
X158381058Y-84954500D01*
X158509933Y-84954500D01*
X158518942Y-84954500D01*
X158651240Y-84915654D01*
X158767235Y-84841109D01*
X158857529Y-84736903D01*
X158914808Y-84611480D01*
X158934431Y-84475000D01*
X158914808Y-84338520D01*
X158857529Y-84213097D01*
X158767235Y-84108891D01*
X158759651Y-84104017D01*
X158759650Y-84104016D01*
X158658824Y-84039219D01*
X158658819Y-84039216D01*
X158651240Y-84034346D01*
X158518942Y-83995500D01*
X158381058Y-83995500D01*
X158372415Y-83998037D01*
X158372413Y-83998038D01*
X158257409Y-84031806D01*
X158257406Y-84031807D01*
X158248760Y-84034346D01*
X158241183Y-84039215D01*
X158241175Y-84039219D01*
X158140349Y-84104016D01*
X158140344Y-84104020D01*
X158132765Y-84108891D01*
X158126863Y-84115701D01*
X158126862Y-84115703D01*
X158048372Y-84206286D01*
X158048369Y-84206289D01*
X158042471Y-84213097D01*
X158038728Y-84221291D01*
X158038727Y-84221294D01*
X157988935Y-84330322D01*
X157988933Y-84330327D01*
X157985192Y-84338520D01*
X157965569Y-84475000D01*
X138250500Y-84475000D01*
X138250500Y-83225000D01*
X151715569Y-83225000D01*
X151735192Y-83361480D01*
X151738934Y-83369674D01*
X151738935Y-83369677D01*
X151766458Y-83429943D01*
X151792471Y-83486903D01*
X151882765Y-83591109D01*
X151890348Y-83595982D01*
X151890349Y-83595983D01*
X151991175Y-83660780D01*
X151991177Y-83660781D01*
X151998760Y-83665654D01*
X152131058Y-83704500D01*
X152259933Y-83704500D01*
X152268942Y-83704500D01*
X152401240Y-83665654D01*
X152517235Y-83591109D01*
X152607529Y-83486903D01*
X152664808Y-83361480D01*
X152684431Y-83225000D01*
X152664808Y-83088520D01*
X152629559Y-83011336D01*
X156668782Y-83011336D01*
X156670533Y-83019765D01*
X156670534Y-83019769D01*
X156696531Y-83144873D01*
X156696532Y-83144878D01*
X156698285Y-83153310D01*
X156764997Y-83282059D01*
X156770877Y-83288355D01*
X156770878Y-83288356D01*
X156846827Y-83369677D01*
X156863972Y-83388034D01*
X156987868Y-83463377D01*
X157127497Y-83502500D01*
X157231775Y-83502500D01*
X157236080Y-83502500D01*
X157343656Y-83487714D01*
X157476657Y-83429943D01*
X157589140Y-83338432D01*
X157672762Y-83219966D01*
X157721322Y-83083332D01*
X157731218Y-82938664D01*
X157701715Y-82796690D01*
X157635003Y-82667941D01*
X157536028Y-82561966D01*
X157528667Y-82557489D01*
X157528665Y-82557488D01*
X157419498Y-82491102D01*
X157419495Y-82491101D01*
X157412132Y-82486623D01*
X157403827Y-82484296D01*
X157280803Y-82449825D01*
X157280798Y-82449824D01*
X157272503Y-82447500D01*
X157163920Y-82447500D01*
X157159662Y-82448085D01*
X157159651Y-82448086D01*
X157064889Y-82461111D01*
X157064885Y-82461112D01*
X157056344Y-82462286D01*
X157048436Y-82465720D01*
X157048432Y-82465722D01*
X156931250Y-82516622D01*
X156931247Y-82516623D01*
X156923343Y-82520057D01*
X156916659Y-82525494D01*
X156916657Y-82525496D01*
X156817541Y-82606131D01*
X156817534Y-82606137D01*
X156810860Y-82611568D01*
X156805895Y-82618601D01*
X156805890Y-82618607D01*
X156732207Y-82722993D01*
X156732204Y-82722998D01*
X156727238Y-82730034D01*
X156724353Y-82738149D01*
X156724353Y-82738151D01*
X156681564Y-82858546D01*
X156681563Y-82858549D01*
X156678678Y-82866668D01*
X156678090Y-82875262D01*
X156678089Y-82875268D01*
X156671521Y-82971294D01*
X156668782Y-83011336D01*
X152629559Y-83011336D01*
X152607529Y-82963097D01*
X152517235Y-82858891D01*
X152509651Y-82854017D01*
X152509650Y-82854016D01*
X152408824Y-82789219D01*
X152408819Y-82789216D01*
X152401240Y-82784346D01*
X152268942Y-82745500D01*
X152131058Y-82745500D01*
X152122415Y-82748037D01*
X152122413Y-82748038D01*
X152007409Y-82781806D01*
X152007406Y-82781807D01*
X151998760Y-82784346D01*
X151991183Y-82789215D01*
X151991175Y-82789219D01*
X151890349Y-82854016D01*
X151890344Y-82854020D01*
X151882765Y-82858891D01*
X151876863Y-82865701D01*
X151876862Y-82865703D01*
X151798372Y-82956286D01*
X151798369Y-82956289D01*
X151792471Y-82963097D01*
X151788728Y-82971291D01*
X151788727Y-82971294D01*
X151738935Y-83080322D01*
X151738933Y-83080327D01*
X151735192Y-83088520D01*
X151733909Y-83097440D01*
X151733909Y-83097442D01*
X151724777Y-83160960D01*
X151715569Y-83225000D01*
X138250500Y-83225000D01*
X138250500Y-81401500D01*
X138267381Y-81338500D01*
X138313500Y-81292381D01*
X138376500Y-81275500D01*
X159523500Y-81275500D01*
X159586500Y-81292381D01*
G37*
%TD.AperFunction*%
%TD*%
M02*
