%TF.GenerationSoftware,KiCad,Pcbnew,(7.0.0-rc2-153-g7d6218acb4)*%
%TF.CreationDate,2023-02-19T16:48:29+08:00*%
%TF.ProjectId,RAK3172-M.2-2230-Mod,52414b33-3137-4322-9d4d-2e322d323233,rev?*%
%TF.SameCoordinates,Original*%
%TF.FileFunction,Soldermask,Top*%
%TF.FilePolarity,Negative*%
%FSLAX46Y46*%
G04 Gerber Fmt 4.6, Leading zero omitted, Abs format (unit mm)*
G04 Created by KiCad (PCBNEW (7.0.0-rc2-153-g7d6218acb4)) date 2023-02-19 16:48:29*
%MOMM*%
%LPD*%
G01*
G04 APERTURE LIST*
G04 Aperture macros list*
%AMRoundRect*
0 Rectangle with rounded corners*
0 $1 Rounding radius*
0 $2 $3 $4 $5 $6 $7 $8 $9 X,Y pos of 4 corners*
0 Add a 4 corners polygon primitive as box body*
4,1,4,$2,$3,$4,$5,$6,$7,$8,$9,$2,$3,0*
0 Add four circle primitives for the rounded corners*
1,1,$1+$1,$2,$3*
1,1,$1+$1,$4,$5*
1,1,$1+$1,$6,$7*
1,1,$1+$1,$8,$9*
0 Add four rect primitives between the rounded corners*
20,1,$1+$1,$2,$3,$4,$5,0*
20,1,$1+$1,$4,$5,$6,$7,0*
20,1,$1+$1,$6,$7,$8,$9,0*
20,1,$1+$1,$8,$9,$2,$3,0*%
G04 Aperture macros list end*
%ADD10C,0.100000*%
%ADD11R,0.370000X1.170000*%
%ADD12R,1.170000X0.370000*%
%ADD13R,1.600000X1.600000*%
%ADD14RoundRect,0.150000X0.150000X-0.512500X0.150000X0.512500X-0.150000X0.512500X-0.150000X-0.512500X0*%
%ADD15RoundRect,0.140000X-0.170000X0.140000X-0.170000X-0.140000X0.170000X-0.140000X0.170000X0.140000X0*%
%ADD16RoundRect,0.250000X0.700000X-0.275000X0.700000X0.275000X-0.700000X0.275000X-0.700000X-0.275000X0*%
%ADD17RoundRect,0.062500X-0.300000X-0.062500X0.300000X-0.062500X0.300000X0.062500X-0.300000X0.062500X0*%
%ADD18R,0.900000X1.600000*%
%ADD19RoundRect,0.250000X-0.275000X-0.700000X0.275000X-0.700000X0.275000X0.700000X-0.275000X0.700000X0*%
%ADD20RoundRect,0.225000X0.225000X0.250000X-0.225000X0.250000X-0.225000X-0.250000X0.225000X-0.250000X0*%
%ADD21C,0.990600*%
%ADD22C,0.787400*%
%ADD23RoundRect,0.147500X0.147500X0.172500X-0.147500X0.172500X-0.147500X-0.172500X0.147500X-0.172500X0*%
%ADD24RoundRect,0.218750X0.218750X0.256250X-0.218750X0.256250X-0.218750X-0.256250X0.218750X-0.256250X0*%
%ADD25R,1.050000X1.000000*%
%ADD26R,2.200000X1.050000*%
%ADD27C,2.600000*%
%ADD28C,3.800000*%
%ADD29RoundRect,0.225000X0.250000X-0.225000X0.250000X0.225000X-0.250000X0.225000X-0.250000X-0.225000X0*%
%ADD30RoundRect,0.112500X0.187500X0.112500X-0.187500X0.112500X-0.187500X-0.112500X0.187500X-0.112500X0*%
%ADD31RoundRect,0.225000X0.375000X-0.225000X0.375000X0.225000X-0.375000X0.225000X-0.375000X-0.225000X0*%
%ADD32C,0.800000*%
%ADD33R,0.900000X1.700000*%
%ADD34RoundRect,0.140000X0.140000X0.170000X-0.140000X0.170000X-0.140000X-0.170000X0.140000X-0.170000X0*%
G04 APERTURE END LIST*
%TO.C,J301*%
G36*
X150975000Y-110975000D02*
G01*
X139025000Y-110975000D01*
X139025000Y-108975000D01*
X150975000Y-108975000D01*
X150975000Y-110975000D01*
G37*
D10*
X150975000Y-110975000D02*
X139025000Y-110975000D01*
X139025000Y-108975000D01*
X150975000Y-108975000D01*
X150975000Y-110975000D01*
G36*
X158875000Y-110975000D02*
G01*
X152175000Y-110975000D01*
X152175000Y-108975000D01*
X158875000Y-108975000D01*
X158875000Y-110975000D01*
G37*
X158875000Y-110975000D02*
X152175000Y-110975000D01*
X152175000Y-108975000D01*
X158875000Y-108975000D01*
X158875000Y-110975000D01*
%TD*%
D11*
%TO.C,U201*%
X144449999Y-97624999D03*
X145049999Y-97624999D03*
X145649999Y-97624999D03*
X146249999Y-97624999D03*
X146849999Y-97624999D03*
X147449999Y-97624999D03*
X148049999Y-97624999D03*
X148649999Y-97624999D03*
X149249999Y-97624999D03*
X149849999Y-97624999D03*
X150449999Y-97624999D03*
X151049999Y-97624999D03*
X151649999Y-97624999D03*
X152249999Y-97624999D03*
X152849999Y-97624999D03*
X153449999Y-97624999D03*
D12*
X154599999Y-96474999D03*
X154599999Y-95874999D03*
X154599999Y-95274999D03*
X154599999Y-94674999D03*
X154599999Y-94074999D03*
X154599999Y-93474999D03*
X154599999Y-92874999D03*
X154599999Y-92274999D03*
X154599999Y-91674999D03*
X154599999Y-91074999D03*
X154599999Y-90474999D03*
X154599999Y-89874999D03*
X154599999Y-89274999D03*
X154599999Y-88674999D03*
X154599999Y-88074999D03*
X154599999Y-87474999D03*
D11*
X153449999Y-86324999D03*
X152849999Y-86324999D03*
X152249999Y-86324999D03*
X151649999Y-86324999D03*
X151049999Y-86324999D03*
X150449999Y-86324999D03*
X149849999Y-86324999D03*
X149249999Y-86324999D03*
X148649999Y-86324999D03*
X148049999Y-86324999D03*
X147449999Y-86324999D03*
X146849999Y-86324999D03*
X146249999Y-86324999D03*
X145649999Y-86324999D03*
X145049999Y-86324999D03*
X144449999Y-86324999D03*
D12*
X143299999Y-87474999D03*
X143299999Y-88074999D03*
X143299999Y-88674999D03*
X143299999Y-89274999D03*
X143299999Y-89874999D03*
X143299999Y-90474999D03*
X143299999Y-91074999D03*
X143299999Y-91674999D03*
X143299999Y-92274999D03*
X143299999Y-92874999D03*
X143299999Y-93474999D03*
X143299999Y-94074999D03*
X143299999Y-94674999D03*
X143299999Y-95274999D03*
X143299999Y-95874999D03*
X143299999Y-96474999D03*
D13*
X146149999Y-94774999D03*
X146149999Y-91974999D03*
X146149999Y-89174999D03*
X148949999Y-94774999D03*
X148949999Y-91974999D03*
X148949999Y-89174999D03*
X151749999Y-94774999D03*
X151749999Y-91974999D03*
X151749999Y-89174999D03*
%TD*%
D14*
%TO.C,U302*%
X153800000Y-104312500D03*
X154750000Y-104312500D03*
X155700000Y-104312500D03*
X155700000Y-102037500D03*
X153800000Y-102037500D03*
%TD*%
D15*
%TO.C,C213*%
X147200000Y-83725000D03*
X147200000Y-84685000D03*
%TD*%
D16*
%TO.C,L401*%
X151450000Y-105050000D03*
X151450000Y-101900000D03*
%TD*%
D17*
%TO.C,U401*%
X147425000Y-103725000D03*
X147425000Y-104225000D03*
X147425000Y-104725000D03*
X147425000Y-105225000D03*
X149450000Y-105225000D03*
X149450000Y-104725000D03*
X149450000Y-104225000D03*
X149450000Y-103725000D03*
D18*
X148437499Y-104474999D03*
%TD*%
D19*
%TO.C,L205*%
X149125000Y-99875000D03*
X152275000Y-99875000D03*
%TD*%
D15*
%TO.C,C214*%
X143700000Y-83725000D03*
X143700000Y-84685000D03*
%TD*%
D20*
%TO.C,C402*%
X149225000Y-102375000D03*
X147675000Y-102375000D03*
%TD*%
D21*
%TO.C,CN201*%
X140150000Y-96685000D03*
X141166000Y-101765000D03*
X139134000Y-101765000D03*
D22*
X139515000Y-97955000D03*
X140785000Y-97955000D03*
X139515000Y-99225000D03*
X140785000Y-99225000D03*
X139515000Y-100495000D03*
X140785000Y-100495000D03*
%TD*%
D23*
%TO.C,L204*%
X145920000Y-83725000D03*
X144950000Y-83725000D03*
%TD*%
D24*
%TO.C,D201*%
X153737500Y-82225000D03*
X152162500Y-82225000D03*
%TD*%
D25*
%TO.C,AN201*%
X141999999Y-83724999D03*
D26*
X140474999Y-85199999D03*
X140474999Y-82249999D03*
%TD*%
D27*
%TO.C,H301*%
X148950000Y-80975000D03*
D28*
X148950000Y-80975000D03*
%TD*%
D29*
%TO.C,C403*%
X145700000Y-105725000D03*
X145700000Y-104175000D03*
%TD*%
D30*
%TO.C,D302*%
X141250000Y-104225000D03*
X139150000Y-104225000D03*
%TD*%
D31*
%TO.C,D301*%
X143450000Y-105875000D03*
X143450000Y-102575000D03*
%TD*%
D32*
%TO.C,SW201*%
X157200000Y-82975000D03*
D33*
X155499999Y-82974999D03*
X158899999Y-82974999D03*
%TD*%
D34*
%TO.C,C215*%
X147730000Y-99775000D03*
X146770000Y-99775000D03*
%TD*%
%TO.C,C216*%
X147730000Y-100775000D03*
X146770000Y-100775000D03*
%TD*%
M02*
