%TF.GenerationSoftware,KiCad,Pcbnew,(7.0.0-rc2-153-g7d6218acb4)*%
%TF.CreationDate,2023-02-19T17:36:37+08:00*%
%TF.ProjectId,RAK3172-M.2-2230-Mod - panel,52414b33-3137-4322-9d4d-2e322d323233,rev?*%
%TF.SameCoordinates,Original*%
%TF.FileFunction,Soldermask,Top*%
%TF.FilePolarity,Negative*%
%FSLAX46Y46*%
G04 Gerber Fmt 4.6, Leading zero omitted, Abs format (unit mm)*
G04 Created by KiCad (PCBNEW (7.0.0-rc2-153-g7d6218acb4)) date 2023-02-19 17:36:37*
%MOMM*%
%LPD*%
G01*
G04 APERTURE LIST*
G04 Aperture macros list*
%AMRoundRect*
0 Rectangle with rounded corners*
0 $1 Rounding radius*
0 $2 $3 $4 $5 $6 $7 $8 $9 X,Y pos of 4 corners*
0 Add a 4 corners polygon primitive as box body*
4,1,4,$2,$3,$4,$5,$6,$7,$8,$9,$2,$3,0*
0 Add four circle primitives for the rounded corners*
1,1,$1+$1,$2,$3*
1,1,$1+$1,$4,$5*
1,1,$1+$1,$6,$7*
1,1,$1+$1,$8,$9*
0 Add four rect primitives between the rounded corners*
20,1,$1+$1,$2,$3,$4,$5,0*
20,1,$1+$1,$4,$5,$6,$7,0*
20,1,$1+$1,$6,$7,$8,$9,0*
20,1,$1+$1,$8,$9,$2,$3,0*%
G04 Aperture macros list end*
%ADD10C,0.100000*%
%ADD11RoundRect,0.218750X-0.218750X-0.256250X0.218750X-0.256250X0.218750X0.256250X-0.218750X0.256250X0*%
%ADD12RoundRect,0.225000X-0.250000X0.225000X-0.250000X-0.225000X0.250000X-0.225000X0.250000X0.225000X0*%
%ADD13RoundRect,0.150000X-0.150000X0.512500X-0.150000X-0.512500X0.150000X-0.512500X0.150000X0.512500X0*%
%ADD14RoundRect,0.112500X-0.187500X-0.112500X0.187500X-0.112500X0.187500X0.112500X-0.187500X0.112500X0*%
%ADD15RoundRect,0.140000X-0.140000X-0.170000X0.140000X-0.170000X0.140000X0.170000X-0.140000X0.170000X0*%
%ADD16R,1.600000X1.600000*%
%ADD17R,1.170000X0.370000*%
%ADD18R,0.370000X1.170000*%
%ADD19RoundRect,0.225000X-0.375000X0.225000X-0.375000X-0.225000X0.375000X-0.225000X0.375000X0.225000X0*%
%ADD20R,0.900000X1.700000*%
%ADD21C,0.800000*%
%ADD22RoundRect,0.250000X0.275000X0.700000X-0.275000X0.700000X-0.275000X-0.700000X0.275000X-0.700000X0*%
%ADD23RoundRect,0.225000X-0.225000X-0.250000X0.225000X-0.250000X0.225000X0.250000X-0.225000X0.250000X0*%
%ADD24C,0.787400*%
%ADD25C,0.990600*%
%ADD26RoundRect,0.140000X0.170000X-0.140000X0.170000X0.140000X-0.170000X0.140000X-0.170000X-0.140000X0*%
%ADD27C,3.800000*%
%ADD28C,2.600000*%
%ADD29RoundRect,0.147500X-0.147500X-0.172500X0.147500X-0.172500X0.147500X0.172500X-0.147500X0.172500X0*%
%ADD30R,0.900000X1.600000*%
%ADD31RoundRect,0.062500X0.300000X0.062500X-0.300000X0.062500X-0.300000X-0.062500X0.300000X-0.062500X0*%
%ADD32R,2.200000X1.050000*%
%ADD33R,1.050000X1.000000*%
%ADD34RoundRect,0.250000X-0.700000X0.275000X-0.700000X-0.275000X0.700000X-0.275000X0.700000X0.275000X0*%
%ADD35RoundRect,0.218750X0.218750X0.256250X-0.218750X0.256250X-0.218750X-0.256250X0.218750X-0.256250X0*%
%ADD36RoundRect,0.140000X0.140000X0.170000X-0.140000X0.170000X-0.140000X-0.170000X0.140000X-0.170000X0*%
%ADD37RoundRect,0.225000X0.250000X-0.225000X0.250000X0.225000X-0.250000X0.225000X-0.250000X-0.225000X0*%
%ADD38RoundRect,0.112500X0.187500X0.112500X-0.187500X0.112500X-0.187500X-0.112500X0.187500X-0.112500X0*%
%ADD39RoundRect,0.150000X0.150000X-0.512500X0.150000X0.512500X-0.150000X0.512500X-0.150000X-0.512500X0*%
%ADD40RoundRect,0.140000X-0.170000X0.140000X-0.170000X-0.140000X0.170000X-0.140000X0.170000X0.140000X0*%
%ADD41RoundRect,0.147500X0.147500X0.172500X-0.147500X0.172500X-0.147500X-0.172500X0.147500X-0.172500X0*%
%ADD42RoundRect,0.225000X0.375000X-0.225000X0.375000X0.225000X-0.375000X0.225000X-0.375000X-0.225000X0*%
%ADD43RoundRect,0.062500X-0.300000X-0.062500X0.300000X-0.062500X0.300000X0.062500X-0.300000X0.062500X0*%
%ADD44RoundRect,0.225000X0.225000X0.250000X-0.225000X0.250000X-0.225000X-0.250000X0.225000X-0.250000X0*%
%ADD45RoundRect,0.250000X-0.275000X-0.700000X0.275000X-0.700000X0.275000X0.700000X-0.275000X0.700000X0*%
%ADD46RoundRect,0.250000X0.700000X-0.275000X0.700000X0.275000X-0.700000X0.275000X-0.700000X-0.275000X0*%
%ADD47C,2.000000*%
G04 APERTURE END LIST*
%TO.C,J301*%
G36*
X189725000Y-42975000D02*
G01*
X183025000Y-42975000D01*
X183025000Y-40975000D01*
X189725000Y-40975000D01*
X189725000Y-42975000D01*
G37*
D10*
X189725000Y-42975000D02*
X183025000Y-42975000D01*
X183025000Y-40975000D01*
X189725000Y-40975000D01*
X189725000Y-42975000D01*
G36*
X202875000Y-42975000D02*
G01*
X190925000Y-42975000D01*
X190925000Y-40975000D01*
X202875000Y-40975000D01*
X202875000Y-42975000D01*
G37*
X202875000Y-42975000D02*
X190925000Y-42975000D01*
X190925000Y-40975000D01*
X202875000Y-40975000D01*
X202875000Y-42975000D01*
G36*
X202875000Y-110975000D02*
G01*
X196175000Y-110975000D01*
X196175000Y-108975000D01*
X202875000Y-108975000D01*
X202875000Y-110975000D01*
G37*
X202875000Y-110975000D02*
X196175000Y-110975000D01*
X196175000Y-108975000D01*
X202875000Y-108975000D01*
X202875000Y-110975000D01*
G36*
X194975000Y-110975000D02*
G01*
X183025000Y-110975000D01*
X183025000Y-108975000D01*
X194975000Y-108975000D01*
X194975000Y-110975000D01*
G37*
X194975000Y-110975000D02*
X183025000Y-110975000D01*
X183025000Y-108975000D01*
X194975000Y-108975000D01*
X194975000Y-110975000D01*
G36*
X158875000Y-42975000D02*
G01*
X146925000Y-42975000D01*
X146925000Y-40975000D01*
X158875000Y-40975000D01*
X158875000Y-42975000D01*
G37*
X158875000Y-42975000D02*
X146925000Y-42975000D01*
X146925000Y-40975000D01*
X158875000Y-40975000D01*
X158875000Y-42975000D01*
G36*
X145725000Y-42975000D02*
G01*
X139025000Y-42975000D01*
X139025000Y-40975000D01*
X145725000Y-40975000D01*
X145725000Y-42975000D01*
G37*
X145725000Y-42975000D02*
X139025000Y-42975000D01*
X139025000Y-40975000D01*
X145725000Y-40975000D01*
X145725000Y-42975000D01*
G36*
X167725000Y-42975000D02*
G01*
X161025000Y-42975000D01*
X161025000Y-40975000D01*
X167725000Y-40975000D01*
X167725000Y-42975000D01*
G37*
X167725000Y-42975000D02*
X161025000Y-42975000D01*
X161025000Y-40975000D01*
X167725000Y-40975000D01*
X167725000Y-42975000D01*
G36*
X180875000Y-42975000D02*
G01*
X168925000Y-42975000D01*
X168925000Y-40975000D01*
X180875000Y-40975000D01*
X180875000Y-42975000D01*
G37*
X180875000Y-42975000D02*
X168925000Y-42975000D01*
X168925000Y-40975000D01*
X180875000Y-40975000D01*
X180875000Y-42975000D01*
G36*
X180875000Y-110975000D02*
G01*
X174175000Y-110975000D01*
X174175000Y-108975000D01*
X180875000Y-108975000D01*
X180875000Y-110975000D01*
G37*
X180875000Y-110975000D02*
X174175000Y-110975000D01*
X174175000Y-108975000D01*
X180875000Y-108975000D01*
X180875000Y-110975000D01*
G36*
X172975000Y-110975000D02*
G01*
X161025000Y-110975000D01*
X161025000Y-108975000D01*
X172975000Y-108975000D01*
X172975000Y-110975000D01*
G37*
X172975000Y-110975000D02*
X161025000Y-110975000D01*
X161025000Y-108975000D01*
X172975000Y-108975000D01*
X172975000Y-110975000D01*
G36*
X150975000Y-110975000D02*
G01*
X139025000Y-110975000D01*
X139025000Y-108975000D01*
X150975000Y-108975000D01*
X150975000Y-110975000D01*
G37*
X150975000Y-110975000D02*
X139025000Y-110975000D01*
X139025000Y-108975000D01*
X150975000Y-108975000D01*
X150975000Y-110975000D01*
G36*
X158875000Y-110975000D02*
G01*
X152175000Y-110975000D01*
X152175000Y-108975000D01*
X158875000Y-108975000D01*
X158875000Y-110975000D01*
G37*
X158875000Y-110975000D02*
X152175000Y-110975000D01*
X152175000Y-108975000D01*
X158875000Y-108975000D01*
X158875000Y-110975000D01*
%TD*%
D11*
%TO.C,D201*%
X189737500Y-69725000D03*
X188162500Y-69725000D03*
%TD*%
D12*
%TO.C,C403*%
X196200000Y-47775000D03*
X196200000Y-46225000D03*
%TD*%
D13*
%TO.C,U302*%
X188100000Y-49912500D03*
X186200000Y-49912500D03*
X186200000Y-47637500D03*
X187150000Y-47637500D03*
X188100000Y-47637500D03*
%TD*%
D14*
%TO.C,D302*%
X202750000Y-47725000D03*
X200650000Y-47725000D03*
%TD*%
D15*
%TO.C,C216*%
X195130000Y-51175000D03*
X194170000Y-51175000D03*
%TD*%
D16*
%TO.C,U201*%
X190149999Y-62774999D03*
X190149999Y-59974999D03*
X190149999Y-57174999D03*
X192949999Y-62774999D03*
X192949999Y-59974999D03*
X192949999Y-57174999D03*
X195749999Y-62774999D03*
X195749999Y-59974999D03*
X195749999Y-57174999D03*
D17*
X198599999Y-55474999D03*
X198599999Y-56074999D03*
X198599999Y-56674999D03*
X198599999Y-57274999D03*
X198599999Y-57874999D03*
X198599999Y-58474999D03*
X198599999Y-59074999D03*
X198599999Y-59674999D03*
X198599999Y-60274999D03*
X198599999Y-60874999D03*
X198599999Y-61474999D03*
X198599999Y-62074999D03*
X198599999Y-62674999D03*
X198599999Y-63274999D03*
X198599999Y-63874999D03*
X198599999Y-64474999D03*
D18*
X197449999Y-65624999D03*
X196849999Y-65624999D03*
X196249999Y-65624999D03*
X195649999Y-65624999D03*
X195049999Y-65624999D03*
X194449999Y-65624999D03*
X193849999Y-65624999D03*
X193249999Y-65624999D03*
X192649999Y-65624999D03*
X192049999Y-65624999D03*
X191449999Y-65624999D03*
X190849999Y-65624999D03*
X190249999Y-65624999D03*
X189649999Y-65624999D03*
X189049999Y-65624999D03*
X188449999Y-65624999D03*
D17*
X187299999Y-64474999D03*
X187299999Y-63874999D03*
X187299999Y-63274999D03*
X187299999Y-62674999D03*
X187299999Y-62074999D03*
X187299999Y-61474999D03*
X187299999Y-60874999D03*
X187299999Y-60274999D03*
X187299999Y-59674999D03*
X187299999Y-59074999D03*
X187299999Y-58474999D03*
X187299999Y-57874999D03*
X187299999Y-57274999D03*
X187299999Y-56674999D03*
X187299999Y-56074999D03*
X187299999Y-55474999D03*
D18*
X188449999Y-54324999D03*
X189049999Y-54324999D03*
X189649999Y-54324999D03*
X190249999Y-54324999D03*
X190849999Y-54324999D03*
X191449999Y-54324999D03*
X192049999Y-54324999D03*
X192649999Y-54324999D03*
X193249999Y-54324999D03*
X193849999Y-54324999D03*
X194449999Y-54324999D03*
X195049999Y-54324999D03*
X195649999Y-54324999D03*
X196249999Y-54324999D03*
X196849999Y-54324999D03*
X197449999Y-54324999D03*
%TD*%
D19*
%TO.C,D301*%
X198450000Y-49375000D03*
X198450000Y-46075000D03*
%TD*%
D20*
%TO.C,SW201*%
X182999999Y-68974999D03*
X186399999Y-68974999D03*
D21*
X184700000Y-68975000D03*
%TD*%
D22*
%TO.C,L205*%
X189625000Y-52075000D03*
X192775000Y-52075000D03*
%TD*%
D23*
%TO.C,C402*%
X194225000Y-49575000D03*
X192675000Y-49575000D03*
%TD*%
D15*
%TO.C,C215*%
X195130000Y-52175000D03*
X194170000Y-52175000D03*
%TD*%
D24*
%TO.C,CN201*%
X201115000Y-51455000D03*
X202385000Y-51455000D03*
X201115000Y-52725000D03*
X202385000Y-52725000D03*
X201115000Y-53995000D03*
X202385000Y-53995000D03*
D25*
X202766000Y-50185000D03*
X200734000Y-50185000D03*
X201750000Y-55265000D03*
%TD*%
D26*
%TO.C,C213*%
X194700000Y-67265000D03*
X194700000Y-68225000D03*
%TD*%
D27*
%TO.C,H301*%
X192950000Y-70975000D03*
D28*
X192950000Y-70975000D03*
%TD*%
D29*
%TO.C,L204*%
X196950000Y-68225000D03*
X195980000Y-68225000D03*
%TD*%
D30*
%TO.C,U401*%
X193462499Y-47474999D03*
D31*
X192450000Y-48225000D03*
X192450000Y-47725000D03*
X192450000Y-47225000D03*
X192450000Y-46725000D03*
X194475000Y-46725000D03*
X194475000Y-47225000D03*
X194475000Y-47725000D03*
X194475000Y-48225000D03*
%TD*%
D32*
%TO.C,AN201*%
X201424999Y-69699999D03*
X201424999Y-66749999D03*
D33*
X199899999Y-68224999D03*
%TD*%
D26*
%TO.C,C214*%
X198200000Y-67265000D03*
X198200000Y-68225000D03*
%TD*%
D34*
%TO.C,L401*%
X190450000Y-50050000D03*
X190450000Y-46900000D03*
%TD*%
D35*
%TO.C,D201*%
X196162500Y-82225000D03*
X197737500Y-82225000D03*
%TD*%
D36*
%TO.C,C216*%
X190770000Y-100775000D03*
X191730000Y-100775000D03*
%TD*%
D37*
%TO.C,C403*%
X189700000Y-104175000D03*
X189700000Y-105725000D03*
%TD*%
D38*
%TO.C,D302*%
X183150000Y-104225000D03*
X185250000Y-104225000D03*
%TD*%
D39*
%TO.C,U302*%
X197800000Y-102037500D03*
X199700000Y-102037500D03*
X199700000Y-104312500D03*
X198750000Y-104312500D03*
X197800000Y-104312500D03*
%TD*%
D40*
%TO.C,C213*%
X191200000Y-84685000D03*
X191200000Y-83725000D03*
%TD*%
D41*
%TO.C,L204*%
X188950000Y-83725000D03*
X189920000Y-83725000D03*
%TD*%
D42*
%TO.C,D301*%
X187450000Y-102575000D03*
X187450000Y-105875000D03*
%TD*%
D27*
%TO.C,H301*%
X192950000Y-80975000D03*
D28*
X192950000Y-80975000D03*
%TD*%
D20*
%TO.C,SW201*%
X202899999Y-82974999D03*
X199499999Y-82974999D03*
D21*
X201200000Y-82975000D03*
%TD*%
D30*
%TO.C,U401*%
X192437499Y-104474999D03*
D43*
X193450000Y-103725000D03*
X193450000Y-104225000D03*
X193450000Y-104725000D03*
X193450000Y-105225000D03*
X191425000Y-105225000D03*
X191425000Y-104725000D03*
X191425000Y-104225000D03*
X191425000Y-103725000D03*
%TD*%
D16*
%TO.C,U201*%
X195749999Y-89174999D03*
X195749999Y-91974999D03*
X195749999Y-94774999D03*
X192949999Y-89174999D03*
X192949999Y-91974999D03*
X192949999Y-94774999D03*
X190149999Y-89174999D03*
X190149999Y-91974999D03*
X190149999Y-94774999D03*
D17*
X187299999Y-96474999D03*
X187299999Y-95874999D03*
X187299999Y-95274999D03*
X187299999Y-94674999D03*
X187299999Y-94074999D03*
X187299999Y-93474999D03*
X187299999Y-92874999D03*
X187299999Y-92274999D03*
X187299999Y-91674999D03*
X187299999Y-91074999D03*
X187299999Y-90474999D03*
X187299999Y-89874999D03*
X187299999Y-89274999D03*
X187299999Y-88674999D03*
X187299999Y-88074999D03*
X187299999Y-87474999D03*
D18*
X188449999Y-86324999D03*
X189049999Y-86324999D03*
X189649999Y-86324999D03*
X190249999Y-86324999D03*
X190849999Y-86324999D03*
X191449999Y-86324999D03*
X192049999Y-86324999D03*
X192649999Y-86324999D03*
X193249999Y-86324999D03*
X193849999Y-86324999D03*
X194449999Y-86324999D03*
X195049999Y-86324999D03*
X195649999Y-86324999D03*
X196249999Y-86324999D03*
X196849999Y-86324999D03*
X197449999Y-86324999D03*
D17*
X198599999Y-87474999D03*
X198599999Y-88074999D03*
X198599999Y-88674999D03*
X198599999Y-89274999D03*
X198599999Y-89874999D03*
X198599999Y-90474999D03*
X198599999Y-91074999D03*
X198599999Y-91674999D03*
X198599999Y-92274999D03*
X198599999Y-92874999D03*
X198599999Y-93474999D03*
X198599999Y-94074999D03*
X198599999Y-94674999D03*
X198599999Y-95274999D03*
X198599999Y-95874999D03*
X198599999Y-96474999D03*
D18*
X197449999Y-97624999D03*
X196849999Y-97624999D03*
X196249999Y-97624999D03*
X195649999Y-97624999D03*
X195049999Y-97624999D03*
X194449999Y-97624999D03*
X193849999Y-97624999D03*
X193249999Y-97624999D03*
X192649999Y-97624999D03*
X192049999Y-97624999D03*
X191449999Y-97624999D03*
X190849999Y-97624999D03*
X190249999Y-97624999D03*
X189649999Y-97624999D03*
X189049999Y-97624999D03*
X188449999Y-97624999D03*
%TD*%
D40*
%TO.C,C214*%
X187700000Y-84685000D03*
X187700000Y-83725000D03*
%TD*%
D32*
%TO.C,AN201*%
X184474999Y-82249999D03*
X184474999Y-85199999D03*
D33*
X185999999Y-83724999D03*
%TD*%
D44*
%TO.C,C402*%
X191675000Y-102375000D03*
X193225000Y-102375000D03*
%TD*%
D45*
%TO.C,L205*%
X196275000Y-99875000D03*
X193125000Y-99875000D03*
%TD*%
D24*
%TO.C,CN201*%
X184785000Y-100495000D03*
X183515000Y-100495000D03*
X184785000Y-99225000D03*
X183515000Y-99225000D03*
X184785000Y-97955000D03*
X183515000Y-97955000D03*
D25*
X183134000Y-101765000D03*
X185166000Y-101765000D03*
X184150000Y-96685000D03*
%TD*%
D46*
%TO.C,L401*%
X195450000Y-101900000D03*
X195450000Y-105050000D03*
%TD*%
D36*
%TO.C,C215*%
X190770000Y-99775000D03*
X191730000Y-99775000D03*
%TD*%
D47*
%TO.C,REF\u002A\u002A*%
X135450000Y-48975000D03*
%TD*%
%TO.C,REF\u002A\u002A*%
X135450000Y-102975000D03*
%TD*%
%TO.C,REF\u002A\u002A*%
X206450000Y-102975000D03*
%TD*%
%TO.C,REF\u002A\u002A*%
X206450000Y-48975000D03*
%TD*%
D11*
%TO.C,D201*%
X144162500Y-69725000D03*
X145737500Y-69725000D03*
%TD*%
D12*
%TO.C,C403*%
X152200000Y-46225000D03*
X152200000Y-47775000D03*
%TD*%
D13*
%TO.C,U302*%
X144100000Y-47637500D03*
X143150000Y-47637500D03*
X142200000Y-47637500D03*
X142200000Y-49912500D03*
X144100000Y-49912500D03*
%TD*%
D14*
%TO.C,D302*%
X156650000Y-47725000D03*
X158750000Y-47725000D03*
%TD*%
D15*
%TO.C,C216*%
X150170000Y-51175000D03*
X151130000Y-51175000D03*
%TD*%
D18*
%TO.C,U201*%
X153449999Y-54324999D03*
X152849999Y-54324999D03*
X152249999Y-54324999D03*
X151649999Y-54324999D03*
X151049999Y-54324999D03*
X150449999Y-54324999D03*
X149849999Y-54324999D03*
X149249999Y-54324999D03*
X148649999Y-54324999D03*
X148049999Y-54324999D03*
X147449999Y-54324999D03*
X146849999Y-54324999D03*
X146249999Y-54324999D03*
X145649999Y-54324999D03*
X145049999Y-54324999D03*
X144449999Y-54324999D03*
D17*
X143299999Y-55474999D03*
X143299999Y-56074999D03*
X143299999Y-56674999D03*
X143299999Y-57274999D03*
X143299999Y-57874999D03*
X143299999Y-58474999D03*
X143299999Y-59074999D03*
X143299999Y-59674999D03*
X143299999Y-60274999D03*
X143299999Y-60874999D03*
X143299999Y-61474999D03*
X143299999Y-62074999D03*
X143299999Y-62674999D03*
X143299999Y-63274999D03*
X143299999Y-63874999D03*
X143299999Y-64474999D03*
D18*
X144449999Y-65624999D03*
X145049999Y-65624999D03*
X145649999Y-65624999D03*
X146249999Y-65624999D03*
X146849999Y-65624999D03*
X147449999Y-65624999D03*
X148049999Y-65624999D03*
X148649999Y-65624999D03*
X149249999Y-65624999D03*
X149849999Y-65624999D03*
X150449999Y-65624999D03*
X151049999Y-65624999D03*
X151649999Y-65624999D03*
X152249999Y-65624999D03*
X152849999Y-65624999D03*
X153449999Y-65624999D03*
D17*
X154599999Y-64474999D03*
X154599999Y-63874999D03*
X154599999Y-63274999D03*
X154599999Y-62674999D03*
X154599999Y-62074999D03*
X154599999Y-61474999D03*
X154599999Y-60874999D03*
X154599999Y-60274999D03*
X154599999Y-59674999D03*
X154599999Y-59074999D03*
X154599999Y-58474999D03*
X154599999Y-57874999D03*
X154599999Y-57274999D03*
X154599999Y-56674999D03*
X154599999Y-56074999D03*
X154599999Y-55474999D03*
D16*
X151749999Y-57174999D03*
X151749999Y-59974999D03*
X151749999Y-62774999D03*
X148949999Y-57174999D03*
X148949999Y-59974999D03*
X148949999Y-62774999D03*
X146149999Y-57174999D03*
X146149999Y-59974999D03*
X146149999Y-62774999D03*
%TD*%
D19*
%TO.C,D301*%
X154450000Y-46075000D03*
X154450000Y-49375000D03*
%TD*%
D21*
%TO.C,SW201*%
X140700000Y-68975000D03*
D20*
X142399999Y-68974999D03*
X138999999Y-68974999D03*
%TD*%
D22*
%TO.C,L205*%
X148775000Y-52075000D03*
X145625000Y-52075000D03*
%TD*%
D23*
%TO.C,C402*%
X148675000Y-49575000D03*
X150225000Y-49575000D03*
%TD*%
D15*
%TO.C,C215*%
X150170000Y-52175000D03*
X151130000Y-52175000D03*
%TD*%
D25*
%TO.C,CN201*%
X157750000Y-55265000D03*
X156734000Y-50185000D03*
X158766000Y-50185000D03*
D24*
X158385000Y-53995000D03*
X157115000Y-53995000D03*
X158385000Y-52725000D03*
X157115000Y-52725000D03*
X158385000Y-51455000D03*
X157115000Y-51455000D03*
%TD*%
D26*
%TO.C,C213*%
X150700000Y-68225000D03*
X150700000Y-67265000D03*
%TD*%
D28*
%TO.C,H301*%
X148950000Y-70975000D03*
D27*
X148950000Y-70975000D03*
%TD*%
D29*
%TO.C,L204*%
X151980000Y-68225000D03*
X152950000Y-68225000D03*
%TD*%
D31*
%TO.C,U401*%
X150475000Y-48225000D03*
X150475000Y-47725000D03*
X150475000Y-47225000D03*
X150475000Y-46725000D03*
X148450000Y-46725000D03*
X148450000Y-47225000D03*
X148450000Y-47725000D03*
X148450000Y-48225000D03*
D30*
X149462499Y-47474999D03*
%TD*%
D33*
%TO.C,AN201*%
X155899999Y-68224999D03*
D32*
X157424999Y-66749999D03*
X157424999Y-69699999D03*
%TD*%
D26*
%TO.C,C214*%
X154200000Y-68225000D03*
X154200000Y-67265000D03*
%TD*%
D34*
%TO.C,L401*%
X146450000Y-46900000D03*
X146450000Y-50050000D03*
%TD*%
D15*
%TO.C,C216*%
X173130000Y-51175000D03*
X172170000Y-51175000D03*
%TD*%
D11*
%TO.C,D201*%
X167737500Y-69725000D03*
X166162500Y-69725000D03*
%TD*%
D14*
%TO.C,D302*%
X180750000Y-47725000D03*
X178650000Y-47725000D03*
%TD*%
D12*
%TO.C,C403*%
X174200000Y-47775000D03*
X174200000Y-46225000D03*
%TD*%
D13*
%TO.C,U302*%
X166100000Y-49912500D03*
X164200000Y-49912500D03*
X164200000Y-47637500D03*
X165150000Y-47637500D03*
X166100000Y-47637500D03*
%TD*%
D29*
%TO.C,L204*%
X174950000Y-68225000D03*
X173980000Y-68225000D03*
%TD*%
D32*
%TO.C,AN201*%
X179424999Y-69699999D03*
X179424999Y-66749999D03*
D33*
X177899999Y-68224999D03*
%TD*%
D16*
%TO.C,U201*%
X168149999Y-62774999D03*
X168149999Y-59974999D03*
X168149999Y-57174999D03*
X170949999Y-62774999D03*
X170949999Y-59974999D03*
X170949999Y-57174999D03*
X173749999Y-62774999D03*
X173749999Y-59974999D03*
X173749999Y-57174999D03*
D17*
X176599999Y-55474999D03*
X176599999Y-56074999D03*
X176599999Y-56674999D03*
X176599999Y-57274999D03*
X176599999Y-57874999D03*
X176599999Y-58474999D03*
X176599999Y-59074999D03*
X176599999Y-59674999D03*
X176599999Y-60274999D03*
X176599999Y-60874999D03*
X176599999Y-61474999D03*
X176599999Y-62074999D03*
X176599999Y-62674999D03*
X176599999Y-63274999D03*
X176599999Y-63874999D03*
X176599999Y-64474999D03*
D18*
X175449999Y-65624999D03*
X174849999Y-65624999D03*
X174249999Y-65624999D03*
X173649999Y-65624999D03*
X173049999Y-65624999D03*
X172449999Y-65624999D03*
X171849999Y-65624999D03*
X171249999Y-65624999D03*
X170649999Y-65624999D03*
X170049999Y-65624999D03*
X169449999Y-65624999D03*
X168849999Y-65624999D03*
X168249999Y-65624999D03*
X167649999Y-65624999D03*
X167049999Y-65624999D03*
X166449999Y-65624999D03*
D17*
X165299999Y-64474999D03*
X165299999Y-63874999D03*
X165299999Y-63274999D03*
X165299999Y-62674999D03*
X165299999Y-62074999D03*
X165299999Y-61474999D03*
X165299999Y-60874999D03*
X165299999Y-60274999D03*
X165299999Y-59674999D03*
X165299999Y-59074999D03*
X165299999Y-58474999D03*
X165299999Y-57874999D03*
X165299999Y-57274999D03*
X165299999Y-56674999D03*
X165299999Y-56074999D03*
X165299999Y-55474999D03*
D18*
X166449999Y-54324999D03*
X167049999Y-54324999D03*
X167649999Y-54324999D03*
X168249999Y-54324999D03*
X168849999Y-54324999D03*
X169449999Y-54324999D03*
X170049999Y-54324999D03*
X170649999Y-54324999D03*
X171249999Y-54324999D03*
X171849999Y-54324999D03*
X172449999Y-54324999D03*
X173049999Y-54324999D03*
X173649999Y-54324999D03*
X174249999Y-54324999D03*
X174849999Y-54324999D03*
X175449999Y-54324999D03*
%TD*%
D19*
%TO.C,D301*%
X176450000Y-49375000D03*
X176450000Y-46075000D03*
%TD*%
D30*
%TO.C,U401*%
X171462499Y-47474999D03*
D31*
X170450000Y-48225000D03*
X170450000Y-47725000D03*
X170450000Y-47225000D03*
X170450000Y-46725000D03*
X172475000Y-46725000D03*
X172475000Y-47225000D03*
X172475000Y-47725000D03*
X172475000Y-48225000D03*
%TD*%
D34*
%TO.C,L401*%
X168450000Y-50050000D03*
X168450000Y-46900000D03*
%TD*%
D26*
%TO.C,C214*%
X176200000Y-67265000D03*
X176200000Y-68225000D03*
%TD*%
D22*
%TO.C,L205*%
X167625000Y-52075000D03*
X170775000Y-52075000D03*
%TD*%
D23*
%TO.C,C402*%
X172225000Y-49575000D03*
X170675000Y-49575000D03*
%TD*%
D27*
%TO.C,H301*%
X170950000Y-70975000D03*
D28*
X170950000Y-70975000D03*
%TD*%
D20*
%TO.C,SW201*%
X160999999Y-68974999D03*
X164399999Y-68974999D03*
D21*
X162700000Y-68975000D03*
%TD*%
D24*
%TO.C,CN201*%
X179115000Y-51455000D03*
X180385000Y-51455000D03*
X179115000Y-52725000D03*
X180385000Y-52725000D03*
X179115000Y-53995000D03*
X180385000Y-53995000D03*
D25*
X180766000Y-50185000D03*
X178734000Y-50185000D03*
X179750000Y-55265000D03*
%TD*%
D26*
%TO.C,C213*%
X172700000Y-67265000D03*
X172700000Y-68225000D03*
%TD*%
D15*
%TO.C,C215*%
X173130000Y-52175000D03*
X172170000Y-52175000D03*
%TD*%
D35*
%TO.C,D201*%
X174162500Y-82225000D03*
X175737500Y-82225000D03*
%TD*%
D36*
%TO.C,C216*%
X168770000Y-100775000D03*
X169730000Y-100775000D03*
%TD*%
D37*
%TO.C,C403*%
X167700000Y-104175000D03*
X167700000Y-105725000D03*
%TD*%
D38*
%TO.C,D302*%
X161150000Y-104225000D03*
X163250000Y-104225000D03*
%TD*%
D39*
%TO.C,U302*%
X175800000Y-102037500D03*
X177700000Y-102037500D03*
X177700000Y-104312500D03*
X176750000Y-104312500D03*
X175800000Y-104312500D03*
%TD*%
D32*
%TO.C,AN201*%
X162474999Y-82249999D03*
X162474999Y-85199999D03*
D33*
X163999999Y-83724999D03*
%TD*%
D42*
%TO.C,D301*%
X165450000Y-102575000D03*
X165450000Y-105875000D03*
%TD*%
D27*
%TO.C,H301*%
X170950000Y-80975000D03*
D28*
X170950000Y-80975000D03*
%TD*%
D20*
%TO.C,SW201*%
X180899999Y-82974999D03*
X177499999Y-82974999D03*
D21*
X179200000Y-82975000D03*
%TD*%
D40*
%TO.C,C214*%
X165700000Y-84685000D03*
X165700000Y-83725000D03*
%TD*%
%TO.C,C213*%
X169200000Y-84685000D03*
X169200000Y-83725000D03*
%TD*%
D16*
%TO.C,U201*%
X173749999Y-89174999D03*
X173749999Y-91974999D03*
X173749999Y-94774999D03*
X170949999Y-89174999D03*
X170949999Y-91974999D03*
X170949999Y-94774999D03*
X168149999Y-89174999D03*
X168149999Y-91974999D03*
X168149999Y-94774999D03*
D17*
X165299999Y-96474999D03*
X165299999Y-95874999D03*
X165299999Y-95274999D03*
X165299999Y-94674999D03*
X165299999Y-94074999D03*
X165299999Y-93474999D03*
X165299999Y-92874999D03*
X165299999Y-92274999D03*
X165299999Y-91674999D03*
X165299999Y-91074999D03*
X165299999Y-90474999D03*
X165299999Y-89874999D03*
X165299999Y-89274999D03*
X165299999Y-88674999D03*
X165299999Y-88074999D03*
X165299999Y-87474999D03*
D18*
X166449999Y-86324999D03*
X167049999Y-86324999D03*
X167649999Y-86324999D03*
X168249999Y-86324999D03*
X168849999Y-86324999D03*
X169449999Y-86324999D03*
X170049999Y-86324999D03*
X170649999Y-86324999D03*
X171249999Y-86324999D03*
X171849999Y-86324999D03*
X172449999Y-86324999D03*
X173049999Y-86324999D03*
X173649999Y-86324999D03*
X174249999Y-86324999D03*
X174849999Y-86324999D03*
X175449999Y-86324999D03*
D17*
X176599999Y-87474999D03*
X176599999Y-88074999D03*
X176599999Y-88674999D03*
X176599999Y-89274999D03*
X176599999Y-89874999D03*
X176599999Y-90474999D03*
X176599999Y-91074999D03*
X176599999Y-91674999D03*
X176599999Y-92274999D03*
X176599999Y-92874999D03*
X176599999Y-93474999D03*
X176599999Y-94074999D03*
X176599999Y-94674999D03*
X176599999Y-95274999D03*
X176599999Y-95874999D03*
X176599999Y-96474999D03*
D18*
X175449999Y-97624999D03*
X174849999Y-97624999D03*
X174249999Y-97624999D03*
X173649999Y-97624999D03*
X173049999Y-97624999D03*
X172449999Y-97624999D03*
X171849999Y-97624999D03*
X171249999Y-97624999D03*
X170649999Y-97624999D03*
X170049999Y-97624999D03*
X169449999Y-97624999D03*
X168849999Y-97624999D03*
X168249999Y-97624999D03*
X167649999Y-97624999D03*
X167049999Y-97624999D03*
X166449999Y-97624999D03*
%TD*%
D30*
%TO.C,U401*%
X170437499Y-104474999D03*
D43*
X171450000Y-103725000D03*
X171450000Y-104225000D03*
X171450000Y-104725000D03*
X171450000Y-105225000D03*
X169425000Y-105225000D03*
X169425000Y-104725000D03*
X169425000Y-104225000D03*
X169425000Y-103725000D03*
%TD*%
D41*
%TO.C,L204*%
X166950000Y-83725000D03*
X167920000Y-83725000D03*
%TD*%
D46*
%TO.C,L401*%
X173450000Y-101900000D03*
X173450000Y-105050000D03*
%TD*%
D36*
%TO.C,C215*%
X168770000Y-99775000D03*
X169730000Y-99775000D03*
%TD*%
D45*
%TO.C,L205*%
X174275000Y-99875000D03*
X171125000Y-99875000D03*
%TD*%
D24*
%TO.C,CN201*%
X162785000Y-100495000D03*
X161515000Y-100495000D03*
X162785000Y-99225000D03*
X161515000Y-99225000D03*
X162785000Y-97955000D03*
X161515000Y-97955000D03*
D25*
X161134000Y-101765000D03*
X163166000Y-101765000D03*
X162150000Y-96685000D03*
%TD*%
D44*
%TO.C,C402*%
X169675000Y-102375000D03*
X171225000Y-102375000D03*
%TD*%
D40*
%TO.C,C213*%
X147200000Y-83725000D03*
X147200000Y-84685000D03*
%TD*%
D46*
%TO.C,L401*%
X151450000Y-105050000D03*
X151450000Y-101900000D03*
%TD*%
D43*
%TO.C,U401*%
X147425000Y-103725000D03*
X147425000Y-104225000D03*
X147425000Y-104725000D03*
X147425000Y-105225000D03*
X149450000Y-105225000D03*
X149450000Y-104725000D03*
X149450000Y-104225000D03*
X149450000Y-103725000D03*
D30*
X148437499Y-104474999D03*
%TD*%
D45*
%TO.C,L205*%
X149125000Y-99875000D03*
X152275000Y-99875000D03*
%TD*%
D36*
%TO.C,C215*%
X147730000Y-99775000D03*
X146770000Y-99775000D03*
%TD*%
D40*
%TO.C,C214*%
X143700000Y-83725000D03*
X143700000Y-84685000D03*
%TD*%
D44*
%TO.C,C402*%
X149225000Y-102375000D03*
X147675000Y-102375000D03*
%TD*%
D18*
%TO.C,U201*%
X144449999Y-97624999D03*
X145049999Y-97624999D03*
X145649999Y-97624999D03*
X146249999Y-97624999D03*
X146849999Y-97624999D03*
X147449999Y-97624999D03*
X148049999Y-97624999D03*
X148649999Y-97624999D03*
X149249999Y-97624999D03*
X149849999Y-97624999D03*
X150449999Y-97624999D03*
X151049999Y-97624999D03*
X151649999Y-97624999D03*
X152249999Y-97624999D03*
X152849999Y-97624999D03*
X153449999Y-97624999D03*
D17*
X154599999Y-96474999D03*
X154599999Y-95874999D03*
X154599999Y-95274999D03*
X154599999Y-94674999D03*
X154599999Y-94074999D03*
X154599999Y-93474999D03*
X154599999Y-92874999D03*
X154599999Y-92274999D03*
X154599999Y-91674999D03*
X154599999Y-91074999D03*
X154599999Y-90474999D03*
X154599999Y-89874999D03*
X154599999Y-89274999D03*
X154599999Y-88674999D03*
X154599999Y-88074999D03*
X154599999Y-87474999D03*
D18*
X153449999Y-86324999D03*
X152849999Y-86324999D03*
X152249999Y-86324999D03*
X151649999Y-86324999D03*
X151049999Y-86324999D03*
X150449999Y-86324999D03*
X149849999Y-86324999D03*
X149249999Y-86324999D03*
X148649999Y-86324999D03*
X148049999Y-86324999D03*
X147449999Y-86324999D03*
X146849999Y-86324999D03*
X146249999Y-86324999D03*
X145649999Y-86324999D03*
X145049999Y-86324999D03*
X144449999Y-86324999D03*
D17*
X143299999Y-87474999D03*
X143299999Y-88074999D03*
X143299999Y-88674999D03*
X143299999Y-89274999D03*
X143299999Y-89874999D03*
X143299999Y-90474999D03*
X143299999Y-91074999D03*
X143299999Y-91674999D03*
X143299999Y-92274999D03*
X143299999Y-92874999D03*
X143299999Y-93474999D03*
X143299999Y-94074999D03*
X143299999Y-94674999D03*
X143299999Y-95274999D03*
X143299999Y-95874999D03*
X143299999Y-96474999D03*
D16*
X146149999Y-94774999D03*
X146149999Y-91974999D03*
X146149999Y-89174999D03*
X148949999Y-94774999D03*
X148949999Y-91974999D03*
X148949999Y-89174999D03*
X151749999Y-94774999D03*
X151749999Y-91974999D03*
X151749999Y-89174999D03*
%TD*%
D25*
%TO.C,CN201*%
X140150000Y-96685000D03*
X141166000Y-101765000D03*
X139134000Y-101765000D03*
D24*
X139515000Y-97955000D03*
X140785000Y-97955000D03*
X139515000Y-99225000D03*
X140785000Y-99225000D03*
X139515000Y-100495000D03*
X140785000Y-100495000D03*
%TD*%
D41*
%TO.C,L204*%
X145920000Y-83725000D03*
X144950000Y-83725000D03*
%TD*%
D35*
%TO.C,D201*%
X153737500Y-82225000D03*
X152162500Y-82225000D03*
%TD*%
D33*
%TO.C,AN201*%
X141999999Y-83724999D03*
D32*
X140474999Y-85199999D03*
X140474999Y-82249999D03*
%TD*%
D28*
%TO.C,H301*%
X148950000Y-80975000D03*
D27*
X148950000Y-80975000D03*
%TD*%
D37*
%TO.C,C403*%
X145700000Y-105725000D03*
X145700000Y-104175000D03*
%TD*%
D38*
%TO.C,D302*%
X141250000Y-104225000D03*
X139150000Y-104225000D03*
%TD*%
D36*
%TO.C,C216*%
X147730000Y-100775000D03*
X146770000Y-100775000D03*
%TD*%
D42*
%TO.C,D301*%
X143450000Y-105875000D03*
X143450000Y-102575000D03*
%TD*%
D39*
%TO.C,U302*%
X153800000Y-104312500D03*
X154750000Y-104312500D03*
X155700000Y-104312500D03*
X155700000Y-102037500D03*
X153800000Y-102037500D03*
%TD*%
D21*
%TO.C,SW201*%
X157200000Y-82975000D03*
D20*
X155499999Y-82974999D03*
X158899999Y-82974999D03*
%TD*%
M02*
