%TF.GenerationSoftware,KiCad,Pcbnew,(7.0.0-rc2-153-g7d6218acb4)*%
%TF.CreationDate,2023-02-19T16:48:28+08:00*%
%TF.ProjectId,RAK3172-M.2-2230-Mod,52414b33-3137-4322-9d4d-2e322d323233,rev?*%
%TF.SameCoordinates,Original*%
%TF.FileFunction,Copper,L1,Top*%
%TF.FilePolarity,Positive*%
%FSLAX46Y46*%
G04 Gerber Fmt 4.6, Leading zero omitted, Abs format (unit mm)*
G04 Created by KiCad (PCBNEW (7.0.0-rc2-153-g7d6218acb4)) date 2023-02-19 16:48:28*
%MOMM*%
%LPD*%
G01*
G04 APERTURE LIST*
G04 Aperture macros list*
%AMRoundRect*
0 Rectangle with rounded corners*
0 $1 Rounding radius*
0 $2 $3 $4 $5 $6 $7 $8 $9 X,Y pos of 4 corners*
0 Add a 4 corners polygon primitive as box body*
4,1,4,$2,$3,$4,$5,$6,$7,$8,$9,$2,$3,0*
0 Add four circle primitives for the rounded corners*
1,1,$1+$1,$2,$3*
1,1,$1+$1,$4,$5*
1,1,$1+$1,$6,$7*
1,1,$1+$1,$8,$9*
0 Add four rect primitives between the rounded corners*
20,1,$1+$1,$2,$3,$4,$5,0*
20,1,$1+$1,$4,$5,$6,$7,0*
20,1,$1+$1,$6,$7,$8,$9,0*
20,1,$1+$1,$8,$9,$2,$3,0*%
G04 Aperture macros list end*
%TA.AperFunction,SMDPad,CuDef*%
%ADD10R,0.370000X1.170000*%
%TD*%
%TA.AperFunction,SMDPad,CuDef*%
%ADD11R,1.170000X0.370000*%
%TD*%
%TA.AperFunction,SMDPad,CuDef*%
%ADD12R,1.600000X1.600000*%
%TD*%
%TA.AperFunction,SMDPad,CuDef*%
%ADD13RoundRect,0.150000X0.150000X-0.512500X0.150000X0.512500X-0.150000X0.512500X-0.150000X-0.512500X0*%
%TD*%
%TA.AperFunction,SMDPad,CuDef*%
%ADD14RoundRect,0.140000X-0.170000X0.140000X-0.170000X-0.140000X0.170000X-0.140000X0.170000X0.140000X0*%
%TD*%
%TA.AperFunction,SMDPad,CuDef*%
%ADD15RoundRect,0.250000X0.700000X-0.275000X0.700000X0.275000X-0.700000X0.275000X-0.700000X-0.275000X0*%
%TD*%
%TA.AperFunction,SMDPad,CuDef*%
%ADD16RoundRect,0.062500X-0.300000X-0.062500X0.300000X-0.062500X0.300000X0.062500X-0.300000X0.062500X0*%
%TD*%
%TA.AperFunction,SMDPad,CuDef*%
%ADD17R,0.900000X1.600000*%
%TD*%
%TA.AperFunction,SMDPad,CuDef*%
%ADD18RoundRect,0.250000X-0.275000X-0.700000X0.275000X-0.700000X0.275000X0.700000X-0.275000X0.700000X0*%
%TD*%
%TA.AperFunction,SMDPad,CuDef*%
%ADD19RoundRect,0.225000X0.225000X0.250000X-0.225000X0.250000X-0.225000X-0.250000X0.225000X-0.250000X0*%
%TD*%
%TA.AperFunction,ConnectorPad*%
%ADD20C,0.787400*%
%TD*%
%TA.AperFunction,SMDPad,CuDef*%
%ADD21RoundRect,0.147500X0.147500X0.172500X-0.147500X0.172500X-0.147500X-0.172500X0.147500X-0.172500X0*%
%TD*%
%TA.AperFunction,SMDPad,CuDef*%
%ADD22RoundRect,0.218750X0.218750X0.256250X-0.218750X0.256250X-0.218750X-0.256250X0.218750X-0.256250X0*%
%TD*%
%TA.AperFunction,SMDPad,CuDef*%
%ADD23R,0.350000X1.450000*%
%TD*%
%TA.AperFunction,SMDPad,CuDef*%
%ADD24R,1.050000X1.000000*%
%TD*%
%TA.AperFunction,SMDPad,CuDef*%
%ADD25R,2.200000X1.050000*%
%TD*%
%TA.AperFunction,ComponentPad*%
%ADD26C,2.600000*%
%TD*%
%TA.AperFunction,ConnectorPad*%
%ADD27C,3.800000*%
%TD*%
%TA.AperFunction,SMDPad,CuDef*%
%ADD28RoundRect,0.225000X0.250000X-0.225000X0.250000X0.225000X-0.250000X0.225000X-0.250000X-0.225000X0*%
%TD*%
%TA.AperFunction,SMDPad,CuDef*%
%ADD29RoundRect,0.112500X0.187500X0.112500X-0.187500X0.112500X-0.187500X-0.112500X0.187500X-0.112500X0*%
%TD*%
%TA.AperFunction,SMDPad,CuDef*%
%ADD30RoundRect,0.225000X0.375000X-0.225000X0.375000X0.225000X-0.375000X0.225000X-0.375000X-0.225000X0*%
%TD*%
%TA.AperFunction,SMDPad,CuDef*%
%ADD31R,0.900000X1.700000*%
%TD*%
%TA.AperFunction,SMDPad,CuDef*%
%ADD32RoundRect,0.140000X0.140000X0.170000X-0.140000X0.170000X-0.140000X-0.170000X0.140000X-0.170000X0*%
%TD*%
%TA.AperFunction,ViaPad*%
%ADD33C,0.450000*%
%TD*%
%TA.AperFunction,ViaPad*%
%ADD34C,0.600000*%
%TD*%
%TA.AperFunction,ViaPad*%
%ADD35C,0.685800*%
%TD*%
%TA.AperFunction,Conductor*%
%ADD36C,0.508000*%
%TD*%
%TA.AperFunction,Conductor*%
%ADD37C,0.254000*%
%TD*%
%TA.AperFunction,Conductor*%
%ADD38C,0.152400*%
%TD*%
%TA.AperFunction,Conductor*%
%ADD39C,0.127000*%
%TD*%
%TA.AperFunction,Conductor*%
%ADD40C,0.156464*%
%TD*%
%TA.AperFunction,Conductor*%
%ADD41C,0.349250*%
%TD*%
%TA.AperFunction,Conductor*%
%ADD42C,0.141986*%
%TD*%
G04 APERTURE END LIST*
D10*
%TO.P,U201,1,PA13*%
%TO.N,/RAK3172/PA13{slash}SWDIO*%
X144449999Y-97624999D03*
%TO.P,U201,2,PA14*%
%TO.N,/RAK3172/PA14{slash}SWCLK*%
X145049999Y-97624999D03*
%TO.P,U201,3,VDD*%
%TO.N,3.3V*%
X145649999Y-97624999D03*
%TO.P,U201,4,VBAT*%
X146249999Y-97624999D03*
%TO.P,U201,5,PC13*%
%TO.N,/RAK3172/PC13*%
X146849999Y-97624999D03*
%TO.P,U201,6,VREF+*%
%TO.N,3.3V*%
X147449999Y-97624999D03*
%TO.P,U201,7,VDDA*%
X148049999Y-97624999D03*
%TO.P,U201,8,PA15*%
%TO.N,/RAK3172/PA15*%
X148649999Y-97624999D03*
%TO.P,U201,9,PB15*%
%TO.N,/RAK3172/PB15*%
X149249999Y-97624999D03*
%TO.P,U201,10,VFBSMPS*%
%TO.N,/RAK3172/VFBSMPS*%
X149849999Y-97624999D03*
%TO.P,U201,11,VDDMPS*%
%TO.N,/RAK3172/VDDSMPS*%
X150449999Y-97624999D03*
%TO.P,U201,12,GND*%
%TO.N,GND*%
X151049999Y-97624999D03*
%TO.P,U201,13,VLXSMPS*%
%TO.N,/RAK3172/VLXSMPS*%
X151649999Y-97624999D03*
%TO.P,U201,14,PB3*%
%TO.N,RTS*%
X152249999Y-97624999D03*
%TO.P,U201,15,PB4*%
%TO.N,CTS*%
X152849999Y-97624999D03*
%TO.P,U201,16,PB5*%
%TO.N,/RAK3172/PB5*%
X153449999Y-97624999D03*
D11*
%TO.P,U201,17,PB6/UART1_TX*%
%TO.N,DFU_FC_TX*%
X154599999Y-96474999D03*
%TO.P,U201,18,PB7/UART1_RX*%
%TO.N,DFU_FC_RX*%
X154599999Y-95874999D03*
%TO.P,U201,19,PB8*%
%TO.N,/RAK3172/PB8*%
X154599999Y-95274999D03*
%TO.P,U201,20,PB9*%
%TO.N,/RAK3172/PB9*%
X154599999Y-94674999D03*
%TO.P,U201,21,PC0*%
%TO.N,/RAK3172/PC0*%
X154599999Y-94074999D03*
%TO.P,U201,22,PC1*%
%TO.N,/RAK3172/PC1*%
X154599999Y-93474999D03*
%TO.P,U201,23,PC2*%
%TO.N,/RAK3172/PC2*%
X154599999Y-92874999D03*
%TO.P,U201,24,PC3*%
%TO.N,/RAK3172/PC3*%
X154599999Y-92274999D03*
%TO.P,U201,25,PC4*%
%TO.N,/RAK3172/PC4*%
X154599999Y-91674999D03*
%TO.P,U201,26,PC5*%
%TO.N,/RAK3172/PC5*%
X154599999Y-91074999D03*
%TO.P,U201,27,PC6*%
%TO.N,/RAK3172/PC6*%
X154599999Y-90474999D03*
%TO.P,U201,28,GND*%
%TO.N,GND*%
X154599999Y-89874999D03*
%TO.P,U201,29,PA2/UART2_TX*%
%TO.N,TX*%
X154599999Y-89274999D03*
%TO.P,U201,30,PA3/UART2_RX*%
%TO.N,RX*%
X154599999Y-88674999D03*
%TO.P,U201,31,PA4*%
%TO.N,F1{slash}~{CS}*%
X154599999Y-88074999D03*
%TO.P,U201,32,PA5*%
%TO.N,SPI_SCK*%
X154599999Y-87474999D03*
D10*
%TO.P,U201,33,PA6*%
%TO.N,SPI_SDO*%
X153449999Y-86324999D03*
%TO.P,U201,34,PA7*%
%TO.N,SPI_SDI*%
X152849999Y-86324999D03*
%TO.P,U201,35,GND*%
%TO.N,GND*%
X152249999Y-86324999D03*
%TO.P,U201,36,GND*%
X151649999Y-86324999D03*
%TO.P,U201,37,RF_OUT*%
%TO.N,/RAK3172/RF_OUT*%
X151049999Y-86324999D03*
%TO.P,U201,38,GND*%
%TO.N,GND*%
X150449999Y-86324999D03*
%TO.P,U201,39,GND*%
X149849999Y-86324999D03*
%TO.P,U201,40,NC*%
%TO.N,unconnected-(U201-NC-Pad40)*%
X149249999Y-86324999D03*
%TO.P,U201,41,NC*%
%TO.N,unconnected-(U201-NC-Pad41)*%
X148649999Y-86324999D03*
%TO.P,U201,42,NC*%
%TO.N,unconnected-(U201-NC-Pad42)*%
X148049999Y-86324999D03*
%TO.P,U201,43,BOOT_0*%
%TO.N,/RAK3172/BOOT0*%
X147449999Y-86324999D03*
%TO.P,U201,44,NRST*%
%TO.N,DFU_~{RST}*%
X146849999Y-86324999D03*
%TO.P,U201,45,NC*%
%TO.N,unconnected-(U201-NC-Pad45)*%
X146249999Y-86324999D03*
%TO.P,U201,46,GND*%
%TO.N,GND*%
X145649999Y-86324999D03*
%TO.P,U201,47,GND*%
X145049999Y-86324999D03*
%TO.P,U201,48,PB11*%
%TO.N,/RAK3172/PB11*%
X144449999Y-86324999D03*
D11*
%TO.P,U201,49,PB10*%
%TO.N,/RAK3172/PB10*%
X143299999Y-87474999D03*
%TO.P,U201,50,PA9*%
%TO.N,/RAK3172/PA9*%
X143299999Y-88074999D03*
%TO.P,U201,51,PA8*%
%TO.N,/RAK3172/PA8*%
X143299999Y-88674999D03*
%TO.P,U201,52,GND*%
%TO.N,GND*%
X143299999Y-89274999D03*
%TO.P,U201,53,VDDPA*%
%TO.N,/RAK3172/VDDPA*%
X143299999Y-89874999D03*
%TO.P,U201,54,VDDRF*%
%TO.N,/RAK3172/VDDRF*%
X143299999Y-90474999D03*
%TO.P,U201,55,VDD*%
%TO.N,3.3V*%
X143299999Y-91074999D03*
%TO.P,U201,56,GND*%
%TO.N,GND*%
X143299999Y-91674999D03*
%TO.P,U201,57,PB1*%
%TO.N,/RAK3172/PB1*%
X143299999Y-92274999D03*
%TO.P,U201,58,PB2*%
%TO.N,/RAK3172/PB2*%
X143299999Y-92874999D03*
%TO.P,U201,59,PB12*%
%TO.N,/RAK3172/PB12*%
X143299999Y-93474999D03*
%TO.P,U201,60,PB13*%
%TO.N,/RAK3172/PB13*%
X143299999Y-94074999D03*
%TO.P,U201,61,PB14*%
%TO.N,/RAK3172/PB14*%
X143299999Y-94674999D03*
%TO.P,U201,62,PA10*%
%TO.N,/RAK3172/PA10*%
X143299999Y-95274999D03*
%TO.P,U201,63,PA11*%
%TO.N,I2C_SDA*%
X143299999Y-95874999D03*
%TO.P,U201,64,PA12*%
%TO.N,I2C_SCL*%
X143299999Y-96474999D03*
D12*
%TO.P,U201,65,GND*%
%TO.N,GND*%
X146149999Y-94774999D03*
%TO.P,U201,66,GND*%
X146149999Y-91974999D03*
%TO.P,U201,67,GND*%
X146149999Y-89174999D03*
%TO.P,U201,68,GND*%
X148949999Y-94774999D03*
%TO.P,U201,69,GND*%
X148949999Y-91974999D03*
%TO.P,U201,70,GND*%
X148949999Y-89174999D03*
%TO.P,U201,71,GND*%
X151749999Y-94774999D03*
%TO.P,U201,72,GND*%
X151749999Y-91974999D03*
%TO.P,U201,73,GND*%
X151749999Y-89174999D03*
%TD*%
D13*
%TO.P,U302,1,SCL*%
%TO.N,I2C_SCL*%
X153800000Y-104312500D03*
%TO.P,U302,2,VSS*%
%TO.N,GND*%
X154750000Y-104312500D03*
%TO.P,U302,3,SDA*%
%TO.N,I2C_SDA*%
X155700000Y-104312500D03*
%TO.P,U302,4,VCC*%
%TO.N,3.3V*%
X155700000Y-102037500D03*
%TO.P,U302,5,WP*%
%TO.N,/M.2 E-Key Connector/EEPROM_WP*%
X153800000Y-102037500D03*
%TD*%
D14*
%TO.P,C213,1*%
%TO.N,/RAK3172/RF_OUT*%
X147200000Y-83725000D03*
%TO.P,C213,2*%
%TO.N,GND*%
X147200000Y-84685000D03*
%TD*%
D15*
%TO.P,L401,1,1*%
%TO.N,Net-(U401-LX)*%
X151450000Y-105050000D03*
%TO.P,L401,2,2*%
%TO.N,3.3V*%
X151450000Y-101900000D03*
%TD*%
D16*
%TO.P,U401,1,FB*%
%TO.N,Net-(U401-FB)*%
X147425000Y-103725000D03*
%TO.P,U401,2,PG*%
%TO.N,/Power Supply/3.3VPG*%
X147425000Y-104225000D03*
%TO.P,U401,3,IN*%
%TO.N,+5V*%
X147425000Y-104725000D03*
%TO.P,U401,4,PGND*%
%TO.N,GND*%
X147425000Y-105225000D03*
%TO.P,U401,5,NC*%
%TO.N,unconnected-(U401-NC-Pad5)*%
X149450000Y-105225000D03*
%TO.P,U401,6,LX*%
%TO.N,Net-(U401-LX)*%
X149450000Y-104725000D03*
%TO.P,U401,7,EN*%
%TO.N,PWR_EN*%
X149450000Y-104225000D03*
%TO.P,U401,8,AGND*%
%TO.N,GND*%
X149450000Y-103725000D03*
D17*
%TO.P,U401,9,PGND*%
X148437499Y-104474999D03*
%TD*%
D18*
%TO.P,L205,1,1*%
%TO.N,/RAK3172/VFBSMPS*%
X149125000Y-99875000D03*
%TO.P,L205,2,2*%
%TO.N,/RAK3172/VLXSMPS*%
X152275000Y-99875000D03*
%TD*%
D14*
%TO.P,C214,1*%
%TO.N,/RAK3172/RF_OUT_CONN*%
X143700000Y-83725000D03*
%TO.P,C214,2*%
%TO.N,GND*%
X143700000Y-84685000D03*
%TD*%
D19*
%TO.P,C402,1*%
%TO.N,3.3V*%
X149225000Y-102375000D03*
%TO.P,C402,2*%
%TO.N,GND*%
X147675000Y-102375000D03*
%TD*%
D20*
%TO.P,CN201,1,VCC*%
%TO.N,3.3V*%
X139515000Y-97955000D03*
%TO.P,CN201,2,SWDIO*%
%TO.N,/RAK3172/PA13{slash}SWDIO*%
X140785000Y-97955000D03*
%TO.P,CN201,3,~{RESET}*%
%TO.N,DFU_~{RST}*%
X139515000Y-99225000D03*
%TO.P,CN201,4,SWCLK*%
%TO.N,/RAK3172/PA14{slash}SWCLK*%
X140785000Y-99225000D03*
%TO.P,CN201,5,GND*%
%TO.N,GND*%
X139515000Y-100495000D03*
%TO.P,CN201,6,SWO*%
%TO.N,unconnected-(CN201-SWO-Pad6)*%
X140785000Y-100495000D03*
%TD*%
D21*
%TO.P,L204,1,1*%
%TO.N,/RAK3172/RF_OUT*%
X145920000Y-83725000D03*
%TO.P,L204,2,2*%
%TO.N,/RAK3172/RF_OUT_CONN*%
X144950000Y-83725000D03*
%TD*%
D22*
%TO.P,D201,1,K*%
%TO.N,GND*%
X153737500Y-82225000D03*
%TO.P,D201,2,A*%
%TO.N,Net-(D201-A)*%
X152162500Y-82225000D03*
%TD*%
D23*
%TO.P,J301,1,Pin_1*%
%TO.N,GND*%
X158199999Y-109699999D03*
%TO.P,J301,3,Pin_3*%
%TO.N,SPI_SCK*%
X157699999Y-109699999D03*
%TO.P,J301,5,Pin_5*%
%TO.N,SPI_SDI*%
X157199999Y-109699999D03*
%TO.P,J301,7,Pin_7*%
%TO.N,SPI_SDO*%
X156699999Y-109699999D03*
%TO.P,J301,9,Pin_9*%
%TO.N,unconnected-(J301-Pin_9-Pad9)*%
X156199999Y-109699999D03*
%TO.P,J301,11,Pin_11*%
%TO.N,unconnected-(J301-Pin_11-Pad11)*%
X155699999Y-109699999D03*
%TO.P,J301,13,Pin_13*%
%TO.N,TX*%
X155199999Y-109699999D03*
%TO.P,J301,15,Pin_15*%
%TO.N,RX*%
X154699999Y-109699999D03*
%TO.P,J301,17,Pin_17*%
%TO.N,unconnected-(J301-Pin_17-Pad17)*%
X154199999Y-109699999D03*
%TO.P,J301,19,Pin_19*%
%TO.N,I2C_SDA*%
X153699999Y-109699999D03*
%TO.P,J301,21,Pin_21*%
%TO.N,I2C_SCL*%
X153199999Y-109699999D03*
%TO.P,J301,23,Pin_23*%
%TO.N,I2C_INT*%
X152699999Y-109699999D03*
%TO.P,J301,33,Pin_33*%
%TO.N,GND*%
X150199999Y-109699999D03*
%TO.P,J301,35,Pin_35*%
%TO.N,USB_HOST_D+*%
X149699999Y-109699999D03*
%TO.P,J301,37,Pin_37*%
%TO.N,USB_HOST_D-*%
X149199999Y-109699999D03*
%TO.P,J301,39,Pin_39*%
%TO.N,GND*%
X148699999Y-109699999D03*
%TO.P,J301,41,Pin_41*%
%TO.N,CAN_RX*%
X148199999Y-109699999D03*
%TO.P,J301,43,Pin_43*%
%TO.N,CAN_TX*%
X147699999Y-109699999D03*
%TO.P,J301,45,Pin_45*%
%TO.N,GND*%
X147199999Y-109699999D03*
%TO.P,J301,47,Pin_47*%
%TO.N,F0{slash}~{INT}*%
X146699999Y-109699999D03*
%TO.P,J301,49,Pin_49*%
%TO.N,F1{slash}~{CS}*%
X146199999Y-109699999D03*
%TO.P,J301,51,Pin_51*%
%TO.N,F2{slash}PWM*%
X145699999Y-109699999D03*
%TO.P,J301,53,Pin_53*%
%TO.N,F3*%
X145199999Y-109699999D03*
%TO.P,J301,55,Pin_55*%
%TO.N,F4*%
X144699999Y-109699999D03*
%TO.P,J301,57,Pin_57*%
%TO.N,F5*%
X144199999Y-109699999D03*
%TO.P,J301,59,Pin_59*%
%TO.N,F6*%
X143699999Y-109699999D03*
%TO.P,J301,61,Pin_61*%
%TO.N,F7*%
X143199999Y-109699999D03*
%TO.P,J301,63,Pin_63*%
%TO.N,unconnected-(J301-Pin_63-Pad63)*%
X142699999Y-109699999D03*
%TO.P,J301,65,Pin_65*%
%TO.N,unconnected-(J301-Pin_65-Pad65)*%
X142199999Y-109699999D03*
%TO.P,J301,67,Pin_67*%
%TO.N,unconnected-(J301-Pin_67-Pad67)*%
X141699999Y-109699999D03*
%TO.P,J301,69,Pin_69*%
%TO.N,unconnected-(J301-Pin_69-Pad69)*%
X141199999Y-109699999D03*
%TO.P,J301,71,Pin_71*%
%TO.N,PWR_EN*%
X140699999Y-109699999D03*
%TO.P,J301,73,Pin_73*%
%TO.N,P73_3.3V_NC*%
X140199999Y-109699999D03*
%TO.P,J301,75,Pin_75*%
%TO.N,GND*%
X139699999Y-109699999D03*
%TD*%
D24*
%TO.P,AN201,1,In*%
%TO.N,/RAK3172/RF_OUT_CONN*%
X141999999Y-83724999D03*
D25*
%TO.P,AN201,2,Ext*%
%TO.N,GND*%
X140474999Y-85199999D03*
X140474999Y-82249999D03*
%TD*%
D26*
%TO.P,H301,1,1*%
%TO.N,GND*%
X148950000Y-80975000D03*
D27*
X148950000Y-80975000D03*
%TD*%
D28*
%TO.P,C403,1*%
%TO.N,+5V*%
X145700000Y-105725000D03*
%TO.P,C403,2*%
%TO.N,GND*%
X145700000Y-104175000D03*
%TD*%
D29*
%TO.P,D302,1,A1*%
%TO.N,/M.2 E-Key Connector/V_{CC}Fused*%
X141250000Y-104225000D03*
%TO.P,D302,2,A2*%
%TO.N,GND*%
X139150000Y-104225000D03*
%TD*%
D30*
%TO.P,D301,1,K*%
%TO.N,+5V*%
X143450000Y-105875000D03*
%TO.P,D301,2,A*%
%TO.N,/M.2 E-Key Connector/V_{CC}Fused*%
X143450000Y-102575000D03*
%TD*%
D31*
%TO.P,SW201,1,A*%
%TO.N,GND*%
X155499999Y-82974999D03*
%TO.P,SW201,2,B*%
%TO.N,Net-(SW201-B)*%
X158899999Y-82974999D03*
%TD*%
D32*
%TO.P,C215,1*%
%TO.N,/RAK3172/VFBSMPS*%
X147730000Y-99775000D03*
%TO.P,C215,2*%
%TO.N,GND*%
X146770000Y-99775000D03*
%TD*%
%TO.P,C216,1*%
%TO.N,/RAK3172/VFBSMPS*%
X147730000Y-100775000D03*
%TO.P,C216,2*%
%TO.N,GND*%
X146770000Y-100775000D03*
%TD*%
D33*
%TO.N,GND*%
X155902670Y-106680949D03*
X138750000Y-86805000D03*
X138680000Y-92735000D03*
X138650000Y-94675000D03*
X138500000Y-99195000D03*
X155700000Y-86475000D03*
X154450000Y-86475000D03*
X151950000Y-87575000D03*
X150350000Y-87575000D03*
X143750000Y-86375000D03*
X141050000Y-102975000D03*
X138950000Y-102975000D03*
X139950000Y-102975000D03*
X151050000Y-96775000D03*
X143350000Y-97475000D03*
X144350000Y-99775000D03*
X145450000Y-99875000D03*
X154450000Y-83375000D03*
X153750000Y-83375000D03*
X155850000Y-89875000D03*
X157996159Y-89931828D03*
X157996159Y-93597655D03*
X158000459Y-94913483D03*
X153250000Y-100875000D03*
X155850000Y-98375000D03*
X155850000Y-97175000D03*
X146650000Y-105575000D03*
X159250000Y-105975000D03*
X158650000Y-106475000D03*
X152550000Y-106675000D03*
X150850000Y-106675000D03*
X149450000Y-106675000D03*
X147950000Y-106675000D03*
X142450000Y-106675000D03*
X144350000Y-106675000D03*
X145050000Y-106675000D03*
X145750000Y-106675000D03*
X145950000Y-100775000D03*
D34*
X138900000Y-106125000D03*
D33*
%TO.N,DFU_~{RST}*%
X141550000Y-105475000D03*
%TO.N,CTS*%
X154450000Y-106175000D03*
%TO.N,RTS*%
X156328379Y-105077016D03*
%TO.N,CTS*%
X155550000Y-99175000D03*
%TO.N,RTS*%
X155550000Y-99775000D03*
%TO.N,F1{slash}~{CS}*%
X157850000Y-89175000D03*
X156450000Y-94225000D03*
%TO.N,TX*%
X156950000Y-94725000D03*
X157950000Y-95725000D03*
%TO.N,3.3V*%
X144456114Y-88112627D03*
%TO.N,SPI_SDI*%
X158350000Y-86975000D03*
%TO.N,SPI_SDO*%
X157650000Y-86975000D03*
X157650000Y-87975000D03*
%TO.N,SPI_SDI*%
X158350000Y-87975000D03*
%TO.N,F1{slash}~{CS}*%
X153950000Y-100475000D03*
%TO.N,PWR_EN*%
X141350000Y-106575000D03*
%TO.N,F1{slash}~{CS}*%
X146650000Y-106375000D03*
%TO.N,DFU_FC_RX*%
X155450000Y-95875000D03*
%TO.N,DFU_FC_TX*%
X155450000Y-96475000D03*
%TO.N,I2C_SCL*%
X142400000Y-96475000D03*
%TO.N,I2C_SDA*%
X142400000Y-95875000D03*
%TO.N,GND*%
X142350000Y-93025000D03*
X141750000Y-93775000D03*
D34*
%TO.N,3.3V*%
X140100000Y-95225000D03*
D33*
%TO.N,GND*%
X144350000Y-90175000D03*
X144300000Y-91925000D03*
%TO.N,DFU_~{RST}*%
X139650000Y-94725000D03*
D35*
%TO.N,3.3V*%
X139350000Y-89125000D03*
X139350000Y-90775000D03*
D33*
%TO.N,Net-(D201-A)*%
X152200000Y-83225000D03*
%TO.N,/RAK3172/PB1*%
X140850000Y-92775000D03*
%TO.N,Net-(SW201-B)*%
X158450000Y-84475000D03*
%TO.N,/RAK3172/BOOT0*%
X147550000Y-87425000D03*
%TO.N,DFU_~{RST}*%
X146600000Y-87425000D03*
%TO.N,/RAK3172/VDDRF*%
X142550000Y-90475000D03*
%TO.N,/RAK3172/VDDPA*%
X142550000Y-89875000D03*
%TO.N,3.3V*%
X142526500Y-91075000D03*
X148050000Y-98375000D03*
X147450000Y-98375000D03*
X146350001Y-98475001D03*
X145650000Y-98375000D03*
D34*
%TO.N,GND*%
X138850000Y-85575000D03*
X142050000Y-85575000D03*
X142150000Y-81975000D03*
X138850000Y-81975000D03*
X142950000Y-82075000D03*
X142750000Y-84975000D03*
X143450000Y-82775000D03*
X144350000Y-82775000D03*
X145250000Y-82775000D03*
X146150000Y-82775000D03*
X147050000Y-82775000D03*
X150250000Y-83175000D03*
X151450000Y-84275000D03*
X151750000Y-84975000D03*
X144550000Y-84675000D03*
X145450000Y-84675000D03*
X146350000Y-84675000D03*
X148550000Y-84575000D03*
X149450000Y-84575000D03*
X150150000Y-84975000D03*
%TO.N,3.3V*%
X154050000Y-98775000D03*
%TO.N,GND*%
X151150000Y-100475000D03*
X151150000Y-99775000D03*
%TO.N,/RAK3172/VDDSMPS*%
X150650000Y-98775000D03*
D33*
%TO.N,/M.2 E-Key Connector/EEPROM_WP*%
X153050000Y-105175000D03*
%TO.N,3.3V*%
X155232578Y-101725000D03*
%TO.N,GND*%
X154750000Y-103575000D03*
%TO.N,I2C_SDA*%
X155700000Y-105175000D03*
%TO.N,I2C_SCL*%
X153750000Y-105175000D03*
D34*
%TO.N,GND*%
X154750000Y-105083466D03*
D33*
%TO.N,3.3V*%
X150050000Y-102475000D03*
X150050000Y-101875000D03*
X151450000Y-101575000D03*
X152150000Y-101575000D03*
X150750000Y-101575000D03*
%TO.N,+5V*%
X144550000Y-104475000D03*
%TO.N,Net-(U401-FB)*%
X146750000Y-103275000D03*
%TO.N,/Power Supply/3.3VPG*%
X146750000Y-104175000D03*
%TO.N,PWR_EN*%
X150190000Y-104125000D03*
D34*
%TO.N,GND*%
X149960746Y-103451906D03*
D33*
X148450652Y-104960000D03*
X148450000Y-103975000D03*
%TO.N,/M.2 E-Key Connector/V_{CC}Fused*%
X143350000Y-103375000D03*
X142550000Y-103775000D03*
X142550000Y-104575000D03*
X141750000Y-104575000D03*
X141750000Y-103775000D03*
D34*
%TO.N,GND*%
X145700000Y-95225000D03*
X149450000Y-89725000D03*
X149450000Y-91475000D03*
X151200000Y-91475000D03*
X148450000Y-91475000D03*
X152200000Y-91475000D03*
X152200000Y-88725000D03*
X151200000Y-94225000D03*
X148450000Y-88725000D03*
X148450000Y-92475000D03*
X146700000Y-92475000D03*
X149450000Y-94225000D03*
X145700000Y-88725000D03*
X152200000Y-95225000D03*
X145700000Y-91475000D03*
X148450000Y-94225000D03*
X152200000Y-94225000D03*
X149450000Y-92475000D03*
X151200000Y-89725000D03*
X149450000Y-95225000D03*
X151200000Y-95225000D03*
X145700000Y-94225000D03*
X149450000Y-88725000D03*
X151200000Y-88725000D03*
X146700000Y-94225000D03*
X152200000Y-92475000D03*
X145700000Y-89725000D03*
X148450000Y-95225000D03*
X146700000Y-89725000D03*
X146700000Y-95225000D03*
X151200000Y-92475000D03*
X152200000Y-89725000D03*
X148450000Y-89725000D03*
X145700000Y-92475000D03*
X146700000Y-88725000D03*
X146700000Y-91475000D03*
%TD*%
D36*
%TO.N,GND*%
X154750000Y-103575000D02*
X154750000Y-103365216D01*
D37*
%TO.N,3.3V*%
X155387500Y-101725000D02*
X155700000Y-102037500D01*
X155232578Y-101725000D02*
X155387500Y-101725000D01*
%TO.N,GND*%
X148408872Y-102976355D02*
X148408872Y-101699227D01*
D38*
X148205693Y-103179534D02*
X148408872Y-102976355D01*
X148137967Y-103247260D02*
X148205693Y-103179534D01*
X147867061Y-103247260D02*
X148137967Y-103247260D01*
D37*
X147675000Y-103055199D02*
X147867061Y-103247260D01*
D38*
X147675000Y-102375000D02*
X147675000Y-103055199D01*
D39*
%TO.N,RX*%
X156600000Y-88675000D02*
X154600000Y-88675000D01*
X157450000Y-95875000D02*
X157450000Y-89525000D01*
X157950000Y-104575000D02*
X157950000Y-96375000D01*
X155500611Y-105997235D02*
X156527765Y-105997235D01*
X157950000Y-96375000D02*
X157450000Y-95875000D01*
X154700000Y-109700000D02*
X154700000Y-106797846D01*
X154700000Y-106797846D02*
X155500611Y-105997235D01*
X156527765Y-105997235D02*
X157950000Y-104575000D01*
X157450000Y-89525000D02*
X156600000Y-88675000D01*
%TO.N,I2C_SDA*%
X155700000Y-105225000D02*
X155700000Y-105175000D01*
X155329823Y-105595177D02*
X155700000Y-105225000D01*
X154129823Y-105595177D02*
X155329823Y-105595177D01*
X153700000Y-109700000D02*
X153700000Y-106025000D01*
X153700000Y-106025000D02*
X154129823Y-105595177D01*
%TO.N,GND*%
X154750000Y-104312500D02*
X154750000Y-105083466D01*
%TO.N,TX*%
X156667610Y-106257390D02*
X158250000Y-104675000D01*
X155666166Y-106257390D02*
X156667610Y-106257390D01*
X158250000Y-96025000D02*
X157950000Y-95725000D01*
X155200000Y-106723556D02*
X155666166Y-106257390D01*
X155200000Y-109700000D02*
X155200000Y-106723556D01*
X158250000Y-104675000D02*
X158250000Y-96025000D01*
D38*
%TO.N,GND*%
X142975736Y-105115025D02*
G75*
G03*
X143187868Y-105027132I-36J300025D01*
G01*
X143187868Y-105027132D02*
X143440000Y-104775000D01*
X142700000Y-105115000D02*
X142975736Y-105115000D01*
D40*
X143960000Y-104255000D02*
X144370000Y-103845000D01*
D39*
X151680000Y-81345000D02*
X154173600Y-81345000D01*
X159580000Y-81795000D02*
X159580000Y-84288600D01*
%TO.N,F1{slash}~{CS}*%
X157150000Y-99375000D02*
X156050000Y-100475000D01*
X157150000Y-96475000D02*
X157150000Y-99375000D01*
X156050000Y-100475000D02*
X153950000Y-100475000D01*
X156750000Y-96075000D02*
X157150000Y-96475000D01*
X156750000Y-95375000D02*
X156750000Y-96075000D01*
X156450000Y-95075000D02*
X156750000Y-95375000D01*
X156450000Y-94225000D02*
X156450000Y-95075000D01*
D38*
%TO.N,GND*%
X146690660Y-88015002D02*
X146477805Y-88015002D01*
X145018284Y-88166580D02*
X145033334Y-88151530D01*
X145018284Y-88379435D02*
X145018284Y-88166580D01*
X144265835Y-96605843D02*
X143869152Y-97002526D01*
X144394032Y-87453101D02*
X143871571Y-86930640D01*
X144574635Y-87453101D02*
X144394032Y-87453101D01*
X153517245Y-96584981D02*
X154052606Y-97120342D01*
X153950000Y-86975000D02*
X153700000Y-87225000D01*
D39*
%TO.N,Net-(U401-FB)*%
X146750000Y-103575000D02*
X146750000Y-103275000D01*
X146900000Y-103725000D02*
X146750000Y-103575000D01*
X147425000Y-103725000D02*
X146900000Y-103725000D01*
D37*
%TO.N,GND*%
X151250000Y-99675000D02*
X151150000Y-99775000D01*
X151250000Y-98475000D02*
X151250000Y-99675000D01*
X151050000Y-98275000D02*
X151250000Y-98475000D01*
X151050000Y-97625000D02*
X151050000Y-98275000D01*
%TO.N,/RAK3172/VFBSMPS*%
X149025000Y-99775000D02*
X149125000Y-99875000D01*
X147730000Y-99775000D02*
X149025000Y-99775000D01*
X147730000Y-100775000D02*
X148225000Y-100775000D01*
X148225000Y-100775000D02*
X149125000Y-99875000D01*
D39*
%TO.N,F1{slash}~{CS}*%
X146200000Y-106825000D02*
X146650000Y-106375000D01*
X146200000Y-109700000D02*
X146200000Y-106825000D01*
D37*
%TO.N,GND*%
X147000000Y-105225000D02*
X146650000Y-105575000D01*
X147425000Y-105225000D02*
X147000000Y-105225000D01*
D39*
%TO.N,SPI_SCK*%
X158650000Y-87475000D02*
X154600000Y-87475000D01*
X159150000Y-87975000D02*
X158650000Y-87475000D01*
X159150000Y-104975000D02*
X159150000Y-87975000D01*
X157700000Y-106425000D02*
X159150000Y-104975000D01*
X157700000Y-109700000D02*
X157700000Y-106425000D01*
%TO.N,SPI_SDI*%
X158850000Y-88475000D02*
X158350000Y-87975000D01*
X158850000Y-104875000D02*
X158850000Y-88475000D01*
X157200000Y-106525000D02*
X158850000Y-104875000D01*
X157200000Y-109700000D02*
X157200000Y-106525000D01*
%TO.N,SPI_SDO*%
X158550000Y-88875000D02*
X157650000Y-87975000D01*
X158550000Y-104775000D02*
X158550000Y-88875000D01*
X156700000Y-106625000D02*
X158550000Y-104775000D01*
X156700000Y-109700000D02*
X156700000Y-106625000D01*
D37*
%TO.N,3.3V*%
X146250000Y-98375000D02*
X146350001Y-98475001D01*
X146250000Y-97625000D02*
X146250000Y-98375000D01*
D41*
%TO.N,GND*%
X139050000Y-106125000D02*
X138900000Y-106125000D01*
X139700000Y-106775000D02*
X139050000Y-106125000D01*
D39*
%TO.N,DFU_~{RST}*%
X138800000Y-105325000D02*
X138350000Y-104875000D01*
X138350000Y-104875000D02*
X138350000Y-100390000D01*
X141400000Y-105325000D02*
X138800000Y-105325000D01*
X141550000Y-105475000D02*
X141400000Y-105325000D01*
X138350000Y-100390000D02*
X139515000Y-99225000D01*
D41*
%TO.N,GND*%
X158200000Y-106975000D02*
X158500000Y-106675000D01*
X158200000Y-109700000D02*
X158200000Y-106975000D01*
D40*
X159571768Y-105553232D02*
X159571768Y-87596768D01*
D39*
%TO.N,CTS*%
X154750000Y-99375000D02*
X154950000Y-99175000D01*
X153650000Y-99375000D02*
X154750000Y-99375000D01*
X154950000Y-99175000D02*
X155550000Y-99175000D01*
X153450000Y-99175000D02*
X153650000Y-99375000D01*
X153450000Y-98875000D02*
X153450000Y-99175000D01*
X152850000Y-98275000D02*
X153450000Y-98875000D01*
X152850000Y-97625000D02*
X152850000Y-98275000D01*
%TO.N,RTS*%
X154050000Y-99775000D02*
X155550000Y-99775000D01*
X153350000Y-99775000D02*
X154050000Y-99775000D01*
X153150000Y-99575000D02*
X153350000Y-99775000D01*
X153150000Y-98975000D02*
X153150000Y-99575000D01*
X152250000Y-97625000D02*
X152250000Y-98375000D01*
X152250000Y-98375000D02*
X152450000Y-98575000D01*
X152450000Y-98575000D02*
X152750000Y-98575000D01*
X152750000Y-98575000D02*
X153150000Y-98975000D01*
%TO.N,TX*%
X156950000Y-89725000D02*
X156950000Y-94725000D01*
X156500000Y-89275000D02*
X156950000Y-89725000D01*
X154600000Y-89275000D02*
X156500000Y-89275000D01*
%TO.N,F1{slash}~{CS}*%
X156750000Y-88075000D02*
X157850000Y-89175000D01*
X154600000Y-88075000D02*
X156750000Y-88075000D01*
%TO.N,SPI_SDI*%
X156650000Y-85275000D02*
X158350000Y-86975000D01*
X156350000Y-85275000D02*
X156650000Y-85275000D01*
X152850000Y-85675000D02*
X153250000Y-85275000D01*
X153250000Y-85275000D02*
X156350000Y-85275000D01*
X152850000Y-86325000D02*
X152850000Y-85675000D01*
%TO.N,SPI_SDO*%
X153750000Y-85575000D02*
X156250000Y-85575000D01*
X156250000Y-85575000D02*
X156350000Y-85675000D01*
X153450000Y-85875000D02*
X153750000Y-85575000D01*
X153450000Y-86325000D02*
X153450000Y-85875000D01*
X157650000Y-86975000D02*
X156350000Y-85675000D01*
%TO.N,PWR_EN*%
X140700000Y-107225000D02*
X141350000Y-106575000D01*
X140700000Y-109700000D02*
X140700000Y-107225000D01*
%TO.N,DFU_FC_RX*%
X154600000Y-95875000D02*
X155450000Y-95875000D01*
%TO.N,DFU_FC_TX*%
X154600000Y-96475000D02*
X155450000Y-96475000D01*
%TO.N,I2C_SCL*%
X143300000Y-96475000D02*
X142400000Y-96475000D01*
%TO.N,I2C_SDA*%
X143300000Y-95875000D02*
X142400000Y-95875000D01*
D37*
%TO.N,3.3V*%
X139250000Y-96075000D02*
X140100000Y-95225000D01*
X139250000Y-97690000D02*
X139250000Y-96075000D01*
X139515000Y-97955000D02*
X139250000Y-97690000D01*
D39*
%TO.N,DFU_~{RST}*%
X138850000Y-95525000D02*
X139650000Y-94725000D01*
X138850000Y-98560000D02*
X138850000Y-95525000D01*
X139515000Y-99225000D02*
X138850000Y-98560000D01*
D42*
%TO.N,/RAK3172/PA14{slash}SWCLK*%
X141600000Y-99225000D02*
X140785000Y-99225000D01*
X141850000Y-98975000D02*
X141600000Y-99225000D01*
X144350000Y-98975000D02*
X141850000Y-98975000D01*
X145050000Y-97625000D02*
X145050000Y-98275000D01*
%TO.N,/RAK3172/PA13{slash}SWDIO*%
X141850000Y-98675000D02*
X141130000Y-97955000D01*
X144150000Y-98675000D02*
X141850000Y-98675000D01*
X144450000Y-98375000D02*
X144150000Y-98675000D01*
%TO.N,/RAK3172/PA14{slash}SWCLK*%
X145050000Y-98275000D02*
X144350000Y-98975000D01*
%TO.N,/RAK3172/PA13{slash}SWDIO*%
X144450000Y-97625000D02*
X144450000Y-98375000D01*
X141130000Y-97955000D02*
X140785000Y-97955000D01*
D39*
%TO.N,/RAK3172/PB1*%
X141050000Y-92775000D02*
X140850000Y-92775000D01*
X141550000Y-92275000D02*
X141050000Y-92775000D01*
X143300000Y-92275000D02*
X141550000Y-92275000D01*
%TO.N,Net-(D201-A)*%
X152200000Y-82262500D02*
X152162500Y-82225000D01*
X152200000Y-83225000D02*
X152200000Y-82262500D01*
%TO.N,Net-(SW201-B)*%
X158900000Y-84025000D02*
X158900000Y-82975000D01*
X158450000Y-84475000D02*
X158900000Y-84025000D01*
%TO.N,/RAK3172/BOOT0*%
X147450000Y-87325000D02*
X147550000Y-87425000D01*
X147450000Y-86325000D02*
X147450000Y-87325000D01*
%TO.N,DFU_~{RST}*%
X146850000Y-87175000D02*
X146600000Y-87425000D01*
X146850000Y-86325000D02*
X146850000Y-87175000D01*
D37*
%TO.N,/RAK3172/VDDRF*%
X143300000Y-90475000D02*
X142550000Y-90475000D01*
%TO.N,/RAK3172/VDDPA*%
X143300000Y-89875000D02*
X142550000Y-89875000D01*
%TO.N,3.3V*%
X143300000Y-91075000D02*
X142526500Y-91075000D01*
X148050000Y-98375000D02*
X148050000Y-97625000D01*
X147450000Y-98375000D02*
X147450000Y-97625000D01*
X145650000Y-98375000D02*
X145650000Y-97625000D01*
D40*
%TO.N,/RAK3172/RF_OUT_CONN*%
X143700000Y-83725000D02*
X142000000Y-83725000D01*
%TO.N,/RAK3172/RF_OUT*%
X145920000Y-83725000D02*
X147200000Y-83725000D01*
%TO.N,/RAK3172/RF_OUT_CONN*%
X144950000Y-83725000D02*
X143700000Y-83725000D01*
%TO.N,/RAK3172/RF_OUT*%
X149176986Y-83725000D02*
X147200000Y-83725000D01*
X151050000Y-85598014D02*
G75*
G03*
X149176986Y-83725000I-1873000J14D01*
G01*
X151050000Y-86325000D02*
X151050000Y-85598014D01*
D37*
%TO.N,/RAK3172/VDDSMPS*%
X150450000Y-98575000D02*
X150650000Y-98775000D01*
X150450000Y-97625000D02*
X150450000Y-98575000D01*
%TO.N,/RAK3172/VFBSMPS*%
X149125000Y-99100000D02*
X149125000Y-99875000D01*
X149850000Y-98375000D02*
X149125000Y-99100000D01*
X149850000Y-97625000D02*
X149850000Y-98375000D01*
%TO.N,/RAK3172/VLXSMPS*%
X151650000Y-98375000D02*
X152275000Y-99000000D01*
X152275000Y-99000000D02*
X152275000Y-99875000D01*
X151650000Y-97625000D02*
X151650000Y-98375000D01*
D39*
%TO.N,/M.2 E-Key Connector/EEPROM_WP*%
X153150000Y-102375000D02*
X153050000Y-102475000D01*
X153487500Y-102037500D02*
X153150000Y-102375000D01*
X153050000Y-102475000D02*
X153050000Y-105175000D01*
X153800000Y-102037500D02*
X153487500Y-102037500D01*
D37*
%TO.N,GND*%
X154750000Y-103575000D02*
X154750000Y-104312500D01*
D39*
%TO.N,I2C_SDA*%
X155700000Y-105175000D02*
X155700000Y-104312500D01*
%TO.N,I2C_SCL*%
X153750000Y-105375000D02*
X153750000Y-105175000D01*
X153750000Y-105175000D02*
X153750000Y-104362500D01*
X153750000Y-104362500D02*
X153800000Y-104312500D01*
X153200000Y-109700000D02*
X153200000Y-105925000D01*
X153200000Y-105925000D02*
X153750000Y-105375000D01*
D36*
%TO.N,+5V*%
X145700000Y-105725000D02*
X144550000Y-105725000D01*
D39*
X144550000Y-104475000D02*
X144550000Y-105725000D01*
D36*
X144550000Y-105725000D02*
X143600000Y-105725000D01*
D39*
%TO.N,/Power Supply/3.3VPG*%
X146800000Y-104225000D02*
X146750000Y-104175000D01*
X147425000Y-104225000D02*
X146800000Y-104225000D01*
%TO.N,PWR_EN*%
X150090000Y-104225000D02*
X150190000Y-104125000D01*
X149450000Y-104225000D02*
X150090000Y-104225000D01*
D37*
%TO.N,GND*%
X149687652Y-103725000D02*
X149960746Y-103451906D01*
X149450000Y-103725000D02*
X149687652Y-103725000D01*
%TO.N,Net-(U401-LX)*%
X150375000Y-105050000D02*
X151450000Y-105050000D01*
X150050000Y-104725000D02*
X150375000Y-105050000D01*
X149450000Y-104725000D02*
X150050000Y-104725000D01*
%TO.N,+5V*%
X146700000Y-104725000D02*
X145700000Y-105725000D01*
X147425000Y-104725000D02*
X146700000Y-104725000D01*
D36*
X143600000Y-105725000D02*
X143450000Y-105875000D01*
D41*
%TO.N,GND*%
X139700000Y-109700000D02*
X139700000Y-106775000D01*
X150200000Y-109700000D02*
X150200000Y-106775000D01*
X148700000Y-109700000D02*
X148700000Y-106775000D01*
X147200000Y-109700000D02*
X147200000Y-106775000D01*
%TD*%
%TA.AperFunction,Conductor*%
%TO.N,GND*%
G36*
X159586500Y-105106960D02*
G01*
X159632619Y-105153079D01*
X159649500Y-105216079D01*
X159649500Y-106548500D01*
X159632619Y-106611500D01*
X159586500Y-106657619D01*
X159523500Y-106674500D01*
X159422595Y-106674500D01*
X159375000Y-106674500D01*
X159296158Y-106674500D01*
X159290100Y-106675705D01*
X159290090Y-106675706D01*
X159147567Y-106704056D01*
X159147559Y-106704058D01*
X159141503Y-106705263D01*
X159135796Y-106707626D01*
X159135789Y-106707629D01*
X159001542Y-106763235D01*
X159001531Y-106763240D01*
X158995821Y-106765606D01*
X158990675Y-106769043D01*
X158990670Y-106769047D01*
X158869857Y-106849772D01*
X158869853Y-106849774D01*
X158864711Y-106853211D01*
X158860337Y-106857584D01*
X158860332Y-106857589D01*
X158779827Y-106938095D01*
X158738950Y-106965409D01*
X158690732Y-106975000D01*
X158144000Y-106975000D01*
X158081000Y-106958119D01*
X158034881Y-106912000D01*
X158018000Y-106849000D01*
X158018000Y-106608910D01*
X158027591Y-106560692D01*
X158054902Y-106519817D01*
X159361164Y-105213554D01*
X159369249Y-105206147D01*
X159372794Y-105203173D01*
X159397360Y-105182560D01*
X159414380Y-105153079D01*
X159460499Y-105106960D01*
X159523499Y-105090079D01*
X159586500Y-105106960D01*
G37*
%TD.AperFunction*%
%TA.AperFunction,Conductor*%
G36*
X156319000Y-106592271D02*
G01*
X156365119Y-106638390D01*
X156382000Y-106701390D01*
X156382000Y-106849000D01*
X156365119Y-106912000D01*
X156319000Y-106958119D01*
X156256000Y-106975000D01*
X155702466Y-106975000D01*
X155645263Y-106961267D01*
X155600530Y-106923061D01*
X155578017Y-106868711D01*
X155582633Y-106810064D01*
X155613371Y-106759905D01*
X155760981Y-106612295D01*
X155801858Y-106584981D01*
X155850076Y-106575390D01*
X156256000Y-106575390D01*
X156319000Y-106592271D01*
G37*
%TD.AperFunction*%
%TA.AperFunction,Conductor*%
G36*
X148475011Y-102794328D02*
G01*
X148524318Y-102824501D01*
X148554963Y-102873517D01*
X148555527Y-102875179D01*
X148556595Y-102879164D01*
X148558173Y-102882975D01*
X148558175Y-102882979D01*
X148571730Y-102915703D01*
X148582520Y-102941750D01*
X148623759Y-102995494D01*
X148669878Y-103041613D01*
X148723622Y-103082852D01*
X148786208Y-103108777D01*
X148790179Y-103109841D01*
X148790182Y-103109842D01*
X148820725Y-103118026D01*
X148849208Y-103125658D01*
X148916372Y-103134500D01*
X148920494Y-103134500D01*
X148965046Y-103134500D01*
X149029941Y-103152497D01*
X149076297Y-103201347D01*
X149090873Y-103267095D01*
X149069505Y-103330959D01*
X149018296Y-103374695D01*
X148975647Y-103394582D01*
X148970459Y-103398215D01*
X148936079Y-103415169D01*
X148898192Y-103421000D01*
X148581090Y-103421000D01*
X148568006Y-103424506D01*
X148564500Y-103437590D01*
X148564500Y-105512409D01*
X148568006Y-105525492D01*
X148581090Y-105528999D01*
X148897307Y-105528999D01*
X148935196Y-105534831D01*
X148962479Y-105548285D01*
X148965371Y-105551177D01*
X149066689Y-105598422D01*
X149112856Y-105604500D01*
X149783022Y-105604500D01*
X149787144Y-105604500D01*
X149833311Y-105598422D01*
X149934629Y-105551177D01*
X150013677Y-105472129D01*
X150024056Y-105449869D01*
X150066607Y-105399469D01*
X150128799Y-105377473D01*
X150189630Y-105389158D01*
X150190915Y-105390158D01*
X150198555Y-105392781D01*
X150205130Y-105397475D01*
X150208069Y-105398350D01*
X150239843Y-105423814D01*
X150262822Y-105462465D01*
X150297648Y-105555835D01*
X150302658Y-105569267D01*
X150308058Y-105576481D01*
X150308060Y-105576484D01*
X150384197Y-105678192D01*
X150389596Y-105685404D01*
X150396807Y-105690802D01*
X150467488Y-105743713D01*
X150505733Y-105772342D01*
X150549145Y-105788534D01*
X150634271Y-105820285D01*
X150634272Y-105820285D01*
X150641658Y-105823040D01*
X150701745Y-105829500D01*
X152198254Y-105829499D01*
X152258342Y-105823040D01*
X152394267Y-105772342D01*
X152510404Y-105685404D01*
X152585261Y-105585404D01*
X152633786Y-105546301D01*
X152695117Y-105535235D01*
X152754249Y-105554916D01*
X152836076Y-105607503D01*
X152848760Y-105615654D01*
X152852454Y-105616738D01*
X152900766Y-105656735D01*
X152923428Y-105718239D01*
X152912387Y-105781335D01*
X152907348Y-105788534D01*
X152904496Y-105799172D01*
X152903157Y-105802045D01*
X152902073Y-105805023D01*
X152896568Y-105814560D01*
X152894655Y-105825404D01*
X152894652Y-105825415D01*
X152890195Y-105850693D01*
X152887818Y-105861418D01*
X152881176Y-105886207D01*
X152881175Y-105886210D01*
X152878323Y-105896857D01*
X152879283Y-105907834D01*
X152879283Y-105907839D01*
X152881521Y-105933410D01*
X152882000Y-105944392D01*
X152882000Y-106849000D01*
X152865119Y-106912000D01*
X152819000Y-106958119D01*
X152756000Y-106975000D01*
X147032409Y-106975000D01*
X146970449Y-106958713D01*
X146924507Y-106914063D01*
X146906460Y-106852593D01*
X146920974Y-106790194D01*
X146954444Y-106753728D01*
X146952844Y-106751881D01*
X146959648Y-106745984D01*
X146967235Y-106741109D01*
X147057529Y-106636903D01*
X147114808Y-106511480D01*
X147134431Y-106375000D01*
X147114808Y-106238520D01*
X147057529Y-106113097D01*
X146967235Y-106008891D01*
X146959651Y-106004017D01*
X146959650Y-106004016D01*
X146858824Y-105939219D01*
X146858819Y-105939216D01*
X146851240Y-105934346D01*
X146836251Y-105929945D01*
X146727586Y-105898038D01*
X146727585Y-105898037D01*
X146718942Y-105895500D01*
X146581058Y-105895500D01*
X146573013Y-105897862D01*
X146520003Y-105894071D01*
X146472988Y-105868400D01*
X146440887Y-105825518D01*
X146429500Y-105773175D01*
X146429500Y-105587213D01*
X146439091Y-105538995D01*
X146466405Y-105498118D01*
X146617133Y-105347390D01*
X146668339Y-105316317D01*
X146728108Y-105312399D01*
X146782932Y-105336523D01*
X146820423Y-105383236D01*
X146857078Y-105461845D01*
X146869535Y-105479635D01*
X146932864Y-105542964D01*
X146950655Y-105555421D01*
X147033083Y-105593858D01*
X147051376Y-105599190D01*
X147083823Y-105603462D01*
X147092032Y-105604000D01*
X147757968Y-105604000D01*
X147766176Y-105603462D01*
X147798623Y-105599190D01*
X147816916Y-105593858D01*
X147899345Y-105555421D01*
X147904536Y-105551787D01*
X147938918Y-105534832D01*
X147976807Y-105529000D01*
X148293910Y-105529000D01*
X148306993Y-105525493D01*
X148310500Y-105512410D01*
X148310500Y-103437591D01*
X148306993Y-103424507D01*
X148293910Y-103421001D01*
X147977693Y-103421001D01*
X147939804Y-103415169D01*
X147912520Y-103401714D01*
X147909629Y-103398823D01*
X147893178Y-103391152D01*
X147817048Y-103355652D01*
X147817047Y-103355651D01*
X147808311Y-103351578D01*
X147800171Y-103350506D01*
X147749432Y-103321335D01*
X147717215Y-103271369D01*
X147711495Y-103212193D01*
X147733545Y-103156981D01*
X147778456Y-103118026D01*
X147836230Y-103104000D01*
X147942453Y-103104000D01*
X147949168Y-103103639D01*
X147995029Y-103098709D01*
X148010250Y-103095112D01*
X148123476Y-103052881D01*
X148139134Y-103044331D01*
X148234979Y-102972582D01*
X148247582Y-102959979D01*
X148319331Y-102864135D01*
X148325062Y-102853640D01*
X148363665Y-102810611D01*
X148417419Y-102789349D01*
X148475011Y-102794328D01*
G37*
%TD.AperFunction*%
%TA.AperFunction,Conductor*%
G36*
X142430326Y-105039603D02*
G01*
X142481058Y-105054500D01*
X142609933Y-105054500D01*
X142618942Y-105054500D01*
X142669673Y-105039603D01*
X142705171Y-105034500D01*
X142718513Y-105034500D01*
X142778898Y-105049912D01*
X142824511Y-105092379D01*
X142844192Y-105151511D01*
X142833127Y-105212842D01*
X142794022Y-105261368D01*
X142739667Y-105302057D01*
X142739663Y-105302060D01*
X142732456Y-105307456D01*
X142727060Y-105314663D01*
X142727057Y-105314667D01*
X142667904Y-105393686D01*
X142649825Y-105417837D01*
X142646677Y-105426277D01*
X142646676Y-105426279D01*
X142604636Y-105538995D01*
X142601640Y-105547027D01*
X142600797Y-105554858D01*
X142600797Y-105554863D01*
X142595859Y-105600787D01*
X142595857Y-105600806D01*
X142595500Y-105604136D01*
X142595500Y-106145864D01*
X142595858Y-106149194D01*
X142595859Y-106149212D01*
X142600797Y-106195136D01*
X142601640Y-106202973D01*
X142649825Y-106332163D01*
X142704610Y-106405347D01*
X142716032Y-106420605D01*
X142732456Y-106442544D01*
X142842837Y-106525175D01*
X142972027Y-106573360D01*
X143020403Y-106578561D01*
X143025787Y-106579140D01*
X143025788Y-106579140D01*
X143029136Y-106579500D01*
X143867497Y-106579500D01*
X143870864Y-106579500D01*
X143927973Y-106573360D01*
X144057163Y-106525175D01*
X144167544Y-106442544D01*
X144250175Y-106332163D01*
X144254575Y-106320365D01*
X144256403Y-106315467D01*
X144283268Y-106272550D01*
X144324858Y-106243673D01*
X144374458Y-106233500D01*
X144513632Y-106233500D01*
X144586368Y-106233500D01*
X145000185Y-106233500D01*
X145056583Y-106246827D01*
X145095386Y-106279254D01*
X145095683Y-106278958D01*
X145098999Y-106282274D01*
X145101051Y-106283989D01*
X145102054Y-106285329D01*
X145102057Y-106285332D01*
X145107456Y-106292544D01*
X145217837Y-106375175D01*
X145347027Y-106423360D01*
X145395403Y-106428561D01*
X145400787Y-106429140D01*
X145400788Y-106429140D01*
X145404136Y-106429500D01*
X145407503Y-106429500D01*
X145842908Y-106429500D01*
X145905909Y-106446381D01*
X145952028Y-106492501D01*
X145968908Y-106555502D01*
X145952026Y-106618503D01*
X145934290Y-106649221D01*
X145928396Y-106658471D01*
X145907348Y-106688534D01*
X145904497Y-106699170D01*
X145903159Y-106702040D01*
X145902073Y-106705022D01*
X145896568Y-106714560D01*
X145894655Y-106725404D01*
X145894652Y-106725415D01*
X145890195Y-106750693D01*
X145887818Y-106761418D01*
X145881176Y-106786207D01*
X145881175Y-106786210D01*
X145878323Y-106796857D01*
X145879283Y-106807834D01*
X145879283Y-106807839D01*
X145881521Y-106833410D01*
X145882000Y-106844392D01*
X145882000Y-106849000D01*
X145865119Y-106912000D01*
X145819000Y-106958119D01*
X145756000Y-106975000D01*
X141890522Y-106975000D01*
X141830136Y-106959587D01*
X141784524Y-106917120D01*
X141764843Y-106857988D01*
X141775909Y-106796657D01*
X141811063Y-106719680D01*
X141814808Y-106711480D01*
X141834431Y-106575000D01*
X141814808Y-106438520D01*
X141757529Y-106313097D01*
X141667235Y-106208891D01*
X141612489Y-106173708D01*
X141572711Y-106132777D01*
X141555073Y-106078493D01*
X141563196Y-106021997D01*
X141595413Y-105974881D01*
X141645111Y-105946816D01*
X141751240Y-105915654D01*
X141867235Y-105841109D01*
X141957529Y-105736903D01*
X142014808Y-105611480D01*
X142034431Y-105475000D01*
X142014808Y-105338520D01*
X141957529Y-105213097D01*
X141957529Y-105213096D01*
X141960676Y-105211659D01*
X141946060Y-105165029D01*
X141961381Y-105100133D01*
X142007676Y-105052144D01*
X142071979Y-105034500D01*
X142394829Y-105034500D01*
X142430326Y-105039603D01*
G37*
%TD.AperFunction*%
%TA.AperFunction,Conductor*%
G36*
X138415436Y-105409577D02*
G01*
X138465595Y-105440315D01*
X138561424Y-105536144D01*
X138568850Y-105544247D01*
X138585354Y-105563916D01*
X138585355Y-105563917D01*
X138592440Y-105572360D01*
X138618166Y-105587213D01*
X138624214Y-105590705D01*
X138633482Y-105596610D01*
X138649039Y-105607503D01*
X138663534Y-105617652D01*
X138674179Y-105620504D01*
X138677035Y-105621836D01*
X138680011Y-105622919D01*
X138689560Y-105628432D01*
X138725689Y-105634802D01*
X138736401Y-105637175D01*
X138771857Y-105646677D01*
X138808410Y-105643478D01*
X138819392Y-105643000D01*
X141018611Y-105643000D01*
X141086731Y-105663001D01*
X141133224Y-105716656D01*
X141138726Y-105728704D01*
X141138727Y-105728705D01*
X141142471Y-105736903D01*
X141232765Y-105841109D01*
X141240348Y-105845982D01*
X141240349Y-105845983D01*
X141287508Y-105876290D01*
X141334001Y-105929945D01*
X141344106Y-106000219D01*
X141314613Y-106064800D01*
X141254887Y-106103184D01*
X141157408Y-106131806D01*
X141157403Y-106131808D01*
X141148760Y-106134346D01*
X141141183Y-106139215D01*
X141141175Y-106139219D01*
X141040349Y-106204016D01*
X141040346Y-106204019D01*
X141032765Y-106208891D01*
X141026863Y-106215701D01*
X141026862Y-106215703D01*
X140948372Y-106306286D01*
X140948369Y-106306289D01*
X140942471Y-106313097D01*
X140938728Y-106321291D01*
X140938727Y-106321294D01*
X140888935Y-106430322D01*
X140888933Y-106430327D01*
X140885192Y-106438520D01*
X140883910Y-106447435D01*
X140883908Y-106447443D01*
X140865708Y-106574029D01*
X140853663Y-106612497D01*
X140830087Y-106645192D01*
X140537181Y-106938097D01*
X140496307Y-106965409D01*
X140448089Y-106975000D01*
X139209268Y-106975000D01*
X139161050Y-106965409D01*
X139120173Y-106938095D01*
X139039667Y-106857589D01*
X139035289Y-106853211D01*
X138904179Y-106765606D01*
X138898464Y-106763238D01*
X138898457Y-106763235D01*
X138764210Y-106707629D01*
X138764206Y-106707627D01*
X138758497Y-106705263D01*
X138752437Y-106704057D01*
X138752432Y-106704056D01*
X138609909Y-106675706D01*
X138609900Y-106675705D01*
X138603842Y-106674500D01*
X138597655Y-106674500D01*
X138376500Y-106674500D01*
X138313500Y-106657619D01*
X138267381Y-106611500D01*
X138250500Y-106548500D01*
X138250500Y-105529410D01*
X138264233Y-105472207D01*
X138302439Y-105427474D01*
X138356789Y-105404961D01*
X138415436Y-105409577D01*
G37*
%TD.AperFunction*%
%TA.AperFunction,Conductor*%
G36*
X143998765Y-104183787D02*
G01*
X144055355Y-104217361D01*
X144087303Y-104274885D01*
X144085979Y-104336794D01*
X144085192Y-104338520D01*
X144083909Y-104347438D01*
X144083909Y-104347441D01*
X144075030Y-104409197D01*
X144065569Y-104475000D01*
X144085192Y-104611480D01*
X144088934Y-104619674D01*
X144088935Y-104619677D01*
X144130599Y-104710907D01*
X144142471Y-104736903D01*
X144162939Y-104760525D01*
X144201225Y-104804709D01*
X144224056Y-104843189D01*
X144232000Y-104887221D01*
X144232000Y-105090500D01*
X144215119Y-105153500D01*
X144169000Y-105199619D01*
X144106000Y-105216500D01*
X144057576Y-105216500D01*
X144013544Y-105208556D01*
X143999111Y-105203173D01*
X143927973Y-105176640D01*
X143920139Y-105175797D01*
X143920136Y-105175797D01*
X143874212Y-105170859D01*
X143874194Y-105170858D01*
X143870864Y-105170500D01*
X143219247Y-105170500D01*
X143159851Y-105155622D01*
X143114482Y-105114502D01*
X143093854Y-105056851D01*
X143102838Y-104996283D01*
X143139312Y-104947102D01*
X143170399Y-104921589D01*
X143875907Y-104216080D01*
X143932966Y-104183318D01*
X143998765Y-104183787D01*
G37*
%TD.AperFunction*%
%TA.AperFunction,Conductor*%
G36*
X157576458Y-99541672D02*
G01*
X157617251Y-99586978D01*
X157632000Y-99646131D01*
X157632000Y-104391089D01*
X157622409Y-104439307D01*
X157595095Y-104480185D01*
X157014111Y-105061167D01*
X156953992Y-105094694D01*
X156885225Y-105091623D01*
X156828334Y-105052870D01*
X156800299Y-104990005D01*
X156793187Y-104940536D01*
X156735908Y-104815113D01*
X156645614Y-104710907D01*
X156638030Y-104706033D01*
X156638029Y-104706032D01*
X156537203Y-104641235D01*
X156537198Y-104641232D01*
X156529619Y-104636362D01*
X156516517Y-104632515D01*
X156405965Y-104600054D01*
X156405964Y-104600053D01*
X156397321Y-104597516D01*
X156380500Y-104597516D01*
X156317500Y-104580635D01*
X156271381Y-104534516D01*
X156254500Y-104471516D01*
X156254500Y-103773120D01*
X156254500Y-103768166D01*
X156239498Y-103673445D01*
X156226552Y-103648038D01*
X156185826Y-103568109D01*
X156181326Y-103559277D01*
X156090723Y-103468674D01*
X156081891Y-103464174D01*
X156081890Y-103464173D01*
X155985388Y-103415002D01*
X155985384Y-103415000D01*
X155976555Y-103410502D01*
X155954665Y-103407035D01*
X155886726Y-103396274D01*
X155886715Y-103396273D01*
X155881834Y-103395500D01*
X155518166Y-103395500D01*
X155513285Y-103396273D01*
X155513273Y-103396274D01*
X155433237Y-103408951D01*
X155433236Y-103408951D01*
X155423445Y-103410502D01*
X155414617Y-103414999D01*
X155414611Y-103415002D01*
X155318108Y-103464174D01*
X155318106Y-103464175D01*
X155309277Y-103468674D01*
X155302271Y-103475679D01*
X155298626Y-103478328D01*
X155250761Y-103499637D01*
X155198368Y-103499636D01*
X155150505Y-103478324D01*
X155131592Y-103464582D01*
X155035232Y-103415484D01*
X155016607Y-103409433D01*
X154936685Y-103396774D01*
X154926842Y-103396000D01*
X154893590Y-103396000D01*
X154880506Y-103399506D01*
X154877000Y-103412590D01*
X154877000Y-104313500D01*
X154860119Y-104376500D01*
X154814000Y-104422619D01*
X154751000Y-104439500D01*
X154749000Y-104439500D01*
X154686000Y-104422619D01*
X154639881Y-104376500D01*
X154623000Y-104313500D01*
X154623000Y-103412591D01*
X154619493Y-103399507D01*
X154606410Y-103396001D01*
X154573160Y-103396001D01*
X154563313Y-103396775D01*
X154483393Y-103409433D01*
X154464767Y-103415484D01*
X154368406Y-103464583D01*
X154349487Y-103478328D01*
X154301623Y-103499637D01*
X154249229Y-103499636D01*
X154201366Y-103478325D01*
X154197738Y-103475689D01*
X154190723Y-103468674D01*
X154129718Y-103437590D01*
X154085388Y-103415002D01*
X154085384Y-103415000D01*
X154076555Y-103410502D01*
X154054665Y-103407035D01*
X153986726Y-103396274D01*
X153986715Y-103396273D01*
X153981834Y-103395500D01*
X153618166Y-103395500D01*
X153613285Y-103396273D01*
X153613273Y-103396274D01*
X153533235Y-103408951D01*
X153533232Y-103408951D01*
X153532313Y-103409097D01*
X153532306Y-103409098D01*
X153523445Y-103410502D01*
X153523334Y-103409804D01*
X153474288Y-103413665D01*
X153419939Y-103391152D01*
X153381733Y-103346419D01*
X153368000Y-103289216D01*
X153368000Y-103060784D01*
X153381733Y-103003581D01*
X153419939Y-102958848D01*
X153474288Y-102936335D01*
X153523334Y-102940195D01*
X153523445Y-102939498D01*
X153618166Y-102954500D01*
X153976880Y-102954500D01*
X153981834Y-102954500D01*
X154076555Y-102939498D01*
X154190723Y-102881326D01*
X154281326Y-102790723D01*
X154339498Y-102676555D01*
X154354500Y-102581834D01*
X154354500Y-101725000D01*
X154748147Y-101725000D01*
X154749430Y-101733923D01*
X154761213Y-101815879D01*
X154767770Y-101861480D01*
X154771512Y-101869674D01*
X154771513Y-101869677D01*
X154813489Y-101961590D01*
X154825049Y-101986903D01*
X154915343Y-102091109D01*
X154922926Y-102095982D01*
X154922927Y-102095983D01*
X155023753Y-102160780D01*
X155023755Y-102160781D01*
X155031338Y-102165654D01*
X155048084Y-102170571D01*
X155054997Y-102172601D01*
X155102012Y-102198272D01*
X155134113Y-102241154D01*
X155145500Y-102293497D01*
X155145500Y-102581834D01*
X155146273Y-102586715D01*
X155146274Y-102586726D01*
X155158441Y-102663539D01*
X155160502Y-102676555D01*
X155165000Y-102685384D01*
X155165002Y-102685388D01*
X155214173Y-102781890D01*
X155218674Y-102790723D01*
X155309277Y-102881326D01*
X155423445Y-102939498D01*
X155518166Y-102954500D01*
X155876880Y-102954500D01*
X155881834Y-102954500D01*
X155976555Y-102939498D01*
X156090723Y-102881326D01*
X156181326Y-102790723D01*
X156239498Y-102676555D01*
X156254500Y-102581834D01*
X156254500Y-101493166D01*
X156239498Y-101398445D01*
X156181326Y-101284277D01*
X156090723Y-101193674D01*
X156081891Y-101189174D01*
X156081890Y-101189173D01*
X155985388Y-101140002D01*
X155985384Y-101140000D01*
X155976555Y-101135502D01*
X155964387Y-101133574D01*
X155886726Y-101121274D01*
X155886715Y-101121273D01*
X155881834Y-101120500D01*
X155518166Y-101120500D01*
X155513285Y-101121273D01*
X155513273Y-101121274D01*
X155433237Y-101133951D01*
X155433236Y-101133951D01*
X155423445Y-101135502D01*
X155414617Y-101139999D01*
X155414611Y-101140002D01*
X155318109Y-101189173D01*
X155318105Y-101189175D01*
X155309277Y-101193674D01*
X155302268Y-101200682D01*
X155302265Y-101200685D01*
X155294356Y-101208595D01*
X155253479Y-101235909D01*
X155205261Y-101245500D01*
X155163636Y-101245500D01*
X155154993Y-101248037D01*
X155154991Y-101248038D01*
X155039987Y-101281806D01*
X155039984Y-101281807D01*
X155031338Y-101284346D01*
X155023761Y-101289215D01*
X155023753Y-101289219D01*
X154922927Y-101354016D01*
X154922922Y-101354020D01*
X154915343Y-101358891D01*
X154909441Y-101365701D01*
X154909440Y-101365703D01*
X154830950Y-101456286D01*
X154830947Y-101456289D01*
X154825049Y-101463097D01*
X154821306Y-101471291D01*
X154821305Y-101471294D01*
X154771513Y-101580322D01*
X154771511Y-101580327D01*
X154767770Y-101588520D01*
X154766487Y-101597440D01*
X154766487Y-101597442D01*
X154759454Y-101646360D01*
X154748147Y-101725000D01*
X154354500Y-101725000D01*
X154354500Y-101493166D01*
X154339498Y-101398445D01*
X154281326Y-101284277D01*
X154190723Y-101193674D01*
X154181891Y-101189174D01*
X154181890Y-101189173D01*
X154112502Y-101153818D01*
X154067347Y-101115028D01*
X154045039Y-101059838D01*
X154050557Y-101000566D01*
X154082670Y-100950442D01*
X154134206Y-100920655D01*
X154151240Y-100915654D01*
X154267235Y-100841109D01*
X154273138Y-100834296D01*
X154279949Y-100828395D01*
X154280775Y-100829349D01*
X154314121Y-100804387D01*
X154366464Y-100793000D01*
X156030608Y-100793000D01*
X156041589Y-100793478D01*
X156078143Y-100796677D01*
X156113589Y-100787178D01*
X156124289Y-100784805D01*
X156160440Y-100778432D01*
X156169996Y-100772914D01*
X156172953Y-100771838D01*
X156175804Y-100770508D01*
X156186466Y-100767652D01*
X156216521Y-100746606D01*
X156225792Y-100740701D01*
X156248011Y-100727873D01*
X156248010Y-100727873D01*
X156257560Y-100722360D01*
X156281150Y-100694244D01*
X156288565Y-100686153D01*
X157361153Y-99613565D01*
X157369249Y-99606147D01*
X157388914Y-99589647D01*
X157388914Y-99589646D01*
X157397360Y-99582560D01*
X157402872Y-99573012D01*
X157409478Y-99565140D01*
X157458800Y-99529306D01*
X157519171Y-99520821D01*
X157576458Y-99541672D01*
G37*
%TD.AperFunction*%
%TA.AperFunction,Conductor*%
G36*
X146951374Y-98555523D02*
G01*
X147002596Y-98580707D01*
X147033792Y-98621164D01*
X147033855Y-98621124D01*
X147034325Y-98621856D01*
X147037449Y-98625907D01*
X147042471Y-98636903D01*
X147132765Y-98741109D01*
X147140348Y-98745982D01*
X147140349Y-98745983D01*
X147241175Y-98810780D01*
X147241177Y-98810781D01*
X147248760Y-98815654D01*
X147381058Y-98854500D01*
X147509933Y-98854500D01*
X147518942Y-98854500D01*
X147651240Y-98815654D01*
X147681878Y-98795963D01*
X147726154Y-98778238D01*
X147773846Y-98778238D01*
X147818121Y-98795963D01*
X147848760Y-98815654D01*
X147981058Y-98854500D01*
X148109933Y-98854500D01*
X148118942Y-98854500D01*
X148227965Y-98822487D01*
X148296794Y-98821873D01*
X148355678Y-98857525D01*
X148387039Y-98918802D01*
X148381516Y-98987416D01*
X148357379Y-99052130D01*
X148351960Y-99066658D01*
X148351118Y-99074489D01*
X148351117Y-99074494D01*
X148345860Y-99123392D01*
X148345500Y-99126745D01*
X148345500Y-99130112D01*
X148345500Y-99218404D01*
X148331767Y-99275607D01*
X148293561Y-99320340D01*
X148239211Y-99342853D01*
X148180564Y-99338237D01*
X148130405Y-99307499D01*
X148111782Y-99288876D01*
X148104771Y-99281865D01*
X148095939Y-99277365D01*
X148095938Y-99277364D01*
X148002260Y-99229632D01*
X148002256Y-99229630D01*
X147993427Y-99225132D01*
X147983635Y-99223581D01*
X147905935Y-99211274D01*
X147905928Y-99211273D01*
X147901045Y-99210500D01*
X147896092Y-99210500D01*
X147563910Y-99210500D01*
X147563897Y-99210500D01*
X147558956Y-99210501D01*
X147554075Y-99211273D01*
X147554062Y-99211275D01*
X147476370Y-99223580D01*
X147476367Y-99223580D01*
X147466573Y-99225132D01*
X147457736Y-99229634D01*
X147457735Y-99229635D01*
X147364061Y-99277364D01*
X147364057Y-99277366D01*
X147355229Y-99281865D01*
X147348220Y-99288873D01*
X147348217Y-99288876D01*
X147338742Y-99298352D01*
X147282258Y-99330964D01*
X147217036Y-99330964D01*
X147160552Y-99298352D01*
X147151485Y-99289285D01*
X147135641Y-99277773D01*
X147042103Y-99230113D01*
X147023478Y-99224062D01*
X146945897Y-99211774D01*
X146936054Y-99211000D01*
X146913590Y-99211000D01*
X146900506Y-99214506D01*
X146897000Y-99227590D01*
X146897000Y-101322409D01*
X146900506Y-101335492D01*
X146913590Y-101338999D01*
X146936051Y-101338999D01*
X146945899Y-101338224D01*
X147023472Y-101325938D01*
X147042107Y-101319883D01*
X147135641Y-101272226D01*
X147151485Y-101260714D01*
X147160552Y-101251648D01*
X147217036Y-101219036D01*
X147282258Y-101219036D01*
X147338742Y-101251648D01*
X147355229Y-101268135D01*
X147364061Y-101272635D01*
X147427819Y-101305122D01*
X147466573Y-101324868D01*
X147558955Y-101339500D01*
X147901044Y-101339499D01*
X147993427Y-101324868D01*
X148104771Y-101268135D01*
X148180589Y-101192316D01*
X148216697Y-101167097D01*
X148256613Y-101156551D01*
X148256605Y-101156501D01*
X148256611Y-101156500D01*
X148277483Y-101153016D01*
X148282512Y-101152283D01*
X148335360Y-101145696D01*
X148342618Y-101142147D01*
X148350586Y-101140818D01*
X148397362Y-101115503D01*
X148401943Y-101113144D01*
X148449746Y-101089776D01*
X148455456Y-101084065D01*
X148462562Y-101080220D01*
X148481447Y-101059703D01*
X148521374Y-101030625D01*
X148569414Y-101019129D01*
X148618180Y-101026984D01*
X148741658Y-101073040D01*
X148801745Y-101079500D01*
X149448254Y-101079499D01*
X149508342Y-101073040D01*
X149644267Y-101022342D01*
X149760404Y-100935404D01*
X149847342Y-100819267D01*
X149898040Y-100683342D01*
X149904500Y-100623255D01*
X149904499Y-99126746D01*
X149898040Y-99066658D01*
X149895281Y-99059261D01*
X149893596Y-99052130D01*
X149894610Y-98990180D01*
X149925028Y-98936203D01*
X149977496Y-98903250D01*
X150039327Y-98899289D01*
X150095571Y-98925278D01*
X150132628Y-98974933D01*
X150162484Y-99047013D01*
X150165645Y-99054643D01*
X150170671Y-99061194D01*
X150170673Y-99061196D01*
X150176459Y-99068736D01*
X150254526Y-99170474D01*
X150261076Y-99175500D01*
X150357873Y-99249776D01*
X150370357Y-99259355D01*
X150505246Y-99315228D01*
X150650000Y-99334285D01*
X150794754Y-99315228D01*
X150929643Y-99259355D01*
X151045474Y-99170474D01*
X151134355Y-99054643D01*
X151190228Y-98919754D01*
X151209285Y-98775000D01*
X151209066Y-98773339D01*
X151221940Y-98719716D01*
X151260146Y-98674983D01*
X151314496Y-98652470D01*
X151373143Y-98657086D01*
X151423302Y-98687824D01*
X151527012Y-98791534D01*
X151555971Y-98836591D01*
X151563597Y-98889607D01*
X151551637Y-98930352D01*
X151552658Y-98930733D01*
X151504714Y-99059271D01*
X151504713Y-99059276D01*
X151501960Y-99066658D01*
X151501118Y-99074489D01*
X151501117Y-99074494D01*
X151495860Y-99123392D01*
X151495500Y-99126745D01*
X151495500Y-99130111D01*
X151495500Y-99130112D01*
X151495500Y-100619883D01*
X151495500Y-100619901D01*
X151495501Y-100623254D01*
X151495860Y-100626599D01*
X151495861Y-100626607D01*
X151497698Y-100643695D01*
X151501960Y-100683342D01*
X151524477Y-100743713D01*
X151525132Y-100745467D01*
X151532095Y-100805202D01*
X151510576Y-100861360D01*
X151465479Y-100901148D01*
X151407077Y-100915500D01*
X150397343Y-100915500D01*
X150394540Y-100915752D01*
X150394529Y-100915753D01*
X150353778Y-100919425D01*
X150353775Y-100919425D01*
X150350960Y-100919679D01*
X150348185Y-100920183D01*
X150348171Y-100920185D01*
X150312217Y-100926717D01*
X150312214Y-100926717D01*
X150306642Y-100927730D01*
X150301342Y-100929721D01*
X150301336Y-100929723D01*
X150225101Y-100958366D01*
X150225090Y-100958371D01*
X150219805Y-100960357D01*
X150214953Y-100963259D01*
X150214950Y-100963261D01*
X150193582Y-100976044D01*
X150181152Y-100983480D01*
X150178883Y-100985130D01*
X150178869Y-100985140D01*
X150145780Y-101009213D01*
X150145766Y-101009223D01*
X150143490Y-101010880D01*
X150141372Y-101012732D01*
X150141361Y-101012742D01*
X149738945Y-101364857D01*
X149492700Y-101580322D01*
X149488125Y-101584325D01*
X149449471Y-101607449D01*
X149405153Y-101615500D01*
X148916372Y-101615500D01*
X148912286Y-101616037D01*
X148912284Y-101616038D01*
X148853299Y-101623803D01*
X148853292Y-101623804D01*
X148849208Y-101624342D01*
X148845240Y-101625405D01*
X148845226Y-101625408D01*
X148790182Y-101640157D01*
X148790165Y-101640162D01*
X148786208Y-101641223D01*
X148782409Y-101642796D01*
X148782402Y-101642799D01*
X148731251Y-101663987D01*
X148731245Y-101663989D01*
X148723622Y-101667148D01*
X148717074Y-101672171D01*
X148717071Y-101672174D01*
X148673156Y-101705871D01*
X148673149Y-101705876D01*
X148669878Y-101708387D01*
X148666958Y-101711306D01*
X148666950Y-101711314D01*
X148626686Y-101751578D01*
X148626678Y-101751586D01*
X148623759Y-101754506D01*
X148621248Y-101757777D01*
X148621243Y-101757784D01*
X148587546Y-101801699D01*
X148587543Y-101801702D01*
X148582520Y-101808250D01*
X148579361Y-101815873D01*
X148579359Y-101815879D01*
X148558174Y-101867021D01*
X148558168Y-101867038D01*
X148556595Y-101870836D01*
X148555528Y-101874814D01*
X148554962Y-101876485D01*
X148524317Y-101925499D01*
X148475010Y-101955671D01*
X148417420Y-101960650D01*
X148363666Y-101939389D01*
X148325063Y-101896361D01*
X148319332Y-101885865D01*
X148247582Y-101790020D01*
X148234979Y-101777417D01*
X148139134Y-101705668D01*
X148123476Y-101697118D01*
X148010250Y-101654887D01*
X147995029Y-101651290D01*
X147949168Y-101646360D01*
X147942453Y-101646000D01*
X147818590Y-101646000D01*
X147805506Y-101649506D01*
X147802000Y-101662590D01*
X147802000Y-102376000D01*
X147785119Y-102439000D01*
X147739000Y-102485119D01*
X147676000Y-102502000D01*
X146987590Y-102502000D01*
X146974506Y-102505506D01*
X146971000Y-102518590D01*
X146971000Y-102670820D01*
X146970225Y-102670820D01*
X146961753Y-102720965D01*
X146930163Y-102766247D01*
X146882245Y-102793675D01*
X146827356Y-102797970D01*
X146818942Y-102795500D01*
X146681058Y-102795500D01*
X146672415Y-102798037D01*
X146672413Y-102798038D01*
X146557409Y-102831806D01*
X146557406Y-102831807D01*
X146548760Y-102834346D01*
X146541183Y-102839215D01*
X146541175Y-102839219D01*
X146440349Y-102904016D01*
X146440344Y-102904020D01*
X146432765Y-102908891D01*
X146426863Y-102915701D01*
X146426862Y-102915703D01*
X146348372Y-103006286D01*
X146348369Y-103006289D01*
X146342471Y-103013097D01*
X146338728Y-103021291D01*
X146338727Y-103021294D01*
X146288935Y-103130322D01*
X146288933Y-103130327D01*
X146285192Y-103138520D01*
X146265569Y-103275000D01*
X146276579Y-103351578D01*
X146278109Y-103362217D01*
X146270642Y-103426281D01*
X146232452Y-103478257D01*
X146173545Y-103504526D01*
X146109358Y-103498204D01*
X146060247Y-103479886D01*
X146045029Y-103476290D01*
X145999168Y-103471360D01*
X145992453Y-103471000D01*
X145843590Y-103471000D01*
X145830506Y-103474506D01*
X145827000Y-103487590D01*
X145827000Y-104176000D01*
X145810119Y-104239000D01*
X145764000Y-104285119D01*
X145701000Y-104302000D01*
X145699000Y-104302000D01*
X145636000Y-104285119D01*
X145589881Y-104239000D01*
X145573000Y-104176000D01*
X145573000Y-103487590D01*
X145569493Y-103474506D01*
X145556410Y-103471000D01*
X145407547Y-103471000D01*
X145400831Y-103471360D01*
X145354970Y-103476290D01*
X145339749Y-103479887D01*
X145226523Y-103522118D01*
X145210865Y-103530668D01*
X145115020Y-103602417D01*
X145102417Y-103615020D01*
X145030668Y-103710865D01*
X145022118Y-103726523D01*
X144979887Y-103839749D01*
X144976290Y-103854970D01*
X144971360Y-103900831D01*
X144971000Y-103907547D01*
X144971000Y-103944826D01*
X144953362Y-104009120D01*
X144905385Y-104055414D01*
X144840502Y-104070746D01*
X144776881Y-104050824D01*
X144751240Y-104034346D01*
X144694504Y-104017687D01*
X144627586Y-103998038D01*
X144627585Y-103998037D01*
X144618942Y-103995500D01*
X144481058Y-103995500D01*
X144472415Y-103998037D01*
X144472413Y-103998038D01*
X144410293Y-104016278D01*
X144344506Y-104017687D01*
X144286980Y-103985740D01*
X144253404Y-103929150D01*
X144252935Y-103863350D01*
X144285697Y-103806290D01*
X144496589Y-103595399D01*
X144528859Y-103556079D01*
X144556173Y-103515202D01*
X144580155Y-103470336D01*
X144594923Y-103421653D01*
X144604514Y-103373435D01*
X144609500Y-103322810D01*
X144609500Y-102231410D01*
X146971000Y-102231410D01*
X146974506Y-102244493D01*
X146987590Y-102248000D01*
X147531410Y-102248000D01*
X147544493Y-102244493D01*
X147548000Y-102231410D01*
X147548000Y-101662590D01*
X147544493Y-101649506D01*
X147531410Y-101646000D01*
X147407547Y-101646000D01*
X147400831Y-101646360D01*
X147354970Y-101651290D01*
X147339749Y-101654887D01*
X147226523Y-101697118D01*
X147210865Y-101705668D01*
X147115020Y-101777417D01*
X147102417Y-101790020D01*
X147030668Y-101885865D01*
X147022118Y-101901523D01*
X146979887Y-102014749D01*
X146976290Y-102029970D01*
X146971360Y-102075831D01*
X146971000Y-102082547D01*
X146971000Y-102231410D01*
X144609500Y-102231410D01*
X144609500Y-102227190D01*
X144604514Y-102176565D01*
X144594923Y-102128347D01*
X144585105Y-102095983D01*
X144581952Y-102085587D01*
X144581951Y-102085584D01*
X144580155Y-102079664D01*
X144556173Y-102034798D01*
X144528859Y-101993921D01*
X144496589Y-101954601D01*
X144370399Y-101828411D01*
X144350649Y-101812202D01*
X144333482Y-101798113D01*
X144333480Y-101798111D01*
X144331079Y-101796141D01*
X144316868Y-101786645D01*
X144292783Y-101770551D01*
X144292773Y-101770545D01*
X144290202Y-101768827D01*
X144287468Y-101767365D01*
X144287462Y-101767362D01*
X144250795Y-101747763D01*
X144245336Y-101744845D01*
X144239420Y-101743050D01*
X144239412Y-101743047D01*
X144199618Y-101730976D01*
X144199609Y-101730973D01*
X144196653Y-101730077D01*
X144193619Y-101729473D01*
X144193617Y-101729473D01*
X144151476Y-101721090D01*
X144151458Y-101721087D01*
X144148435Y-101720486D01*
X144145361Y-101720183D01*
X144145346Y-101720181D01*
X144100890Y-101715803D01*
X144100882Y-101715802D01*
X144097810Y-101715500D01*
X142802190Y-101715500D01*
X142799117Y-101715802D01*
X142799109Y-101715803D01*
X142754653Y-101720181D01*
X142754635Y-101720183D01*
X142751565Y-101720486D01*
X142748544Y-101721086D01*
X142748523Y-101721090D01*
X142706382Y-101729473D01*
X142706375Y-101729474D01*
X142703347Y-101730077D01*
X142700394Y-101730972D01*
X142700381Y-101730976D01*
X142660587Y-101743047D01*
X142660575Y-101743051D01*
X142654664Y-101744845D01*
X142649208Y-101747761D01*
X142649204Y-101747763D01*
X142612537Y-101767362D01*
X142612522Y-101767370D01*
X142609798Y-101768827D01*
X142607234Y-101770539D01*
X142607216Y-101770551D01*
X142571508Y-101794412D01*
X142571502Y-101794415D01*
X142568921Y-101796141D01*
X142566529Y-101798103D01*
X142566517Y-101798113D01*
X142531987Y-101826452D01*
X142531977Y-101826460D01*
X142529601Y-101828411D01*
X142527424Y-101830587D01*
X142527414Y-101830597D01*
X142405597Y-101952414D01*
X142405587Y-101952424D01*
X142403411Y-101954601D01*
X142401460Y-101956977D01*
X142401452Y-101956987D01*
X142373113Y-101991517D01*
X142373103Y-101991529D01*
X142371141Y-101993921D01*
X142369415Y-101996502D01*
X142369412Y-101996508D01*
X142345551Y-102032216D01*
X142345539Y-102032234D01*
X142343827Y-102034798D01*
X142342370Y-102037522D01*
X142342362Y-102037537D01*
X142322763Y-102074204D01*
X142322761Y-102074208D01*
X142319845Y-102079664D01*
X142318051Y-102085575D01*
X142318047Y-102085587D01*
X142305976Y-102125381D01*
X142305972Y-102125394D01*
X142305077Y-102128347D01*
X142304474Y-102131375D01*
X142304473Y-102131382D01*
X142296090Y-102173523D01*
X142296086Y-102173544D01*
X142295486Y-102176565D01*
X142295183Y-102179635D01*
X142295181Y-102179653D01*
X142291552Y-102216504D01*
X142290500Y-102227190D01*
X142290500Y-102230282D01*
X142290500Y-102615321D01*
X142280909Y-102663539D01*
X142253595Y-102704417D01*
X141679415Y-103278596D01*
X141638538Y-103305909D01*
X141590320Y-103315500D01*
X140802190Y-103315500D01*
X140799117Y-103315802D01*
X140799109Y-103315803D01*
X140754653Y-103320181D01*
X140754635Y-103320183D01*
X140751565Y-103320486D01*
X140748544Y-103321086D01*
X140748523Y-103321090D01*
X140706382Y-103329473D01*
X140706375Y-103329474D01*
X140703347Y-103330077D01*
X140700394Y-103330972D01*
X140700381Y-103330976D01*
X140660587Y-103343047D01*
X140660575Y-103343051D01*
X140654664Y-103344845D01*
X140649208Y-103347761D01*
X140649204Y-103347763D01*
X140612537Y-103367362D01*
X140612522Y-103367370D01*
X140609798Y-103368827D01*
X140607234Y-103370539D01*
X140607216Y-103370551D01*
X140571508Y-103394412D01*
X140571502Y-103394415D01*
X140568921Y-103396141D01*
X140566529Y-103398103D01*
X140566517Y-103398113D01*
X140531987Y-103426452D01*
X140531977Y-103426460D01*
X140529601Y-103428411D01*
X140527424Y-103430587D01*
X140527414Y-103430597D01*
X140405597Y-103552414D01*
X140405587Y-103552424D01*
X140403411Y-103554601D01*
X140401460Y-103556977D01*
X140401452Y-103556987D01*
X140373113Y-103591517D01*
X140373103Y-103591529D01*
X140371141Y-103593921D01*
X140369415Y-103596502D01*
X140369412Y-103596508D01*
X140345551Y-103632216D01*
X140345539Y-103632234D01*
X140343827Y-103634798D01*
X140342370Y-103637522D01*
X140342362Y-103637537D01*
X140322763Y-103674204D01*
X140322761Y-103674208D01*
X140319845Y-103679664D01*
X140318051Y-103685575D01*
X140318047Y-103685587D01*
X140305976Y-103725381D01*
X140305972Y-103725394D01*
X140305077Y-103728347D01*
X140304474Y-103731375D01*
X140304473Y-103731382D01*
X140296090Y-103773523D01*
X140296086Y-103773544D01*
X140295486Y-103776565D01*
X140295183Y-103779635D01*
X140295181Y-103779653D01*
X140290803Y-103824109D01*
X140290500Y-103827190D01*
X140290500Y-104522810D01*
X140290802Y-104525882D01*
X140290803Y-104525890D01*
X140295181Y-104570346D01*
X140295183Y-104570361D01*
X140295486Y-104573435D01*
X140296087Y-104576458D01*
X140296090Y-104576476D01*
X140303053Y-104611480D01*
X140305077Y-104621653D01*
X140305973Y-104624609D01*
X140305976Y-104624618D01*
X140318047Y-104664412D01*
X140318050Y-104664420D01*
X140319845Y-104670336D01*
X140322763Y-104675795D01*
X140337838Y-104703999D01*
X140343827Y-104715202D01*
X140345545Y-104717773D01*
X140345551Y-104717783D01*
X140361645Y-104741868D01*
X140371141Y-104756079D01*
X140403411Y-104795399D01*
X140404645Y-104796633D01*
X140432417Y-104846793D01*
X140434964Y-104904362D01*
X140411613Y-104957046D01*
X140367248Y-104993822D01*
X140311149Y-105007000D01*
X138983910Y-105007000D01*
X138935692Y-104997409D01*
X138894815Y-104970095D01*
X138843815Y-104919095D01*
X138813077Y-104868936D01*
X138808461Y-104810289D01*
X138830974Y-104755939D01*
X138875707Y-104717733D01*
X138932910Y-104704000D01*
X139006410Y-104704000D01*
X139019493Y-104700493D01*
X139023000Y-104687410D01*
X139023000Y-104687409D01*
X139277000Y-104687409D01*
X139280506Y-104700492D01*
X139293590Y-104703999D01*
X139367720Y-104703999D01*
X139376799Y-104703341D01*
X139433838Y-104695031D01*
X139452314Y-104689322D01*
X139544028Y-104644486D01*
X139560794Y-104632515D01*
X139632515Y-104560794D01*
X139644486Y-104544028D01*
X139689324Y-104452311D01*
X139695031Y-104433842D01*
X139703342Y-104376797D01*
X139703950Y-104368405D01*
X139700493Y-104355506D01*
X139687410Y-104352000D01*
X139293590Y-104352000D01*
X139280506Y-104355506D01*
X139277000Y-104368590D01*
X139277000Y-104687409D01*
X139023000Y-104687409D01*
X139023000Y-104081410D01*
X139277000Y-104081410D01*
X139280506Y-104094493D01*
X139293590Y-104098000D01*
X139687409Y-104098000D01*
X139700492Y-104094493D01*
X139703949Y-104081594D01*
X139703341Y-104073200D01*
X139695031Y-104016161D01*
X139689322Y-103997685D01*
X139644486Y-103905971D01*
X139632515Y-103889205D01*
X139560794Y-103817484D01*
X139544028Y-103805513D01*
X139452311Y-103760675D01*
X139433842Y-103754968D01*
X139376797Y-103746657D01*
X139367723Y-103746000D01*
X139293590Y-103746000D01*
X139280506Y-103749506D01*
X139277000Y-103762590D01*
X139277000Y-104081410D01*
X139023000Y-104081410D01*
X139023000Y-103762591D01*
X139019493Y-103749507D01*
X139006410Y-103746001D01*
X138932280Y-103746001D01*
X138923200Y-103746658D01*
X138866161Y-103754968D01*
X138838337Y-103763566D01*
X138837915Y-103762203D01*
X138787492Y-103772504D01*
X138727279Y-103753557D01*
X138683812Y-103707783D01*
X138668000Y-103646672D01*
X138668000Y-102432579D01*
X138684552Y-102370151D01*
X138729861Y-102324126D01*
X138792021Y-102306595D01*
X138854701Y-102322164D01*
X138902910Y-102348667D01*
X139055322Y-102387800D01*
X139169224Y-102387800D01*
X139173183Y-102387800D01*
X139290115Y-102373028D01*
X139436421Y-102315102D01*
X139563724Y-102222610D01*
X139664027Y-102101365D01*
X139731026Y-101958985D01*
X139760511Y-101804417D01*
X139750631Y-101647371D01*
X139702005Y-101497717D01*
X139617690Y-101364857D01*
X139606145Y-101354016D01*
X139508758Y-101262564D01*
X139502982Y-101257140D01*
X139439568Y-101222277D01*
X139372036Y-101185151D01*
X139372032Y-101185149D01*
X139365090Y-101181333D01*
X139357415Y-101179362D01*
X139357409Y-101179360D01*
X139220357Y-101144171D01*
X139220352Y-101144170D01*
X139212678Y-101142200D01*
X139094817Y-101142200D01*
X139090896Y-101142695D01*
X139090885Y-101142696D01*
X138985752Y-101155978D01*
X138985750Y-101155978D01*
X138977885Y-101156972D01*
X138970520Y-101159887D01*
X138970512Y-101159890D01*
X138840383Y-101211412D01*
X138780173Y-101219499D01*
X138723177Y-101198472D01*
X138682645Y-101153219D01*
X138668000Y-101094260D01*
X138668000Y-100573911D01*
X138677591Y-100525693D01*
X138704904Y-100484816D01*
X138850984Y-100338736D01*
X139289955Y-99899763D01*
X139345216Y-99867487D01*
X139409201Y-99866522D01*
X139419160Y-99868976D01*
X139468690Y-99893714D01*
X139502835Y-99937299D01*
X139515000Y-99991313D01*
X139515000Y-100495000D01*
X140020413Y-100495000D01*
X140078968Y-100509432D01*
X140124109Y-100549424D01*
X140145494Y-100605812D01*
X140150093Y-100643695D01*
X140150094Y-100643702D01*
X140151013Y-100651264D01*
X140153715Y-100658389D01*
X140153716Y-100658392D01*
X140204127Y-100791315D01*
X140204129Y-100791318D01*
X140206832Y-100798446D01*
X140211161Y-100804719D01*
X140211163Y-100804721D01*
X140290862Y-100920185D01*
X140296252Y-100927993D01*
X140301958Y-100933048D01*
X140301959Y-100933049D01*
X140407990Y-101026985D01*
X140414076Y-101032376D01*
X140553457Y-101105529D01*
X140649170Y-101129120D01*
X140704601Y-101158986D01*
X140738660Y-101211944D01*
X140742842Y-101274769D01*
X140716102Y-101331774D01*
X140641025Y-101422526D01*
X140641018Y-101422535D01*
X140635973Y-101428635D01*
X140632600Y-101435802D01*
X140632598Y-101435806D01*
X140572349Y-101563841D01*
X140572347Y-101563846D01*
X140568974Y-101571015D01*
X140567489Y-101578797D01*
X140567488Y-101578802D01*
X140541302Y-101716077D01*
X140539489Y-101725583D01*
X140539986Y-101733487D01*
X140539986Y-101733493D01*
X140547477Y-101852557D01*
X140549369Y-101882629D01*
X140551818Y-101890166D01*
X140595545Y-102024745D01*
X140595547Y-102024750D01*
X140597995Y-102032283D01*
X140602240Y-102038972D01*
X140645708Y-102107468D01*
X140682310Y-102165143D01*
X140688089Y-102170569D01*
X140688090Y-102170571D01*
X140700000Y-102181755D01*
X140797018Y-102272860D01*
X140934910Y-102348667D01*
X141087322Y-102387800D01*
X141201224Y-102387800D01*
X141205183Y-102387800D01*
X141322115Y-102373028D01*
X141468421Y-102315102D01*
X141595724Y-102222610D01*
X141696027Y-102101365D01*
X141763026Y-101958985D01*
X141792511Y-101804417D01*
X141782631Y-101647371D01*
X141734005Y-101497717D01*
X141649690Y-101364857D01*
X141638145Y-101354016D01*
X141540758Y-101262564D01*
X141534982Y-101257140D01*
X141471568Y-101222277D01*
X141404036Y-101185151D01*
X141404032Y-101185149D01*
X141397090Y-101181333D01*
X141371685Y-101174810D01*
X141309577Y-101158863D01*
X141251172Y-101125268D01*
X141218429Y-101066381D01*
X141220711Y-100999041D01*
X141238857Y-100971051D01*
X146236001Y-100971051D01*
X146236775Y-100980899D01*
X146249061Y-101058472D01*
X146255116Y-101077107D01*
X146302773Y-101170641D01*
X146314285Y-101186485D01*
X146388514Y-101260714D01*
X146404358Y-101272226D01*
X146497896Y-101319886D01*
X146516521Y-101325937D01*
X146594102Y-101338225D01*
X146603946Y-101339000D01*
X146626410Y-101339000D01*
X146639493Y-101335493D01*
X146643000Y-101322410D01*
X146643000Y-100918590D01*
X146639493Y-100905506D01*
X146626410Y-100902000D01*
X146252591Y-100902000D01*
X146239507Y-100905506D01*
X146236001Y-100918590D01*
X146236001Y-100971051D01*
X141238857Y-100971051D01*
X141257359Y-100942511D01*
X141273748Y-100927993D01*
X141363168Y-100798446D01*
X141418987Y-100651264D01*
X141421398Y-100631410D01*
X146236000Y-100631410D01*
X146239506Y-100644493D01*
X146252590Y-100648000D01*
X146626410Y-100648000D01*
X146639493Y-100644493D01*
X146643000Y-100631410D01*
X146643000Y-99918590D01*
X146639493Y-99905506D01*
X146626410Y-99902000D01*
X146252591Y-99902000D01*
X146239507Y-99905506D01*
X146236001Y-99918590D01*
X146236001Y-99971051D01*
X146236775Y-99980899D01*
X146249061Y-100058472D01*
X146255116Y-100077107D01*
X146302773Y-100170641D01*
X146320113Y-100194506D01*
X146319097Y-100195244D01*
X146346317Y-100242389D01*
X146346317Y-100307611D01*
X146319097Y-100354755D01*
X146320113Y-100355494D01*
X146302773Y-100379358D01*
X146255113Y-100472896D01*
X146249062Y-100491521D01*
X146236774Y-100569102D01*
X146236000Y-100578946D01*
X146236000Y-100631410D01*
X141421398Y-100631410D01*
X141437961Y-100495000D01*
X141434449Y-100466077D01*
X141419906Y-100346304D01*
X141419905Y-100346303D01*
X141418987Y-100338736D01*
X141363168Y-100191554D01*
X141291124Y-100087181D01*
X141278078Y-100068280D01*
X141278077Y-100068279D01*
X141273748Y-100062007D01*
X141245411Y-100036903D01*
X141155924Y-99957624D01*
X141156824Y-99956607D01*
X141123113Y-99918559D01*
X141108678Y-99860000D01*
X141123113Y-99801441D01*
X141156824Y-99763392D01*
X141155924Y-99762376D01*
X141186160Y-99735589D01*
X141273748Y-99657993D01*
X141292097Y-99631410D01*
X146236000Y-99631410D01*
X146239506Y-99644493D01*
X146252590Y-99648000D01*
X146626410Y-99648000D01*
X146639493Y-99644493D01*
X146643000Y-99631410D01*
X146643000Y-99227591D01*
X146639493Y-99214507D01*
X146626410Y-99211001D01*
X146603949Y-99211001D01*
X146594100Y-99211775D01*
X146516527Y-99224061D01*
X146497892Y-99230116D01*
X146404358Y-99277773D01*
X146388514Y-99289285D01*
X146314285Y-99363514D01*
X146302773Y-99379358D01*
X146255113Y-99472896D01*
X146249062Y-99491521D01*
X146236774Y-99569102D01*
X146236000Y-99578946D01*
X146236000Y-99631410D01*
X141292097Y-99631410D01*
X141310385Y-99604914D01*
X141355525Y-99564925D01*
X141414080Y-99550493D01*
X141580287Y-99550493D01*
X141591268Y-99550972D01*
X141628806Y-99554256D01*
X141665206Y-99544502D01*
X141675930Y-99542125D01*
X141713042Y-99535582D01*
X141722593Y-99530066D01*
X141725857Y-99528879D01*
X141729023Y-99527402D01*
X141739682Y-99524547D01*
X141770560Y-99502925D01*
X141779814Y-99497029D01*
X141812450Y-99478188D01*
X141836682Y-99449308D01*
X141844075Y-99441240D01*
X141947919Y-99337397D01*
X141988797Y-99310084D01*
X142037015Y-99300493D01*
X144330287Y-99300493D01*
X144341268Y-99300972D01*
X144378806Y-99304256D01*
X144415206Y-99294502D01*
X144425930Y-99292125D01*
X144463042Y-99285582D01*
X144472593Y-99280066D01*
X144475857Y-99278879D01*
X144479023Y-99277402D01*
X144489682Y-99274547D01*
X144520560Y-99252925D01*
X144529814Y-99247029D01*
X144562450Y-99228188D01*
X144586677Y-99199313D01*
X144594081Y-99191234D01*
X145103111Y-98682204D01*
X145162498Y-98648853D01*
X145230569Y-98651284D01*
X145287428Y-98688788D01*
X145326861Y-98734296D01*
X145326863Y-98734297D01*
X145332765Y-98741109D01*
X145340348Y-98745982D01*
X145340349Y-98745983D01*
X145441175Y-98810780D01*
X145441177Y-98810781D01*
X145448760Y-98815654D01*
X145581058Y-98854500D01*
X145709933Y-98854500D01*
X145718942Y-98854500D01*
X145851240Y-98815654D01*
X145861816Y-98808856D01*
X145866860Y-98807110D01*
X145867020Y-98807038D01*
X145867026Y-98807053D01*
X145917958Y-98789423D01*
X145976765Y-98797875D01*
X146019890Y-98828582D01*
X146020052Y-98828396D01*
X146022002Y-98830085D01*
X146025161Y-98832335D01*
X146026858Y-98834293D01*
X146026862Y-98834296D01*
X146032766Y-98841110D01*
X146040349Y-98845983D01*
X146040350Y-98845984D01*
X146141176Y-98910781D01*
X146141178Y-98910782D01*
X146148761Y-98915655D01*
X146281059Y-98954501D01*
X146409934Y-98954501D01*
X146418943Y-98954501D01*
X146551241Y-98915655D01*
X146667236Y-98841110D01*
X146757530Y-98736904D01*
X146808221Y-98625905D01*
X146843076Y-98580706D01*
X146894297Y-98555522D01*
X146951374Y-98555523D01*
G37*
%TD.AperFunction*%
%TA.AperFunction,Conductor*%
G36*
X152675999Y-103018920D02*
G01*
X152717121Y-103064290D01*
X152732000Y-103123687D01*
X152732000Y-104333815D01*
X152718267Y-104391018D01*
X152680061Y-104435751D01*
X152625711Y-104458264D01*
X152567064Y-104453648D01*
X152516905Y-104422910D01*
X152515802Y-104421807D01*
X152510404Y-104414596D01*
X152459910Y-104376797D01*
X152401484Y-104333060D01*
X152401481Y-104333058D01*
X152394267Y-104327658D01*
X152385818Y-104324506D01*
X152385817Y-104324506D01*
X152265728Y-104279714D01*
X152265721Y-104279712D01*
X152258342Y-104276960D01*
X152250508Y-104276117D01*
X152250505Y-104276117D01*
X152206962Y-104271436D01*
X152198255Y-104270500D01*
X152194888Y-104270500D01*
X150798922Y-104270500D01*
X150746570Y-104259109D01*
X150703683Y-104226996D01*
X150678017Y-104179967D01*
X150675379Y-104142932D01*
X150673148Y-104142932D01*
X150673148Y-104133923D01*
X150674431Y-104125000D01*
X150654808Y-103988520D01*
X150597529Y-103863097D01*
X150507235Y-103758891D01*
X150499651Y-103754017D01*
X150499650Y-103754016D01*
X150398824Y-103689219D01*
X150398819Y-103689216D01*
X150391240Y-103684346D01*
X150375294Y-103679664D01*
X150267586Y-103648038D01*
X150267585Y-103648037D01*
X150258942Y-103645500D01*
X150171563Y-103645500D01*
X150103863Y-103625767D01*
X150057368Y-103572749D01*
X150017921Y-103488155D01*
X150005464Y-103470364D01*
X149942135Y-103407035D01*
X149924346Y-103394579D01*
X149881704Y-103374695D01*
X149830495Y-103330959D01*
X149809127Y-103267095D01*
X149823703Y-103201347D01*
X149870059Y-103152497D01*
X149934954Y-103134500D01*
X150027029Y-103134500D01*
X150029553Y-103134500D01*
X150071121Y-103131149D01*
X150110966Y-103124683D01*
X150151459Y-103114717D01*
X150372712Y-103040966D01*
X150412557Y-103034500D01*
X152419878Y-103034500D01*
X152424000Y-103034500D01*
X152491164Y-103025658D01*
X152554164Y-103008777D01*
X152557970Y-103007200D01*
X152561877Y-103005874D01*
X152562134Y-103006633D01*
X152618346Y-102998293D01*
X152675999Y-103018920D01*
G37*
%TD.AperFunction*%
%TA.AperFunction,Conductor*%
G36*
X153212620Y-100071009D02*
G01*
X153213521Y-100067649D01*
X153215806Y-100068261D01*
X153226301Y-100071569D01*
X153230011Y-100072919D01*
X153239560Y-100078432D01*
X153275689Y-100084802D01*
X153286401Y-100087175D01*
X153321857Y-100096677D01*
X153358415Y-100093478D01*
X153369394Y-100093000D01*
X153401257Y-100093000D01*
X153461642Y-100108412D01*
X153507255Y-100150879D01*
X153526936Y-100210011D01*
X153515871Y-100271342D01*
X153488935Y-100330321D01*
X153488932Y-100330329D01*
X153485192Y-100338520D01*
X153465569Y-100475000D01*
X153485192Y-100611480D01*
X153488934Y-100619674D01*
X153488935Y-100619677D01*
X153506616Y-100658392D01*
X153542471Y-100736903D01*
X153632765Y-100841109D01*
X153706511Y-100888502D01*
X153749829Y-100935700D01*
X153764339Y-100998098D01*
X153746290Y-101059566D01*
X153700348Y-101104214D01*
X153638390Y-101120500D01*
X153618166Y-101120500D01*
X153613285Y-101121273D01*
X153613273Y-101121274D01*
X153533237Y-101133951D01*
X153533236Y-101133951D01*
X153523445Y-101135502D01*
X153514617Y-101139999D01*
X153514611Y-101140002D01*
X153418109Y-101189173D01*
X153418105Y-101189175D01*
X153409277Y-101193674D01*
X153402268Y-101200682D01*
X153402265Y-101200685D01*
X153325685Y-101277265D01*
X153325682Y-101277268D01*
X153318674Y-101284277D01*
X153314175Y-101293105D01*
X153314173Y-101293109D01*
X153265002Y-101389611D01*
X153264999Y-101389617D01*
X153260502Y-101398445D01*
X153258951Y-101408236D01*
X153258951Y-101408237D01*
X153246274Y-101488273D01*
X153246273Y-101488285D01*
X153245500Y-101493166D01*
X153245500Y-101498120D01*
X153245500Y-101777590D01*
X153235909Y-101825808D01*
X153208595Y-101866685D01*
X153024595Y-102050685D01*
X152974436Y-102081423D01*
X152915789Y-102086039D01*
X152861439Y-102063526D01*
X152823233Y-102018793D01*
X152809500Y-101961590D01*
X152809500Y-101305122D01*
X152809500Y-101301000D01*
X152800658Y-101233836D01*
X152791182Y-101198472D01*
X152784842Y-101174810D01*
X152784841Y-101174807D01*
X152783777Y-101170836D01*
X152776767Y-101153913D01*
X152767318Y-101099698D01*
X152781877Y-101046627D01*
X152817664Y-101004827D01*
X152910404Y-100935404D01*
X152997342Y-100819267D01*
X153048040Y-100683342D01*
X153054500Y-100623255D01*
X153054499Y-100189159D01*
X153070040Y-100128541D01*
X153112829Y-100082875D01*
X153172310Y-100063427D01*
X153212620Y-100071009D01*
G37*
%TD.AperFunction*%
%TA.AperFunction,Conductor*%
G36*
X151816438Y-81294540D02*
G01*
X151862910Y-81345906D01*
X151875209Y-81414074D01*
X151849618Y-81478441D01*
X151793874Y-81519553D01*
X151714613Y-81549117D01*
X151707407Y-81554511D01*
X151707402Y-81554514D01*
X151612877Y-81625274D01*
X151612873Y-81625277D01*
X151605670Y-81630670D01*
X151600277Y-81637873D01*
X151600274Y-81637877D01*
X151529514Y-81732402D01*
X151529511Y-81732407D01*
X151524117Y-81739613D01*
X151520969Y-81748050D01*
X151520968Y-81748054D01*
X151492788Y-81823608D01*
X151476559Y-81867119D01*
X151475716Y-81874955D01*
X151475715Y-81874962D01*
X151472040Y-81909153D01*
X151470500Y-81923478D01*
X151470500Y-82526522D01*
X151470859Y-82529869D01*
X151470860Y-82529872D01*
X151475715Y-82575037D01*
X151475716Y-82575042D01*
X151476559Y-82582881D01*
X151524117Y-82710387D01*
X151529513Y-82717595D01*
X151529514Y-82717597D01*
X151588722Y-82796690D01*
X151605670Y-82819330D01*
X151612877Y-82824725D01*
X151612880Y-82824728D01*
X151712522Y-82899318D01*
X151749007Y-82942449D01*
X151762978Y-82997187D01*
X151751628Y-83052528D01*
X151738936Y-83080318D01*
X151738932Y-83080328D01*
X151735192Y-83088520D01*
X151733909Y-83097440D01*
X151733909Y-83097442D01*
X151720632Y-83189785D01*
X151715569Y-83225000D01*
X151735192Y-83361480D01*
X151738934Y-83369674D01*
X151738935Y-83369677D01*
X151764356Y-83425340D01*
X151792471Y-83486903D01*
X151882765Y-83591109D01*
X151890348Y-83595982D01*
X151890349Y-83595983D01*
X151991175Y-83660780D01*
X151991177Y-83660781D01*
X151998760Y-83665654D01*
X152131058Y-83704500D01*
X152259933Y-83704500D01*
X152268942Y-83704500D01*
X152401240Y-83665654D01*
X152517235Y-83591109D01*
X152607529Y-83486903D01*
X152664808Y-83361480D01*
X152684431Y-83225000D01*
X152664808Y-83088520D01*
X152661062Y-83080318D01*
X152629559Y-83011336D01*
X156668782Y-83011336D01*
X156670533Y-83019765D01*
X156670534Y-83019769D01*
X156696531Y-83144873D01*
X156696532Y-83144878D01*
X156698285Y-83153310D01*
X156764997Y-83282059D01*
X156770877Y-83288355D01*
X156770878Y-83288356D01*
X156846827Y-83369677D01*
X156863972Y-83388034D01*
X156871333Y-83392510D01*
X156871334Y-83392511D01*
X156923943Y-83424503D01*
X156987868Y-83463377D01*
X157127497Y-83502500D01*
X157231775Y-83502500D01*
X157236080Y-83502500D01*
X157343656Y-83487714D01*
X157476657Y-83429943D01*
X157589140Y-83338432D01*
X157672762Y-83219966D01*
X157721322Y-83083332D01*
X157731218Y-82938664D01*
X157701715Y-82796690D01*
X157635003Y-82667941D01*
X157536028Y-82561966D01*
X157528667Y-82557489D01*
X157528665Y-82557488D01*
X157419498Y-82491102D01*
X157419495Y-82491101D01*
X157412132Y-82486623D01*
X157403827Y-82484296D01*
X157280803Y-82449825D01*
X157280798Y-82449824D01*
X157272503Y-82447500D01*
X157163920Y-82447500D01*
X157159662Y-82448085D01*
X157159651Y-82448086D01*
X157064889Y-82461111D01*
X157064885Y-82461112D01*
X157056344Y-82462286D01*
X157048436Y-82465720D01*
X157048432Y-82465722D01*
X156931250Y-82516622D01*
X156931247Y-82516623D01*
X156923343Y-82520057D01*
X156916659Y-82525494D01*
X156916657Y-82525496D01*
X156817541Y-82606131D01*
X156817534Y-82606137D01*
X156810860Y-82611568D01*
X156805895Y-82618601D01*
X156805890Y-82618607D01*
X156732207Y-82722993D01*
X156732204Y-82722998D01*
X156727238Y-82730034D01*
X156724353Y-82738149D01*
X156724353Y-82738151D01*
X156681564Y-82858546D01*
X156681563Y-82858549D01*
X156678678Y-82866668D01*
X156678090Y-82875262D01*
X156678089Y-82875268D01*
X156669750Y-82997187D01*
X156668782Y-83011336D01*
X152629559Y-83011336D01*
X152629264Y-83010690D01*
X152617913Y-82955348D01*
X152631884Y-82900609D01*
X152668368Y-82857479D01*
X152719330Y-82819330D01*
X152800883Y-82710387D01*
X152832213Y-82626387D01*
X152866402Y-82576389D01*
X152919977Y-82548120D01*
X152980553Y-82548119D01*
X153034129Y-82576388D01*
X153068321Y-82626392D01*
X153096409Y-82701698D01*
X153104961Y-82717358D01*
X153175629Y-82811760D01*
X153188239Y-82824370D01*
X153282641Y-82895038D01*
X153298295Y-82903587D01*
X153409844Y-82945192D01*
X153425060Y-82948788D01*
X153470187Y-82953639D01*
X153476903Y-82954000D01*
X153593910Y-82954000D01*
X153606993Y-82950493D01*
X153610500Y-82937410D01*
X153864500Y-82937410D01*
X153868006Y-82950493D01*
X153881090Y-82954000D01*
X153998097Y-82954000D01*
X154004812Y-82953639D01*
X154049939Y-82948788D01*
X154065155Y-82945192D01*
X154176704Y-82903587D01*
X154192358Y-82895038D01*
X154277356Y-82831410D01*
X154796000Y-82831410D01*
X154799506Y-82844493D01*
X154812590Y-82848000D01*
X155356410Y-82848000D01*
X155369493Y-82844493D01*
X155373000Y-82831410D01*
X155627000Y-82831410D01*
X155630506Y-82844493D01*
X155643590Y-82848000D01*
X156187409Y-82848000D01*
X156200492Y-82844493D01*
X156203999Y-82831410D01*
X156203999Y-82106172D01*
X156202791Y-82093912D01*
X156191684Y-82038069D01*
X156182366Y-82015573D01*
X156140016Y-81952191D01*
X156122808Y-81934983D01*
X156059425Y-81892632D01*
X156036933Y-81883315D01*
X155981085Y-81872207D01*
X155968830Y-81871000D01*
X155643590Y-81871000D01*
X155630506Y-81874506D01*
X155627000Y-81887590D01*
X155627000Y-82831410D01*
X155373000Y-82831410D01*
X155373000Y-81887591D01*
X155369493Y-81874507D01*
X155356410Y-81871001D01*
X155031172Y-81871001D01*
X155018912Y-81872208D01*
X154963069Y-81883315D01*
X154940573Y-81892633D01*
X154877191Y-81934983D01*
X154859983Y-81952191D01*
X154817632Y-82015574D01*
X154808315Y-82038066D01*
X154797207Y-82093914D01*
X154796000Y-82106170D01*
X154796000Y-82831410D01*
X154277356Y-82831410D01*
X154286760Y-82824370D01*
X154299370Y-82811760D01*
X154370038Y-82717358D01*
X154378587Y-82701704D01*
X154420192Y-82590155D01*
X154423788Y-82574939D01*
X154428639Y-82529812D01*
X154429000Y-82523097D01*
X154429000Y-82368590D01*
X154425493Y-82355506D01*
X154412410Y-82352000D01*
X153881090Y-82352000D01*
X153868006Y-82355506D01*
X153864500Y-82368590D01*
X153864500Y-82937410D01*
X153610500Y-82937410D01*
X153610500Y-82224000D01*
X153627381Y-82161000D01*
X153673500Y-82114881D01*
X153736500Y-82098000D01*
X154412410Y-82098000D01*
X154425493Y-82094493D01*
X154429000Y-82081410D01*
X154429000Y-81926903D01*
X154428639Y-81920187D01*
X154423788Y-81875060D01*
X154420192Y-81859844D01*
X154378587Y-81748295D01*
X154370038Y-81732641D01*
X154299370Y-81638239D01*
X154286760Y-81625629D01*
X154192358Y-81554961D01*
X154176704Y-81546412D01*
X154104699Y-81519556D01*
X154048952Y-81478441D01*
X154023361Y-81414074D01*
X154035660Y-81345906D01*
X154082132Y-81294540D01*
X154148732Y-81275500D01*
X159523500Y-81275500D01*
X159586500Y-81292381D01*
X159632619Y-81338500D01*
X159649500Y-81401500D01*
X159649500Y-81783305D01*
X159631575Y-81848080D01*
X159582899Y-81894425D01*
X159517323Y-81909153D01*
X159472188Y-81894245D01*
X159471085Y-81896910D01*
X159459619Y-81892160D01*
X159449301Y-81885266D01*
X159437131Y-81882845D01*
X159437128Y-81882844D01*
X159381135Y-81871707D01*
X159375067Y-81870500D01*
X159368880Y-81870500D01*
X158431122Y-81870500D01*
X158431111Y-81870500D01*
X158424934Y-81870501D01*
X158418868Y-81871707D01*
X158418862Y-81871708D01*
X158362874Y-81882844D01*
X158362871Y-81882844D01*
X158350699Y-81885266D01*
X158340379Y-81892161D01*
X158340378Y-81892162D01*
X158276832Y-81934622D01*
X158276829Y-81934624D01*
X158266516Y-81941516D01*
X158259624Y-81951829D01*
X158259622Y-81951832D01*
X158217161Y-82015379D01*
X158217159Y-82015381D01*
X158210266Y-82025699D01*
X158207845Y-82037867D01*
X158207844Y-82037871D01*
X158207805Y-82038069D01*
X158195500Y-82099933D01*
X158195500Y-82106118D01*
X158195500Y-82106119D01*
X158195500Y-83843877D01*
X158195500Y-83843887D01*
X158195501Y-83850066D01*
X158196707Y-83856132D01*
X158196708Y-83856137D01*
X158197180Y-83858509D01*
X158210266Y-83924301D01*
X158216333Y-83933382D01*
X158225400Y-83989341D01*
X158208083Y-84044644D01*
X158167843Y-84086347D01*
X158132765Y-84108891D01*
X158126863Y-84115701D01*
X158126862Y-84115703D01*
X158048372Y-84206286D01*
X158048369Y-84206289D01*
X158042471Y-84213097D01*
X158038728Y-84221291D01*
X158038727Y-84221294D01*
X157988935Y-84330322D01*
X157988933Y-84330327D01*
X157985192Y-84338520D01*
X157965569Y-84475000D01*
X157966852Y-84483923D01*
X157983045Y-84596551D01*
X157985192Y-84611480D01*
X158042471Y-84736903D01*
X158132765Y-84841109D01*
X158140348Y-84845982D01*
X158140349Y-84845983D01*
X158241175Y-84910780D01*
X158241177Y-84910781D01*
X158248760Y-84915654D01*
X158381058Y-84954500D01*
X158509933Y-84954500D01*
X158518942Y-84954500D01*
X158651240Y-84915654D01*
X158767235Y-84841109D01*
X158857529Y-84736903D01*
X158914808Y-84611480D01*
X158934293Y-84475959D01*
X158946335Y-84437501D01*
X158969910Y-84404808D01*
X159111153Y-84263565D01*
X159119249Y-84256147D01*
X159119264Y-84256135D01*
X159147360Y-84232560D01*
X159165700Y-84200792D01*
X159171609Y-84191518D01*
X159177061Y-84183732D01*
X159192652Y-84161466D01*
X159195246Y-84151783D01*
X159241331Y-84099232D01*
X159309032Y-84079499D01*
X159368878Y-84079499D01*
X159375066Y-84079499D01*
X159449301Y-84064734D01*
X159459622Y-84057837D01*
X159471087Y-84053089D01*
X159472190Y-84055753D01*
X159517323Y-84040847D01*
X159582899Y-84055575D01*
X159631575Y-84101920D01*
X159649500Y-84166695D01*
X159649500Y-87733920D01*
X159632619Y-87796920D01*
X159586500Y-87843039D01*
X159523500Y-87859920D01*
X159460500Y-87843039D01*
X159414381Y-87796920D01*
X159402872Y-87776987D01*
X159397360Y-87767440D01*
X159388917Y-87760355D01*
X159388916Y-87760354D01*
X159369247Y-87743850D01*
X159361144Y-87736424D01*
X158888569Y-87263849D01*
X158881143Y-87255745D01*
X158864646Y-87236085D01*
X158857560Y-87227640D01*
X158853647Y-87225381D01*
X158826959Y-87192349D01*
X158812975Y-87146062D01*
X158816173Y-87111676D01*
X158814808Y-87111480D01*
X158833148Y-86983923D01*
X158834431Y-86975000D01*
X158814808Y-86838520D01*
X158757529Y-86713097D01*
X158667235Y-86608891D01*
X158659651Y-86604017D01*
X158659650Y-86604016D01*
X158558824Y-86539219D01*
X158558819Y-86539216D01*
X158551240Y-86534346D01*
X158418942Y-86495500D01*
X158409933Y-86495500D01*
X158372410Y-86495500D01*
X158324192Y-86485909D01*
X158283315Y-86458595D01*
X156888569Y-85063849D01*
X156881143Y-85055745D01*
X156864647Y-85036086D01*
X156857560Y-85027640D01*
X156825784Y-85009293D01*
X156816538Y-85003404D01*
X156786466Y-84982348D01*
X156775826Y-84979496D01*
X156772967Y-84978163D01*
X156769982Y-84977076D01*
X156760440Y-84971568D01*
X156749586Y-84969654D01*
X156724309Y-84965197D01*
X156713579Y-84962818D01*
X156688791Y-84956176D01*
X156688790Y-84956175D01*
X156678143Y-84953323D01*
X156667165Y-84954283D01*
X156667160Y-84954283D01*
X156641590Y-84956521D01*
X156630608Y-84957000D01*
X156377823Y-84957000D01*
X153269392Y-84957000D01*
X153258410Y-84956521D01*
X153232839Y-84954283D01*
X153232834Y-84954283D01*
X153221857Y-84953323D01*
X153211211Y-84956175D01*
X153211205Y-84956176D01*
X153186409Y-84962820D01*
X153175687Y-84965197D01*
X153150411Y-84969654D01*
X153150408Y-84969655D01*
X153139560Y-84971568D01*
X153130020Y-84977075D01*
X153127053Y-84978155D01*
X153124174Y-84979497D01*
X153113534Y-84982349D01*
X153104510Y-84988666D01*
X153104504Y-84988670D01*
X153083473Y-85003396D01*
X153074210Y-85009296D01*
X153042440Y-85027640D01*
X153035356Y-85036081D01*
X153035350Y-85036087D01*
X153018849Y-85055752D01*
X153011426Y-85063853D01*
X152638846Y-85436432D01*
X152630744Y-85443856D01*
X152603728Y-85466526D01*
X152554019Y-85492060D01*
X152498156Y-85493586D01*
X152466080Y-85487206D01*
X152453830Y-85486000D01*
X152393590Y-85486000D01*
X152380506Y-85489506D01*
X152377000Y-85502590D01*
X152377000Y-87147409D01*
X152380506Y-87160492D01*
X152393590Y-87163999D01*
X152453828Y-87163999D01*
X152466085Y-87162791D01*
X152524137Y-87151245D01*
X152573295Y-87151245D01*
X152639933Y-87164500D01*
X153060066Y-87164499D01*
X153125422Y-87151500D01*
X153174577Y-87151500D01*
X153239933Y-87164500D01*
X153634500Y-87164499D01*
X153697500Y-87181380D01*
X153743619Y-87227499D01*
X153760500Y-87290499D01*
X153760500Y-87678877D01*
X153760500Y-87678886D01*
X153760501Y-87685066D01*
X153761707Y-87691132D01*
X153761708Y-87691137D01*
X153773499Y-87750419D01*
X153773499Y-87799578D01*
X153761707Y-87858862D01*
X153761706Y-87858867D01*
X153760500Y-87864933D01*
X153760500Y-87871118D01*
X153760500Y-87871119D01*
X153760500Y-88278877D01*
X153760500Y-88278886D01*
X153760501Y-88285066D01*
X153761707Y-88291132D01*
X153761708Y-88291137D01*
X153773499Y-88350419D01*
X153773499Y-88399578D01*
X153761707Y-88458862D01*
X153761706Y-88458867D01*
X153760500Y-88464933D01*
X153760500Y-88471118D01*
X153760500Y-88471119D01*
X153760500Y-88878877D01*
X153760500Y-88878886D01*
X153760501Y-88885066D01*
X153761707Y-88891130D01*
X153761708Y-88891137D01*
X153773499Y-88950419D01*
X153773499Y-88999578D01*
X153761707Y-89058862D01*
X153761706Y-89058867D01*
X153760500Y-89064933D01*
X153760500Y-89071118D01*
X153760500Y-89071119D01*
X153760500Y-89478877D01*
X153760500Y-89478886D01*
X153760501Y-89485066D01*
X153761707Y-89491132D01*
X153761708Y-89491137D01*
X153773754Y-89551701D01*
X153773754Y-89600860D01*
X153762207Y-89658912D01*
X153761000Y-89671170D01*
X153761000Y-89731410D01*
X153764506Y-89744493D01*
X153777590Y-89748000D01*
X155422409Y-89748000D01*
X155435492Y-89744493D01*
X155438999Y-89731410D01*
X155438999Y-89719000D01*
X155455880Y-89656000D01*
X155501999Y-89609881D01*
X155564999Y-89593000D01*
X156316090Y-89593000D01*
X156364308Y-89602591D01*
X156405185Y-89629905D01*
X156595095Y-89819815D01*
X156622409Y-89860692D01*
X156632000Y-89908910D01*
X156632000Y-93619500D01*
X156615119Y-93682500D01*
X156569000Y-93728619D01*
X156506000Y-93745500D01*
X156381058Y-93745500D01*
X156372415Y-93748037D01*
X156372413Y-93748038D01*
X156257409Y-93781806D01*
X156257406Y-93781807D01*
X156248760Y-93784346D01*
X156241183Y-93789215D01*
X156241175Y-93789219D01*
X156140349Y-93854016D01*
X156140344Y-93854020D01*
X156132765Y-93858891D01*
X156126863Y-93865701D01*
X156126862Y-93865703D01*
X156048372Y-93956286D01*
X156048369Y-93956289D01*
X156042471Y-93963097D01*
X156038728Y-93971291D01*
X156038727Y-93971294D01*
X155988935Y-94080322D01*
X155988933Y-94080327D01*
X155985192Y-94088520D01*
X155965569Y-94225000D01*
X155985192Y-94361480D01*
X155988934Y-94369674D01*
X155988935Y-94369677D01*
X156038727Y-94478705D01*
X156042471Y-94486903D01*
X156048372Y-94493713D01*
X156101225Y-94554709D01*
X156124056Y-94593189D01*
X156132000Y-94637221D01*
X156132000Y-95055608D01*
X156131521Y-95066590D01*
X156129283Y-95092160D01*
X156129283Y-95092165D01*
X156128323Y-95103143D01*
X156131175Y-95113790D01*
X156131176Y-95113791D01*
X156137818Y-95138579D01*
X156140197Y-95149309D01*
X156146568Y-95185440D01*
X156152076Y-95194982D01*
X156153163Y-95197967D01*
X156154496Y-95200826D01*
X156157348Y-95211466D01*
X156178404Y-95241538D01*
X156184293Y-95250784D01*
X156202640Y-95282560D01*
X156211086Y-95289647D01*
X156230745Y-95306143D01*
X156238849Y-95313569D01*
X156395095Y-95469815D01*
X156422409Y-95510692D01*
X156432000Y-95558910D01*
X156432000Y-96055608D01*
X156431521Y-96066590D01*
X156429283Y-96092160D01*
X156429283Y-96092165D01*
X156428323Y-96103143D01*
X156431175Y-96113790D01*
X156431176Y-96113791D01*
X156437818Y-96138579D01*
X156440197Y-96149309D01*
X156446568Y-96185440D01*
X156452076Y-96194982D01*
X156453163Y-96197967D01*
X156454496Y-96200826D01*
X156457348Y-96211466D01*
X156478404Y-96241538D01*
X156484293Y-96250784D01*
X156502640Y-96282560D01*
X156530752Y-96306149D01*
X156538842Y-96313562D01*
X156672137Y-96446857D01*
X156795095Y-96569814D01*
X156822409Y-96610692D01*
X156832000Y-96658910D01*
X156832000Y-99191090D01*
X156822409Y-99239308D01*
X156795097Y-99280182D01*
X156510355Y-99564925D01*
X156245838Y-99829442D01*
X156185719Y-99862969D01*
X156116952Y-99859898D01*
X156060061Y-99821145D01*
X156032027Y-99758282D01*
X156014808Y-99638520D01*
X156003416Y-99613576D01*
X155964035Y-99527343D01*
X155952648Y-99475000D01*
X155964035Y-99422657D01*
X156004393Y-99334285D01*
X156014808Y-99311480D01*
X156034431Y-99175000D01*
X156014808Y-99038520D01*
X155957529Y-98913097D01*
X155867235Y-98808891D01*
X155859651Y-98804017D01*
X155859650Y-98804016D01*
X155758824Y-98739219D01*
X155758819Y-98739216D01*
X155751240Y-98734346D01*
X155739936Y-98731027D01*
X155627586Y-98698038D01*
X155627585Y-98698037D01*
X155618942Y-98695500D01*
X155481058Y-98695500D01*
X155472415Y-98698037D01*
X155472413Y-98698038D01*
X155357409Y-98731806D01*
X155357406Y-98731807D01*
X155348760Y-98734346D01*
X155341183Y-98739215D01*
X155341175Y-98739219D01*
X155240349Y-98804016D01*
X155240344Y-98804020D01*
X155232765Y-98808891D01*
X155226863Y-98815701D01*
X155220051Y-98821605D01*
X155219224Y-98820650D01*
X155185879Y-98845613D01*
X155133536Y-98857000D01*
X154969394Y-98857000D01*
X154958415Y-98856521D01*
X154935312Y-98854500D01*
X154932831Y-98854283D01*
X154921857Y-98853323D01*
X154911218Y-98856173D01*
X154911213Y-98856174D01*
X154886418Y-98862818D01*
X154875693Y-98865195D01*
X154850415Y-98869652D01*
X154850404Y-98869655D01*
X154839560Y-98871568D01*
X154830022Y-98877073D01*
X154827040Y-98878159D01*
X154824171Y-98879497D01*
X154813534Y-98882348D01*
X154804506Y-98888668D01*
X154794523Y-98893325D01*
X154793789Y-98891751D01*
X154742444Y-98909806D01*
X154676024Y-98895838D01*
X154626487Y-98849440D01*
X154608207Y-98784076D01*
X154608207Y-98783188D01*
X154609285Y-98775000D01*
X154590228Y-98630246D01*
X154534355Y-98495358D01*
X154445474Y-98379526D01*
X154329643Y-98290645D01*
X154322016Y-98287485D01*
X154322013Y-98287484D01*
X154202383Y-98237932D01*
X154202382Y-98237931D01*
X154194754Y-98234772D01*
X154186571Y-98233694D01*
X154186565Y-98233693D01*
X154058188Y-98216793D01*
X154050000Y-98215715D01*
X154041812Y-98216793D01*
X154041810Y-98216793D01*
X154031939Y-98218092D01*
X153962245Y-98207362D01*
X153909230Y-98160867D01*
X153889499Y-98093172D01*
X153889499Y-97040498D01*
X153906380Y-96977499D01*
X153952499Y-96931380D01*
X154015495Y-96914499D01*
X155210066Y-96914499D01*
X155212221Y-96914070D01*
X155258026Y-96918374D01*
X155381058Y-96954500D01*
X155509933Y-96954500D01*
X155518942Y-96954500D01*
X155651240Y-96915654D01*
X155767235Y-96841109D01*
X155857529Y-96736903D01*
X155914808Y-96611480D01*
X155934431Y-96475000D01*
X155914808Y-96338520D01*
X155887821Y-96279428D01*
X155864035Y-96227343D01*
X155852648Y-96175000D01*
X155864035Y-96122657D01*
X155911063Y-96019680D01*
X155914808Y-96011480D01*
X155934431Y-95875000D01*
X155914808Y-95738520D01*
X155857529Y-95613097D01*
X155767235Y-95508891D01*
X155759651Y-95504017D01*
X155759650Y-95504016D01*
X155658824Y-95439219D01*
X155658819Y-95439216D01*
X155651240Y-95434346D01*
X155583855Y-95414560D01*
X155530001Y-95398747D01*
X155482987Y-95373075D01*
X155450885Y-95330193D01*
X155439499Y-95277853D01*
X155439499Y-95064934D01*
X155426500Y-94999578D01*
X155426500Y-94950423D01*
X155439500Y-94885067D01*
X155439499Y-94464934D01*
X155426500Y-94399578D01*
X155426500Y-94350423D01*
X155439500Y-94285067D01*
X155439499Y-93864934D01*
X155426500Y-93799578D01*
X155426500Y-93750423D01*
X155439500Y-93685067D01*
X155439499Y-93264934D01*
X155426500Y-93199578D01*
X155426500Y-93150423D01*
X155439500Y-93085067D01*
X155439499Y-92664934D01*
X155426500Y-92599578D01*
X155426500Y-92550423D01*
X155439500Y-92485067D01*
X155439499Y-92064934D01*
X155426500Y-91999578D01*
X155426500Y-91950423D01*
X155439500Y-91885067D01*
X155439499Y-91464934D01*
X155426500Y-91399578D01*
X155426500Y-91350423D01*
X155439500Y-91285067D01*
X155439499Y-90864934D01*
X155426500Y-90799578D01*
X155426500Y-90750423D01*
X155439500Y-90685067D01*
X155439499Y-90264934D01*
X155426245Y-90198296D01*
X155426245Y-90149137D01*
X155437793Y-90091082D01*
X155439000Y-90078830D01*
X155439000Y-90018590D01*
X155435493Y-90005506D01*
X155422410Y-90002000D01*
X153777591Y-90002000D01*
X153764507Y-90005506D01*
X153761001Y-90018590D01*
X153761001Y-90078828D01*
X153762207Y-90091080D01*
X153773755Y-90149139D01*
X153773754Y-90198297D01*
X153761707Y-90258862D01*
X153761707Y-90258864D01*
X153760500Y-90264933D01*
X153760500Y-90271118D01*
X153760500Y-90271119D01*
X153760500Y-90678877D01*
X153760500Y-90678886D01*
X153760501Y-90685066D01*
X153761707Y-90691132D01*
X153761708Y-90691137D01*
X153773499Y-90750419D01*
X153773499Y-90799578D01*
X153761707Y-90858862D01*
X153761707Y-90858864D01*
X153760500Y-90864933D01*
X153760500Y-90871118D01*
X153760500Y-90871119D01*
X153760500Y-91278877D01*
X153760500Y-91278886D01*
X153760501Y-91285066D01*
X153761707Y-91291132D01*
X153761708Y-91291137D01*
X153773499Y-91350419D01*
X153773499Y-91399578D01*
X153761707Y-91458862D01*
X153761707Y-91458864D01*
X153760500Y-91464933D01*
X153760500Y-91471118D01*
X153760500Y-91471119D01*
X153760500Y-91878877D01*
X153760500Y-91878886D01*
X153760501Y-91885066D01*
X153761707Y-91891132D01*
X153761708Y-91891137D01*
X153773499Y-91950419D01*
X153773499Y-91999578D01*
X153761707Y-92058862D01*
X153761707Y-92058864D01*
X153760500Y-92064933D01*
X153760500Y-92071118D01*
X153760500Y-92071119D01*
X153760500Y-92478877D01*
X153760500Y-92478886D01*
X153760501Y-92485066D01*
X153761707Y-92491132D01*
X153761708Y-92491137D01*
X153773499Y-92550419D01*
X153773499Y-92599578D01*
X153761707Y-92658862D01*
X153761707Y-92658864D01*
X153760500Y-92664933D01*
X153760500Y-92671118D01*
X153760500Y-92671119D01*
X153760500Y-93078877D01*
X153760500Y-93078886D01*
X153760501Y-93085066D01*
X153761707Y-93091132D01*
X153761708Y-93091137D01*
X153773499Y-93150419D01*
X153773499Y-93199578D01*
X153761707Y-93258862D01*
X153761707Y-93258864D01*
X153760500Y-93264933D01*
X153760500Y-93271118D01*
X153760500Y-93271119D01*
X153760500Y-93678877D01*
X153760500Y-93678886D01*
X153760501Y-93685066D01*
X153761707Y-93691132D01*
X153761708Y-93691137D01*
X153773499Y-93750419D01*
X153773499Y-93799578D01*
X153761707Y-93858862D01*
X153761707Y-93858864D01*
X153760500Y-93864933D01*
X153760500Y-93871118D01*
X153760500Y-93871119D01*
X153760500Y-94278877D01*
X153760500Y-94278886D01*
X153760501Y-94285066D01*
X153761707Y-94291132D01*
X153761708Y-94291137D01*
X153773499Y-94350419D01*
X153773499Y-94399578D01*
X153761707Y-94458862D01*
X153761707Y-94458864D01*
X153760500Y-94464933D01*
X153760500Y-94471118D01*
X153760500Y-94471119D01*
X153760500Y-94878877D01*
X153760500Y-94878886D01*
X153760501Y-94885066D01*
X153761707Y-94891132D01*
X153761708Y-94891137D01*
X153773499Y-94950419D01*
X153773499Y-94999578D01*
X153761707Y-95058862D01*
X153761707Y-95058864D01*
X153760500Y-95064933D01*
X153760500Y-95071118D01*
X153760500Y-95071119D01*
X153760500Y-95478877D01*
X153760500Y-95478886D01*
X153760501Y-95485066D01*
X153761707Y-95491132D01*
X153761708Y-95491137D01*
X153773499Y-95550419D01*
X153773499Y-95599578D01*
X153761707Y-95658862D01*
X153761707Y-95658864D01*
X153760500Y-95664933D01*
X153760500Y-95671118D01*
X153760500Y-95671119D01*
X153760500Y-96078877D01*
X153760500Y-96078886D01*
X153760501Y-96085066D01*
X153761707Y-96091132D01*
X153761708Y-96091137D01*
X153773499Y-96150419D01*
X153773499Y-96199578D01*
X153761707Y-96258862D01*
X153761707Y-96258864D01*
X153760500Y-96264933D01*
X153760500Y-96271119D01*
X153760500Y-96271120D01*
X153760500Y-96659500D01*
X153743619Y-96722500D01*
X153697500Y-96768619D01*
X153634500Y-96785500D01*
X153246122Y-96785500D01*
X153246111Y-96785500D01*
X153239934Y-96785501D01*
X153233871Y-96786706D01*
X153233869Y-96786707D01*
X153197625Y-96793915D01*
X153174578Y-96798499D01*
X153125421Y-96798499D01*
X153066137Y-96786707D01*
X153066133Y-96786706D01*
X153060067Y-96785500D01*
X153053880Y-96785500D01*
X152646122Y-96785500D01*
X152646111Y-96785500D01*
X152639934Y-96785501D01*
X152633871Y-96786706D01*
X152633869Y-96786707D01*
X152597625Y-96793915D01*
X152574578Y-96798499D01*
X152525421Y-96798499D01*
X152466137Y-96786707D01*
X152466133Y-96786706D01*
X152460067Y-96785500D01*
X152453880Y-96785500D01*
X152046122Y-96785500D01*
X152046111Y-96785500D01*
X152039934Y-96785501D01*
X152033871Y-96786706D01*
X152033869Y-96786707D01*
X151997625Y-96793915D01*
X151974578Y-96798499D01*
X151925421Y-96798499D01*
X151866137Y-96786707D01*
X151866133Y-96786706D01*
X151860067Y-96785500D01*
X151853880Y-96785500D01*
X151446122Y-96785500D01*
X151446111Y-96785500D01*
X151439934Y-96785501D01*
X151433871Y-96786706D01*
X151433869Y-96786707D01*
X151398015Y-96793838D01*
X151373295Y-96798754D01*
X151324138Y-96798754D01*
X151266085Y-96787207D01*
X151253830Y-96786000D01*
X151193590Y-96786000D01*
X151180506Y-96789506D01*
X151177000Y-96802590D01*
X151177000Y-97626000D01*
X151160119Y-97689000D01*
X151114000Y-97735119D01*
X151051000Y-97752000D01*
X151049000Y-97752000D01*
X150986000Y-97735119D01*
X150939881Y-97689000D01*
X150923000Y-97626000D01*
X150923000Y-96802591D01*
X150919493Y-96789507D01*
X150906410Y-96786001D01*
X150846172Y-96786001D01*
X150833919Y-96787207D01*
X150775860Y-96798755D01*
X150726701Y-96798754D01*
X150666135Y-96786707D01*
X150660067Y-96785500D01*
X150653880Y-96785500D01*
X150246122Y-96785500D01*
X150246111Y-96785500D01*
X150239934Y-96785501D01*
X150233871Y-96786706D01*
X150233869Y-96786707D01*
X150197625Y-96793915D01*
X150174578Y-96798499D01*
X150125421Y-96798499D01*
X150066137Y-96786707D01*
X150066133Y-96786706D01*
X150060067Y-96785500D01*
X150053880Y-96785500D01*
X149646122Y-96785500D01*
X149646111Y-96785500D01*
X149639934Y-96785501D01*
X149633871Y-96786706D01*
X149633869Y-96786707D01*
X149597625Y-96793915D01*
X149574578Y-96798499D01*
X149525421Y-96798499D01*
X149466137Y-96786707D01*
X149466133Y-96786706D01*
X149460067Y-96785500D01*
X149453880Y-96785500D01*
X149046122Y-96785500D01*
X149046111Y-96785500D01*
X149039934Y-96785501D01*
X149033871Y-96786706D01*
X149033869Y-96786707D01*
X148997625Y-96793915D01*
X148974578Y-96798499D01*
X148925421Y-96798499D01*
X148866137Y-96786707D01*
X148866133Y-96786706D01*
X148860067Y-96785500D01*
X148853880Y-96785500D01*
X148446122Y-96785500D01*
X148446111Y-96785500D01*
X148439934Y-96785501D01*
X148433871Y-96786706D01*
X148433869Y-96786707D01*
X148397625Y-96793915D01*
X148374578Y-96798499D01*
X148325421Y-96798499D01*
X148266137Y-96786707D01*
X148266133Y-96786706D01*
X148260067Y-96785500D01*
X148253880Y-96785500D01*
X147846122Y-96785500D01*
X147846111Y-96785500D01*
X147839934Y-96785501D01*
X147833871Y-96786706D01*
X147833869Y-96786707D01*
X147797625Y-96793915D01*
X147774578Y-96798499D01*
X147725421Y-96798499D01*
X147666137Y-96786707D01*
X147666133Y-96786706D01*
X147660067Y-96785500D01*
X147653880Y-96785500D01*
X147246122Y-96785500D01*
X147246111Y-96785500D01*
X147239934Y-96785501D01*
X147233871Y-96786706D01*
X147233869Y-96786707D01*
X147197625Y-96793915D01*
X147174578Y-96798499D01*
X147125421Y-96798499D01*
X147066137Y-96786707D01*
X147066133Y-96786706D01*
X147060067Y-96785500D01*
X147053880Y-96785500D01*
X146646122Y-96785500D01*
X146646111Y-96785500D01*
X146639934Y-96785501D01*
X146633871Y-96786706D01*
X146633869Y-96786707D01*
X146597625Y-96793915D01*
X146574578Y-96798499D01*
X146525421Y-96798499D01*
X146466137Y-96786707D01*
X146466133Y-96786706D01*
X146460067Y-96785500D01*
X146453880Y-96785500D01*
X146046122Y-96785500D01*
X146046111Y-96785500D01*
X146039934Y-96785501D01*
X146033871Y-96786706D01*
X146033869Y-96786707D01*
X145997625Y-96793915D01*
X145974578Y-96798499D01*
X145925421Y-96798499D01*
X145866137Y-96786707D01*
X145866133Y-96786706D01*
X145860067Y-96785500D01*
X145853880Y-96785500D01*
X145446122Y-96785500D01*
X145446111Y-96785500D01*
X145439934Y-96785501D01*
X145433871Y-96786706D01*
X145433869Y-96786707D01*
X145397625Y-96793915D01*
X145374578Y-96798499D01*
X145325421Y-96798499D01*
X145266137Y-96786707D01*
X145266133Y-96786706D01*
X145260067Y-96785500D01*
X145253880Y-96785500D01*
X144846122Y-96785500D01*
X144846111Y-96785500D01*
X144839934Y-96785501D01*
X144833871Y-96786706D01*
X144833869Y-96786707D01*
X144797625Y-96793915D01*
X144774578Y-96798499D01*
X144725421Y-96798499D01*
X144666137Y-96786707D01*
X144666133Y-96786706D01*
X144660067Y-96785500D01*
X144653880Y-96785500D01*
X144265499Y-96785500D01*
X144202499Y-96768619D01*
X144156380Y-96722500D01*
X144139499Y-96659503D01*
X144139499Y-96264934D01*
X144126500Y-96199578D01*
X144126500Y-96150423D01*
X144139500Y-96085067D01*
X144139499Y-95664934D01*
X144126500Y-95599578D01*
X144126500Y-95593828D01*
X145096001Y-95593828D01*
X145097208Y-95606087D01*
X145108315Y-95661930D01*
X145117633Y-95684426D01*
X145159983Y-95747808D01*
X145177191Y-95765016D01*
X145240574Y-95807367D01*
X145263066Y-95816684D01*
X145318914Y-95827792D01*
X145331170Y-95829000D01*
X146006410Y-95829000D01*
X146019493Y-95825493D01*
X146023000Y-95812410D01*
X146023000Y-95812409D01*
X146277000Y-95812409D01*
X146280506Y-95825492D01*
X146293590Y-95828999D01*
X146968828Y-95828999D01*
X146981087Y-95827791D01*
X147036930Y-95816684D01*
X147059426Y-95807366D01*
X147122808Y-95765016D01*
X147140016Y-95747808D01*
X147182367Y-95684425D01*
X147191684Y-95661933D01*
X147202792Y-95606085D01*
X147204000Y-95593830D01*
X147204000Y-95593828D01*
X147896001Y-95593828D01*
X147897208Y-95606087D01*
X147908315Y-95661930D01*
X147917633Y-95684426D01*
X147959983Y-95747808D01*
X147977191Y-95765016D01*
X148040574Y-95807367D01*
X148063066Y-95816684D01*
X148118914Y-95827792D01*
X148131170Y-95829000D01*
X148806410Y-95829000D01*
X148819493Y-95825493D01*
X148823000Y-95812410D01*
X148823000Y-95812409D01*
X149077000Y-95812409D01*
X149080506Y-95825492D01*
X149093590Y-95828999D01*
X149768828Y-95828999D01*
X149781087Y-95827791D01*
X149836930Y-95816684D01*
X149859426Y-95807366D01*
X149922808Y-95765016D01*
X149940016Y-95747808D01*
X149982367Y-95684425D01*
X149991684Y-95661933D01*
X150002792Y-95606085D01*
X150004000Y-95593830D01*
X150004000Y-95593828D01*
X150696001Y-95593828D01*
X150697208Y-95606087D01*
X150708315Y-95661930D01*
X150717633Y-95684426D01*
X150759983Y-95747808D01*
X150777191Y-95765016D01*
X150840574Y-95807367D01*
X150863066Y-95816684D01*
X150918914Y-95827792D01*
X150931170Y-95829000D01*
X151606410Y-95829000D01*
X151619493Y-95825493D01*
X151623000Y-95812410D01*
X151623000Y-95812409D01*
X151877000Y-95812409D01*
X151880506Y-95825492D01*
X151893590Y-95828999D01*
X152568828Y-95828999D01*
X152581087Y-95827791D01*
X152636930Y-95816684D01*
X152659426Y-95807366D01*
X152722808Y-95765016D01*
X152740016Y-95747808D01*
X152782367Y-95684425D01*
X152791684Y-95661933D01*
X152802792Y-95606085D01*
X152804000Y-95593830D01*
X152804000Y-94918590D01*
X152800493Y-94905506D01*
X152787410Y-94902000D01*
X151893590Y-94902000D01*
X151880506Y-94905506D01*
X151877000Y-94918590D01*
X151877000Y-95812409D01*
X151623000Y-95812409D01*
X151623000Y-94918590D01*
X151619493Y-94905506D01*
X151606410Y-94902000D01*
X150712591Y-94902000D01*
X150699507Y-94905506D01*
X150696001Y-94918590D01*
X150696001Y-95593828D01*
X150004000Y-95593828D01*
X150004000Y-94918590D01*
X150000493Y-94905506D01*
X149987410Y-94902000D01*
X149093590Y-94902000D01*
X149080506Y-94905506D01*
X149077000Y-94918590D01*
X149077000Y-95812409D01*
X148823000Y-95812409D01*
X148823000Y-94918590D01*
X148819493Y-94905506D01*
X148806410Y-94902000D01*
X147912591Y-94902000D01*
X147899507Y-94905506D01*
X147896001Y-94918590D01*
X147896001Y-95593828D01*
X147204000Y-95593828D01*
X147204000Y-94918590D01*
X147200493Y-94905506D01*
X147187410Y-94902000D01*
X146293590Y-94902000D01*
X146280506Y-94905506D01*
X146277000Y-94918590D01*
X146277000Y-95812409D01*
X146023000Y-95812409D01*
X146023000Y-94918590D01*
X146019493Y-94905506D01*
X146006410Y-94902000D01*
X145112591Y-94902000D01*
X145099507Y-94905506D01*
X145096001Y-94918590D01*
X145096001Y-95593828D01*
X144126500Y-95593828D01*
X144126500Y-95550423D01*
X144139500Y-95485067D01*
X144139499Y-95064934D01*
X144126500Y-94999578D01*
X144126500Y-94950423D01*
X144139500Y-94885067D01*
X144139499Y-94631410D01*
X145096000Y-94631410D01*
X145099506Y-94644493D01*
X145112590Y-94648000D01*
X146006410Y-94648000D01*
X146019493Y-94644493D01*
X146023000Y-94631410D01*
X146277000Y-94631410D01*
X146280506Y-94644493D01*
X146293590Y-94648000D01*
X147187409Y-94648000D01*
X147200492Y-94644493D01*
X147203999Y-94631410D01*
X147896000Y-94631410D01*
X147899506Y-94644493D01*
X147912590Y-94648000D01*
X148806410Y-94648000D01*
X148819493Y-94644493D01*
X148823000Y-94631410D01*
X149077000Y-94631410D01*
X149080506Y-94644493D01*
X149093590Y-94648000D01*
X149987409Y-94648000D01*
X150000492Y-94644493D01*
X150003999Y-94631410D01*
X150696000Y-94631410D01*
X150699506Y-94644493D01*
X150712590Y-94648000D01*
X151606410Y-94648000D01*
X151619493Y-94644493D01*
X151623000Y-94631410D01*
X151877000Y-94631410D01*
X151880506Y-94644493D01*
X151893590Y-94648000D01*
X152787409Y-94648000D01*
X152800492Y-94644493D01*
X152803999Y-94631410D01*
X152803999Y-93956172D01*
X152802791Y-93943912D01*
X152791684Y-93888069D01*
X152782366Y-93865573D01*
X152740016Y-93802191D01*
X152722808Y-93784983D01*
X152659425Y-93742632D01*
X152636933Y-93733315D01*
X152581085Y-93722207D01*
X152568830Y-93721000D01*
X151893590Y-93721000D01*
X151880506Y-93724506D01*
X151877000Y-93737590D01*
X151877000Y-94631410D01*
X151623000Y-94631410D01*
X151623000Y-93737591D01*
X151619493Y-93724507D01*
X151606410Y-93721001D01*
X150931172Y-93721001D01*
X150918912Y-93722208D01*
X150863069Y-93733315D01*
X150840573Y-93742633D01*
X150777191Y-93784983D01*
X150759983Y-93802191D01*
X150717632Y-93865574D01*
X150708315Y-93888066D01*
X150697207Y-93943914D01*
X150696000Y-93956170D01*
X150696000Y-94631410D01*
X150003999Y-94631410D01*
X150003999Y-93956172D01*
X150002791Y-93943912D01*
X149991684Y-93888069D01*
X149982366Y-93865573D01*
X149940016Y-93802191D01*
X149922808Y-93784983D01*
X149859425Y-93742632D01*
X149836933Y-93733315D01*
X149781085Y-93722207D01*
X149768830Y-93721000D01*
X149093590Y-93721000D01*
X149080506Y-93724506D01*
X149077000Y-93737590D01*
X149077000Y-94631410D01*
X148823000Y-94631410D01*
X148823000Y-93737591D01*
X148819493Y-93724507D01*
X148806410Y-93721001D01*
X148131172Y-93721001D01*
X148118912Y-93722208D01*
X148063069Y-93733315D01*
X148040573Y-93742633D01*
X147977191Y-93784983D01*
X147959983Y-93802191D01*
X147917632Y-93865574D01*
X147908315Y-93888066D01*
X147897207Y-93943914D01*
X147896000Y-93956170D01*
X147896000Y-94631410D01*
X147203999Y-94631410D01*
X147203999Y-93956172D01*
X147202791Y-93943912D01*
X147191684Y-93888069D01*
X147182366Y-93865573D01*
X147140016Y-93802191D01*
X147122808Y-93784983D01*
X147059425Y-93742632D01*
X147036933Y-93733315D01*
X146981085Y-93722207D01*
X146968830Y-93721000D01*
X146293590Y-93721000D01*
X146280506Y-93724506D01*
X146277000Y-93737590D01*
X146277000Y-94631410D01*
X146023000Y-94631410D01*
X146023000Y-93737591D01*
X146019493Y-93724507D01*
X146006410Y-93721001D01*
X145331172Y-93721001D01*
X145318912Y-93722208D01*
X145263069Y-93733315D01*
X145240573Y-93742633D01*
X145177191Y-93784983D01*
X145159983Y-93802191D01*
X145117632Y-93865574D01*
X145108315Y-93888066D01*
X145097207Y-93943914D01*
X145096000Y-93956170D01*
X145096000Y-94631410D01*
X144139499Y-94631410D01*
X144139499Y-94464934D01*
X144126500Y-94399578D01*
X144126500Y-94350423D01*
X144139500Y-94285067D01*
X144139499Y-93864934D01*
X144126500Y-93799578D01*
X144126500Y-93750423D01*
X144139500Y-93685067D01*
X144139499Y-93264934D01*
X144126500Y-93199578D01*
X144126500Y-93150423D01*
X144139500Y-93085067D01*
X144139499Y-92793828D01*
X145096001Y-92793828D01*
X145097208Y-92806087D01*
X145108315Y-92861930D01*
X145117633Y-92884426D01*
X145159983Y-92947808D01*
X145177191Y-92965016D01*
X145240574Y-93007367D01*
X145263066Y-93016684D01*
X145318914Y-93027792D01*
X145331170Y-93029000D01*
X146006410Y-93029000D01*
X146019493Y-93025493D01*
X146023000Y-93012410D01*
X146023000Y-93012409D01*
X146277000Y-93012409D01*
X146280506Y-93025492D01*
X146293590Y-93028999D01*
X146968828Y-93028999D01*
X146981087Y-93027791D01*
X147036930Y-93016684D01*
X147059426Y-93007366D01*
X147122808Y-92965016D01*
X147140016Y-92947808D01*
X147182367Y-92884425D01*
X147191684Y-92861933D01*
X147202792Y-92806085D01*
X147204000Y-92793830D01*
X147204000Y-92793828D01*
X147896001Y-92793828D01*
X147897208Y-92806087D01*
X147908315Y-92861930D01*
X147917633Y-92884426D01*
X147959983Y-92947808D01*
X147977191Y-92965016D01*
X148040574Y-93007367D01*
X148063066Y-93016684D01*
X148118914Y-93027792D01*
X148131170Y-93029000D01*
X148806410Y-93029000D01*
X148819493Y-93025493D01*
X148823000Y-93012410D01*
X148823000Y-93012409D01*
X149077000Y-93012409D01*
X149080506Y-93025492D01*
X149093590Y-93028999D01*
X149768828Y-93028999D01*
X149781087Y-93027791D01*
X149836930Y-93016684D01*
X149859426Y-93007366D01*
X149922808Y-92965016D01*
X149940016Y-92947808D01*
X149982367Y-92884425D01*
X149991684Y-92861933D01*
X150002792Y-92806085D01*
X150004000Y-92793830D01*
X150004000Y-92793828D01*
X150696001Y-92793828D01*
X150697208Y-92806087D01*
X150708315Y-92861930D01*
X150717633Y-92884426D01*
X150759983Y-92947808D01*
X150777191Y-92965016D01*
X150840574Y-93007367D01*
X150863066Y-93016684D01*
X150918914Y-93027792D01*
X150931170Y-93029000D01*
X151606410Y-93029000D01*
X151619493Y-93025493D01*
X151623000Y-93012410D01*
X151623000Y-93012409D01*
X151877000Y-93012409D01*
X151880506Y-93025492D01*
X151893590Y-93028999D01*
X152568828Y-93028999D01*
X152581087Y-93027791D01*
X152636930Y-93016684D01*
X152659426Y-93007366D01*
X152722808Y-92965016D01*
X152740016Y-92947808D01*
X152782367Y-92884425D01*
X152791684Y-92861933D01*
X152802792Y-92806085D01*
X152804000Y-92793830D01*
X152804000Y-92118590D01*
X152800493Y-92105506D01*
X152787410Y-92102000D01*
X151893590Y-92102000D01*
X151880506Y-92105506D01*
X151877000Y-92118590D01*
X151877000Y-93012409D01*
X151623000Y-93012409D01*
X151623000Y-92118590D01*
X151619493Y-92105506D01*
X151606410Y-92102000D01*
X150712591Y-92102000D01*
X150699507Y-92105506D01*
X150696001Y-92118590D01*
X150696001Y-92793828D01*
X150004000Y-92793828D01*
X150004000Y-92118590D01*
X150000493Y-92105506D01*
X149987410Y-92102000D01*
X149093590Y-92102000D01*
X149080506Y-92105506D01*
X149077000Y-92118590D01*
X149077000Y-93012409D01*
X148823000Y-93012409D01*
X148823000Y-92118590D01*
X148819493Y-92105506D01*
X148806410Y-92102000D01*
X147912591Y-92102000D01*
X147899507Y-92105506D01*
X147896001Y-92118590D01*
X147896001Y-92793828D01*
X147204000Y-92793828D01*
X147204000Y-92118590D01*
X147200493Y-92105506D01*
X147187410Y-92102000D01*
X146293590Y-92102000D01*
X146280506Y-92105506D01*
X146277000Y-92118590D01*
X146277000Y-93012409D01*
X146023000Y-93012409D01*
X146023000Y-92118590D01*
X146019493Y-92105506D01*
X146006410Y-92102000D01*
X145112591Y-92102000D01*
X145099507Y-92105506D01*
X145096001Y-92118590D01*
X145096001Y-92793828D01*
X144139499Y-92793828D01*
X144139499Y-92664934D01*
X144126500Y-92599578D01*
X144126500Y-92550423D01*
X144139500Y-92485067D01*
X144139499Y-92064934D01*
X144126245Y-91998296D01*
X144126245Y-91949137D01*
X144137793Y-91891082D01*
X144139000Y-91878830D01*
X144139000Y-91831410D01*
X145096000Y-91831410D01*
X145099506Y-91844493D01*
X145112590Y-91848000D01*
X146006410Y-91848000D01*
X146019493Y-91844493D01*
X146023000Y-91831410D01*
X146277000Y-91831410D01*
X146280506Y-91844493D01*
X146293590Y-91848000D01*
X147187409Y-91848000D01*
X147200492Y-91844493D01*
X147203999Y-91831410D01*
X147896000Y-91831410D01*
X147899506Y-91844493D01*
X147912590Y-91848000D01*
X148806410Y-91848000D01*
X148819493Y-91844493D01*
X148823000Y-91831410D01*
X149077000Y-91831410D01*
X149080506Y-91844493D01*
X149093590Y-91848000D01*
X149987409Y-91848000D01*
X150000492Y-91844493D01*
X150003999Y-91831410D01*
X150696000Y-91831410D01*
X150699506Y-91844493D01*
X150712590Y-91848000D01*
X151606410Y-91848000D01*
X151619493Y-91844493D01*
X151623000Y-91831410D01*
X151877000Y-91831410D01*
X151880506Y-91844493D01*
X151893590Y-91848000D01*
X152787409Y-91848000D01*
X152800492Y-91844493D01*
X152803999Y-91831410D01*
X152803999Y-91156172D01*
X152802791Y-91143912D01*
X152791684Y-91088069D01*
X152782366Y-91065573D01*
X152740016Y-91002191D01*
X152722808Y-90984983D01*
X152659425Y-90942632D01*
X152636933Y-90933315D01*
X152581085Y-90922207D01*
X152568830Y-90921000D01*
X151893590Y-90921000D01*
X151880506Y-90924506D01*
X151877000Y-90937590D01*
X151877000Y-91831410D01*
X151623000Y-91831410D01*
X151623000Y-90937591D01*
X151619493Y-90924507D01*
X151606410Y-90921001D01*
X150931172Y-90921001D01*
X150918912Y-90922208D01*
X150863069Y-90933315D01*
X150840573Y-90942633D01*
X150777191Y-90984983D01*
X150759983Y-91002191D01*
X150717632Y-91065574D01*
X150708315Y-91088066D01*
X150697207Y-91143914D01*
X150696000Y-91156170D01*
X150696000Y-91831410D01*
X150003999Y-91831410D01*
X150003999Y-91156172D01*
X150002791Y-91143912D01*
X149991684Y-91088069D01*
X149982366Y-91065573D01*
X149940016Y-91002191D01*
X149922808Y-90984983D01*
X149859425Y-90942632D01*
X149836933Y-90933315D01*
X149781085Y-90922207D01*
X149768830Y-90921000D01*
X149093590Y-90921000D01*
X149080506Y-90924506D01*
X149077000Y-90937590D01*
X149077000Y-91831410D01*
X148823000Y-91831410D01*
X148823000Y-90937591D01*
X148819493Y-90924507D01*
X148806410Y-90921001D01*
X148131172Y-90921001D01*
X148118912Y-90922208D01*
X148063069Y-90933315D01*
X148040573Y-90942633D01*
X147977191Y-90984983D01*
X147959983Y-91002191D01*
X147917632Y-91065574D01*
X147908315Y-91088066D01*
X147897207Y-91143914D01*
X147896000Y-91156170D01*
X147896000Y-91831410D01*
X147203999Y-91831410D01*
X147203999Y-91156172D01*
X147202791Y-91143912D01*
X147191684Y-91088069D01*
X147182366Y-91065573D01*
X147140016Y-91002191D01*
X147122808Y-90984983D01*
X147059425Y-90942632D01*
X147036933Y-90933315D01*
X146981085Y-90922207D01*
X146968830Y-90921000D01*
X146293590Y-90921000D01*
X146280506Y-90924506D01*
X146277000Y-90937590D01*
X146277000Y-91831410D01*
X146023000Y-91831410D01*
X146023000Y-90937591D01*
X146019493Y-90924507D01*
X146006410Y-90921001D01*
X145331172Y-90921001D01*
X145318912Y-90922208D01*
X145263069Y-90933315D01*
X145240573Y-90942633D01*
X145177191Y-90984983D01*
X145159983Y-91002191D01*
X145117632Y-91065574D01*
X145108315Y-91088066D01*
X145097207Y-91143914D01*
X145096000Y-91156170D01*
X145096000Y-91831410D01*
X144139000Y-91831410D01*
X144139000Y-91818590D01*
X144135493Y-91805506D01*
X144122410Y-91802000D01*
X142626739Y-91802000D01*
X142566354Y-91786588D01*
X142541513Y-91763460D01*
X142540061Y-91766198D01*
X142481482Y-91800956D01*
X142464507Y-91805504D01*
X142461001Y-91818590D01*
X142461001Y-91831000D01*
X142444120Y-91894000D01*
X142398001Y-91940119D01*
X142335001Y-91957000D01*
X141569394Y-91957000D01*
X141558415Y-91956521D01*
X141543028Y-91955175D01*
X141532831Y-91954283D01*
X141521857Y-91953323D01*
X141511218Y-91956173D01*
X141511213Y-91956174D01*
X141486418Y-91962818D01*
X141475693Y-91965195D01*
X141450415Y-91969652D01*
X141450404Y-91969655D01*
X141439560Y-91971568D01*
X141430022Y-91977073D01*
X141427040Y-91978159D01*
X141424170Y-91979497D01*
X141413534Y-91982348D01*
X141383471Y-92003396D01*
X141374221Y-92009289D01*
X141351987Y-92022126D01*
X141351980Y-92022131D01*
X141342440Y-92027640D01*
X141335357Y-92036080D01*
X141335353Y-92036084D01*
X141318849Y-92055752D01*
X141311426Y-92063852D01*
X141096135Y-92279143D01*
X141038201Y-92312134D01*
X140971544Y-92310945D01*
X140918942Y-92295500D01*
X140781058Y-92295500D01*
X140772415Y-92298037D01*
X140772413Y-92298038D01*
X140657409Y-92331806D01*
X140657406Y-92331807D01*
X140648760Y-92334346D01*
X140641183Y-92339215D01*
X140641175Y-92339219D01*
X140540349Y-92404016D01*
X140540344Y-92404020D01*
X140532765Y-92408891D01*
X140526863Y-92415701D01*
X140526862Y-92415703D01*
X140448372Y-92506286D01*
X140448369Y-92506289D01*
X140442471Y-92513097D01*
X140438728Y-92521291D01*
X140438727Y-92521294D01*
X140388935Y-92630322D01*
X140388933Y-92630327D01*
X140385192Y-92638520D01*
X140383909Y-92647440D01*
X140383909Y-92647442D01*
X140373621Y-92719000D01*
X140365569Y-92775000D01*
X140385192Y-92911480D01*
X140388934Y-92919674D01*
X140388935Y-92919677D01*
X140409641Y-92965016D01*
X140442471Y-93036903D01*
X140532765Y-93141109D01*
X140540348Y-93145982D01*
X140540349Y-93145983D01*
X140641175Y-93210780D01*
X140641177Y-93210781D01*
X140648760Y-93215654D01*
X140781058Y-93254500D01*
X140909933Y-93254500D01*
X140918942Y-93254500D01*
X141051240Y-93215654D01*
X141167235Y-93141109D01*
X141257529Y-93036903D01*
X141264653Y-93021302D01*
X141290170Y-92984548D01*
X141644815Y-92629904D01*
X141685693Y-92602591D01*
X141733911Y-92593000D01*
X142334500Y-92593000D01*
X142397500Y-92609881D01*
X142443619Y-92656000D01*
X142460500Y-92719000D01*
X142460500Y-93078877D01*
X142460500Y-93078886D01*
X142460501Y-93085066D01*
X142461707Y-93091132D01*
X142461708Y-93091137D01*
X142473499Y-93150419D01*
X142473499Y-93199578D01*
X142461707Y-93258862D01*
X142461707Y-93258864D01*
X142460500Y-93264933D01*
X142460500Y-93271118D01*
X142460500Y-93271119D01*
X142460500Y-93678877D01*
X142460500Y-93678886D01*
X142460501Y-93685066D01*
X142461707Y-93691132D01*
X142461708Y-93691137D01*
X142473499Y-93750419D01*
X142473499Y-93799578D01*
X142461707Y-93858862D01*
X142461707Y-93858864D01*
X142460500Y-93864933D01*
X142460500Y-93871118D01*
X142460500Y-93871119D01*
X142460500Y-94278877D01*
X142460500Y-94278886D01*
X142460501Y-94285066D01*
X142461707Y-94291132D01*
X142461708Y-94291137D01*
X142473499Y-94350419D01*
X142473499Y-94399578D01*
X142461707Y-94458862D01*
X142461707Y-94458864D01*
X142460500Y-94464933D01*
X142460500Y-94471118D01*
X142460500Y-94471119D01*
X142460500Y-94878877D01*
X142460500Y-94878886D01*
X142460501Y-94885066D01*
X142461707Y-94891132D01*
X142461708Y-94891137D01*
X142473499Y-94950419D01*
X142473499Y-94999578D01*
X142461707Y-95058862D01*
X142461707Y-95058864D01*
X142460500Y-95064933D01*
X142460500Y-95228619D01*
X142460501Y-95269499D01*
X142443620Y-95332500D01*
X142397501Y-95378619D01*
X142348630Y-95391714D01*
X142348990Y-95394217D01*
X142340066Y-95395500D01*
X142331058Y-95395500D01*
X142322415Y-95398037D01*
X142322413Y-95398038D01*
X142207409Y-95431806D01*
X142207406Y-95431807D01*
X142198760Y-95434346D01*
X142191183Y-95439215D01*
X142191175Y-95439219D01*
X142090349Y-95504016D01*
X142090344Y-95504020D01*
X142082765Y-95508891D01*
X142076863Y-95515701D01*
X142076862Y-95515703D01*
X141998372Y-95606286D01*
X141998369Y-95606289D01*
X141992471Y-95613097D01*
X141988728Y-95621291D01*
X141988727Y-95621294D01*
X141938935Y-95730322D01*
X141938933Y-95730327D01*
X141935192Y-95738520D01*
X141933909Y-95747440D01*
X141933909Y-95747442D01*
X141931806Y-95762067D01*
X141915569Y-95875000D01*
X141935192Y-96011480D01*
X141938934Y-96019674D01*
X141938935Y-96019677D01*
X141985965Y-96122657D01*
X141997351Y-96174999D01*
X141985965Y-96227341D01*
X141938935Y-96330321D01*
X141938932Y-96330329D01*
X141935192Y-96338520D01*
X141915569Y-96475000D01*
X141935192Y-96611480D01*
X141938934Y-96619674D01*
X141938935Y-96619677D01*
X141957122Y-96659500D01*
X141992471Y-96736903D01*
X142082765Y-96841109D01*
X142090348Y-96845982D01*
X142090349Y-96845983D01*
X142191175Y-96910780D01*
X142191177Y-96910781D01*
X142198760Y-96915654D01*
X142331058Y-96954500D01*
X142459933Y-96954500D01*
X142468942Y-96954500D01*
X142601240Y-96915654D01*
X142601363Y-96916073D01*
X142628498Y-96908497D01*
X142667666Y-96910070D01*
X142689933Y-96914500D01*
X143884500Y-96914499D01*
X143947500Y-96931380D01*
X143993619Y-96977499D01*
X144010500Y-97040499D01*
X144010501Y-98223507D01*
X143993620Y-98286507D01*
X143947501Y-98332626D01*
X143884501Y-98349507D01*
X142037014Y-98349507D01*
X141988796Y-98339916D01*
X141947919Y-98312602D01*
X141428908Y-97793591D01*
X141400191Y-97749176D01*
X141365872Y-97658684D01*
X141363168Y-97651554D01*
X141273748Y-97522007D01*
X141268040Y-97516950D01*
X141161635Y-97422683D01*
X141161632Y-97422681D01*
X141155924Y-97417624D01*
X141016543Y-97344471D01*
X141009145Y-97342647D01*
X141009141Y-97342646D01*
X140871099Y-97308622D01*
X140871097Y-97308621D01*
X140863706Y-97306800D01*
X140711659Y-97306800D01*
X140644145Y-97287185D01*
X140597651Y-97234448D01*
X140586653Y-97165008D01*
X140614574Y-97100485D01*
X140674974Y-97027473D01*
X140674973Y-97027473D01*
X140680027Y-97021365D01*
X140747026Y-96878985D01*
X140776511Y-96724417D01*
X140766631Y-96567371D01*
X140718005Y-96417717D01*
X140633690Y-96284857D01*
X140621076Y-96273012D01*
X140524758Y-96182564D01*
X140518982Y-96177140D01*
X140448840Y-96138579D01*
X140388036Y-96105151D01*
X140388032Y-96105149D01*
X140381090Y-96101333D01*
X140373415Y-96099362D01*
X140373409Y-96099360D01*
X140236357Y-96064171D01*
X140236352Y-96064170D01*
X140228678Y-96062200D01*
X140110817Y-96062200D01*
X140110817Y-96061641D01*
X140054730Y-96051487D01*
X140007149Y-96014338D01*
X139982308Y-95959320D01*
X139985909Y-95899061D01*
X140017127Y-95847394D01*
X140046996Y-95817525D01*
X140080363Y-95793614D01*
X140119642Y-95781699D01*
X140244754Y-95765228D01*
X140379643Y-95709355D01*
X140495474Y-95620474D01*
X140584355Y-95504643D01*
X140640228Y-95369754D01*
X140659285Y-95225000D01*
X140640228Y-95080246D01*
X140636447Y-95071119D01*
X140590130Y-94959301D01*
X140584355Y-94945358D01*
X140495474Y-94829526D01*
X140464752Y-94805952D01*
X140386196Y-94745673D01*
X140386194Y-94745671D01*
X140379643Y-94740645D01*
X140372016Y-94737485D01*
X140372013Y-94737484D01*
X140252383Y-94687932D01*
X140252382Y-94687931D01*
X140244754Y-94684772D01*
X140236568Y-94683694D01*
X140236560Y-94683692D01*
X140218923Y-94681370D01*
X140173239Y-94666063D01*
X140136640Y-94634728D01*
X140115616Y-94594145D01*
X140114808Y-94588520D01*
X140057529Y-94463097D01*
X139967235Y-94358891D01*
X139959651Y-94354017D01*
X139959650Y-94354016D01*
X139858824Y-94289219D01*
X139858819Y-94289216D01*
X139851240Y-94284346D01*
X139832624Y-94278880D01*
X139727586Y-94248038D01*
X139727585Y-94248037D01*
X139718942Y-94245500D01*
X139581058Y-94245500D01*
X139572415Y-94248037D01*
X139572413Y-94248038D01*
X139457409Y-94281806D01*
X139457406Y-94281807D01*
X139448760Y-94284346D01*
X139441183Y-94289215D01*
X139441175Y-94289219D01*
X139340349Y-94354016D01*
X139340344Y-94354020D01*
X139332765Y-94358891D01*
X139326863Y-94365701D01*
X139326862Y-94365703D01*
X139248372Y-94456286D01*
X139248369Y-94456289D01*
X139242471Y-94463097D01*
X139238728Y-94471291D01*
X139238727Y-94471294D01*
X139188935Y-94580322D01*
X139188933Y-94580327D01*
X139185192Y-94588520D01*
X139183910Y-94597435D01*
X139183908Y-94597443D01*
X139165708Y-94724029D01*
X139153663Y-94762497D01*
X139130086Y-94795192D01*
X138638852Y-95286426D01*
X138630752Y-95293849D01*
X138611084Y-95310353D01*
X138611080Y-95310357D01*
X138602640Y-95317440D01*
X138597131Y-95326980D01*
X138597126Y-95326987D01*
X138584289Y-95349221D01*
X138578396Y-95358471D01*
X138557348Y-95388534D01*
X138554497Y-95399170D01*
X138553159Y-95402040D01*
X138552073Y-95405022D01*
X138546568Y-95414560D01*
X138544655Y-95425404D01*
X138544652Y-95425415D01*
X138540195Y-95450693D01*
X138537818Y-95461418D01*
X138531176Y-95486207D01*
X138531175Y-95486210D01*
X138528323Y-95496857D01*
X138529283Y-95507834D01*
X138529283Y-95507839D01*
X138531521Y-95533410D01*
X138532000Y-95544392D01*
X138532000Y-98540608D01*
X138531521Y-98551590D01*
X138529283Y-98577160D01*
X138529283Y-98577165D01*
X138528323Y-98588143D01*
X138531175Y-98598790D01*
X138531176Y-98598791D01*
X138537818Y-98623579D01*
X138540197Y-98634309D01*
X138542761Y-98648853D01*
X138546568Y-98670440D01*
X138552076Y-98679982D01*
X138553163Y-98682967D01*
X138554496Y-98685826D01*
X138557348Y-98696466D01*
X138578404Y-98726538D01*
X138584293Y-98735784D01*
X138602640Y-98767560D01*
X138621265Y-98783188D01*
X138630745Y-98791143D01*
X138638849Y-98798569D01*
X138840664Y-99000384D01*
X138870677Y-99048377D01*
X138876650Y-99104667D01*
X138863645Y-99211774D01*
X138862039Y-99225000D01*
X138862958Y-99232569D01*
X138862958Y-99232570D01*
X138876649Y-99345332D01*
X138870676Y-99401621D01*
X138840664Y-99449614D01*
X138465596Y-99824684D01*
X138415436Y-99855422D01*
X138356789Y-99860038D01*
X138302439Y-99837525D01*
X138264233Y-99792792D01*
X138250500Y-99735589D01*
X138250500Y-90775000D01*
X138747445Y-90775000D01*
X138748523Y-90783188D01*
X138766898Y-90922763D01*
X138766899Y-90922768D01*
X138767977Y-90930953D01*
X138771135Y-90938578D01*
X138771137Y-90938584D01*
X138825011Y-91068648D01*
X138825013Y-91068651D01*
X138828172Y-91076278D01*
X138923929Y-91201071D01*
X139048722Y-91296828D01*
X139056351Y-91299988D01*
X139186415Y-91353862D01*
X139186416Y-91353862D01*
X139194047Y-91357023D01*
X139350000Y-91377555D01*
X139505953Y-91357023D01*
X139651278Y-91296828D01*
X139776071Y-91201071D01*
X139871828Y-91076278D01*
X139872357Y-91075000D01*
X142042069Y-91075000D01*
X142061692Y-91211480D01*
X142065434Y-91219674D01*
X142065435Y-91219677D01*
X142100669Y-91296828D01*
X142118971Y-91336903D01*
X142209265Y-91441109D01*
X142216848Y-91445982D01*
X142216849Y-91445983D01*
X142317675Y-91510780D01*
X142317677Y-91510781D01*
X142325260Y-91515654D01*
X142457558Y-91554500D01*
X142466575Y-91554500D01*
X142466798Y-91554532D01*
X142529090Y-91582087D01*
X142536742Y-91593108D01*
X142551230Y-91575132D01*
X142596046Y-91556568D01*
X142595439Y-91554501D01*
X142595442Y-91554500D01*
X142600192Y-91553105D01*
X142606647Y-91552176D01*
X142608808Y-91551282D01*
X142613009Y-91550678D01*
X142613091Y-91551250D01*
X142635694Y-91548000D01*
X144122409Y-91548000D01*
X144135492Y-91544493D01*
X144138999Y-91531410D01*
X144138999Y-91471172D01*
X144137791Y-91458914D01*
X144126245Y-91400862D01*
X144126245Y-91351705D01*
X144139500Y-91285067D01*
X144139499Y-90864934D01*
X144126500Y-90799578D01*
X144126500Y-90750423D01*
X144139500Y-90685067D01*
X144139499Y-90264934D01*
X144126500Y-90199578D01*
X144126500Y-90150423D01*
X144139500Y-90085067D01*
X144139500Y-89993828D01*
X145096001Y-89993828D01*
X145097208Y-90006087D01*
X145108315Y-90061930D01*
X145117633Y-90084426D01*
X145159983Y-90147808D01*
X145177191Y-90165016D01*
X145240574Y-90207367D01*
X145263066Y-90216684D01*
X145318914Y-90227792D01*
X145331170Y-90229000D01*
X146006410Y-90229000D01*
X146019493Y-90225493D01*
X146023000Y-90212410D01*
X146023000Y-90212409D01*
X146277000Y-90212409D01*
X146280506Y-90225492D01*
X146293590Y-90228999D01*
X146968828Y-90228999D01*
X146981087Y-90227791D01*
X147036930Y-90216684D01*
X147059426Y-90207366D01*
X147122808Y-90165016D01*
X147140016Y-90147808D01*
X147182367Y-90084425D01*
X147191684Y-90061933D01*
X147202792Y-90006085D01*
X147204000Y-89993830D01*
X147204000Y-89993828D01*
X147896001Y-89993828D01*
X147897208Y-90006087D01*
X147908315Y-90061930D01*
X147917633Y-90084426D01*
X147959983Y-90147808D01*
X147977191Y-90165016D01*
X148040574Y-90207367D01*
X148063066Y-90216684D01*
X148118914Y-90227792D01*
X148131170Y-90229000D01*
X148806410Y-90229000D01*
X148819493Y-90225493D01*
X148823000Y-90212410D01*
X148823000Y-90212409D01*
X149077000Y-90212409D01*
X149080506Y-90225492D01*
X149093590Y-90228999D01*
X149768828Y-90228999D01*
X149781087Y-90227791D01*
X149836930Y-90216684D01*
X149859426Y-90207366D01*
X149922808Y-90165016D01*
X149940016Y-90147808D01*
X149982367Y-90084425D01*
X149991684Y-90061933D01*
X150002792Y-90006085D01*
X150004000Y-89993830D01*
X150004000Y-89993828D01*
X150696001Y-89993828D01*
X150697208Y-90006087D01*
X150708315Y-90061930D01*
X150717633Y-90084426D01*
X150759983Y-90147808D01*
X150777191Y-90165016D01*
X150840574Y-90207367D01*
X150863066Y-90216684D01*
X150918914Y-90227792D01*
X150931170Y-90229000D01*
X151606410Y-90229000D01*
X151619493Y-90225493D01*
X151623000Y-90212410D01*
X151623000Y-90212409D01*
X151877000Y-90212409D01*
X151880506Y-90225492D01*
X151893590Y-90228999D01*
X152568828Y-90228999D01*
X152581087Y-90227791D01*
X152636930Y-90216684D01*
X152659426Y-90207366D01*
X152722808Y-90165016D01*
X152740016Y-90147808D01*
X152782367Y-90084425D01*
X152791684Y-90061933D01*
X152802792Y-90006085D01*
X152804000Y-89993830D01*
X152804000Y-89318590D01*
X152800493Y-89305506D01*
X152787410Y-89302000D01*
X151893590Y-89302000D01*
X151880506Y-89305506D01*
X151877000Y-89318590D01*
X151877000Y-90212409D01*
X151623000Y-90212409D01*
X151623000Y-89318590D01*
X151619493Y-89305506D01*
X151606410Y-89302000D01*
X150712591Y-89302000D01*
X150699507Y-89305506D01*
X150696001Y-89318590D01*
X150696001Y-89993828D01*
X150004000Y-89993828D01*
X150004000Y-89318590D01*
X150000493Y-89305506D01*
X149987410Y-89302000D01*
X149093590Y-89302000D01*
X149080506Y-89305506D01*
X149077000Y-89318590D01*
X149077000Y-90212409D01*
X148823000Y-90212409D01*
X148823000Y-89318590D01*
X148819493Y-89305506D01*
X148806410Y-89302000D01*
X147912591Y-89302000D01*
X147899507Y-89305506D01*
X147896001Y-89318590D01*
X147896001Y-89993828D01*
X147204000Y-89993828D01*
X147204000Y-89318590D01*
X147200493Y-89305506D01*
X147187410Y-89302000D01*
X146293590Y-89302000D01*
X146280506Y-89305506D01*
X146277000Y-89318590D01*
X146277000Y-90212409D01*
X146023000Y-90212409D01*
X146023000Y-89318590D01*
X146019493Y-89305506D01*
X146006410Y-89302000D01*
X145112591Y-89302000D01*
X145099507Y-89305506D01*
X145096001Y-89318590D01*
X145096001Y-89993828D01*
X144139500Y-89993828D01*
X144139499Y-89664934D01*
X144126245Y-89598296D01*
X144126245Y-89549137D01*
X144137793Y-89491082D01*
X144139000Y-89478830D01*
X144139000Y-89418590D01*
X144135493Y-89405506D01*
X144122410Y-89402000D01*
X142659194Y-89402000D01*
X142636591Y-89398749D01*
X142636509Y-89399322D01*
X142632308Y-89398718D01*
X142630147Y-89397823D01*
X142623693Y-89396895D01*
X142618939Y-89395499D01*
X142619546Y-89393431D01*
X142574730Y-89374868D01*
X142552847Y-89347714D01*
X142537301Y-89370107D01*
X142480925Y-89395048D01*
X142481058Y-89395500D01*
X142472417Y-89398037D01*
X142472411Y-89398038D01*
X142357409Y-89431806D01*
X142357406Y-89431807D01*
X142348760Y-89434346D01*
X142341183Y-89439215D01*
X142341175Y-89439219D01*
X142240349Y-89504016D01*
X142240344Y-89504020D01*
X142232765Y-89508891D01*
X142226863Y-89515701D01*
X142226862Y-89515703D01*
X142148372Y-89606286D01*
X142148369Y-89606289D01*
X142142471Y-89613097D01*
X142138728Y-89621291D01*
X142138727Y-89621294D01*
X142088935Y-89730322D01*
X142088933Y-89730327D01*
X142085192Y-89738520D01*
X142065569Y-89875000D01*
X142085192Y-90011480D01*
X142088933Y-90019672D01*
X142088935Y-90019678D01*
X142135965Y-90122658D01*
X142147351Y-90175000D01*
X142135965Y-90227342D01*
X142088935Y-90330321D01*
X142088932Y-90330329D01*
X142085192Y-90338520D01*
X142065569Y-90475000D01*
X142085192Y-90611480D01*
X142088933Y-90619672D01*
X142088935Y-90619678D01*
X142125102Y-90698871D01*
X142136167Y-90760196D01*
X142118617Y-90812935D01*
X142118971Y-90813097D01*
X142117471Y-90816380D01*
X142117469Y-90816385D01*
X142115234Y-90821279D01*
X142115230Y-90821286D01*
X142065435Y-90930322D01*
X142065433Y-90930327D01*
X142061692Y-90938520D01*
X142060409Y-90947440D01*
X142060409Y-90947442D01*
X142052537Y-91002191D01*
X142042069Y-91075000D01*
X139872357Y-91075000D01*
X139932023Y-90930953D01*
X139952555Y-90775000D01*
X139932023Y-90619047D01*
X139871828Y-90473723D01*
X139865961Y-90466077D01*
X139781093Y-90355474D01*
X139776071Y-90348929D01*
X139651278Y-90253172D01*
X139643651Y-90250013D01*
X139643648Y-90250011D01*
X139513584Y-90196137D01*
X139513578Y-90196135D01*
X139505953Y-90192977D01*
X139497768Y-90191899D01*
X139497763Y-90191898D01*
X139358188Y-90173523D01*
X139350000Y-90172445D01*
X139341812Y-90173523D01*
X139202236Y-90191898D01*
X139202229Y-90191899D01*
X139194047Y-90192977D01*
X139186421Y-90196135D01*
X139186416Y-90196137D01*
X139056352Y-90250011D01*
X139056346Y-90250014D01*
X139048723Y-90253172D01*
X139042178Y-90258193D01*
X139042171Y-90258198D01*
X138930474Y-90343906D01*
X138930470Y-90343909D01*
X138923929Y-90348929D01*
X138918909Y-90355470D01*
X138918906Y-90355474D01*
X138833198Y-90467171D01*
X138833193Y-90467178D01*
X138828172Y-90473723D01*
X138825014Y-90481346D01*
X138825011Y-90481352D01*
X138771137Y-90611416D01*
X138771135Y-90611421D01*
X138767977Y-90619047D01*
X138766899Y-90627229D01*
X138766898Y-90627236D01*
X138750681Y-90750419D01*
X138747445Y-90775000D01*
X138250500Y-90775000D01*
X138250500Y-89125000D01*
X138747445Y-89125000D01*
X138748523Y-89133188D01*
X138766898Y-89272763D01*
X138766899Y-89272768D01*
X138767977Y-89280953D01*
X138771135Y-89288578D01*
X138771137Y-89288584D01*
X138825011Y-89418648D01*
X138825013Y-89418651D01*
X138828172Y-89426278D01*
X138923929Y-89551071D01*
X139048722Y-89646828D01*
X139056351Y-89649988D01*
X139186415Y-89703862D01*
X139186416Y-89703862D01*
X139194047Y-89707023D01*
X139350000Y-89727555D01*
X139505953Y-89707023D01*
X139651278Y-89646828D01*
X139776071Y-89551071D01*
X139871828Y-89426278D01*
X139932023Y-89280953D01*
X139952555Y-89125000D01*
X139932023Y-88969047D01*
X139894677Y-88878886D01*
X142460500Y-88878886D01*
X142460501Y-88885066D01*
X142461707Y-88891130D01*
X142461708Y-88891137D01*
X142473754Y-88951701D01*
X142473754Y-89000860D01*
X142462207Y-89058912D01*
X142461000Y-89071170D01*
X142461000Y-89131410D01*
X142464506Y-89144494D01*
X142489686Y-89151241D01*
X142548265Y-89185997D01*
X142553996Y-89196796D01*
X142589854Y-89163412D01*
X142650239Y-89148000D01*
X144122409Y-89148000D01*
X144135492Y-89144493D01*
X144138999Y-89131410D01*
X144138999Y-89071172D01*
X144137791Y-89058914D01*
X144126245Y-89000862D01*
X144126245Y-88951705D01*
X144139500Y-88885067D01*
X144139499Y-88687718D01*
X144152826Y-88631321D01*
X144189990Y-88586852D01*
X144243127Y-88563722D01*
X144300997Y-88566824D01*
X144387172Y-88592127D01*
X144516047Y-88592127D01*
X144525056Y-88592127D01*
X144657354Y-88553281D01*
X144773349Y-88478736D01*
X144863643Y-88374530D01*
X144865687Y-88370052D01*
X144911199Y-88328282D01*
X144973598Y-88313771D01*
X145035066Y-88331820D01*
X145079714Y-88377761D01*
X145096000Y-88439720D01*
X145096000Y-89031410D01*
X145099506Y-89044493D01*
X145112590Y-89048000D01*
X146006410Y-89048000D01*
X146019493Y-89044493D01*
X146023000Y-89031410D01*
X146023000Y-88137591D01*
X146019493Y-88124507D01*
X146006410Y-88121001D01*
X145331172Y-88121001D01*
X145318912Y-88122208D01*
X145263069Y-88133315D01*
X145240573Y-88142633D01*
X145177191Y-88184983D01*
X145154357Y-88207818D01*
X145104198Y-88238556D01*
X145045551Y-88243172D01*
X144991201Y-88220659D01*
X144952995Y-88175926D01*
X144939516Y-88119782D01*
X144940545Y-88112627D01*
X144920922Y-87976147D01*
X144863643Y-87850724D01*
X144773349Y-87746518D01*
X144765765Y-87741644D01*
X144765764Y-87741643D01*
X144664938Y-87676846D01*
X144664933Y-87676843D01*
X144657354Y-87671973D01*
X144525056Y-87633127D01*
X144387172Y-87633127D01*
X144378532Y-87635663D01*
X144378531Y-87635664D01*
X144300996Y-87658430D01*
X144243126Y-87661531D01*
X144189989Y-87638401D01*
X144152826Y-87593932D01*
X144139499Y-87537535D01*
X144139499Y-87290498D01*
X144156380Y-87227499D01*
X144202499Y-87181380D01*
X144265495Y-87164499D01*
X144660066Y-87164499D01*
X144726704Y-87151245D01*
X144775862Y-87151245D01*
X144833917Y-87162793D01*
X144846170Y-87164000D01*
X144906410Y-87164000D01*
X144919493Y-87160493D01*
X144923000Y-87147409D01*
X145177000Y-87147409D01*
X145180506Y-87160492D01*
X145193590Y-87163999D01*
X145253828Y-87163999D01*
X145266082Y-87162791D01*
X145325417Y-87150990D01*
X145374580Y-87150990D01*
X145433917Y-87162793D01*
X145446170Y-87164000D01*
X145506410Y-87164000D01*
X145519493Y-87160493D01*
X145523000Y-87147409D01*
X145777000Y-87147409D01*
X145780506Y-87160492D01*
X145793590Y-87163999D01*
X145853828Y-87163999D01*
X145866085Y-87162791D01*
X145924137Y-87151245D01*
X145973295Y-87151245D01*
X146032747Y-87163070D01*
X146089538Y-87190449D01*
X146125956Y-87241914D01*
X146132882Y-87304579D01*
X146115569Y-87425000D01*
X146135192Y-87561480D01*
X146192471Y-87686903D01*
X146282765Y-87791109D01*
X146290348Y-87795982D01*
X146290349Y-87795983D01*
X146391175Y-87860780D01*
X146391177Y-87860781D01*
X146398760Y-87865654D01*
X146425603Y-87873536D01*
X146427538Y-87874104D01*
X146487264Y-87912488D01*
X146516758Y-87977068D01*
X146506654Y-88047342D01*
X146460161Y-88100998D01*
X146392040Y-88121000D01*
X146293590Y-88121000D01*
X146280506Y-88124506D01*
X146277000Y-88137590D01*
X146277000Y-89031410D01*
X146280506Y-89044493D01*
X146293590Y-89048000D01*
X147187409Y-89048000D01*
X147200492Y-89044493D01*
X147203999Y-89031410D01*
X147896000Y-89031410D01*
X147899506Y-89044493D01*
X147912590Y-89048000D01*
X148806410Y-89048000D01*
X148819493Y-89044493D01*
X148823000Y-89031410D01*
X149077000Y-89031410D01*
X149080506Y-89044493D01*
X149093590Y-89048000D01*
X149987409Y-89048000D01*
X150000492Y-89044493D01*
X150003999Y-89031410D01*
X150696000Y-89031410D01*
X150699506Y-89044493D01*
X150712590Y-89048000D01*
X151606410Y-89048000D01*
X151619493Y-89044493D01*
X151623000Y-89031410D01*
X151877000Y-89031410D01*
X151880506Y-89044493D01*
X151893590Y-89048000D01*
X152787409Y-89048000D01*
X152800492Y-89044493D01*
X152803999Y-89031410D01*
X152803999Y-88356172D01*
X152802791Y-88343912D01*
X152791684Y-88288069D01*
X152782366Y-88265573D01*
X152740016Y-88202191D01*
X152722808Y-88184983D01*
X152659425Y-88142632D01*
X152636933Y-88133315D01*
X152581085Y-88122207D01*
X152568830Y-88121000D01*
X151893590Y-88121000D01*
X151880506Y-88124506D01*
X151877000Y-88137590D01*
X151877000Y-89031410D01*
X151623000Y-89031410D01*
X151623000Y-88137591D01*
X151619493Y-88124507D01*
X151606410Y-88121001D01*
X150931172Y-88121001D01*
X150918912Y-88122208D01*
X150863069Y-88133315D01*
X150840573Y-88142633D01*
X150777191Y-88184983D01*
X150759983Y-88202191D01*
X150717632Y-88265574D01*
X150708315Y-88288066D01*
X150697207Y-88343914D01*
X150696000Y-88356170D01*
X150696000Y-89031410D01*
X150003999Y-89031410D01*
X150003999Y-88356172D01*
X150002791Y-88343912D01*
X149991684Y-88288069D01*
X149982366Y-88265573D01*
X149940016Y-88202191D01*
X149922808Y-88184983D01*
X149859425Y-88142632D01*
X149836933Y-88133315D01*
X149781085Y-88122207D01*
X149768830Y-88121000D01*
X149093590Y-88121000D01*
X149080506Y-88124506D01*
X149077000Y-88137590D01*
X149077000Y-89031410D01*
X148823000Y-89031410D01*
X148823000Y-88137591D01*
X148819493Y-88124507D01*
X148806410Y-88121001D01*
X148131172Y-88121001D01*
X148118912Y-88122208D01*
X148063069Y-88133315D01*
X148040573Y-88142633D01*
X147977191Y-88184983D01*
X147959983Y-88202191D01*
X147917632Y-88265574D01*
X147908315Y-88288066D01*
X147897207Y-88343914D01*
X147896000Y-88356170D01*
X147896000Y-89031410D01*
X147203999Y-89031410D01*
X147203999Y-88356172D01*
X147202791Y-88343912D01*
X147191684Y-88288069D01*
X147182366Y-88265573D01*
X147140016Y-88202191D01*
X147122808Y-88184983D01*
X147059425Y-88142632D01*
X147036933Y-88133315D01*
X146981085Y-88122207D01*
X146968830Y-88121000D01*
X146807960Y-88121000D01*
X146739839Y-88100998D01*
X146693346Y-88047342D01*
X146683242Y-87977068D01*
X146712736Y-87912488D01*
X146772462Y-87874104D01*
X146773776Y-87873718D01*
X146801240Y-87865654D01*
X146917235Y-87791109D01*
X146979775Y-87718932D01*
X147022657Y-87686832D01*
X147075000Y-87675445D01*
X147127343Y-87686832D01*
X147170224Y-87718932D01*
X147232765Y-87791109D01*
X147240348Y-87795982D01*
X147240349Y-87795983D01*
X147341175Y-87860780D01*
X147341177Y-87860781D01*
X147348760Y-87865654D01*
X147481058Y-87904500D01*
X147609933Y-87904500D01*
X147618942Y-87904500D01*
X147751240Y-87865654D01*
X147867235Y-87791109D01*
X147957529Y-87686903D01*
X148014808Y-87561480D01*
X148034431Y-87425000D01*
X148017670Y-87308428D01*
X148027774Y-87238157D01*
X148074267Y-87184501D01*
X148142388Y-87164499D01*
X148253878Y-87164499D01*
X148260066Y-87164499D01*
X148325422Y-87151500D01*
X148374577Y-87151500D01*
X148439933Y-87164500D01*
X148860066Y-87164499D01*
X148925422Y-87151500D01*
X148974577Y-87151500D01*
X149039933Y-87164500D01*
X149460066Y-87164499D01*
X149526704Y-87151245D01*
X149575862Y-87151245D01*
X149633917Y-87162793D01*
X149646170Y-87164000D01*
X149706410Y-87164000D01*
X149719493Y-87160493D01*
X149723000Y-87147409D01*
X149977000Y-87147409D01*
X149980506Y-87160492D01*
X149993590Y-87163999D01*
X150053828Y-87163999D01*
X150066082Y-87162791D01*
X150125417Y-87150990D01*
X150174580Y-87150990D01*
X150233917Y-87162793D01*
X150246170Y-87164000D01*
X150306410Y-87164000D01*
X150319493Y-87160493D01*
X150323000Y-87147409D01*
X150323000Y-86468590D01*
X150319493Y-86455506D01*
X150306410Y-86452000D01*
X149993590Y-86452000D01*
X149980506Y-86455506D01*
X149977000Y-86468590D01*
X149977000Y-87147409D01*
X149723000Y-87147409D01*
X149723000Y-86181410D01*
X149977000Y-86181410D01*
X149980506Y-86194493D01*
X149993590Y-86198000D01*
X150306410Y-86198000D01*
X150319493Y-86194493D01*
X150323000Y-86181410D01*
X150323000Y-85502591D01*
X150319493Y-85489507D01*
X150306410Y-85486001D01*
X150246172Y-85486001D01*
X150233919Y-85487207D01*
X150174579Y-85499010D01*
X150125420Y-85499009D01*
X150066085Y-85487207D01*
X150053830Y-85486000D01*
X149993590Y-85486000D01*
X149980506Y-85489506D01*
X149977000Y-85502590D01*
X149977000Y-86181410D01*
X149723000Y-86181410D01*
X149723000Y-85502591D01*
X149719493Y-85489507D01*
X149706410Y-85486001D01*
X149646172Y-85486001D01*
X149633919Y-85487207D01*
X149575860Y-85498755D01*
X149526701Y-85498754D01*
X149466135Y-85486707D01*
X149460067Y-85485500D01*
X149453880Y-85485500D01*
X149046122Y-85485500D01*
X149046111Y-85485500D01*
X149039934Y-85485501D01*
X149033871Y-85486706D01*
X149033869Y-85486707D01*
X148999284Y-85493586D01*
X148974578Y-85498499D01*
X148925421Y-85498499D01*
X148866137Y-85486707D01*
X148866133Y-85486706D01*
X148860067Y-85485500D01*
X148853880Y-85485500D01*
X148446122Y-85485500D01*
X148446111Y-85485500D01*
X148439934Y-85485501D01*
X148433871Y-85486706D01*
X148433869Y-85486707D01*
X148399284Y-85493586D01*
X148374578Y-85498499D01*
X148325421Y-85498499D01*
X148266137Y-85486707D01*
X148266133Y-85486706D01*
X148260067Y-85485500D01*
X148253880Y-85485500D01*
X147846122Y-85485500D01*
X147846111Y-85485500D01*
X147839934Y-85485501D01*
X147833871Y-85486706D01*
X147833869Y-85486707D01*
X147799284Y-85493586D01*
X147774578Y-85498499D01*
X147725421Y-85498499D01*
X147666137Y-85486707D01*
X147666133Y-85486706D01*
X147660067Y-85485500D01*
X147653880Y-85485500D01*
X147246122Y-85485500D01*
X147246111Y-85485500D01*
X147239934Y-85485501D01*
X147233871Y-85486706D01*
X147233869Y-85486707D01*
X147199284Y-85493586D01*
X147174578Y-85498499D01*
X147125421Y-85498499D01*
X147066137Y-85486707D01*
X147066133Y-85486706D01*
X147060067Y-85485500D01*
X147053880Y-85485500D01*
X146646122Y-85485500D01*
X146646111Y-85485500D01*
X146639934Y-85485501D01*
X146633871Y-85486706D01*
X146633869Y-85486707D01*
X146599284Y-85493586D01*
X146574578Y-85498499D01*
X146525421Y-85498499D01*
X146466137Y-85486707D01*
X146466133Y-85486706D01*
X146460067Y-85485500D01*
X146453880Y-85485500D01*
X146046122Y-85485500D01*
X146046111Y-85485500D01*
X146039934Y-85485501D01*
X146033871Y-85486706D01*
X146033869Y-85486707D01*
X145999284Y-85493586D01*
X145973295Y-85498754D01*
X145924138Y-85498754D01*
X145866085Y-85487207D01*
X145853830Y-85486000D01*
X145793590Y-85486000D01*
X145780506Y-85489506D01*
X145777000Y-85502590D01*
X145777000Y-87147409D01*
X145523000Y-87147409D01*
X145523000Y-86468590D01*
X145519493Y-86455506D01*
X145506410Y-86452000D01*
X145193590Y-86452000D01*
X145180506Y-86455506D01*
X145177000Y-86468590D01*
X145177000Y-87147409D01*
X144923000Y-87147409D01*
X144923000Y-86181410D01*
X145177000Y-86181410D01*
X145180506Y-86194493D01*
X145193590Y-86198000D01*
X145506410Y-86198000D01*
X145519493Y-86194493D01*
X145523000Y-86181410D01*
X145523000Y-85502591D01*
X145519493Y-85489507D01*
X145506410Y-85486001D01*
X145446172Y-85486001D01*
X145433919Y-85487207D01*
X145374579Y-85499010D01*
X145325420Y-85499009D01*
X145266085Y-85487207D01*
X145253830Y-85486000D01*
X145193590Y-85486000D01*
X145180506Y-85489506D01*
X145177000Y-85502590D01*
X145177000Y-86181410D01*
X144923000Y-86181410D01*
X144923000Y-85502591D01*
X144919493Y-85489507D01*
X144906410Y-85486001D01*
X144846172Y-85486001D01*
X144833919Y-85487207D01*
X144775860Y-85498755D01*
X144726701Y-85498754D01*
X144666135Y-85486707D01*
X144660067Y-85485500D01*
X144653880Y-85485500D01*
X144246122Y-85485500D01*
X144246112Y-85485500D01*
X144239934Y-85485501D01*
X144233868Y-85486707D01*
X144233862Y-85486708D01*
X144177874Y-85497844D01*
X144177871Y-85497844D01*
X144165699Y-85500266D01*
X144155379Y-85507161D01*
X144155378Y-85507162D01*
X144091832Y-85549622D01*
X144091829Y-85549624D01*
X144081516Y-85556516D01*
X144074624Y-85566829D01*
X144074622Y-85566832D01*
X144032161Y-85630379D01*
X144032159Y-85630381D01*
X144025266Y-85640699D01*
X144022845Y-85652867D01*
X144022844Y-85652871D01*
X144011707Y-85708864D01*
X144010500Y-85714933D01*
X144010500Y-85721119D01*
X144010500Y-85721120D01*
X144010500Y-86909500D01*
X143993619Y-86972500D01*
X143947500Y-87018619D01*
X143884500Y-87035500D01*
X142696122Y-87035500D01*
X142696111Y-87035500D01*
X142689934Y-87035501D01*
X142683868Y-87036707D01*
X142683862Y-87036708D01*
X142627874Y-87047844D01*
X142627871Y-87047844D01*
X142615699Y-87050266D01*
X142605379Y-87057161D01*
X142605378Y-87057162D01*
X142541832Y-87099622D01*
X142541829Y-87099624D01*
X142531516Y-87106516D01*
X142524624Y-87116829D01*
X142524622Y-87116832D01*
X142482161Y-87180379D01*
X142482159Y-87180381D01*
X142475266Y-87190699D01*
X142472845Y-87202867D01*
X142472844Y-87202871D01*
X142461707Y-87258864D01*
X142460500Y-87264933D01*
X142460500Y-87271118D01*
X142460500Y-87271119D01*
X142460500Y-87678877D01*
X142460500Y-87678886D01*
X142460501Y-87685066D01*
X142461707Y-87691132D01*
X142461708Y-87691137D01*
X142473499Y-87750419D01*
X142473499Y-87799578D01*
X142461707Y-87858862D01*
X142461706Y-87858867D01*
X142460500Y-87864933D01*
X142460500Y-87871118D01*
X142460500Y-87871119D01*
X142460500Y-88278877D01*
X142460500Y-88278886D01*
X142460501Y-88285066D01*
X142461707Y-88291132D01*
X142461708Y-88291137D01*
X142473499Y-88350419D01*
X142473499Y-88399578D01*
X142461707Y-88458862D01*
X142461706Y-88458867D01*
X142460500Y-88464933D01*
X142460500Y-88471118D01*
X142460500Y-88471119D01*
X142460500Y-88878877D01*
X142460500Y-88878886D01*
X139894677Y-88878886D01*
X139871828Y-88823723D01*
X139776071Y-88698929D01*
X139761464Y-88687721D01*
X139657828Y-88608198D01*
X139651278Y-88603172D01*
X139643651Y-88600013D01*
X139643648Y-88600011D01*
X139513584Y-88546137D01*
X139513578Y-88546135D01*
X139505953Y-88542977D01*
X139497768Y-88541899D01*
X139497763Y-88541898D01*
X139358188Y-88523523D01*
X139350000Y-88522445D01*
X139341812Y-88523523D01*
X139202236Y-88541898D01*
X139202229Y-88541899D01*
X139194047Y-88542977D01*
X139186421Y-88546135D01*
X139186416Y-88546137D01*
X139056352Y-88600011D01*
X139056346Y-88600014D01*
X139048723Y-88603172D01*
X139042178Y-88608193D01*
X139042171Y-88608198D01*
X138930474Y-88693906D01*
X138930470Y-88693909D01*
X138923929Y-88698929D01*
X138918909Y-88705470D01*
X138918906Y-88705474D01*
X138833198Y-88817171D01*
X138833193Y-88817178D01*
X138828172Y-88823723D01*
X138825014Y-88831346D01*
X138825011Y-88831352D01*
X138771137Y-88961416D01*
X138771135Y-88961421D01*
X138767977Y-88969047D01*
X138766899Y-88977229D01*
X138766898Y-88977236D01*
X138750771Y-89099734D01*
X138747445Y-89125000D01*
X138250500Y-89125000D01*
X138250500Y-84243887D01*
X141220500Y-84243887D01*
X141220501Y-84250066D01*
X141221707Y-84256132D01*
X141221708Y-84256137D01*
X141231953Y-84307644D01*
X141235266Y-84324301D01*
X141291516Y-84408484D01*
X141375699Y-84464734D01*
X141449933Y-84479500D01*
X142550066Y-84479499D01*
X142624301Y-84464734D01*
X142708484Y-84408484D01*
X142764734Y-84324301D01*
X142779500Y-84250067D01*
X142779500Y-84183732D01*
X142796381Y-84120732D01*
X142842500Y-84074613D01*
X142905500Y-84057732D01*
X143114040Y-84057732D01*
X143171243Y-84071465D01*
X143205722Y-84100913D01*
X143206865Y-84099771D01*
X143295229Y-84188135D01*
X143320070Y-84200792D01*
X143387596Y-84235199D01*
X143406573Y-84244868D01*
X143498955Y-84259500D01*
X143901044Y-84259499D01*
X143993427Y-84244868D01*
X144104771Y-84188135D01*
X144193135Y-84099771D01*
X144194277Y-84100913D01*
X144228757Y-84071465D01*
X144285960Y-84057732D01*
X144355754Y-84057732D01*
X144421588Y-84076299D01*
X144462280Y-84120318D01*
X144462890Y-84119875D01*
X144466632Y-84125026D01*
X144468019Y-84126526D01*
X144473221Y-84136735D01*
X144563265Y-84226779D01*
X144676727Y-84284590D01*
X144770863Y-84299500D01*
X145129136Y-84299499D01*
X145223273Y-84284590D01*
X145336735Y-84226779D01*
X145345904Y-84217609D01*
X145349851Y-84215330D01*
X145351768Y-84213938D01*
X145351914Y-84214139D01*
X145402389Y-84184997D01*
X145467611Y-84184997D01*
X145518085Y-84214139D01*
X145518232Y-84213938D01*
X145520148Y-84215330D01*
X145524095Y-84217609D01*
X145533265Y-84226779D01*
X145646727Y-84284590D01*
X145740863Y-84299500D01*
X146099136Y-84299499D01*
X146193273Y-84284590D01*
X146306735Y-84226779D01*
X146396779Y-84136735D01*
X146401980Y-84126526D01*
X146403367Y-84125026D01*
X146407110Y-84119875D01*
X146407719Y-84120318D01*
X146448412Y-84076299D01*
X146514246Y-84057732D01*
X146614040Y-84057732D01*
X146671243Y-84071465D01*
X146705722Y-84100913D01*
X146706865Y-84099771D01*
X146795229Y-84188135D01*
X146820070Y-84200792D01*
X146887596Y-84235199D01*
X146906573Y-84244868D01*
X146998955Y-84259500D01*
X147401044Y-84259499D01*
X147493427Y-84244868D01*
X147604771Y-84188135D01*
X147693135Y-84099771D01*
X147694277Y-84100913D01*
X147728757Y-84071465D01*
X147785960Y-84057732D01*
X149124286Y-84057732D01*
X149124289Y-84057733D01*
X149172488Y-84057732D01*
X149181476Y-84058053D01*
X149192718Y-84058856D01*
X149387213Y-84072765D01*
X149404984Y-84075320D01*
X149602143Y-84118209D01*
X149619372Y-84123268D01*
X149808403Y-84193772D01*
X149824753Y-84201238D01*
X149848011Y-84213938D01*
X150001821Y-84297924D01*
X150016945Y-84307644D01*
X150052981Y-84334620D01*
X150146737Y-84404805D01*
X150178448Y-84428543D01*
X150192034Y-84440316D01*
X150334683Y-84582965D01*
X150346456Y-84596551D01*
X150467355Y-84758054D01*
X150477075Y-84773178D01*
X150573760Y-84950245D01*
X150581228Y-84966598D01*
X150651728Y-85155617D01*
X150656793Y-85172866D01*
X150692140Y-85335355D01*
X150689630Y-85398594D01*
X150656690Y-85452635D01*
X150601632Y-85483844D01*
X150580506Y-85489504D01*
X150577000Y-85502590D01*
X150577000Y-87147409D01*
X150580506Y-87160492D01*
X150593590Y-87163999D01*
X150653828Y-87163999D01*
X150666085Y-87162791D01*
X150724137Y-87151245D01*
X150773295Y-87151245D01*
X150839933Y-87164500D01*
X151260066Y-87164499D01*
X151326704Y-87151245D01*
X151375862Y-87151245D01*
X151433917Y-87162793D01*
X151446170Y-87164000D01*
X151506410Y-87164000D01*
X151519493Y-87160493D01*
X151523000Y-87147409D01*
X151777000Y-87147409D01*
X151780506Y-87160492D01*
X151793590Y-87163999D01*
X151853828Y-87163999D01*
X151866082Y-87162791D01*
X151925417Y-87150990D01*
X151974580Y-87150990D01*
X152033917Y-87162793D01*
X152046170Y-87164000D01*
X152106410Y-87164000D01*
X152119493Y-87160493D01*
X152123000Y-87147409D01*
X152123000Y-86468590D01*
X152119493Y-86455506D01*
X152106410Y-86452000D01*
X151793590Y-86452000D01*
X151780506Y-86455506D01*
X151777000Y-86468590D01*
X151777000Y-87147409D01*
X151523000Y-87147409D01*
X151523000Y-86181410D01*
X151777000Y-86181410D01*
X151780506Y-86194493D01*
X151793590Y-86198000D01*
X152106410Y-86198000D01*
X152119493Y-86194493D01*
X152123000Y-86181410D01*
X152123000Y-85502591D01*
X152119493Y-85489507D01*
X152106410Y-85486001D01*
X152046172Y-85486001D01*
X152033919Y-85487207D01*
X151974579Y-85499010D01*
X151925420Y-85499009D01*
X151866085Y-85487207D01*
X151853830Y-85486000D01*
X151793590Y-85486000D01*
X151780506Y-85489506D01*
X151777000Y-85502590D01*
X151777000Y-86181410D01*
X151523000Y-86181410D01*
X151523000Y-85502591D01*
X151519493Y-85489507D01*
X151506410Y-85486001D01*
X151496959Y-85486001D01*
X151438404Y-85471568D01*
X151393263Y-85431577D01*
X151371878Y-85375188D01*
X151351029Y-85203473D01*
X151350570Y-85199691D01*
X151286711Y-84940598D01*
X151192087Y-84691092D01*
X151068077Y-84454810D01*
X150916491Y-84235199D01*
X150739539Y-84035461D01*
X150539801Y-83858509D01*
X150536289Y-83856085D01*
X150518532Y-83843828D01*
X154796001Y-83843828D01*
X154797208Y-83856087D01*
X154808315Y-83911930D01*
X154817633Y-83934426D01*
X154859983Y-83997808D01*
X154877191Y-84015016D01*
X154940574Y-84057367D01*
X154963066Y-84066684D01*
X155018914Y-84077792D01*
X155031170Y-84079000D01*
X155356410Y-84079000D01*
X155369493Y-84075493D01*
X155373000Y-84062410D01*
X155373000Y-84062409D01*
X155627000Y-84062409D01*
X155630506Y-84075492D01*
X155643590Y-84078999D01*
X155968828Y-84078999D01*
X155981087Y-84077791D01*
X156036930Y-84066684D01*
X156059426Y-84057366D01*
X156122808Y-84015016D01*
X156140016Y-83997808D01*
X156182367Y-83934425D01*
X156191684Y-83911933D01*
X156202792Y-83856085D01*
X156204000Y-83843830D01*
X156204000Y-83118590D01*
X156200493Y-83105506D01*
X156187410Y-83102000D01*
X155643590Y-83102000D01*
X155630506Y-83105506D01*
X155627000Y-83118590D01*
X155627000Y-84062409D01*
X155373000Y-84062409D01*
X155373000Y-83118590D01*
X155369493Y-83105506D01*
X155356410Y-83102000D01*
X154812591Y-83102000D01*
X154799507Y-83105506D01*
X154796001Y-83118590D01*
X154796001Y-83843828D01*
X150518532Y-83843828D01*
X150323318Y-83709082D01*
X150323316Y-83709081D01*
X150320190Y-83706923D01*
X150246396Y-83668193D01*
X150087272Y-83584678D01*
X150087264Y-83584674D01*
X150083908Y-83582913D01*
X150080351Y-83581564D01*
X149837958Y-83489637D01*
X149837949Y-83489634D01*
X149834402Y-83488289D01*
X149830715Y-83487380D01*
X149830711Y-83487379D01*
X149579004Y-83425340D01*
X149578992Y-83425337D01*
X149575309Y-83424430D01*
X149571537Y-83423972D01*
X149571526Y-83423970D01*
X149314191Y-83392726D01*
X149314183Y-83392725D01*
X149310407Y-83392267D01*
X149306597Y-83392267D01*
X149176984Y-83392268D01*
X147785960Y-83392268D01*
X147728757Y-83378535D01*
X147694277Y-83349086D01*
X147693135Y-83350229D01*
X147604771Y-83261865D01*
X147595939Y-83257365D01*
X147595938Y-83257364D01*
X147502260Y-83209632D01*
X147502256Y-83209630D01*
X147493427Y-83205132D01*
X147483635Y-83203581D01*
X147405935Y-83191274D01*
X147405928Y-83191273D01*
X147401045Y-83190500D01*
X147396092Y-83190500D01*
X147003910Y-83190500D01*
X147003897Y-83190500D01*
X146998956Y-83190501D01*
X146994075Y-83191273D01*
X146994062Y-83191275D01*
X146916370Y-83203580D01*
X146916367Y-83203580D01*
X146906573Y-83205132D01*
X146897736Y-83209634D01*
X146897735Y-83209635D01*
X146804061Y-83257364D01*
X146804057Y-83257366D01*
X146795229Y-83261865D01*
X146788220Y-83268873D01*
X146788217Y-83268876D01*
X146706865Y-83350229D01*
X146705722Y-83349086D01*
X146671243Y-83378535D01*
X146614040Y-83392268D01*
X146514246Y-83392268D01*
X146448412Y-83373701D01*
X146407719Y-83329681D01*
X146407110Y-83330125D01*
X146403367Y-83324973D01*
X146401980Y-83323473D01*
X146396779Y-83313265D01*
X146306735Y-83223221D01*
X146297895Y-83218717D01*
X146297894Y-83218716D01*
X146202109Y-83169912D01*
X146202108Y-83169911D01*
X146193273Y-83165410D01*
X146183481Y-83163859D01*
X146183478Y-83163858D01*
X146104027Y-83151274D01*
X146104020Y-83151273D01*
X146099137Y-83150500D01*
X146094184Y-83150500D01*
X145745818Y-83150500D01*
X145745805Y-83150500D01*
X145740864Y-83150501D01*
X145735982Y-83151274D01*
X145735971Y-83151275D01*
X145656519Y-83163859D01*
X145656517Y-83163859D01*
X145646727Y-83165410D01*
X145637896Y-83169909D01*
X145637891Y-83169911D01*
X145542105Y-83218716D01*
X145542101Y-83218718D01*
X145533265Y-83223221D01*
X145526251Y-83230234D01*
X145526248Y-83230237D01*
X145524095Y-83232391D01*
X145520148Y-83234669D01*
X145518232Y-83236062D01*
X145518085Y-83235860D01*
X145467611Y-83265003D01*
X145402389Y-83265003D01*
X145351914Y-83235860D01*
X145351768Y-83236062D01*
X145349851Y-83234669D01*
X145345905Y-83232391D01*
X145343751Y-83230237D01*
X145336735Y-83223221D01*
X145327895Y-83218717D01*
X145327894Y-83218716D01*
X145232109Y-83169912D01*
X145232108Y-83169911D01*
X145223273Y-83165410D01*
X145213481Y-83163859D01*
X145213478Y-83163858D01*
X145134027Y-83151274D01*
X145134020Y-83151273D01*
X145129137Y-83150500D01*
X145124184Y-83150500D01*
X144775818Y-83150500D01*
X144775805Y-83150500D01*
X144770864Y-83150501D01*
X144765982Y-83151274D01*
X144765971Y-83151275D01*
X144686519Y-83163859D01*
X144686517Y-83163859D01*
X144676727Y-83165410D01*
X144667896Y-83169909D01*
X144667891Y-83169911D01*
X144572105Y-83218716D01*
X144572101Y-83218718D01*
X144563265Y-83223221D01*
X144556251Y-83230234D01*
X144556248Y-83230237D01*
X144480237Y-83306248D01*
X144480234Y-83306251D01*
X144473221Y-83313265D01*
X144468718Y-83322102D01*
X144468717Y-83322104D01*
X144468020Y-83323473D01*
X144466632Y-83324973D01*
X144462890Y-83330125D01*
X144462280Y-83329681D01*
X144421588Y-83373701D01*
X144355754Y-83392268D01*
X144285960Y-83392268D01*
X144228757Y-83378535D01*
X144194277Y-83349086D01*
X144193135Y-83350229D01*
X144104771Y-83261865D01*
X144095939Y-83257365D01*
X144095938Y-83257364D01*
X144002260Y-83209632D01*
X144002256Y-83209630D01*
X143993427Y-83205132D01*
X143983635Y-83203581D01*
X143905935Y-83191274D01*
X143905928Y-83191273D01*
X143901045Y-83190500D01*
X143896092Y-83190500D01*
X143503910Y-83190500D01*
X143503897Y-83190500D01*
X143498956Y-83190501D01*
X143494075Y-83191273D01*
X143494062Y-83191275D01*
X143416370Y-83203580D01*
X143416367Y-83203580D01*
X143406573Y-83205132D01*
X143397736Y-83209634D01*
X143397735Y-83209635D01*
X143304061Y-83257364D01*
X143304057Y-83257366D01*
X143295229Y-83261865D01*
X143288220Y-83268873D01*
X143288217Y-83268876D01*
X143206865Y-83350229D01*
X143205722Y-83349086D01*
X143171243Y-83378535D01*
X143114040Y-83392268D01*
X142905499Y-83392268D01*
X142842499Y-83375387D01*
X142796380Y-83329268D01*
X142779499Y-83266268D01*
X142779499Y-83206122D01*
X142779499Y-83206119D01*
X142779499Y-83199934D01*
X142764734Y-83125699D01*
X142708484Y-83041516D01*
X142624301Y-82985266D01*
X142612131Y-82982845D01*
X142612128Y-82982844D01*
X142556135Y-82971707D01*
X142550067Y-82970500D01*
X142543880Y-82970500D01*
X141456122Y-82970500D01*
X141456111Y-82970500D01*
X141449934Y-82970501D01*
X141443868Y-82971707D01*
X141443862Y-82971708D01*
X141387874Y-82982844D01*
X141387871Y-82982844D01*
X141375699Y-82985266D01*
X141365379Y-82992161D01*
X141365378Y-82992162D01*
X141301832Y-83034622D01*
X141301829Y-83034624D01*
X141291516Y-83041516D01*
X141284624Y-83051829D01*
X141284622Y-83051832D01*
X141242161Y-83115379D01*
X141242159Y-83115381D01*
X141235266Y-83125699D01*
X141232845Y-83137867D01*
X141232844Y-83137871D01*
X141221707Y-83193864D01*
X141220500Y-83199933D01*
X141220500Y-83206118D01*
X141220500Y-83206119D01*
X141220500Y-84243877D01*
X141220500Y-84243887D01*
X138250500Y-84243887D01*
X138250500Y-81401500D01*
X138267381Y-81338500D01*
X138313500Y-81292381D01*
X138376500Y-81275500D01*
X151749838Y-81275500D01*
X151816438Y-81294540D01*
G37*
%TD.AperFunction*%
%TA.AperFunction,Conductor*%
G36*
X158174120Y-89621755D02*
G01*
X158216587Y-89667367D01*
X158232000Y-89727753D01*
X158232000Y-95139743D01*
X158218672Y-95196143D01*
X158181509Y-95240611D01*
X158128372Y-95263741D01*
X158070503Y-95260639D01*
X158027588Y-95248038D01*
X158027583Y-95248037D01*
X158018942Y-95245500D01*
X157894000Y-95245500D01*
X157831000Y-95228619D01*
X157784881Y-95182500D01*
X157768000Y-95119500D01*
X157768000Y-89780500D01*
X157784881Y-89717500D01*
X157831000Y-89671381D01*
X157894000Y-89654500D01*
X157909933Y-89654500D01*
X157918942Y-89654500D01*
X158051240Y-89615654D01*
X158055735Y-89612764D01*
X158114987Y-89602074D01*
X158174120Y-89621755D01*
G37*
%TD.AperFunction*%
%TA.AperFunction,Conductor*%
G36*
X156114308Y-85902591D02*
G01*
X156155185Y-85929905D01*
X157130086Y-86904806D01*
X157153663Y-86937501D01*
X157165707Y-86975964D01*
X157171042Y-87013070D01*
X157160939Y-87083342D01*
X157114446Y-87136998D01*
X157046325Y-87157000D01*
X155467736Y-87157000D01*
X155419519Y-87147409D01*
X155378642Y-87120097D01*
X155375377Y-87116832D01*
X155368484Y-87106516D01*
X155284301Y-87050266D01*
X155272131Y-87047845D01*
X155272128Y-87047844D01*
X155216135Y-87036707D01*
X155210067Y-87035500D01*
X155203880Y-87035500D01*
X154015499Y-87035500D01*
X153952499Y-87018619D01*
X153906380Y-86972500D01*
X153889499Y-86909503D01*
X153889499Y-86018999D01*
X153906380Y-85956000D01*
X153952499Y-85909881D01*
X154015499Y-85893000D01*
X156066090Y-85893000D01*
X156114308Y-85902591D01*
G37*
%TD.AperFunction*%
%TA.AperFunction,Conductor*%
G36*
X153392868Y-81294540D02*
G01*
X153439340Y-81345906D01*
X153451639Y-81414074D01*
X153426048Y-81478441D01*
X153370301Y-81519556D01*
X153298295Y-81546412D01*
X153282641Y-81554961D01*
X153188239Y-81625629D01*
X153175629Y-81638239D01*
X153104961Y-81732641D01*
X153096410Y-81748299D01*
X153068321Y-81823608D01*
X153034129Y-81873611D01*
X152980553Y-81901880D01*
X152919977Y-81901879D01*
X152866402Y-81873610D01*
X152832212Y-81823610D01*
X152800883Y-81739613D01*
X152719330Y-81630670D01*
X152610387Y-81549117D01*
X152531125Y-81519553D01*
X152475382Y-81478441D01*
X152449791Y-81414074D01*
X152462090Y-81345906D01*
X152508562Y-81294540D01*
X152575162Y-81275500D01*
X153326268Y-81275500D01*
X153392868Y-81294540D01*
G37*
%TD.AperFunction*%
%TD*%
%TA.AperFunction,Conductor*%
%TO.N,/M.2 E-Key Connector/V_{CC}Fused*%
G36*
X144146028Y-101984591D02*
G01*
X144186905Y-102011905D01*
X144313095Y-102138095D01*
X144340409Y-102178972D01*
X144350000Y-102227190D01*
X144350000Y-103322810D01*
X144340409Y-103371028D01*
X144313095Y-103411905D01*
X142986905Y-104738095D01*
X142946028Y-104765409D01*
X142897810Y-104775000D01*
X140802190Y-104775000D01*
X140753972Y-104765409D01*
X140713095Y-104738095D01*
X140586905Y-104611905D01*
X140559591Y-104571028D01*
X140550000Y-104522810D01*
X140550000Y-103827190D01*
X140559591Y-103778972D01*
X140586905Y-103738095D01*
X140713095Y-103611905D01*
X140753972Y-103584591D01*
X140802190Y-103575000D01*
X141737590Y-103575000D01*
X141750000Y-103575000D01*
X142550000Y-102775000D01*
X142550000Y-102227190D01*
X142559591Y-102178972D01*
X142586905Y-102138095D01*
X142713095Y-102011905D01*
X142753972Y-101984591D01*
X142802190Y-101975000D01*
X144097810Y-101975000D01*
X144146028Y-101984591D01*
G37*
%TD.AperFunction*%
%TD*%
%TA.AperFunction,Conductor*%
%TO.N,3.3V*%
G36*
X152487000Y-101191881D02*
G01*
X152533119Y-101238000D01*
X152550000Y-101301000D01*
X152550000Y-102649000D01*
X152533119Y-102712000D01*
X152487000Y-102758119D01*
X152424000Y-102775000D01*
X150350000Y-102775000D01*
X150340369Y-102778210D01*
X150340364Y-102778211D01*
X150069398Y-102868534D01*
X150029553Y-102875000D01*
X148916372Y-102875000D01*
X148853372Y-102858119D01*
X148807253Y-102812000D01*
X148790372Y-102749000D01*
X148790372Y-102001000D01*
X148807253Y-101938000D01*
X148853372Y-101891881D01*
X148916372Y-101875000D01*
X149538648Y-101875000D01*
X149550000Y-101875000D01*
X150314372Y-101206174D01*
X150353025Y-101183051D01*
X150397343Y-101175000D01*
X152424000Y-101175000D01*
X152487000Y-101191881D01*
G37*
%TD.AperFunction*%
%TD*%
M02*
