M48
; DRILL file {KiCad (7.0.0-rc2-153-g7d6218acb4)} date Sun Feb 19 17:36:38 2023
; FORMAT={-:-/ absolute / inch / decimal}
; #@! TF.CreationDate,2023-02-19T17:36:38+08:00
; #@! TF.GenerationSoftware,Kicad,Pcbnew,(7.0.0-rc2-153-g7d6218acb4)
; #@! TF.FileFunction,Plated,1,4,PTH
FMAT,2
INCH
; #@! TA.AperFunction,Plated,PTH,ViaDrill
T1C0.0118
; #@! TA.AperFunction,Plated,PTH,ViaDrill
T2C0.0130
; #@! TA.AperFunction,Plated,PTH,ComponentDrill
T3C0.0866
%
G90
G05
T1
X5.4528Y-3.9053
X5.4587Y-1.81
X5.4587Y-3.7274
X5.4598Y-3.651
X5.4626Y-3.4175
X5.4665Y-3.2274
X5.4665Y-3.3691
X5.4685Y-4.1781
X5.4705Y-4.0541
X5.4823Y-1.7904
X5.4902Y-2.6565
X5.4941Y-2.5187
X5.4941Y-2.5581
X5.498Y-3.7293
X5.5079Y-2.2455
X5.508Y-2.2973
X5.508Y-2.4417
X5.5098Y-2.2136
X5.5098Y-4.0541
X5.5138Y-2.4715
X5.5157Y-3.749
X5.5217Y-2.5187
X5.5217Y-2.5581
X5.5453Y-3.6526
X5.5492Y-2.253
X5.5531Y-4.0541
X5.565Y-4.1959
X5.5689Y-2.2726
X5.5728Y-4.1526
X5.5737Y-1.8454
X5.5807Y-3.6919
X5.5807Y-4.0856
X5.5807Y-4.1171
X5.5904Y-1.7822
X5.5925Y-2.1093
X5.5925Y-2.1565
X5.5925Y-2.4439
X5.5925Y-3.3691
X5.5965Y-3.2274
X5.5984Y-1.8415
X5.5984Y-2.5778
X5.6043Y-2.0541
X5.6043Y-2.0778
X5.6043Y-3.6624
X5.6063Y-3.7746
X5.6063Y-3.7982
X5.6083Y-2.1841
X5.6083Y-2.2077
X5.6083Y-4.1998
X5.6113Y-3.5856
X5.6122Y-3.5384
X5.6122Y-3.562
X5.6122Y-4.0856
X5.6122Y-4.1171
X5.6168Y-1.9774
X5.6201Y-3.3455
X5.628Y-3.2313
X5.6358Y-1.8451
X5.6358Y-1.9045
X5.6437Y-3.8376
X5.6437Y-4.0699
X5.6476Y-1.8022
X5.6476Y-2.5778
X5.6476Y-2.6998
X5.6476Y-3.2589
X5.6594Y-3.4006
X5.6634Y-2.0935
X5.6673Y-2.0266
X5.6752Y-1.8415
X5.6752Y-2.6998
X5.6811Y-3.6191
X5.6831Y-3.2589
X5.6831Y-3.5502
X5.6831Y-3.9281
X5.6831Y-4.1998
X5.6872Y-3.469
X5.6909Y-3.3337
X5.6909Y-4.1132
X5.6949Y-2.0108
X5.7028Y-1.8415
X5.7106Y-4.1998
X5.7185Y-3.2589
X5.7224Y-1.7825
X5.7264Y-3.3337
X5.7264Y-3.9321
X5.7343Y-3.873
X5.7362Y-2.2333
X5.7362Y-2.2726
X5.7362Y-2.3415
X5.7362Y-2.3809
X5.7362Y-2.4498
X5.7362Y-2.4892
X5.7362Y-2.7057
X5.7362Y-3.4931
X5.7362Y-3.5325
X5.7362Y-3.6014
X5.7362Y-3.6407
X5.7362Y-3.7096
X5.7362Y-3.749
X5.7382Y-1.9833
X5.7382Y-4.1998
X5.7461Y-2.5344
X5.7461Y-3.9675
X5.7539Y-2.6368
X5.7539Y-3.2589
X5.7618Y-3.3337
X5.7618Y-3.877
X5.7657Y-1.9833
X5.7657Y-2.6644
X5.7717Y-3.4419
X5.7736Y-4.1565
X5.7736Y-4.188
X5.7756Y-2.2333
X5.7756Y-2.2726
X5.7756Y-2.3415
X5.7756Y-2.3809
X5.7756Y-2.4498
X5.7756Y-2.4892
X5.7756Y-3.4931
X5.7756Y-3.5325
X5.7756Y-3.6014
X5.7756Y-3.6407
X5.7756Y-3.7096
X5.7756Y-3.749
X5.7776Y-2.0266
X5.7776Y-2.0541
X5.7776Y-4.0659
X5.7776Y-4.1014
X5.7815Y-2.1722
X5.7894Y-1.7825
X5.7894Y-3.2589
X5.7933Y-1.9833
X5.7972Y-2.0935
X5.8051Y-3.873
X5.8091Y-2.5344
X5.8091Y-3.4419
X5.813Y-2.7077
X5.8154Y-1.8829
X5.8169Y-2.6368
X5.8209Y-1.9478
X5.8209Y-1.9715
X5.8244Y-1.9094
X5.8248Y-4.1998
X5.8287Y-3.873
X5.8445Y-1.7825
X5.8445Y-2.2333
X5.8445Y-2.2726
X5.8445Y-2.3415
X5.8445Y-2.3809
X5.8445Y-2.4498
X5.8445Y-2.4892
X5.8445Y-2.6526
X5.8445Y-3.4931
X5.8445Y-3.5325
X5.8445Y-3.6014
X5.8445Y-3.6407
X5.8445Y-3.7096
X5.8445Y-3.749
X5.8445Y-4.0935
X5.8445Y-4.1323
X5.8484Y-3.3297
X5.8799Y-2.6526
X5.8838Y-1.85
X5.8839Y-1.8888
X5.8839Y-2.2333
X5.8839Y-2.2726
X5.8839Y-2.3415
X5.8839Y-2.3809
X5.8839Y-2.4498
X5.8839Y-2.4892
X5.8839Y-3.3297
X5.8839Y-3.4931
X5.8839Y-3.5325
X5.8839Y-3.6014
X5.8839Y-3.6407
X5.8839Y-3.7096
X5.8839Y-3.749
X5.8839Y-4.1998
X5.8996Y-2.1093
X5.9035Y-1.7825
X5.904Y-4.0729
X5.9075Y-4.0108
X5.9075Y-4.0344
X5.9114Y-3.3455
X5.913Y-4.0994
X5.9154Y-3.2746
X5.9193Y-2.5404
X5.9193Y-3.4478
X5.9232Y-2.1093
X5.9311Y-3.8888
X5.935Y-3.999
X5.939Y-2.7234
X5.939Y-4.1998
X5.9469Y-3.81
X5.9508Y-1.8809
X5.9508Y-1.9163
X5.9508Y-3.9281
X5.9508Y-3.9557
X5.9528Y-2.2333
X5.9528Y-2.2726
X5.9528Y-2.3415
X5.9528Y-2.3809
X5.9528Y-2.4498
X5.9528Y-2.4892
X5.9528Y-3.4931
X5.9528Y-3.5325
X5.9528Y-3.6014
X5.9528Y-3.6407
X5.9528Y-3.7096
X5.9528Y-3.749
X5.9547Y-1.7943
X5.9547Y-1.8258
X5.9567Y-2.5404
X5.9626Y-3.3179
X5.9626Y-3.999
X5.9665Y-2.1053
X5.9665Y-2.6486
X5.9744Y-2.7234
X5.9744Y-3.3455
X5.9823Y-2.0148
X5.9823Y-3.4478
X5.9902Y-1.7825
X5.9902Y-3.999
X5.9921Y-2.2333
X5.9921Y-2.2726
X5.9921Y-2.3415
X5.9921Y-2.3809
X5.9921Y-2.4498
X5.9921Y-2.4892
X5.9921Y-3.2766
X5.9921Y-3.4931
X5.9921Y-3.5325
X5.9921Y-3.6014
X5.9921Y-3.6407
X5.9921Y-3.7096
X5.9921Y-3.749
X5.9941Y-2.1093
X6.002Y-2.0502
X6.002Y-2.6486
X6.0059Y-4.1998
X6.0098Y-2.7234
X6.0177Y-1.7825
X6.0256Y-4.1407
X6.0335Y-3.9715
X6.0374Y-1.8691
X6.0374Y-2.6486
X6.0411Y-2.5133
X6.0453Y-1.7825
X6.0453Y-2.0541
X6.0453Y-2.4321
X6.0453Y-2.7234
X6.0472Y-2.3632
X6.0531Y-3.2825
X6.0531Y-4.1407
X6.061Y-3.9557
X6.065Y-3.8888
X6.0689Y-2.5817
X6.0807Y-2.7234
X6.0807Y-3.2825
X6.0807Y-3.4045
X6.0807Y-4.1801
X6.0846Y-1.9124
X6.0846Y-2.1447
X6.0925Y-4.0778
X6.0925Y-4.1371
X6.1004Y-2.751
X6.1083Y-2.6368
X6.1115Y-4.0049
X6.1161Y-1.8652
X6.1161Y-1.8967
X6.1161Y-2.4203
X6.1161Y-2.4439
X6.1171Y-2.3967
X6.1201Y-1.7825
X6.1201Y-3.7746
X6.1201Y-3.7982
X6.122Y-2.1841
X6.122Y-2.2077
X6.124Y-2.3199
X6.124Y-3.9045
X6.124Y-3.9281
X6.1299Y-3.4045
X6.1299Y-4.1407
X6.1319Y-2.7549
X6.1358Y-2.6132
X6.1358Y-3.5384
X6.1358Y-3.8258
X6.1358Y-3.873
X6.1379Y-4.2
X6.1476Y-1.8652
X6.1476Y-1.8967
X6.1476Y-2.2904
X6.1547Y-4.1369
X6.1555Y-1.8297
X6.1594Y-3.7096
X6.1634Y-1.7864
X6.1752Y-1.9281
X6.1791Y-3.7293
X6.1831Y-2.3297
X6.2067Y-3.4242
X6.2067Y-3.4636
X6.2126Y-2.2333
X6.2146Y-3.5108
X6.2185Y-1.9281
X6.2185Y-3.7687
X6.2203Y-3.5406
X6.2203Y-3.6849
X6.2205Y-3.7368
X6.2303Y-2.253
X6.2343Y-3.4242
X6.2343Y-3.4636
X6.2382Y-3.3258
X6.2461Y-4.1919
X6.2579Y-1.9281
X6.2598Y-1.8041
X6.2618Y-2.6132
X6.2618Y-2.7549
X6.2657Y-2.5648
X6.2685Y-2.3313
X6.2697Y-2.2549
X6.2697Y-4.1722
X6.2756Y-2.077
X6.3189Y-3.9053
X6.3248Y-1.81
X6.3248Y-3.7274
X6.326Y-3.651
X6.3287Y-3.4175
X6.3327Y-3.2274
X6.3327Y-3.3691
X6.3346Y-4.1781
X6.3366Y-4.0541
X6.3484Y-1.7904
X6.3563Y-2.6565
X6.3602Y-2.5187
X6.3602Y-2.5581
X6.3642Y-3.7293
X6.374Y-2.2455
X6.3742Y-2.2973
X6.3742Y-2.4417
X6.376Y-2.2136
X6.376Y-4.0541
X6.3799Y-2.4715
X6.3819Y-3.749
X6.3878Y-2.5187
X6.3878Y-2.5581
X6.4114Y-3.6526
X6.4154Y-2.253
X6.4193Y-4.0541
X6.4311Y-4.1959
X6.435Y-2.2726
X6.439Y-4.1526
X6.4398Y-1.8454
X6.4469Y-3.6919
X6.4469Y-4.0856
X6.4469Y-4.1171
X6.4566Y-1.7822
X6.4587Y-2.1093
X6.4587Y-2.1565
X6.4587Y-2.4439
X6.4587Y-3.3691
X6.4626Y-3.2274
X6.4646Y-1.8415
X6.4646Y-2.5778
X6.4705Y-2.0541
X6.4705Y-2.0778
X6.4705Y-3.6624
X6.4724Y-3.7746
X6.4724Y-3.7982
X6.4744Y-2.1841
X6.4744Y-2.2077
X6.4744Y-4.1998
X6.4774Y-3.5856
X6.4783Y-3.5384
X6.4783Y-3.562
X6.4783Y-4.0856
X6.4783Y-4.1171
X6.483Y-1.9774
X6.4862Y-3.3455
X6.4941Y-3.2313
X6.502Y-1.8451
X6.502Y-1.9045
X6.5098Y-3.8376
X6.5098Y-4.0699
X6.5138Y-1.8022
X6.5138Y-2.5778
X6.5138Y-2.6998
X6.5138Y-3.2589
X6.5256Y-3.4006
X6.5295Y-2.0935
X6.5335Y-2.0266
X6.5413Y-1.8415
X6.5413Y-2.6998
X6.5472Y-3.6191
X6.5492Y-3.2589
X6.5492Y-3.5502
X6.5492Y-3.9281
X6.5492Y-4.1998
X6.5534Y-3.469
X6.5571Y-3.3337
X6.5571Y-4.1132
X6.561Y-2.0108
X6.5689Y-1.8415
X6.5768Y-4.1998
X6.5846Y-3.2589
X6.5886Y-1.7825
X6.5925Y-3.3337
X6.5925Y-3.9321
X6.6004Y-3.873
X6.6024Y-2.2333
X6.6024Y-2.2726
X6.6024Y-2.3415
X6.6024Y-2.3809
X6.6024Y-2.4498
X6.6024Y-2.4892
X6.6024Y-2.7057
X6.6024Y-3.4931
X6.6024Y-3.5325
X6.6024Y-3.6014
X6.6024Y-3.6407
X6.6024Y-3.7096
X6.6024Y-3.749
X6.6043Y-1.9833
X6.6043Y-4.1998
X6.6122Y-2.5344
X6.6122Y-3.9675
X6.6201Y-2.6368
X6.6201Y-3.2589
X6.628Y-3.3337
X6.628Y-3.877
X6.6319Y-1.9833
X6.6319Y-2.6644
X6.6378Y-3.4419
X6.6398Y-4.1565
X6.6398Y-4.188
X6.6417Y-2.2333
X6.6417Y-2.2726
X6.6417Y-2.3415
X6.6417Y-2.3809
X6.6417Y-2.4498
X6.6417Y-2.4892
X6.6417Y-3.4931
X6.6417Y-3.5325
X6.6417Y-3.6014
X6.6417Y-3.6407
X6.6417Y-3.7096
X6.6417Y-3.749
X6.6437Y-2.0266
X6.6437Y-2.0541
X6.6437Y-4.0659
X6.6437Y-4.1014
X6.6476Y-2.1722
X6.6555Y-1.7825
X6.6555Y-3.2589
X6.6594Y-1.9833
X6.6634Y-2.0935
X6.6713Y-3.873
X6.6752Y-2.5344
X6.6752Y-3.4419
X6.6791Y-2.7077
X6.6815Y-1.8829
X6.6831Y-2.6368
X6.687Y-1.9478
X6.687Y-1.9715
X6.6905Y-1.9094
X6.6909Y-4.1998
X6.6949Y-3.873
X6.7106Y-1.7825
X6.7106Y-2.2333
X6.7106Y-2.2726
X6.7106Y-2.3415
X6.7106Y-2.3809
X6.7106Y-2.4498
X6.7106Y-2.4892
X6.7106Y-2.6526
X6.7106Y-3.4931
X6.7106Y-3.5325
X6.7106Y-3.6014
X6.7106Y-3.6407
X6.7106Y-3.7096
X6.7106Y-3.749
X6.7106Y-4.0935
X6.7107Y-4.1323
X6.7146Y-3.3297
X6.7461Y-2.6526
X6.75Y-1.85
X6.75Y-1.8888
X6.75Y-2.2333
X6.75Y-2.2726
X6.75Y-2.3415
X6.75Y-2.3809
X6.75Y-2.4498
X6.75Y-2.4892
X6.75Y-3.3297
X6.75Y-3.4931
X6.75Y-3.5325
X6.75Y-3.6014
X6.75Y-3.6407
X6.75Y-3.7096
X6.75Y-3.749
X6.75Y-4.1998
X6.7657Y-2.1093
X6.7697Y-1.7825
X6.7701Y-4.0729
X6.7736Y-4.0108
X6.7736Y-4.0344
X6.7776Y-3.3455
X6.7791Y-4.0994
X6.7815Y-3.2746
X6.7854Y-2.5404
X6.7854Y-3.4478
X6.7894Y-2.1093
X6.7972Y-3.8888
X6.8012Y-3.999
X6.8051Y-2.7234
X6.8051Y-4.1998
X6.813Y-3.81
X6.8169Y-1.8809
X6.8169Y-1.9163
X6.8169Y-3.9281
X6.8169Y-3.9557
X6.8189Y-2.2333
X6.8189Y-2.2726
X6.8189Y-2.3415
X6.8189Y-2.3809
X6.8189Y-2.4498
X6.8189Y-2.4892
X6.8189Y-3.4931
X6.8189Y-3.5325
X6.8189Y-3.6014
X6.8189Y-3.6407
X6.8189Y-3.7096
X6.8189Y-3.749
X6.8209Y-1.7943
X6.8209Y-1.8258
X6.8228Y-2.5404
X6.8287Y-3.3179
X6.8287Y-3.999
X6.8327Y-2.1053
X6.8327Y-2.6486
X6.8406Y-2.7234
X6.8406Y-3.3455
X6.8484Y-2.0148
X6.8484Y-3.4478
X6.8563Y-1.7825
X6.8563Y-3.999
X6.8583Y-2.2333
X6.8583Y-2.2726
X6.8583Y-2.3415
X6.8583Y-2.3809
X6.8583Y-2.4498
X6.8583Y-2.4892
X6.8583Y-3.2766
X6.8583Y-3.4931
X6.8583Y-3.5325
X6.8583Y-3.6014
X6.8583Y-3.6407
X6.8583Y-3.7096
X6.8583Y-3.749
X6.8602Y-2.1093
X6.8681Y-2.0502
X6.8681Y-2.6486
X6.872Y-4.1998
X6.876Y-2.7234
X6.8839Y-1.7825
X6.8917Y-4.1407
X6.8996Y-3.9715
X6.9035Y-1.8691
X6.9035Y-2.6486
X6.9072Y-2.5133
X6.9114Y-1.7825
X6.9114Y-2.0541
X6.9114Y-2.4321
X6.9114Y-2.7234
X6.9134Y-2.3632
X6.9193Y-3.2825
X6.9193Y-4.1407
X6.9272Y-3.9557
X6.9311Y-3.8888
X6.935Y-2.5817
X6.9469Y-2.7234
X6.9469Y-3.2825
X6.9469Y-3.4045
X6.9469Y-4.1801
X6.9508Y-1.9124
X6.9508Y-2.1447
X6.9587Y-4.0778
X6.9587Y-4.1371
X6.9665Y-2.751
X6.9744Y-2.6368
X6.9777Y-4.0049
X6.9823Y-1.8652
X6.9823Y-1.8967
X6.9823Y-2.4203
X6.9823Y-2.4439
X6.9832Y-2.3967
X6.9862Y-1.7825
X6.9862Y-3.7746
X6.9862Y-3.7982
X6.9882Y-2.1841
X6.9882Y-2.2077
X6.9902Y-2.3199
X6.9902Y-3.9045
X6.9902Y-3.9281
X6.9961Y-3.4045
X6.9961Y-4.1407
X6.998Y-2.7549
X7.002Y-2.6132
X7.002Y-3.5384
X7.002Y-3.8258
X7.002Y-3.873
X7.004Y-4.2
X7.0138Y-1.8652
X7.0138Y-1.8967
X7.0138Y-2.2904
X7.0208Y-4.1369
X7.0217Y-1.8297
X7.0256Y-3.7096
X7.0295Y-1.7864
X7.0413Y-1.9281
X7.0453Y-3.7293
X7.0492Y-2.3297
X7.0728Y-3.4242
X7.0728Y-3.4636
X7.0787Y-2.2333
X7.0807Y-3.5108
X7.0846Y-1.9281
X7.0846Y-3.7687
X7.0865Y-3.5406
X7.0865Y-3.6849
X7.0866Y-3.7368
X7.0965Y-2.253
X7.1004Y-3.4242
X7.1004Y-3.4636
X7.1043Y-3.3258
X7.1122Y-4.1919
X7.124Y-1.9281
X7.126Y-1.8041
X7.128Y-2.6132
X7.128Y-2.7549
X7.1319Y-2.5648
X7.1346Y-2.3313
X7.1358Y-2.2549
X7.1358Y-4.1722
X7.1417Y-2.077
X7.185Y-3.9053
X7.1909Y-1.81
X7.1909Y-3.7274
X7.1921Y-3.651
X7.1949Y-3.4175
X7.1988Y-3.2274
X7.1988Y-3.3691
X7.2008Y-4.1781
X7.2028Y-4.0541
X7.2146Y-1.7904
X7.2224Y-2.6565
X7.2264Y-2.5187
X7.2264Y-2.5581
X7.2303Y-3.7293
X7.2401Y-2.2455
X7.2403Y-2.2973
X7.2403Y-2.4417
X7.2421Y-2.2136
X7.2421Y-4.0541
X7.2461Y-2.4715
X7.248Y-3.749
X7.2539Y-2.5187
X7.2539Y-2.5581
X7.2776Y-3.6526
X7.2815Y-2.253
X7.2854Y-4.0541
X7.2972Y-4.1959
X7.3012Y-2.2726
X7.3051Y-4.1526
X7.306Y-1.8454
X7.313Y-3.6919
X7.313Y-4.0856
X7.313Y-4.1171
X7.3227Y-1.7822
X7.3248Y-2.1093
X7.3248Y-2.1565
X7.3248Y-2.4439
X7.3248Y-3.3691
X7.3287Y-3.2274
X7.3307Y-1.8415
X7.3307Y-2.5778
X7.3366Y-2.0541
X7.3366Y-2.0778
X7.3366Y-3.6624
X7.3386Y-3.7746
X7.3386Y-3.7982
X7.3406Y-2.1841
X7.3406Y-2.2077
X7.3406Y-4.1998
X7.3436Y-3.5856
X7.3445Y-3.5384
X7.3445Y-3.562
X7.3445Y-4.0856
X7.3445Y-4.1171
X7.3491Y-1.9774
X7.3524Y-3.3455
X7.3602Y-3.2313
X7.3681Y-1.8451
X7.3681Y-1.9045
X7.376Y-3.8376
X7.376Y-4.0699
X7.3799Y-1.8022
X7.3799Y-2.5778
X7.3799Y-2.6998
X7.3799Y-3.2589
X7.3917Y-3.4006
X7.3957Y-2.0935
X7.3996Y-2.0266
X7.4075Y-1.8415
X7.4075Y-2.6998
X7.4134Y-3.6191
X7.4154Y-3.2589
X7.4154Y-3.5502
X7.4154Y-3.9281
X7.4154Y-4.1998
X7.4195Y-3.469
X7.4232Y-3.3337
X7.4232Y-4.1132
X7.4272Y-2.0108
X7.435Y-1.8415
X7.4429Y-4.1998
X7.4508Y-3.2589
X7.4547Y-1.7825
X7.4587Y-3.3337
X7.4587Y-3.9321
X7.4665Y-3.873
X7.4685Y-2.2333
X7.4685Y-2.2726
X7.4685Y-2.3415
X7.4685Y-2.3809
X7.4685Y-2.4498
X7.4685Y-2.4892
X7.4685Y-2.7057
X7.4685Y-3.4931
X7.4685Y-3.5325
X7.4685Y-3.6014
X7.4685Y-3.6407
X7.4685Y-3.7096
X7.4685Y-3.749
X7.4705Y-1.9833
X7.4705Y-4.1998
X7.4783Y-2.5344
X7.4783Y-3.9675
X7.4862Y-2.6368
X7.4862Y-3.2589
X7.4941Y-3.3337
X7.4941Y-3.877
X7.498Y-1.9833
X7.498Y-2.6644
X7.5039Y-3.4419
X7.5059Y-4.1565
X7.5059Y-4.188
X7.5079Y-2.2333
X7.5079Y-2.2726
X7.5079Y-2.3415
X7.5079Y-2.3809
X7.5079Y-2.4498
X7.5079Y-2.4892
X7.5079Y-3.4931
X7.5079Y-3.5325
X7.5079Y-3.6014
X7.5079Y-3.6407
X7.5079Y-3.7096
X7.5079Y-3.749
X7.5098Y-2.0266
X7.5098Y-2.0541
X7.5098Y-4.0659
X7.5098Y-4.1014
X7.5138Y-2.1722
X7.5217Y-1.7825
X7.5217Y-3.2589
X7.5256Y-1.9833
X7.5295Y-2.0935
X7.5374Y-3.873
X7.5413Y-2.5344
X7.5413Y-3.4419
X7.5453Y-2.7077
X7.5476Y-1.8829
X7.5492Y-2.6368
X7.5531Y-1.9478
X7.5531Y-1.9715
X7.5567Y-1.9094
X7.5571Y-4.1998
X7.561Y-3.873
X7.5768Y-1.7825
X7.5768Y-2.2333
X7.5768Y-2.2726
X7.5768Y-2.3415
X7.5768Y-2.3809
X7.5768Y-2.4498
X7.5768Y-2.4892
X7.5768Y-2.6526
X7.5768Y-3.4931
X7.5768Y-3.5325
X7.5768Y-3.6014
X7.5768Y-3.6407
X7.5768Y-3.7096
X7.5768Y-3.749
X7.5768Y-4.0935
X7.5768Y-4.1323
X7.5807Y-3.3297
X7.6122Y-2.6526
X7.6161Y-1.85
X7.6161Y-1.8888
X7.6161Y-2.2333
X7.6161Y-2.2726
X7.6161Y-2.3415
X7.6161Y-2.3809
X7.6161Y-2.4498
X7.6161Y-2.4892
X7.6161Y-3.3297
X7.6161Y-3.4931
X7.6161Y-3.5325
X7.6161Y-3.6014
X7.6161Y-3.6407
X7.6161Y-3.7096
X7.6161Y-3.749
X7.6161Y-4.1998
X7.6319Y-2.1093
X7.6358Y-1.7825
X7.6362Y-4.0729
X7.6398Y-4.0108
X7.6398Y-4.0344
X7.6437Y-3.3455
X7.6453Y-4.0994
X7.6476Y-3.2746
X7.6516Y-2.5404
X7.6516Y-3.4478
X7.6555Y-2.1093
X7.6634Y-3.8888
X7.6673Y-3.999
X7.6713Y-2.7234
X7.6713Y-4.1998
X7.6791Y-3.81
X7.6831Y-1.8809
X7.6831Y-1.9163
X7.6831Y-3.9281
X7.6831Y-3.9557
X7.685Y-2.2333
X7.685Y-2.2726
X7.685Y-2.3415
X7.685Y-2.3809
X7.685Y-2.4498
X7.685Y-2.4892
X7.685Y-3.4931
X7.685Y-3.5325
X7.685Y-3.6014
X7.685Y-3.6407
X7.685Y-3.7096
X7.685Y-3.749
X7.687Y-1.7943
X7.687Y-1.8258
X7.689Y-2.5404
X7.6949Y-3.3179
X7.6949Y-3.999
X7.6988Y-2.1053
X7.6988Y-2.6486
X7.7067Y-2.7234
X7.7067Y-3.3455
X7.7146Y-2.0148
X7.7146Y-3.4478
X7.7224Y-1.7825
X7.7224Y-3.999
X7.7244Y-2.2333
X7.7244Y-2.2726
X7.7244Y-2.3415
X7.7244Y-2.3809
X7.7244Y-2.4498
X7.7244Y-2.4892
X7.7244Y-3.2766
X7.7244Y-3.4931
X7.7244Y-3.5325
X7.7244Y-3.6014
X7.7244Y-3.6407
X7.7244Y-3.7096
X7.7244Y-3.749
X7.7264Y-2.1093
X7.7343Y-2.0502
X7.7343Y-2.6486
X7.7382Y-4.1998
X7.7421Y-2.7234
X7.75Y-1.7825
X7.7579Y-4.1407
X7.7657Y-3.9715
X7.7697Y-1.8691
X7.7697Y-2.6486
X7.7734Y-2.5133
X7.7776Y-1.7825
X7.7776Y-2.0541
X7.7776Y-2.4321
X7.7776Y-2.7234
X7.7795Y-2.3632
X7.7854Y-3.2825
X7.7854Y-4.1407
X7.7933Y-3.9557
X7.7972Y-3.8888
X7.8012Y-2.5817
X7.813Y-2.7234
X7.813Y-3.2825
X7.813Y-3.4045
X7.813Y-4.1801
X7.8169Y-1.9124
X7.8169Y-2.1447
X7.8248Y-4.0778
X7.8248Y-4.1371
X7.8327Y-2.751
X7.8406Y-2.6368
X7.8438Y-4.0049
X7.8484Y-1.8652
X7.8484Y-1.8967
X7.8484Y-2.4203
X7.8484Y-2.4439
X7.8494Y-2.3967
X7.8524Y-1.7825
X7.8524Y-3.7746
X7.8524Y-3.7982
X7.8543Y-2.1841
X7.8543Y-2.2077
X7.8563Y-2.3199
X7.8563Y-3.9045
X7.8563Y-3.9281
X7.8622Y-3.4045
X7.8622Y-4.1407
X7.8642Y-2.7549
X7.8681Y-2.6132
X7.8681Y-3.5384
X7.8681Y-3.8258
X7.8681Y-3.873
X7.8702Y-4.2
X7.8799Y-1.8652
X7.8799Y-1.8967
X7.8799Y-2.2904
X7.8869Y-4.1369
X7.8878Y-1.8297
X7.8917Y-3.7096
X7.8957Y-1.7864
X7.9075Y-1.9281
X7.9114Y-3.7293
X7.9154Y-2.3297
X7.939Y-3.4242
X7.939Y-3.4636
X7.9449Y-2.2333
X7.9469Y-3.5108
X7.9508Y-1.9281
X7.9508Y-3.7687
X7.9526Y-3.5406
X7.9526Y-3.6849
X7.9528Y-3.7368
X7.9626Y-2.253
X7.9665Y-3.4242
X7.9665Y-3.4636
X7.9705Y-3.3258
X7.9783Y-4.1919
X7.9902Y-1.9281
X7.9921Y-1.8041
X7.9941Y-2.6132
X7.9941Y-2.7549
X7.998Y-2.5648
X8.0008Y-2.3313
X8.002Y-2.2549
X8.002Y-4.1722
X8.0079Y-2.077
T2
X5.4862Y-3.5089
X5.4862Y-3.5738
X6.2421Y-2.4085
X6.2421Y-2.4734
X6.3524Y-3.5089
X6.3524Y-3.5738
X7.1083Y-2.4085
X7.1083Y-2.4734
X7.2185Y-3.5089
X7.2185Y-3.5738
X7.9744Y-2.4085
X7.9744Y-2.4734
T3
X5.8642Y-2.7943
X5.8642Y-3.188
X6.7303Y-2.7943
X6.7303Y-3.188
X7.5965Y-2.7943
X7.5965Y-3.188
T0
M30
