M48
; DRILL file {KiCad (7.0.0-rc2-153-g7d6218acb4)} date Sun Feb 19 16:48:30 2023
; FORMAT={-:-/ absolute / inch / decimal}
; #@! TF.CreationDate,2023-02-19T16:48:30+08:00
; #@! TF.GenerationSoftware,Kicad,Pcbnew,(7.0.0-rc2-153-g7d6218acb4)
; #@! TF.FileFunction,Plated,1,4,PTH
FMAT,2
INCH
; #@! TA.AperFunction,Plated,PTH,ViaDrill
T1C0.0118
; #@! TA.AperFunction,Plated,PTH,ViaDrill
T2C0.0130
; #@! TA.AperFunction,Plated,PTH,ComponentDrill
T3C0.0866
%
G90
G05
T1
X5.4528Y-3.9053
X5.4587Y-3.7274
X5.4598Y-3.651
X5.4626Y-3.4175
X5.4665Y-3.2274
X5.4665Y-3.3691
X5.4685Y-4.1781
X5.4705Y-4.0541
X5.498Y-3.7293
X5.5098Y-4.0541
X5.5157Y-3.749
X5.5453Y-3.6526
X5.5531Y-4.0541
X5.565Y-4.1959
X5.5728Y-4.1526
X5.5807Y-3.6919
X5.5807Y-4.0856
X5.5807Y-4.1171
X5.5925Y-3.3691
X5.5965Y-3.2274
X5.6043Y-3.6624
X5.6063Y-3.7746
X5.6063Y-3.7982
X5.6083Y-4.1998
X5.6113Y-3.5856
X5.6122Y-3.5384
X5.6122Y-3.562
X5.6122Y-4.0856
X5.6122Y-4.1171
X5.6201Y-3.3455
X5.628Y-3.2313
X5.6437Y-3.8376
X5.6437Y-4.0699
X5.6476Y-3.2589
X5.6594Y-3.4006
X5.6811Y-3.6191
X5.6831Y-3.2589
X5.6831Y-3.5502
X5.6831Y-3.9281
X5.6831Y-4.1998
X5.6872Y-3.469
X5.6909Y-3.3337
X5.6909Y-4.1132
X5.7106Y-4.1998
X5.7185Y-3.2589
X5.7264Y-3.3337
X5.7264Y-3.9321
X5.7343Y-3.873
X5.7362Y-3.4931
X5.7362Y-3.5325
X5.7362Y-3.6014
X5.7362Y-3.6407
X5.7362Y-3.7096
X5.7362Y-3.749
X5.7382Y-4.1998
X5.7461Y-3.9675
X5.7539Y-3.2589
X5.7618Y-3.3337
X5.7618Y-3.877
X5.7717Y-3.4419
X5.7736Y-4.1565
X5.7736Y-4.188
X5.7756Y-3.4931
X5.7756Y-3.5325
X5.7756Y-3.6014
X5.7756Y-3.6407
X5.7756Y-3.7096
X5.7756Y-3.749
X5.7776Y-4.0659
X5.7776Y-4.1014
X5.7894Y-3.2589
X5.8051Y-3.873
X5.8091Y-3.4419
X5.8248Y-4.1998
X5.8287Y-3.873
X5.8445Y-3.4931
X5.8445Y-3.5325
X5.8445Y-3.6014
X5.8445Y-3.6407
X5.8445Y-3.7096
X5.8445Y-3.749
X5.8445Y-4.0935
X5.8445Y-4.1323
X5.8484Y-3.3297
X5.8839Y-3.3297
X5.8839Y-3.4931
X5.8839Y-3.5325
X5.8839Y-3.6014
X5.8839Y-3.6407
X5.8839Y-3.7096
X5.8839Y-3.749
X5.8839Y-4.1998
X5.904Y-4.0729
X5.9075Y-4.0108
X5.9075Y-4.0344
X5.9114Y-3.3455
X5.913Y-4.0994
X5.9154Y-3.2746
X5.9193Y-3.4478
X5.9311Y-3.8888
X5.935Y-3.999
X5.939Y-4.1998
X5.9469Y-3.81
X5.9508Y-3.9281
X5.9508Y-3.9557
X5.9528Y-3.4931
X5.9528Y-3.5325
X5.9528Y-3.6014
X5.9528Y-3.6407
X5.9528Y-3.7096
X5.9528Y-3.749
X5.9626Y-3.3179
X5.9626Y-3.999
X5.9744Y-3.3455
X5.9823Y-3.4478
X5.9902Y-3.999
X5.9921Y-3.2766
X5.9921Y-3.4931
X5.9921Y-3.5325
X5.9921Y-3.6014
X5.9921Y-3.6407
X5.9921Y-3.7096
X5.9921Y-3.749
X6.0059Y-4.1998
X6.0256Y-4.1407
X6.0335Y-3.9715
X6.0531Y-3.2825
X6.0531Y-4.1407
X6.061Y-3.9557
X6.065Y-3.8888
X6.0807Y-3.2825
X6.0807Y-3.4045
X6.0807Y-4.1801
X6.0925Y-4.0778
X6.0925Y-4.1371
X6.1115Y-4.0049
X6.1201Y-3.7746
X6.1201Y-3.7982
X6.124Y-3.9045
X6.124Y-3.9281
X6.1299Y-3.4045
X6.1299Y-4.1407
X6.1358Y-3.5384
X6.1358Y-3.8258
X6.1358Y-3.873
X6.1379Y-4.2
X6.1547Y-4.1369
X6.1594Y-3.7096
X6.1791Y-3.7293
X6.2067Y-3.4242
X6.2067Y-3.4636
X6.2146Y-3.5108
X6.2185Y-3.7687
X6.2203Y-3.5406
X6.2203Y-3.6849
X6.2205Y-3.7368
X6.2343Y-3.4242
X6.2343Y-3.4636
X6.2382Y-3.3258
X6.2461Y-4.1919
X6.2697Y-4.1722
T2
X5.4862Y-3.5089
X5.4862Y-3.5738
T3
X5.8642Y-3.188
T0
M30
