%TF.GenerationSoftware,KiCad,Pcbnew,(7.0.0-rc2-153-g7d6218acb4)*%
%TF.CreationDate,2023-02-19T17:36:38+08:00*%
%TF.ProjectId,RAK3172-M.2-2230-Mod - panel,52414b33-3137-4322-9d4d-2e322d323233,rev?*%
%TF.SameCoordinates,Original*%
%TF.FileFunction,Drillmap*%
%TF.FilePolarity,Positive*%
%FSLAX45Y45*%
G04 Gerber Fmt 4.5, Leading zero omitted, Abs format (unit mm)*
G04 Created by KiCad (PCBNEW (7.0.0-rc2-153-g7d6218acb4)) date 2023-02-19 17:36:38*
%MOMM*%
%LPD*%
G01*
G04 APERTURE LIST*
%ADD10C,0.100000*%
%ADD11C,0.200000*%
%ADD12C,0.030000*%
%ADD13C,0.033020*%
%ADD14C,0.220000*%
G04 APERTURE END LIST*
D10*
X20395000Y-7097500D02*
X20395000Y-8097500D01*
X20395000Y-4497500D02*
X20395000Y-7097500D01*
X18195000Y-8097500D02*
X20395000Y-8097500D01*
X18195000Y-10697500D02*
X18195000Y-8097500D01*
X20395000Y-8097500D02*
X20395000Y-10697500D01*
X20395000Y-7097500D02*
X18195000Y-7097500D01*
X18195000Y-7097500D02*
X18195000Y-4497500D01*
X20395000Y-10797500D02*
X20395000Y-11097500D01*
X13795000Y-10797500D02*
X13795000Y-11097500D01*
X13295000Y-4497500D02*
X13795000Y-4497500D01*
X13295000Y-10697500D02*
X13295000Y-4497500D01*
X13795000Y-10697500D02*
X13295000Y-10697500D01*
X20895000Y-4497500D02*
X20395000Y-4497500D01*
X20895000Y-10697500D02*
X20895000Y-4497500D01*
X20395000Y-10697500D02*
X20895000Y-10697500D01*
X15995000Y-10797500D02*
X15995000Y-11097500D01*
X18195000Y-10797500D02*
X18195000Y-11097500D01*
X13795000Y-7097500D02*
X13795000Y-8097500D01*
X15995000Y-4497500D02*
X15995000Y-7097500D01*
X15995000Y-7097500D02*
X13795000Y-7097500D01*
X13795000Y-7097500D02*
X13795000Y-4497500D01*
X15995000Y-7097500D02*
X15995000Y-4497500D01*
X18195000Y-7097500D02*
X15995000Y-7097500D01*
X18195000Y-4497500D02*
X18195000Y-7097500D01*
X18195000Y-8097500D02*
X18195000Y-10697500D01*
X15995000Y-8097500D02*
X18195000Y-8097500D01*
X15995000Y-10697500D02*
X15995000Y-8097500D01*
X15995000Y-8097500D02*
X15995000Y-10697500D01*
X13795000Y-10697500D02*
X13795000Y-8097500D01*
X13795000Y-8097500D02*
X15995000Y-8097500D01*
D11*
D12*
X13835000Y-9904500D02*
X13865000Y-9934500D01*
X13865000Y-9904500D02*
X13835000Y-9934500D01*
X13850000Y-4582500D02*
X13880000Y-4612500D01*
X13880000Y-4582500D02*
X13850000Y-4612500D01*
X13850000Y-9452500D02*
X13880000Y-9482500D01*
X13880000Y-9452500D02*
X13850000Y-9482500D01*
X13853000Y-9258500D02*
X13883000Y-9288500D01*
X13883000Y-9258500D02*
X13853000Y-9288500D01*
X13860000Y-8665500D02*
X13890000Y-8695500D01*
X13890000Y-8665500D02*
X13860000Y-8695500D01*
X13870000Y-8182500D02*
X13900000Y-8212500D01*
X13900000Y-8182500D02*
X13870000Y-8212500D01*
X13870000Y-8542500D02*
X13900000Y-8572500D01*
X13900000Y-8542500D02*
X13870000Y-8572500D01*
X13875000Y-10597500D02*
X13905000Y-10627500D01*
X13905000Y-10597500D02*
X13875000Y-10627500D01*
X13880000Y-10282500D02*
X13910000Y-10312500D01*
X13910000Y-10282500D02*
X13880000Y-10312500D01*
X13910000Y-4532500D02*
X13940000Y-4562500D01*
X13940000Y-4532500D02*
X13910000Y-4562500D01*
X13930000Y-6732500D02*
X13960000Y-6762500D01*
X13960000Y-6732500D02*
X13930000Y-6762500D01*
X13940000Y-6382500D02*
X13970000Y-6412500D01*
X13970000Y-6382500D02*
X13940000Y-6412500D01*
X13940000Y-6482500D02*
X13970000Y-6512500D01*
X13970000Y-6482500D02*
X13940000Y-6512500D01*
X13950000Y-9457500D02*
X13980000Y-9487500D01*
X13980000Y-9457500D02*
X13950000Y-9487500D01*
X13974954Y-5688652D02*
X14004954Y-5718652D01*
X14004954Y-5688652D02*
X13974954Y-5718652D01*
X13975384Y-5820234D02*
X14005384Y-5850234D01*
X14005384Y-5820234D02*
X13975384Y-5850234D01*
X13975384Y-6186817D02*
X14005384Y-6216817D01*
X14005384Y-6186817D02*
X13975384Y-6216817D01*
X13980000Y-5607500D02*
X14010000Y-5637500D01*
X14010000Y-5607500D02*
X13980000Y-5637500D01*
X13980000Y-10282500D02*
X14010000Y-10312500D01*
X14010000Y-10282500D02*
X13980000Y-10312500D01*
X13990000Y-6262500D02*
X14020000Y-6292500D01*
X14020000Y-6262500D02*
X13990000Y-6292500D01*
X13995000Y-9507500D02*
X14025000Y-9537500D01*
X14025000Y-9507500D02*
X13995000Y-9537500D01*
X14010000Y-6382500D02*
X14040000Y-6412500D01*
X14040000Y-6382500D02*
X14010000Y-6412500D01*
X14010000Y-6482500D02*
X14040000Y-6512500D01*
X14040000Y-6482500D02*
X14010000Y-6512500D01*
X14070000Y-9262500D02*
X14100000Y-9292500D01*
X14100000Y-9262500D02*
X14070000Y-9292500D01*
X14080000Y-5707500D02*
X14110000Y-5737500D01*
X14110000Y-5707500D02*
X14080000Y-5737500D01*
X14090000Y-10282500D02*
X14120000Y-10312500D01*
X14120000Y-10282500D02*
X14090000Y-10312500D01*
X14120000Y-10642500D02*
X14150000Y-10672500D01*
X14150000Y-10642500D02*
X14120000Y-10672500D01*
X14130000Y-5757500D02*
X14160000Y-5787500D01*
X14160000Y-5757500D02*
X14130000Y-5787500D01*
X14140000Y-10532500D02*
X14170000Y-10562500D01*
X14170000Y-10532500D02*
X14140000Y-10562500D01*
X14142162Y-4672298D02*
X14172162Y-4702298D01*
X14172162Y-4672298D02*
X14142162Y-4702298D01*
X14160000Y-9362500D02*
X14190000Y-9392500D01*
X14190000Y-9362500D02*
X14160000Y-9392500D01*
X14160000Y-10362500D02*
X14190000Y-10392500D01*
X14190000Y-10362500D02*
X14160000Y-10392500D01*
X14160000Y-10442500D02*
X14190000Y-10472500D01*
X14190000Y-10442500D02*
X14160000Y-10472500D01*
X14184733Y-4511905D02*
X14214733Y-4541905D01*
X14214733Y-4511905D02*
X14184733Y-4541905D01*
X14190000Y-5342500D02*
X14220000Y-5372500D01*
X14220000Y-5342500D02*
X14190000Y-5372500D01*
X14190000Y-5462500D02*
X14220000Y-5492500D01*
X14220000Y-5462500D02*
X14190000Y-5492500D01*
X14190000Y-6192500D02*
X14220000Y-6222500D01*
X14220000Y-6192500D02*
X14190000Y-6222500D01*
X14190000Y-8542500D02*
X14220000Y-8572500D01*
X14220000Y-8542500D02*
X14190000Y-8572500D01*
X14200000Y-8182500D02*
X14230000Y-8212500D01*
X14230000Y-8182500D02*
X14200000Y-8212500D01*
X14205000Y-4662500D02*
X14235000Y-4692500D01*
X14235000Y-4662500D02*
X14205000Y-4692500D01*
X14205000Y-6532500D02*
X14235000Y-6562500D01*
X14235000Y-6532500D02*
X14205000Y-6562500D01*
X14220000Y-5202500D02*
X14250000Y-5232500D01*
X14250000Y-5202500D02*
X14220000Y-5232500D01*
X14220000Y-5262500D02*
X14250000Y-5292500D01*
X14250000Y-5262500D02*
X14220000Y-5292500D01*
X14220000Y-9287500D02*
X14250000Y-9317500D01*
X14250000Y-9287500D02*
X14220000Y-9317500D01*
X14225000Y-9572500D02*
X14255000Y-9602500D01*
X14255000Y-9572500D02*
X14225000Y-9602500D01*
X14225000Y-9632500D02*
X14255000Y-9662500D01*
X14255000Y-9632500D02*
X14225000Y-9662500D01*
X14230000Y-5532500D02*
X14260000Y-5562500D01*
X14260000Y-5532500D02*
X14230000Y-5562500D01*
X14230000Y-5592500D02*
X14260000Y-5622500D01*
X14260000Y-5592500D02*
X14230000Y-5622500D01*
X14230000Y-10652500D02*
X14260000Y-10682500D01*
X14260000Y-10652500D02*
X14230000Y-10682500D01*
X14237650Y-9092500D02*
X14267650Y-9122500D01*
X14267650Y-9092500D02*
X14237650Y-9122500D01*
X14240000Y-8972500D02*
X14270000Y-9002500D01*
X14270000Y-8972500D02*
X14240000Y-9002500D01*
X14240000Y-9032500D02*
X14270000Y-9062500D01*
X14270000Y-9032500D02*
X14240000Y-9062500D01*
X14240000Y-10362500D02*
X14270000Y-10392500D01*
X14270000Y-10362500D02*
X14240000Y-10392500D01*
X14240000Y-10442500D02*
X14270000Y-10472500D01*
X14270000Y-10442500D02*
X14240000Y-10472500D01*
X14251742Y-5007500D02*
X14281742Y-5037500D01*
X14281742Y-5007500D02*
X14251742Y-5037500D01*
X14260000Y-8482500D02*
X14290000Y-8512500D01*
X14290000Y-8482500D02*
X14260000Y-8512500D01*
X14280000Y-8192500D02*
X14310000Y-8222500D01*
X14310000Y-8192500D02*
X14280000Y-8222500D01*
X14300000Y-4671653D02*
X14330000Y-4701653D01*
X14330000Y-4671653D02*
X14300000Y-4701653D01*
X14300000Y-4822500D02*
X14330000Y-4852500D01*
X14330000Y-4822500D02*
X14300000Y-4852500D01*
X14320000Y-9732500D02*
X14350000Y-9762500D01*
X14350000Y-9732500D02*
X14320000Y-9762500D01*
X14320000Y-10322500D02*
X14350000Y-10352500D01*
X14350000Y-10322500D02*
X14320000Y-10352500D01*
X14330000Y-4562500D02*
X14360000Y-4592500D01*
X14360000Y-4562500D02*
X14330000Y-4592500D01*
X14330000Y-6532500D02*
X14360000Y-6562500D01*
X14360000Y-6532500D02*
X14330000Y-6562500D01*
X14330000Y-6842500D02*
X14360000Y-6872500D01*
X14360000Y-6842500D02*
X14330000Y-6872500D01*
X14330000Y-8262500D02*
X14360000Y-8292500D01*
X14360000Y-8262500D02*
X14330000Y-8292500D01*
X14360000Y-8622500D02*
X14390000Y-8652500D01*
X14390000Y-8622500D02*
X14360000Y-8652500D01*
X14370000Y-5302500D02*
X14400000Y-5332500D01*
X14400000Y-5302500D02*
X14370000Y-5332500D01*
X14380000Y-5132500D02*
X14410000Y-5162500D01*
X14410000Y-5132500D02*
X14380000Y-5162500D01*
X14400000Y-4662500D02*
X14430000Y-4692500D01*
X14430000Y-4662500D02*
X14400000Y-4692500D01*
X14400000Y-6842500D02*
X14430000Y-6872500D01*
X14430000Y-6842500D02*
X14400000Y-6872500D01*
X14415000Y-9177500D02*
X14445000Y-9207500D01*
X14445000Y-9177500D02*
X14415000Y-9207500D01*
X14420000Y-8262500D02*
X14450000Y-8292500D01*
X14450000Y-8262500D02*
X14420000Y-8292500D01*
X14420000Y-9002500D02*
X14450000Y-9032500D01*
X14450000Y-9002500D02*
X14420000Y-9032500D01*
X14420000Y-9962500D02*
X14450000Y-9992500D01*
X14450000Y-9962500D02*
X14420000Y-9992500D01*
X14420000Y-10652500D02*
X14450000Y-10682500D01*
X14450000Y-10652500D02*
X14420000Y-10682500D01*
X14430611Y-8796263D02*
X14460611Y-8826263D01*
X14460611Y-8796263D02*
X14430611Y-8826263D01*
X14440000Y-8452500D02*
X14470000Y-8482500D01*
X14470000Y-8452500D02*
X14440000Y-8482500D01*
X14440000Y-10432500D02*
X14470000Y-10462500D01*
X14470000Y-10432500D02*
X14440000Y-10462500D01*
X14450000Y-5092500D02*
X14480000Y-5122500D01*
X14480000Y-5092500D02*
X14450000Y-5122500D01*
X14470000Y-4662500D02*
X14500000Y-4692500D01*
X14500000Y-4662500D02*
X14470000Y-4692500D01*
X14490000Y-10652500D02*
X14520000Y-10682500D01*
X14520000Y-10652500D02*
X14490000Y-10682500D01*
X14510000Y-8262500D02*
X14540000Y-8292500D01*
X14540000Y-8262500D02*
X14510000Y-8292500D01*
X14520000Y-4512500D02*
X14550000Y-4542500D01*
X14550000Y-4512500D02*
X14520000Y-4542500D01*
X14530000Y-8452500D02*
X14560000Y-8482500D01*
X14560000Y-8452500D02*
X14530000Y-8482500D01*
X14530000Y-9972500D02*
X14560000Y-10002500D01*
X14560000Y-9972500D02*
X14530000Y-10002500D01*
X14550000Y-9822500D02*
X14580000Y-9852500D01*
X14580000Y-9822500D02*
X14550000Y-9852500D01*
X14555000Y-5657500D02*
X14585000Y-5687500D01*
X14585000Y-5657500D02*
X14555000Y-5687500D01*
X14555000Y-5757500D02*
X14585000Y-5787500D01*
X14585000Y-5757500D02*
X14555000Y-5787500D01*
X14555000Y-5932500D02*
X14585000Y-5962500D01*
X14585000Y-5932500D02*
X14555000Y-5962500D01*
X14555000Y-6032500D02*
X14585000Y-6062500D01*
X14585000Y-6032500D02*
X14555000Y-6062500D01*
X14555000Y-6207500D02*
X14585000Y-6237500D01*
X14585000Y-6207500D02*
X14555000Y-6237500D01*
X14555000Y-6307500D02*
X14585000Y-6337500D01*
X14585000Y-6307500D02*
X14555000Y-6337500D01*
X14555000Y-6857500D02*
X14585000Y-6887500D01*
X14585000Y-6857500D02*
X14555000Y-6887500D01*
X14555000Y-8857500D02*
X14585000Y-8887500D01*
X14585000Y-8857500D02*
X14555000Y-8887500D01*
X14555000Y-8957500D02*
X14585000Y-8987500D01*
X14585000Y-8957500D02*
X14555000Y-8987500D01*
X14555000Y-9132500D02*
X14585000Y-9162500D01*
X14585000Y-9132500D02*
X14555000Y-9162500D01*
X14555000Y-9232500D02*
X14585000Y-9262500D01*
X14585000Y-9232500D02*
X14555000Y-9262500D01*
X14555000Y-9407500D02*
X14585000Y-9437500D01*
X14585000Y-9407500D02*
X14555000Y-9437500D01*
X14555000Y-9507500D02*
X14585000Y-9537500D01*
X14585000Y-9507500D02*
X14555000Y-9537500D01*
X14560000Y-5022500D02*
X14590000Y-5052500D01*
X14590000Y-5022500D02*
X14560000Y-5052500D01*
X14560000Y-10652500D02*
X14590000Y-10682500D01*
X14590000Y-10652500D02*
X14560000Y-10682500D01*
X14580000Y-6422500D02*
X14610000Y-6452500D01*
X14610000Y-6422500D02*
X14580000Y-6452500D01*
X14580000Y-10062500D02*
X14610000Y-10092500D01*
X14610000Y-10062500D02*
X14580000Y-10092500D01*
X14600000Y-6682500D02*
X14630000Y-6712500D01*
X14630000Y-6682500D02*
X14600000Y-6712500D01*
X14600000Y-8262500D02*
X14630000Y-8292500D01*
X14630000Y-8262500D02*
X14600000Y-8292500D01*
X14620000Y-8452500D02*
X14650000Y-8482500D01*
X14650000Y-8452500D02*
X14620000Y-8482500D01*
X14620000Y-9832500D02*
X14650000Y-9862500D01*
X14650000Y-9832500D02*
X14620000Y-9862500D01*
X14630000Y-5022500D02*
X14660000Y-5052500D01*
X14660000Y-5022500D02*
X14630000Y-5052500D01*
X14630000Y-6752500D02*
X14660000Y-6782500D01*
X14660000Y-6752500D02*
X14630000Y-6782500D01*
X14645000Y-8727500D02*
X14675000Y-8757500D01*
X14675000Y-8727500D02*
X14645000Y-8757500D01*
X14650000Y-10542500D02*
X14680000Y-10572500D01*
X14680000Y-10542500D02*
X14650000Y-10572500D01*
X14650000Y-10622500D02*
X14680000Y-10652500D01*
X14680000Y-10622500D02*
X14650000Y-10652500D01*
X14655000Y-5657500D02*
X14685000Y-5687500D01*
X14685000Y-5657500D02*
X14655000Y-5687500D01*
X14655000Y-5757500D02*
X14685000Y-5787500D01*
X14685000Y-5757500D02*
X14655000Y-5787500D01*
X14655000Y-5932500D02*
X14685000Y-5962500D01*
X14685000Y-5932500D02*
X14655000Y-5962500D01*
X14655000Y-6032500D02*
X14685000Y-6062500D01*
X14685000Y-6032500D02*
X14655000Y-6062500D01*
X14655000Y-6207500D02*
X14685000Y-6237500D01*
X14685000Y-6207500D02*
X14655000Y-6237500D01*
X14655000Y-6307500D02*
X14685000Y-6337500D01*
X14685000Y-6307500D02*
X14655000Y-6337500D01*
X14655000Y-8857500D02*
X14685000Y-8887500D01*
X14685000Y-8857500D02*
X14655000Y-8887500D01*
X14655000Y-8957500D02*
X14685000Y-8987500D01*
X14685000Y-8957500D02*
X14655000Y-8987500D01*
X14655000Y-9132500D02*
X14685000Y-9162500D01*
X14685000Y-9132500D02*
X14655000Y-9162500D01*
X14655000Y-9232500D02*
X14685000Y-9262500D01*
X14685000Y-9232500D02*
X14655000Y-9262500D01*
X14655000Y-9407500D02*
X14685000Y-9437500D01*
X14685000Y-9407500D02*
X14655000Y-9437500D01*
X14655000Y-9507500D02*
X14685000Y-9537500D01*
X14685000Y-9507500D02*
X14655000Y-9537500D01*
X14660000Y-5132500D02*
X14690000Y-5162500D01*
X14690000Y-5132500D02*
X14660000Y-5162500D01*
X14660000Y-5202500D02*
X14690000Y-5232500D01*
X14690000Y-5202500D02*
X14660000Y-5232500D01*
X14660000Y-10312500D02*
X14690000Y-10342500D01*
X14690000Y-10312500D02*
X14660000Y-10342500D01*
X14660000Y-10402500D02*
X14690000Y-10432500D01*
X14690000Y-10402500D02*
X14660000Y-10432500D01*
X14670000Y-5502500D02*
X14700000Y-5532500D01*
X14700000Y-5502500D02*
X14670000Y-5532500D01*
X14690000Y-4512500D02*
X14720000Y-4542500D01*
X14720000Y-4512500D02*
X14690000Y-4542500D01*
X14690000Y-8262500D02*
X14720000Y-8292500D01*
X14720000Y-8262500D02*
X14690000Y-8292500D01*
X14700000Y-5022500D02*
X14730000Y-5052500D01*
X14730000Y-5022500D02*
X14700000Y-5052500D01*
X14710000Y-5302500D02*
X14740000Y-5332500D01*
X14740000Y-5302500D02*
X14710000Y-5332500D01*
X14730000Y-9822500D02*
X14760000Y-9852500D01*
X14760000Y-9822500D02*
X14730000Y-9852500D01*
X14740000Y-6422500D02*
X14770000Y-6452500D01*
X14770000Y-6422500D02*
X14740000Y-6452500D01*
X14740000Y-8727500D02*
X14770000Y-8757500D01*
X14770000Y-8727500D02*
X14740000Y-8757500D01*
X14750000Y-6862500D02*
X14780000Y-6892500D01*
X14780000Y-6862500D02*
X14750000Y-6892500D01*
X14756000Y-4767500D02*
X14786000Y-4797500D01*
X14786000Y-4767500D02*
X14756000Y-4797500D01*
X14760000Y-6682500D02*
X14790000Y-6712500D01*
X14790000Y-6682500D02*
X14760000Y-6712500D01*
X14770000Y-4932500D02*
X14800000Y-4962500D01*
X14800000Y-4932500D02*
X14770000Y-4962500D01*
X14770000Y-4992500D02*
X14800000Y-5022500D01*
X14800000Y-4992500D02*
X14770000Y-5022500D01*
X14778925Y-4834809D02*
X14808925Y-4864809D01*
X14808925Y-4834809D02*
X14778925Y-4864809D01*
X14780000Y-10652500D02*
X14810000Y-10682500D01*
X14810000Y-10652500D02*
X14780000Y-10682500D01*
X14790000Y-9822500D02*
X14820000Y-9852500D01*
X14820000Y-9822500D02*
X14790000Y-9852500D01*
X14830000Y-4512500D02*
X14860000Y-4542500D01*
X14860000Y-4512500D02*
X14830000Y-4542500D01*
X14830000Y-5657500D02*
X14860000Y-5687500D01*
X14860000Y-5657500D02*
X14830000Y-5687500D01*
X14830000Y-5757500D02*
X14860000Y-5787500D01*
X14860000Y-5757500D02*
X14830000Y-5787500D01*
X14830000Y-5932500D02*
X14860000Y-5962500D01*
X14860000Y-5932500D02*
X14830000Y-5962500D01*
X14830000Y-6032500D02*
X14860000Y-6062500D01*
X14860000Y-6032500D02*
X14830000Y-6062500D01*
X14830000Y-6207500D02*
X14860000Y-6237500D01*
X14860000Y-6207500D02*
X14830000Y-6237500D01*
X14830000Y-6307500D02*
X14860000Y-6337500D01*
X14860000Y-6307500D02*
X14830000Y-6337500D01*
X14830000Y-6722500D02*
X14860000Y-6752500D01*
X14860000Y-6722500D02*
X14830000Y-6752500D01*
X14830000Y-8857500D02*
X14860000Y-8887500D01*
X14860000Y-8857500D02*
X14830000Y-8887500D01*
X14830000Y-8957500D02*
X14860000Y-8987500D01*
X14860000Y-8957500D02*
X14830000Y-8987500D01*
X14830000Y-9132500D02*
X14860000Y-9162500D01*
X14860000Y-9132500D02*
X14830000Y-9162500D01*
X14830000Y-9232500D02*
X14860000Y-9262500D01*
X14860000Y-9232500D02*
X14830000Y-9262500D01*
X14830000Y-9407500D02*
X14860000Y-9437500D01*
X14860000Y-9407500D02*
X14830000Y-9437500D01*
X14830000Y-9507500D02*
X14860000Y-9537500D01*
X14860000Y-9507500D02*
X14830000Y-9537500D01*
X14830000Y-10382500D02*
X14860000Y-10412500D01*
X14860000Y-10382500D02*
X14830000Y-10412500D01*
X14830065Y-10481000D02*
X14860065Y-10511000D01*
X14860065Y-10481000D02*
X14830065Y-10511000D01*
X14840000Y-8442500D02*
X14870000Y-8472500D01*
X14870000Y-8442500D02*
X14840000Y-8472500D01*
X14920000Y-6722500D02*
X14950000Y-6752500D01*
X14950000Y-6722500D02*
X14920000Y-6752500D01*
X14929935Y-4684000D02*
X14959935Y-4714000D01*
X14959935Y-4684000D02*
X14929935Y-4714000D01*
X14930000Y-4782500D02*
X14960000Y-4812500D01*
X14960000Y-4782500D02*
X14930000Y-4812500D01*
X14930000Y-5657500D02*
X14960000Y-5687500D01*
X14960000Y-5657500D02*
X14930000Y-5687500D01*
X14930000Y-5757500D02*
X14960000Y-5787500D01*
X14960000Y-5757500D02*
X14930000Y-5787500D01*
X14930000Y-5932500D02*
X14960000Y-5962500D01*
X14960000Y-5932500D02*
X14930000Y-5962500D01*
X14930000Y-6032500D02*
X14960000Y-6062500D01*
X14960000Y-6032500D02*
X14930000Y-6062500D01*
X14930000Y-6207500D02*
X14960000Y-6237500D01*
X14960000Y-6207500D02*
X14930000Y-6237500D01*
X14930000Y-6307500D02*
X14960000Y-6337500D01*
X14960000Y-6307500D02*
X14930000Y-6337500D01*
X14930000Y-8442500D02*
X14960000Y-8472500D01*
X14960000Y-8442500D02*
X14930000Y-8472500D01*
X14930000Y-8857500D02*
X14960000Y-8887500D01*
X14960000Y-8857500D02*
X14930000Y-8887500D01*
X14930000Y-8957500D02*
X14960000Y-8987500D01*
X14960000Y-8957500D02*
X14930000Y-8987500D01*
X14930000Y-9132500D02*
X14960000Y-9162500D01*
X14960000Y-9132500D02*
X14930000Y-9162500D01*
X14930000Y-9232500D02*
X14960000Y-9262500D01*
X14960000Y-9232500D02*
X14930000Y-9262500D01*
X14930000Y-9407500D02*
X14960000Y-9437500D01*
X14960000Y-9407500D02*
X14930000Y-9437500D01*
X14930000Y-9507500D02*
X14960000Y-9537500D01*
X14960000Y-9507500D02*
X14930000Y-9537500D01*
X14930000Y-10652500D02*
X14960000Y-10682500D01*
X14960000Y-10652500D02*
X14930000Y-10682500D01*
X14970000Y-5342500D02*
X15000000Y-5372500D01*
X15000000Y-5342500D02*
X14970000Y-5372500D01*
X14980000Y-4512500D02*
X15010000Y-4542500D01*
X15010000Y-4512500D02*
X14980000Y-4542500D01*
X14981075Y-10330191D02*
X15011075Y-10360191D01*
X15011075Y-10330191D02*
X14981075Y-10360191D01*
X14990000Y-10172500D02*
X15020000Y-10202500D01*
X15020000Y-10172500D02*
X14990000Y-10202500D01*
X14990000Y-10232500D02*
X15020000Y-10262500D01*
X15020000Y-10232500D02*
X14990000Y-10262500D01*
X15000000Y-8482500D02*
X15030000Y-8512500D01*
X15030000Y-8482500D02*
X15000000Y-8512500D01*
X15004000Y-10397500D02*
X15034000Y-10427500D01*
X15034000Y-10397500D02*
X15004000Y-10427500D01*
X15010000Y-8302500D02*
X15040000Y-8332500D01*
X15040000Y-8302500D02*
X15010000Y-8332500D01*
X15020000Y-6437500D02*
X15050000Y-6467500D01*
X15050000Y-6437500D02*
X15020000Y-6467500D01*
X15020000Y-8742500D02*
X15050000Y-8772500D01*
X15050000Y-8742500D02*
X15020000Y-8772500D01*
X15030000Y-5342500D02*
X15060000Y-5372500D01*
X15060000Y-5342500D02*
X15030000Y-5372500D01*
X15050000Y-9862500D02*
X15080000Y-9892500D01*
X15080000Y-9862500D02*
X15050000Y-9892500D01*
X15060000Y-10142500D02*
X15090000Y-10172500D01*
X15090000Y-10142500D02*
X15060000Y-10172500D01*
X15070000Y-6902500D02*
X15100000Y-6932500D01*
X15100000Y-6902500D02*
X15070000Y-6932500D01*
X15070000Y-10652500D02*
X15100000Y-10682500D01*
X15100000Y-10652500D02*
X15070000Y-10682500D01*
X15090000Y-9662500D02*
X15120000Y-9692500D01*
X15120000Y-9662500D02*
X15090000Y-9692500D01*
X15100000Y-4762500D02*
X15130000Y-4792500D01*
X15130000Y-4762500D02*
X15100000Y-4792500D01*
X15100000Y-4852500D02*
X15130000Y-4882500D01*
X15130000Y-4852500D02*
X15100000Y-4882500D01*
X15100000Y-9962500D02*
X15130000Y-9992500D01*
X15130000Y-9962500D02*
X15100000Y-9992500D01*
X15100000Y-10032500D02*
X15130000Y-10062500D01*
X15130000Y-10032500D02*
X15100000Y-10062500D01*
X15105000Y-5657500D02*
X15135000Y-5687500D01*
X15135000Y-5657500D02*
X15105000Y-5687500D01*
X15105000Y-5757500D02*
X15135000Y-5787500D01*
X15135000Y-5757500D02*
X15105000Y-5787500D01*
X15105000Y-5932500D02*
X15135000Y-5962500D01*
X15135000Y-5932500D02*
X15105000Y-5962500D01*
X15105000Y-6032500D02*
X15135000Y-6062500D01*
X15135000Y-6032500D02*
X15105000Y-6062500D01*
X15105000Y-6207500D02*
X15135000Y-6237500D01*
X15135000Y-6207500D02*
X15105000Y-6237500D01*
X15105000Y-6307500D02*
X15135000Y-6337500D01*
X15135000Y-6307500D02*
X15105000Y-6337500D01*
X15105000Y-8857500D02*
X15135000Y-8887500D01*
X15135000Y-8857500D02*
X15105000Y-8887500D01*
X15105000Y-8957500D02*
X15135000Y-8987500D01*
X15135000Y-8957500D02*
X15105000Y-8987500D01*
X15105000Y-9132500D02*
X15135000Y-9162500D01*
X15135000Y-9132500D02*
X15105000Y-9162500D01*
X15105000Y-9232500D02*
X15135000Y-9262500D01*
X15135000Y-9232500D02*
X15105000Y-9262500D01*
X15105000Y-9407500D02*
X15135000Y-9437500D01*
X15135000Y-9407500D02*
X15105000Y-9437500D01*
X15105000Y-9507500D02*
X15135000Y-9537500D01*
X15135000Y-9507500D02*
X15105000Y-9537500D01*
X15110000Y-4542500D02*
X15140000Y-4572500D01*
X15140000Y-4542500D02*
X15110000Y-4572500D01*
X15110000Y-4622500D02*
X15140000Y-4652500D01*
X15140000Y-4622500D02*
X15110000Y-4652500D01*
X15115000Y-6437500D02*
X15145000Y-6467500D01*
X15145000Y-6437500D02*
X15115000Y-6467500D01*
X15130000Y-8412500D02*
X15160000Y-8442500D01*
X15160000Y-8412500D02*
X15130000Y-8442500D01*
X15130000Y-10142500D02*
X15160000Y-10172500D01*
X15160000Y-10142500D02*
X15130000Y-10172500D01*
X15140000Y-5332500D02*
X15170000Y-5362500D01*
X15170000Y-5332500D02*
X15140000Y-5362500D01*
X15140000Y-6712500D02*
X15170000Y-6742500D01*
X15170000Y-6712500D02*
X15140000Y-6742500D01*
X15160000Y-6902500D02*
X15190000Y-6932500D01*
X15190000Y-6902500D02*
X15160000Y-6932500D01*
X15160000Y-8482500D02*
X15190000Y-8512500D01*
X15190000Y-8482500D02*
X15160000Y-8512500D01*
X15180000Y-5102500D02*
X15210000Y-5132500D01*
X15210000Y-5102500D02*
X15180000Y-5132500D01*
X15180000Y-8742500D02*
X15210000Y-8772500D01*
X15210000Y-8742500D02*
X15180000Y-8772500D01*
X15200000Y-4512500D02*
X15230000Y-4542500D01*
X15230000Y-4512500D02*
X15200000Y-4542500D01*
X15200000Y-10142500D02*
X15230000Y-10172500D01*
X15230000Y-10142500D02*
X15200000Y-10172500D01*
X15205000Y-5657500D02*
X15235000Y-5687500D01*
X15235000Y-5657500D02*
X15205000Y-5687500D01*
X15205000Y-5757500D02*
X15235000Y-5787500D01*
X15235000Y-5757500D02*
X15205000Y-5787500D01*
X15205000Y-5932500D02*
X15235000Y-5962500D01*
X15235000Y-5932500D02*
X15205000Y-5962500D01*
X15205000Y-6032500D02*
X15235000Y-6062500D01*
X15235000Y-6032500D02*
X15205000Y-6062500D01*
X15205000Y-6207500D02*
X15235000Y-6237500D01*
X15235000Y-6207500D02*
X15205000Y-6237500D01*
X15205000Y-6307500D02*
X15235000Y-6337500D01*
X15235000Y-6307500D02*
X15205000Y-6337500D01*
X15205000Y-8307500D02*
X15235000Y-8337500D01*
X15235000Y-8307500D02*
X15205000Y-8337500D01*
X15205000Y-8857500D02*
X15235000Y-8887500D01*
X15235000Y-8857500D02*
X15205000Y-8887500D01*
X15205000Y-8957500D02*
X15235000Y-8987500D01*
X15235000Y-8957500D02*
X15205000Y-8987500D01*
X15205000Y-9132500D02*
X15235000Y-9162500D01*
X15235000Y-9132500D02*
X15205000Y-9162500D01*
X15205000Y-9232500D02*
X15235000Y-9262500D01*
X15235000Y-9232500D02*
X15205000Y-9262500D01*
X15205000Y-9407500D02*
X15235000Y-9437500D01*
X15235000Y-9407500D02*
X15205000Y-9437500D01*
X15205000Y-9507500D02*
X15235000Y-9537500D01*
X15235000Y-9507500D02*
X15205000Y-9537500D01*
X15210000Y-5342500D02*
X15240000Y-5372500D01*
X15240000Y-5342500D02*
X15210000Y-5372500D01*
X15230000Y-5192500D02*
X15260000Y-5222500D01*
X15260000Y-5192500D02*
X15230000Y-5222500D01*
X15230000Y-6712500D02*
X15260000Y-6742500D01*
X15260000Y-6712500D02*
X15230000Y-6742500D01*
X15240000Y-10652500D02*
X15270000Y-10682500D01*
X15270000Y-10652500D02*
X15240000Y-10682500D01*
X15250000Y-6902500D02*
X15280000Y-6932500D01*
X15280000Y-6902500D02*
X15250000Y-6932500D01*
X15270000Y-4512500D02*
X15300000Y-4542500D01*
X15300000Y-4512500D02*
X15270000Y-4542500D01*
X15290000Y-10502500D02*
X15320000Y-10532500D01*
X15320000Y-10502500D02*
X15290000Y-10532500D01*
X15310000Y-10072500D02*
X15340000Y-10102500D01*
X15340000Y-10072500D02*
X15310000Y-10102500D01*
X15320000Y-4732500D02*
X15350000Y-4762500D01*
X15350000Y-4732500D02*
X15320000Y-4762500D01*
X15320000Y-6712500D02*
X15350000Y-6742500D01*
X15350000Y-6712500D02*
X15320000Y-6742500D01*
X15329389Y-6368737D02*
X15359389Y-6398737D01*
X15359389Y-6368737D02*
X15329389Y-6398737D01*
X15340000Y-4512500D02*
X15370000Y-4542500D01*
X15370000Y-4512500D02*
X15340000Y-4542500D01*
X15340000Y-5202500D02*
X15370000Y-5232500D01*
X15370000Y-5202500D02*
X15340000Y-5232500D01*
X15340000Y-6162500D02*
X15370000Y-6192500D01*
X15370000Y-6162500D02*
X15340000Y-6192500D01*
X15340000Y-6902500D02*
X15370000Y-6932500D01*
X15370000Y-6902500D02*
X15340000Y-6932500D01*
X15345000Y-5987500D02*
X15375000Y-6017500D01*
X15375000Y-5987500D02*
X15345000Y-6017500D01*
X15360000Y-8322500D02*
X15390000Y-8352500D01*
X15390000Y-8322500D02*
X15360000Y-8352500D01*
X15360000Y-10502500D02*
X15390000Y-10532500D01*
X15390000Y-10502500D02*
X15360000Y-10532500D01*
X15380000Y-10032500D02*
X15410000Y-10062500D01*
X15410000Y-10032500D02*
X15380000Y-10062500D01*
X15390000Y-9862500D02*
X15420000Y-9892500D01*
X15420000Y-9862500D02*
X15390000Y-9892500D01*
X15400000Y-6542500D02*
X15430000Y-6572500D01*
X15430000Y-6542500D02*
X15400000Y-6572500D01*
X15430000Y-6902500D02*
X15460000Y-6932500D01*
X15460000Y-6902500D02*
X15430000Y-6932500D01*
X15430000Y-8322500D02*
X15460000Y-8352500D01*
X15460000Y-8322500D02*
X15430000Y-8352500D01*
X15430000Y-8632500D02*
X15460000Y-8662500D01*
X15460000Y-8632500D02*
X15430000Y-8662500D01*
X15430000Y-10602500D02*
X15460000Y-10632500D01*
X15460000Y-10602500D02*
X15430000Y-10632500D01*
X15440000Y-4842500D02*
X15470000Y-4872500D01*
X15470000Y-4842500D02*
X15440000Y-4872500D01*
X15440000Y-5432500D02*
X15470000Y-5462500D01*
X15470000Y-5432500D02*
X15440000Y-5462500D01*
X15460000Y-10342500D02*
X15490000Y-10372500D01*
X15490000Y-10342500D02*
X15460000Y-10372500D01*
X15460000Y-10493347D02*
X15490000Y-10523347D01*
X15490000Y-10493347D02*
X15460000Y-10523347D01*
X15480000Y-6972500D02*
X15510000Y-7002500D01*
X15510000Y-6972500D02*
X15480000Y-7002500D01*
X15500000Y-6682500D02*
X15530000Y-6712500D01*
X15530000Y-6682500D02*
X15500000Y-6712500D01*
X15508258Y-10157500D02*
X15538258Y-10187500D01*
X15538258Y-10157500D02*
X15508258Y-10187500D01*
X15520000Y-4722500D02*
X15550000Y-4752500D01*
X15550000Y-4722500D02*
X15520000Y-4752500D01*
X15520000Y-4802500D02*
X15550000Y-4832500D01*
X15550000Y-4802500D02*
X15520000Y-4832500D01*
X15520000Y-6132500D02*
X15550000Y-6162500D01*
X15550000Y-6132500D02*
X15520000Y-6162500D01*
X15520000Y-6192500D02*
X15550000Y-6222500D01*
X15550000Y-6192500D02*
X15520000Y-6222500D01*
X15522350Y-6072500D02*
X15552350Y-6102500D01*
X15552350Y-6072500D02*
X15522350Y-6102500D01*
X15530000Y-4512500D02*
X15560000Y-4542500D01*
X15560000Y-4512500D02*
X15530000Y-4542500D01*
X15530000Y-9572500D02*
X15560000Y-9602500D01*
X15560000Y-9572500D02*
X15530000Y-9602500D01*
X15530000Y-9632500D02*
X15560000Y-9662500D01*
X15560000Y-9632500D02*
X15530000Y-9662500D01*
X15535000Y-5532500D02*
X15565000Y-5562500D01*
X15565000Y-5532500D02*
X15535000Y-5562500D01*
X15535000Y-5592500D02*
X15565000Y-5622500D01*
X15565000Y-5592500D02*
X15535000Y-5622500D01*
X15540000Y-5877500D02*
X15570000Y-5907500D01*
X15570000Y-5877500D02*
X15540000Y-5907500D01*
X15540000Y-9902500D02*
X15570000Y-9932500D01*
X15570000Y-9902500D02*
X15540000Y-9932500D01*
X15540000Y-9962500D02*
X15570000Y-9992500D01*
X15570000Y-9962500D02*
X15540000Y-9992500D01*
X15555000Y-8632500D02*
X15585000Y-8662500D01*
X15585000Y-8632500D02*
X15555000Y-8662500D01*
X15555000Y-10502500D02*
X15585000Y-10532500D01*
X15585000Y-10502500D02*
X15555000Y-10532500D01*
X15560000Y-6982500D02*
X15590000Y-7012500D01*
X15590000Y-6982500D02*
X15560000Y-7012500D01*
X15570000Y-6622500D02*
X15600000Y-6652500D01*
X15600000Y-6622500D02*
X15570000Y-6652500D01*
X15570000Y-8972500D02*
X15600000Y-9002500D01*
X15600000Y-8972500D02*
X15570000Y-9002500D01*
X15570000Y-9702500D02*
X15600000Y-9732500D01*
X15600000Y-9702500D02*
X15570000Y-9732500D01*
X15570000Y-9822500D02*
X15600000Y-9852500D01*
X15600000Y-9822500D02*
X15570000Y-9852500D01*
X15575267Y-10653095D02*
X15605267Y-10683095D01*
X15605267Y-10653095D02*
X15575267Y-10683095D01*
X15600000Y-4722500D02*
X15630000Y-4752500D01*
X15630000Y-4722500D02*
X15600000Y-4752500D01*
X15600000Y-4802500D02*
X15630000Y-4832500D01*
X15630000Y-4802500D02*
X15600000Y-4832500D01*
X15600000Y-5802500D02*
X15630000Y-5832500D01*
X15630000Y-5802500D02*
X15600000Y-5832500D01*
X15617838Y-10492702D02*
X15647838Y-10522702D01*
X15647838Y-10492702D02*
X15617838Y-10522702D01*
X15620000Y-4632500D02*
X15650000Y-4662500D01*
X15650000Y-4632500D02*
X15620000Y-4662500D01*
X15630000Y-9407500D02*
X15660000Y-9437500D01*
X15660000Y-9407500D02*
X15630000Y-9437500D01*
X15640000Y-4522500D02*
X15670000Y-4552500D01*
X15670000Y-4522500D02*
X15640000Y-4552500D01*
X15670000Y-4882500D02*
X15700000Y-4912500D01*
X15700000Y-4882500D02*
X15670000Y-4912500D01*
X15680000Y-9457500D02*
X15710000Y-9487500D01*
X15710000Y-9457500D02*
X15680000Y-9487500D01*
X15690000Y-5902500D02*
X15720000Y-5932500D01*
X15720000Y-5902500D02*
X15690000Y-5932500D01*
X15750000Y-8682500D02*
X15780000Y-8712500D01*
X15780000Y-8682500D02*
X15750000Y-8712500D01*
X15750000Y-8782500D02*
X15780000Y-8812500D01*
X15780000Y-8782500D02*
X15750000Y-8812500D01*
X15765000Y-5657500D02*
X15795000Y-5687500D01*
X15795000Y-5657500D02*
X15765000Y-5687500D01*
X15770000Y-8902500D02*
X15800000Y-8932500D01*
X15800000Y-8902500D02*
X15770000Y-8932500D01*
X15780000Y-4882500D02*
X15810000Y-4912500D01*
X15810000Y-4882500D02*
X15780000Y-4912500D01*
X15780000Y-9557500D02*
X15810000Y-9587500D01*
X15810000Y-9557500D02*
X15780000Y-9587500D01*
X15784616Y-8978183D02*
X15814616Y-9008183D01*
X15814616Y-8978183D02*
X15784616Y-9008183D01*
X15784616Y-9344766D02*
X15814616Y-9374766D01*
X15814616Y-9344766D02*
X15784616Y-9374766D01*
X15785046Y-9476348D02*
X15815046Y-9506348D01*
X15815046Y-9476348D02*
X15785046Y-9506348D01*
X15810000Y-5707500D02*
X15840000Y-5737500D01*
X15840000Y-5707500D02*
X15810000Y-5737500D01*
X15820000Y-8682500D02*
X15850000Y-8712500D01*
X15850000Y-8682500D02*
X15820000Y-8712500D01*
X15820000Y-8782500D02*
X15850000Y-8812500D01*
X15850000Y-8782500D02*
X15820000Y-8812500D01*
X15830000Y-8432500D02*
X15860000Y-8462500D01*
X15860000Y-8432500D02*
X15830000Y-8462500D01*
X15850000Y-10632500D02*
X15880000Y-10662500D01*
X15880000Y-10632500D02*
X15850000Y-10662500D01*
X15880000Y-4882500D02*
X15910000Y-4912500D01*
X15910000Y-4882500D02*
X15880000Y-4912500D01*
X15885000Y-4567500D02*
X15915000Y-4597500D01*
X15915000Y-4567500D02*
X15885000Y-4597500D01*
X15890000Y-6622500D02*
X15920000Y-6652500D01*
X15920000Y-6622500D02*
X15890000Y-6652500D01*
X15890000Y-6982500D02*
X15920000Y-7012500D01*
X15920000Y-6982500D02*
X15890000Y-7012500D01*
X15900000Y-6499500D02*
X15930000Y-6529500D01*
X15930000Y-6499500D02*
X15900000Y-6529500D01*
X15907000Y-5906500D02*
X15937000Y-5936500D01*
X15937000Y-5906500D02*
X15907000Y-5936500D01*
X15910000Y-5712500D02*
X15940000Y-5742500D01*
X15940000Y-5712500D02*
X15910000Y-5742500D01*
X15910000Y-10582500D02*
X15940000Y-10612500D01*
X15940000Y-10582500D02*
X15910000Y-10612500D01*
X15925000Y-5260500D02*
X15955000Y-5290500D01*
X15955000Y-5260500D02*
X15925000Y-5290500D01*
X16035000Y-9904500D02*
X16065000Y-9934500D01*
X16065000Y-9904500D02*
X16035000Y-9934500D01*
X16050000Y-4582500D02*
X16080000Y-4612500D01*
X16080000Y-4582500D02*
X16050000Y-4612500D01*
X16050000Y-9452500D02*
X16080000Y-9482500D01*
X16080000Y-9452500D02*
X16050000Y-9482500D01*
X16053000Y-9258500D02*
X16083000Y-9288500D01*
X16083000Y-9258500D02*
X16053000Y-9288500D01*
X16060000Y-8665500D02*
X16090000Y-8695500D01*
X16090000Y-8665500D02*
X16060000Y-8695500D01*
X16070000Y-8182500D02*
X16100000Y-8212500D01*
X16100000Y-8182500D02*
X16070000Y-8212500D01*
X16070000Y-8542500D02*
X16100000Y-8572500D01*
X16100000Y-8542500D02*
X16070000Y-8572500D01*
X16075000Y-10597500D02*
X16105000Y-10627500D01*
X16105000Y-10597500D02*
X16075000Y-10627500D01*
X16080000Y-10282500D02*
X16110000Y-10312500D01*
X16110000Y-10282500D02*
X16080000Y-10312500D01*
X16110000Y-4532500D02*
X16140000Y-4562500D01*
X16140000Y-4532500D02*
X16110000Y-4562500D01*
X16130000Y-6732500D02*
X16160000Y-6762500D01*
X16160000Y-6732500D02*
X16130000Y-6762500D01*
X16140000Y-6382500D02*
X16170000Y-6412500D01*
X16170000Y-6382500D02*
X16140000Y-6412500D01*
X16140000Y-6482500D02*
X16170000Y-6512500D01*
X16170000Y-6482500D02*
X16140000Y-6512500D01*
X16150000Y-9457500D02*
X16180000Y-9487500D01*
X16180000Y-9457500D02*
X16150000Y-9487500D01*
X16174954Y-5688652D02*
X16204954Y-5718652D01*
X16204954Y-5688652D02*
X16174954Y-5718652D01*
X16175384Y-5820234D02*
X16205384Y-5850234D01*
X16205384Y-5820234D02*
X16175384Y-5850234D01*
X16175384Y-6186817D02*
X16205384Y-6216817D01*
X16205384Y-6186817D02*
X16175384Y-6216817D01*
X16180000Y-5607500D02*
X16210000Y-5637500D01*
X16210000Y-5607500D02*
X16180000Y-5637500D01*
X16180000Y-10282500D02*
X16210000Y-10312500D01*
X16210000Y-10282500D02*
X16180000Y-10312500D01*
X16190000Y-6262500D02*
X16220000Y-6292500D01*
X16220000Y-6262500D02*
X16190000Y-6292500D01*
X16195000Y-9507500D02*
X16225000Y-9537500D01*
X16225000Y-9507500D02*
X16195000Y-9537500D01*
X16210000Y-6382500D02*
X16240000Y-6412500D01*
X16240000Y-6382500D02*
X16210000Y-6412500D01*
X16210000Y-6482500D02*
X16240000Y-6512500D01*
X16240000Y-6482500D02*
X16210000Y-6512500D01*
X16270000Y-9262500D02*
X16300000Y-9292500D01*
X16300000Y-9262500D02*
X16270000Y-9292500D01*
X16280000Y-5707500D02*
X16310000Y-5737500D01*
X16310000Y-5707500D02*
X16280000Y-5737500D01*
X16290000Y-10282500D02*
X16320000Y-10312500D01*
X16320000Y-10282500D02*
X16290000Y-10312500D01*
X16320000Y-10642500D02*
X16350000Y-10672500D01*
X16350000Y-10642500D02*
X16320000Y-10672500D01*
X16330000Y-5757500D02*
X16360000Y-5787500D01*
X16360000Y-5757500D02*
X16330000Y-5787500D01*
X16340000Y-10532500D02*
X16370000Y-10562500D01*
X16370000Y-10532500D02*
X16340000Y-10562500D01*
X16342162Y-4672298D02*
X16372162Y-4702298D01*
X16372162Y-4672298D02*
X16342162Y-4702298D01*
X16360000Y-9362500D02*
X16390000Y-9392500D01*
X16390000Y-9362500D02*
X16360000Y-9392500D01*
X16360000Y-10362500D02*
X16390000Y-10392500D01*
X16390000Y-10362500D02*
X16360000Y-10392500D01*
X16360000Y-10442500D02*
X16390000Y-10472500D01*
X16390000Y-10442500D02*
X16360000Y-10472500D01*
X16384733Y-4511905D02*
X16414733Y-4541905D01*
X16414733Y-4511905D02*
X16384733Y-4541905D01*
X16390000Y-5342500D02*
X16420000Y-5372500D01*
X16420000Y-5342500D02*
X16390000Y-5372500D01*
X16390000Y-5462500D02*
X16420000Y-5492500D01*
X16420000Y-5462500D02*
X16390000Y-5492500D01*
X16390000Y-6192500D02*
X16420000Y-6222500D01*
X16420000Y-6192500D02*
X16390000Y-6222500D01*
X16390000Y-8542500D02*
X16420000Y-8572500D01*
X16420000Y-8542500D02*
X16390000Y-8572500D01*
X16400000Y-8182500D02*
X16430000Y-8212500D01*
X16430000Y-8182500D02*
X16400000Y-8212500D01*
X16405000Y-4662500D02*
X16435000Y-4692500D01*
X16435000Y-4662500D02*
X16405000Y-4692500D01*
X16405000Y-6532500D02*
X16435000Y-6562500D01*
X16435000Y-6532500D02*
X16405000Y-6562500D01*
X16420000Y-5202500D02*
X16450000Y-5232500D01*
X16450000Y-5202500D02*
X16420000Y-5232500D01*
X16420000Y-5262500D02*
X16450000Y-5292500D01*
X16450000Y-5262500D02*
X16420000Y-5292500D01*
X16420000Y-9287500D02*
X16450000Y-9317500D01*
X16450000Y-9287500D02*
X16420000Y-9317500D01*
X16425000Y-9572500D02*
X16455000Y-9602500D01*
X16455000Y-9572500D02*
X16425000Y-9602500D01*
X16425000Y-9632500D02*
X16455000Y-9662500D01*
X16455000Y-9632500D02*
X16425000Y-9662500D01*
X16430000Y-5532500D02*
X16460000Y-5562500D01*
X16460000Y-5532500D02*
X16430000Y-5562500D01*
X16430000Y-5592500D02*
X16460000Y-5622500D01*
X16460000Y-5592500D02*
X16430000Y-5622500D01*
X16430000Y-10652500D02*
X16460000Y-10682500D01*
X16460000Y-10652500D02*
X16430000Y-10682500D01*
X16437650Y-9092500D02*
X16467650Y-9122500D01*
X16467650Y-9092500D02*
X16437650Y-9122500D01*
X16440000Y-8972500D02*
X16470000Y-9002500D01*
X16470000Y-8972500D02*
X16440000Y-9002500D01*
X16440000Y-9032500D02*
X16470000Y-9062500D01*
X16470000Y-9032500D02*
X16440000Y-9062500D01*
X16440000Y-10362500D02*
X16470000Y-10392500D01*
X16470000Y-10362500D02*
X16440000Y-10392500D01*
X16440000Y-10442500D02*
X16470000Y-10472500D01*
X16470000Y-10442500D02*
X16440000Y-10472500D01*
X16451742Y-5007500D02*
X16481742Y-5037500D01*
X16481742Y-5007500D02*
X16451742Y-5037500D01*
X16460000Y-8482500D02*
X16490000Y-8512500D01*
X16490000Y-8482500D02*
X16460000Y-8512500D01*
X16480000Y-8192500D02*
X16510000Y-8222500D01*
X16510000Y-8192500D02*
X16480000Y-8222500D01*
X16500000Y-4671653D02*
X16530000Y-4701653D01*
X16530000Y-4671653D02*
X16500000Y-4701653D01*
X16500000Y-4822500D02*
X16530000Y-4852500D01*
X16530000Y-4822500D02*
X16500000Y-4852500D01*
X16520000Y-9732500D02*
X16550000Y-9762500D01*
X16550000Y-9732500D02*
X16520000Y-9762500D01*
X16520000Y-10322500D02*
X16550000Y-10352500D01*
X16550000Y-10322500D02*
X16520000Y-10352500D01*
X16530000Y-4562500D02*
X16560000Y-4592500D01*
X16560000Y-4562500D02*
X16530000Y-4592500D01*
X16530000Y-6532500D02*
X16560000Y-6562500D01*
X16560000Y-6532500D02*
X16530000Y-6562500D01*
X16530000Y-6842500D02*
X16560000Y-6872500D01*
X16560000Y-6842500D02*
X16530000Y-6872500D01*
X16530000Y-8262500D02*
X16560000Y-8292500D01*
X16560000Y-8262500D02*
X16530000Y-8292500D01*
X16560000Y-8622500D02*
X16590000Y-8652500D01*
X16590000Y-8622500D02*
X16560000Y-8652500D01*
X16570000Y-5302500D02*
X16600000Y-5332500D01*
X16600000Y-5302500D02*
X16570000Y-5332500D01*
X16580000Y-5132500D02*
X16610000Y-5162500D01*
X16610000Y-5132500D02*
X16580000Y-5162500D01*
X16600000Y-4662500D02*
X16630000Y-4692500D01*
X16630000Y-4662500D02*
X16600000Y-4692500D01*
X16600000Y-6842500D02*
X16630000Y-6872500D01*
X16630000Y-6842500D02*
X16600000Y-6872500D01*
X16615000Y-9177500D02*
X16645000Y-9207500D01*
X16645000Y-9177500D02*
X16615000Y-9207500D01*
X16620000Y-8262500D02*
X16650000Y-8292500D01*
X16650000Y-8262500D02*
X16620000Y-8292500D01*
X16620000Y-9002500D02*
X16650000Y-9032500D01*
X16650000Y-9002500D02*
X16620000Y-9032500D01*
X16620000Y-9962500D02*
X16650000Y-9992500D01*
X16650000Y-9962500D02*
X16620000Y-9992500D01*
X16620000Y-10652500D02*
X16650000Y-10682500D01*
X16650000Y-10652500D02*
X16620000Y-10682500D01*
X16630611Y-8796263D02*
X16660611Y-8826263D01*
X16660611Y-8796263D02*
X16630611Y-8826263D01*
X16640000Y-8452500D02*
X16670000Y-8482500D01*
X16670000Y-8452500D02*
X16640000Y-8482500D01*
X16640000Y-10432500D02*
X16670000Y-10462500D01*
X16670000Y-10432500D02*
X16640000Y-10462500D01*
X16650000Y-5092500D02*
X16680000Y-5122500D01*
X16680000Y-5092500D02*
X16650000Y-5122500D01*
X16670000Y-4662500D02*
X16700000Y-4692500D01*
X16700000Y-4662500D02*
X16670000Y-4692500D01*
X16690000Y-10652500D02*
X16720000Y-10682500D01*
X16720000Y-10652500D02*
X16690000Y-10682500D01*
X16710000Y-8262500D02*
X16740000Y-8292500D01*
X16740000Y-8262500D02*
X16710000Y-8292500D01*
X16720000Y-4512500D02*
X16750000Y-4542500D01*
X16750000Y-4512500D02*
X16720000Y-4542500D01*
X16730000Y-8452500D02*
X16760000Y-8482500D01*
X16760000Y-8452500D02*
X16730000Y-8482500D01*
X16730000Y-9972500D02*
X16760000Y-10002500D01*
X16760000Y-9972500D02*
X16730000Y-10002500D01*
X16750000Y-9822500D02*
X16780000Y-9852500D01*
X16780000Y-9822500D02*
X16750000Y-9852500D01*
X16755000Y-5657500D02*
X16785000Y-5687500D01*
X16785000Y-5657500D02*
X16755000Y-5687500D01*
X16755000Y-5757500D02*
X16785000Y-5787500D01*
X16785000Y-5757500D02*
X16755000Y-5787500D01*
X16755000Y-5932500D02*
X16785000Y-5962500D01*
X16785000Y-5932500D02*
X16755000Y-5962500D01*
X16755000Y-6032500D02*
X16785000Y-6062500D01*
X16785000Y-6032500D02*
X16755000Y-6062500D01*
X16755000Y-6207500D02*
X16785000Y-6237500D01*
X16785000Y-6207500D02*
X16755000Y-6237500D01*
X16755000Y-6307500D02*
X16785000Y-6337500D01*
X16785000Y-6307500D02*
X16755000Y-6337500D01*
X16755000Y-6857500D02*
X16785000Y-6887500D01*
X16785000Y-6857500D02*
X16755000Y-6887500D01*
X16755000Y-8857500D02*
X16785000Y-8887500D01*
X16785000Y-8857500D02*
X16755000Y-8887500D01*
X16755000Y-8957500D02*
X16785000Y-8987500D01*
X16785000Y-8957500D02*
X16755000Y-8987500D01*
X16755000Y-9132500D02*
X16785000Y-9162500D01*
X16785000Y-9132500D02*
X16755000Y-9162500D01*
X16755000Y-9232500D02*
X16785000Y-9262500D01*
X16785000Y-9232500D02*
X16755000Y-9262500D01*
X16755000Y-9407500D02*
X16785000Y-9437500D01*
X16785000Y-9407500D02*
X16755000Y-9437500D01*
X16755000Y-9507500D02*
X16785000Y-9537500D01*
X16785000Y-9507500D02*
X16755000Y-9537500D01*
X16760000Y-5022500D02*
X16790000Y-5052500D01*
X16790000Y-5022500D02*
X16760000Y-5052500D01*
X16760000Y-10652500D02*
X16790000Y-10682500D01*
X16790000Y-10652500D02*
X16760000Y-10682500D01*
X16780000Y-6422500D02*
X16810000Y-6452500D01*
X16810000Y-6422500D02*
X16780000Y-6452500D01*
X16780000Y-10062500D02*
X16810000Y-10092500D01*
X16810000Y-10062500D02*
X16780000Y-10092500D01*
X16800000Y-6682500D02*
X16830000Y-6712500D01*
X16830000Y-6682500D02*
X16800000Y-6712500D01*
X16800000Y-8262500D02*
X16830000Y-8292500D01*
X16830000Y-8262500D02*
X16800000Y-8292500D01*
X16820000Y-8452500D02*
X16850000Y-8482500D01*
X16850000Y-8452500D02*
X16820000Y-8482500D01*
X16820000Y-9832500D02*
X16850000Y-9862500D01*
X16850000Y-9832500D02*
X16820000Y-9862500D01*
X16830000Y-5022500D02*
X16860000Y-5052500D01*
X16860000Y-5022500D02*
X16830000Y-5052500D01*
X16830000Y-6752500D02*
X16860000Y-6782500D01*
X16860000Y-6752500D02*
X16830000Y-6782500D01*
X16845000Y-8727500D02*
X16875000Y-8757500D01*
X16875000Y-8727500D02*
X16845000Y-8757500D01*
X16850000Y-10542500D02*
X16880000Y-10572500D01*
X16880000Y-10542500D02*
X16850000Y-10572500D01*
X16850000Y-10622500D02*
X16880000Y-10652500D01*
X16880000Y-10622500D02*
X16850000Y-10652500D01*
X16855000Y-5657500D02*
X16885000Y-5687500D01*
X16885000Y-5657500D02*
X16855000Y-5687500D01*
X16855000Y-5757500D02*
X16885000Y-5787500D01*
X16885000Y-5757500D02*
X16855000Y-5787500D01*
X16855000Y-5932500D02*
X16885000Y-5962500D01*
X16885000Y-5932500D02*
X16855000Y-5962500D01*
X16855000Y-6032500D02*
X16885000Y-6062500D01*
X16885000Y-6032500D02*
X16855000Y-6062500D01*
X16855000Y-6207500D02*
X16885000Y-6237500D01*
X16885000Y-6207500D02*
X16855000Y-6237500D01*
X16855000Y-6307500D02*
X16885000Y-6337500D01*
X16885000Y-6307500D02*
X16855000Y-6337500D01*
X16855000Y-8857500D02*
X16885000Y-8887500D01*
X16885000Y-8857500D02*
X16855000Y-8887500D01*
X16855000Y-8957500D02*
X16885000Y-8987500D01*
X16885000Y-8957500D02*
X16855000Y-8987500D01*
X16855000Y-9132500D02*
X16885000Y-9162500D01*
X16885000Y-9132500D02*
X16855000Y-9162500D01*
X16855000Y-9232500D02*
X16885000Y-9262500D01*
X16885000Y-9232500D02*
X16855000Y-9262500D01*
X16855000Y-9407500D02*
X16885000Y-9437500D01*
X16885000Y-9407500D02*
X16855000Y-9437500D01*
X16855000Y-9507500D02*
X16885000Y-9537500D01*
X16885000Y-9507500D02*
X16855000Y-9537500D01*
X16860000Y-5132500D02*
X16890000Y-5162500D01*
X16890000Y-5132500D02*
X16860000Y-5162500D01*
X16860000Y-5202500D02*
X16890000Y-5232500D01*
X16890000Y-5202500D02*
X16860000Y-5232500D01*
X16860000Y-10312500D02*
X16890000Y-10342500D01*
X16890000Y-10312500D02*
X16860000Y-10342500D01*
X16860000Y-10402500D02*
X16890000Y-10432500D01*
X16890000Y-10402500D02*
X16860000Y-10432500D01*
X16870000Y-5502500D02*
X16900000Y-5532500D01*
X16900000Y-5502500D02*
X16870000Y-5532500D01*
X16890000Y-4512500D02*
X16920000Y-4542500D01*
X16920000Y-4512500D02*
X16890000Y-4542500D01*
X16890000Y-8262500D02*
X16920000Y-8292500D01*
X16920000Y-8262500D02*
X16890000Y-8292500D01*
X16900000Y-5022500D02*
X16930000Y-5052500D01*
X16930000Y-5022500D02*
X16900000Y-5052500D01*
X16910000Y-5302500D02*
X16940000Y-5332500D01*
X16940000Y-5302500D02*
X16910000Y-5332500D01*
X16930000Y-9822500D02*
X16960000Y-9852500D01*
X16960000Y-9822500D02*
X16930000Y-9852500D01*
X16940000Y-6422500D02*
X16970000Y-6452500D01*
X16970000Y-6422500D02*
X16940000Y-6452500D01*
X16940000Y-8727500D02*
X16970000Y-8757500D01*
X16970000Y-8727500D02*
X16940000Y-8757500D01*
X16950000Y-6862500D02*
X16980000Y-6892500D01*
X16980000Y-6862500D02*
X16950000Y-6892500D01*
X16956000Y-4767500D02*
X16986000Y-4797500D01*
X16986000Y-4767500D02*
X16956000Y-4797500D01*
X16960000Y-6682500D02*
X16990000Y-6712500D01*
X16990000Y-6682500D02*
X16960000Y-6712500D01*
X16970000Y-4932500D02*
X17000000Y-4962500D01*
X17000000Y-4932500D02*
X16970000Y-4962500D01*
X16970000Y-4992500D02*
X17000000Y-5022500D01*
X17000000Y-4992500D02*
X16970000Y-5022500D01*
X16978925Y-4834809D02*
X17008925Y-4864809D01*
X17008925Y-4834809D02*
X16978925Y-4864809D01*
X16980000Y-10652500D02*
X17010000Y-10682500D01*
X17010000Y-10652500D02*
X16980000Y-10682500D01*
X16990000Y-9822500D02*
X17020000Y-9852500D01*
X17020000Y-9822500D02*
X16990000Y-9852500D01*
X17030000Y-4512500D02*
X17060000Y-4542500D01*
X17060000Y-4512500D02*
X17030000Y-4542500D01*
X17030000Y-5657500D02*
X17060000Y-5687500D01*
X17060000Y-5657500D02*
X17030000Y-5687500D01*
X17030000Y-5757500D02*
X17060000Y-5787500D01*
X17060000Y-5757500D02*
X17030000Y-5787500D01*
X17030000Y-5932500D02*
X17060000Y-5962500D01*
X17060000Y-5932500D02*
X17030000Y-5962500D01*
X17030000Y-6032500D02*
X17060000Y-6062500D01*
X17060000Y-6032500D02*
X17030000Y-6062500D01*
X17030000Y-6207500D02*
X17060000Y-6237500D01*
X17060000Y-6207500D02*
X17030000Y-6237500D01*
X17030000Y-6307500D02*
X17060000Y-6337500D01*
X17060000Y-6307500D02*
X17030000Y-6337500D01*
X17030000Y-6722500D02*
X17060000Y-6752500D01*
X17060000Y-6722500D02*
X17030000Y-6752500D01*
X17030000Y-8857500D02*
X17060000Y-8887500D01*
X17060000Y-8857500D02*
X17030000Y-8887500D01*
X17030000Y-8957500D02*
X17060000Y-8987500D01*
X17060000Y-8957500D02*
X17030000Y-8987500D01*
X17030000Y-9132500D02*
X17060000Y-9162500D01*
X17060000Y-9132500D02*
X17030000Y-9162500D01*
X17030000Y-9232500D02*
X17060000Y-9262500D01*
X17060000Y-9232500D02*
X17030000Y-9262500D01*
X17030000Y-9407500D02*
X17060000Y-9437500D01*
X17060000Y-9407500D02*
X17030000Y-9437500D01*
X17030000Y-9507500D02*
X17060000Y-9537500D01*
X17060000Y-9507500D02*
X17030000Y-9537500D01*
X17030000Y-10382500D02*
X17060000Y-10412500D01*
X17060000Y-10382500D02*
X17030000Y-10412500D01*
X17030065Y-10481000D02*
X17060065Y-10511000D01*
X17060065Y-10481000D02*
X17030065Y-10511000D01*
X17040000Y-8442500D02*
X17070000Y-8472500D01*
X17070000Y-8442500D02*
X17040000Y-8472500D01*
X17120000Y-6722500D02*
X17150000Y-6752500D01*
X17150000Y-6722500D02*
X17120000Y-6752500D01*
X17129935Y-4684000D02*
X17159935Y-4714000D01*
X17159935Y-4684000D02*
X17129935Y-4714000D01*
X17130000Y-4782500D02*
X17160000Y-4812500D01*
X17160000Y-4782500D02*
X17130000Y-4812500D01*
X17130000Y-5657500D02*
X17160000Y-5687500D01*
X17160000Y-5657500D02*
X17130000Y-5687500D01*
X17130000Y-5757500D02*
X17160000Y-5787500D01*
X17160000Y-5757500D02*
X17130000Y-5787500D01*
X17130000Y-5932500D02*
X17160000Y-5962500D01*
X17160000Y-5932500D02*
X17130000Y-5962500D01*
X17130000Y-6032500D02*
X17160000Y-6062500D01*
X17160000Y-6032500D02*
X17130000Y-6062500D01*
X17130000Y-6207500D02*
X17160000Y-6237500D01*
X17160000Y-6207500D02*
X17130000Y-6237500D01*
X17130000Y-6307500D02*
X17160000Y-6337500D01*
X17160000Y-6307500D02*
X17130000Y-6337500D01*
X17130000Y-8442500D02*
X17160000Y-8472500D01*
X17160000Y-8442500D02*
X17130000Y-8472500D01*
X17130000Y-8857500D02*
X17160000Y-8887500D01*
X17160000Y-8857500D02*
X17130000Y-8887500D01*
X17130000Y-8957500D02*
X17160000Y-8987500D01*
X17160000Y-8957500D02*
X17130000Y-8987500D01*
X17130000Y-9132500D02*
X17160000Y-9162500D01*
X17160000Y-9132500D02*
X17130000Y-9162500D01*
X17130000Y-9232500D02*
X17160000Y-9262500D01*
X17160000Y-9232500D02*
X17130000Y-9262500D01*
X17130000Y-9407500D02*
X17160000Y-9437500D01*
X17160000Y-9407500D02*
X17130000Y-9437500D01*
X17130000Y-9507500D02*
X17160000Y-9537500D01*
X17160000Y-9507500D02*
X17130000Y-9537500D01*
X17130000Y-10652500D02*
X17160000Y-10682500D01*
X17160000Y-10652500D02*
X17130000Y-10682500D01*
X17170000Y-5342500D02*
X17200000Y-5372500D01*
X17200000Y-5342500D02*
X17170000Y-5372500D01*
X17180000Y-4512500D02*
X17210000Y-4542500D01*
X17210000Y-4512500D02*
X17180000Y-4542500D01*
X17181075Y-10330191D02*
X17211075Y-10360191D01*
X17211075Y-10330191D02*
X17181075Y-10360191D01*
X17190000Y-10172500D02*
X17220000Y-10202500D01*
X17220000Y-10172500D02*
X17190000Y-10202500D01*
X17190000Y-10232500D02*
X17220000Y-10262500D01*
X17220000Y-10232500D02*
X17190000Y-10262500D01*
X17200000Y-8482500D02*
X17230000Y-8512500D01*
X17230000Y-8482500D02*
X17200000Y-8512500D01*
X17204000Y-10397500D02*
X17234000Y-10427500D01*
X17234000Y-10397500D02*
X17204000Y-10427500D01*
X17210000Y-8302500D02*
X17240000Y-8332500D01*
X17240000Y-8302500D02*
X17210000Y-8332500D01*
X17220000Y-6437500D02*
X17250000Y-6467500D01*
X17250000Y-6437500D02*
X17220000Y-6467500D01*
X17220000Y-8742500D02*
X17250000Y-8772500D01*
X17250000Y-8742500D02*
X17220000Y-8772500D01*
X17230000Y-5342500D02*
X17260000Y-5372500D01*
X17260000Y-5342500D02*
X17230000Y-5372500D01*
X17250000Y-9862500D02*
X17280000Y-9892500D01*
X17280000Y-9862500D02*
X17250000Y-9892500D01*
X17260000Y-10142500D02*
X17290000Y-10172500D01*
X17290000Y-10142500D02*
X17260000Y-10172500D01*
X17270000Y-6902500D02*
X17300000Y-6932500D01*
X17300000Y-6902500D02*
X17270000Y-6932500D01*
X17270000Y-10652500D02*
X17300000Y-10682500D01*
X17300000Y-10652500D02*
X17270000Y-10682500D01*
X17290000Y-9662500D02*
X17320000Y-9692500D01*
X17320000Y-9662500D02*
X17290000Y-9692500D01*
X17300000Y-4762500D02*
X17330000Y-4792500D01*
X17330000Y-4762500D02*
X17300000Y-4792500D01*
X17300000Y-4852500D02*
X17330000Y-4882500D01*
X17330000Y-4852500D02*
X17300000Y-4882500D01*
X17300000Y-9962500D02*
X17330000Y-9992500D01*
X17330000Y-9962500D02*
X17300000Y-9992500D01*
X17300000Y-10032500D02*
X17330000Y-10062500D01*
X17330000Y-10032500D02*
X17300000Y-10062500D01*
X17305000Y-5657500D02*
X17335000Y-5687500D01*
X17335000Y-5657500D02*
X17305000Y-5687500D01*
X17305000Y-5757500D02*
X17335000Y-5787500D01*
X17335000Y-5757500D02*
X17305000Y-5787500D01*
X17305000Y-5932500D02*
X17335000Y-5962500D01*
X17335000Y-5932500D02*
X17305000Y-5962500D01*
X17305000Y-6032500D02*
X17335000Y-6062500D01*
X17335000Y-6032500D02*
X17305000Y-6062500D01*
X17305000Y-6207500D02*
X17335000Y-6237500D01*
X17335000Y-6207500D02*
X17305000Y-6237500D01*
X17305000Y-6307500D02*
X17335000Y-6337500D01*
X17335000Y-6307500D02*
X17305000Y-6337500D01*
X17305000Y-8857500D02*
X17335000Y-8887500D01*
X17335000Y-8857500D02*
X17305000Y-8887500D01*
X17305000Y-8957500D02*
X17335000Y-8987500D01*
X17335000Y-8957500D02*
X17305000Y-8987500D01*
X17305000Y-9132500D02*
X17335000Y-9162500D01*
X17335000Y-9132500D02*
X17305000Y-9162500D01*
X17305000Y-9232500D02*
X17335000Y-9262500D01*
X17335000Y-9232500D02*
X17305000Y-9262500D01*
X17305000Y-9407500D02*
X17335000Y-9437500D01*
X17335000Y-9407500D02*
X17305000Y-9437500D01*
X17305000Y-9507500D02*
X17335000Y-9537500D01*
X17335000Y-9507500D02*
X17305000Y-9537500D01*
X17310000Y-4542500D02*
X17340000Y-4572500D01*
X17340000Y-4542500D02*
X17310000Y-4572500D01*
X17310000Y-4622500D02*
X17340000Y-4652500D01*
X17340000Y-4622500D02*
X17310000Y-4652500D01*
X17315000Y-6437500D02*
X17345000Y-6467500D01*
X17345000Y-6437500D02*
X17315000Y-6467500D01*
X17330000Y-8412500D02*
X17360000Y-8442500D01*
X17360000Y-8412500D02*
X17330000Y-8442500D01*
X17330000Y-10142500D02*
X17360000Y-10172500D01*
X17360000Y-10142500D02*
X17330000Y-10172500D01*
X17340000Y-5332500D02*
X17370000Y-5362500D01*
X17370000Y-5332500D02*
X17340000Y-5362500D01*
X17340000Y-6712500D02*
X17370000Y-6742500D01*
X17370000Y-6712500D02*
X17340000Y-6742500D01*
X17360000Y-6902500D02*
X17390000Y-6932500D01*
X17390000Y-6902500D02*
X17360000Y-6932500D01*
X17360000Y-8482500D02*
X17390000Y-8512500D01*
X17390000Y-8482500D02*
X17360000Y-8512500D01*
X17380000Y-5102500D02*
X17410000Y-5132500D01*
X17410000Y-5102500D02*
X17380000Y-5132500D01*
X17380000Y-8742500D02*
X17410000Y-8772500D01*
X17410000Y-8742500D02*
X17380000Y-8772500D01*
X17400000Y-4512500D02*
X17430000Y-4542500D01*
X17430000Y-4512500D02*
X17400000Y-4542500D01*
X17400000Y-10142500D02*
X17430000Y-10172500D01*
X17430000Y-10142500D02*
X17400000Y-10172500D01*
X17405000Y-5657500D02*
X17435000Y-5687500D01*
X17435000Y-5657500D02*
X17405000Y-5687500D01*
X17405000Y-5757500D02*
X17435000Y-5787500D01*
X17435000Y-5757500D02*
X17405000Y-5787500D01*
X17405000Y-5932500D02*
X17435000Y-5962500D01*
X17435000Y-5932500D02*
X17405000Y-5962500D01*
X17405000Y-6032500D02*
X17435000Y-6062500D01*
X17435000Y-6032500D02*
X17405000Y-6062500D01*
X17405000Y-6207500D02*
X17435000Y-6237500D01*
X17435000Y-6207500D02*
X17405000Y-6237500D01*
X17405000Y-6307500D02*
X17435000Y-6337500D01*
X17435000Y-6307500D02*
X17405000Y-6337500D01*
X17405000Y-8307500D02*
X17435000Y-8337500D01*
X17435000Y-8307500D02*
X17405000Y-8337500D01*
X17405000Y-8857500D02*
X17435000Y-8887500D01*
X17435000Y-8857500D02*
X17405000Y-8887500D01*
X17405000Y-8957500D02*
X17435000Y-8987500D01*
X17435000Y-8957500D02*
X17405000Y-8987500D01*
X17405000Y-9132500D02*
X17435000Y-9162500D01*
X17435000Y-9132500D02*
X17405000Y-9162500D01*
X17405000Y-9232500D02*
X17435000Y-9262500D01*
X17435000Y-9232500D02*
X17405000Y-9262500D01*
X17405000Y-9407500D02*
X17435000Y-9437500D01*
X17435000Y-9407500D02*
X17405000Y-9437500D01*
X17405000Y-9507500D02*
X17435000Y-9537500D01*
X17435000Y-9507500D02*
X17405000Y-9537500D01*
X17410000Y-5342500D02*
X17440000Y-5372500D01*
X17440000Y-5342500D02*
X17410000Y-5372500D01*
X17430000Y-5192500D02*
X17460000Y-5222500D01*
X17460000Y-5192500D02*
X17430000Y-5222500D01*
X17430000Y-6712500D02*
X17460000Y-6742500D01*
X17460000Y-6712500D02*
X17430000Y-6742500D01*
X17440000Y-10652500D02*
X17470000Y-10682500D01*
X17470000Y-10652500D02*
X17440000Y-10682500D01*
X17450000Y-6902500D02*
X17480000Y-6932500D01*
X17480000Y-6902500D02*
X17450000Y-6932500D01*
X17470000Y-4512500D02*
X17500000Y-4542500D01*
X17500000Y-4512500D02*
X17470000Y-4542500D01*
X17490000Y-10502500D02*
X17520000Y-10532500D01*
X17520000Y-10502500D02*
X17490000Y-10532500D01*
X17510000Y-10072500D02*
X17540000Y-10102500D01*
X17540000Y-10072500D02*
X17510000Y-10102500D01*
X17520000Y-4732500D02*
X17550000Y-4762500D01*
X17550000Y-4732500D02*
X17520000Y-4762500D01*
X17520000Y-6712500D02*
X17550000Y-6742500D01*
X17550000Y-6712500D02*
X17520000Y-6742500D01*
X17529389Y-6368737D02*
X17559389Y-6398737D01*
X17559389Y-6368737D02*
X17529389Y-6398737D01*
X17540000Y-4512500D02*
X17570000Y-4542500D01*
X17570000Y-4512500D02*
X17540000Y-4542500D01*
X17540000Y-5202500D02*
X17570000Y-5232500D01*
X17570000Y-5202500D02*
X17540000Y-5232500D01*
X17540000Y-6162500D02*
X17570000Y-6192500D01*
X17570000Y-6162500D02*
X17540000Y-6192500D01*
X17540000Y-6902500D02*
X17570000Y-6932500D01*
X17570000Y-6902500D02*
X17540000Y-6932500D01*
X17545000Y-5987500D02*
X17575000Y-6017500D01*
X17575000Y-5987500D02*
X17545000Y-6017500D01*
X17560000Y-8322500D02*
X17590000Y-8352500D01*
X17590000Y-8322500D02*
X17560000Y-8352500D01*
X17560000Y-10502500D02*
X17590000Y-10532500D01*
X17590000Y-10502500D02*
X17560000Y-10532500D01*
X17580000Y-10032500D02*
X17610000Y-10062500D01*
X17610000Y-10032500D02*
X17580000Y-10062500D01*
X17590000Y-9862500D02*
X17620000Y-9892500D01*
X17620000Y-9862500D02*
X17590000Y-9892500D01*
X17600000Y-6542500D02*
X17630000Y-6572500D01*
X17630000Y-6542500D02*
X17600000Y-6572500D01*
X17630000Y-6902500D02*
X17660000Y-6932500D01*
X17660000Y-6902500D02*
X17630000Y-6932500D01*
X17630000Y-8322500D02*
X17660000Y-8352500D01*
X17660000Y-8322500D02*
X17630000Y-8352500D01*
X17630000Y-8632500D02*
X17660000Y-8662500D01*
X17660000Y-8632500D02*
X17630000Y-8662500D01*
X17630000Y-10602500D02*
X17660000Y-10632500D01*
X17660000Y-10602500D02*
X17630000Y-10632500D01*
X17640000Y-4842500D02*
X17670000Y-4872500D01*
X17670000Y-4842500D02*
X17640000Y-4872500D01*
X17640000Y-5432500D02*
X17670000Y-5462500D01*
X17670000Y-5432500D02*
X17640000Y-5462500D01*
X17660000Y-10342500D02*
X17690000Y-10372500D01*
X17690000Y-10342500D02*
X17660000Y-10372500D01*
X17660000Y-10493347D02*
X17690000Y-10523347D01*
X17690000Y-10493347D02*
X17660000Y-10523347D01*
X17680000Y-6972500D02*
X17710000Y-7002500D01*
X17710000Y-6972500D02*
X17680000Y-7002500D01*
X17700000Y-6682500D02*
X17730000Y-6712500D01*
X17730000Y-6682500D02*
X17700000Y-6712500D01*
X17708258Y-10157500D02*
X17738258Y-10187500D01*
X17738258Y-10157500D02*
X17708258Y-10187500D01*
X17720000Y-4722500D02*
X17750000Y-4752500D01*
X17750000Y-4722500D02*
X17720000Y-4752500D01*
X17720000Y-4802500D02*
X17750000Y-4832500D01*
X17750000Y-4802500D02*
X17720000Y-4832500D01*
X17720000Y-6132500D02*
X17750000Y-6162500D01*
X17750000Y-6132500D02*
X17720000Y-6162500D01*
X17720000Y-6192500D02*
X17750000Y-6222500D01*
X17750000Y-6192500D02*
X17720000Y-6222500D01*
X17722350Y-6072500D02*
X17752350Y-6102500D01*
X17752350Y-6072500D02*
X17722350Y-6102500D01*
X17730000Y-4512500D02*
X17760000Y-4542500D01*
X17760000Y-4512500D02*
X17730000Y-4542500D01*
X17730000Y-9572500D02*
X17760000Y-9602500D01*
X17760000Y-9572500D02*
X17730000Y-9602500D01*
X17730000Y-9632500D02*
X17760000Y-9662500D01*
X17760000Y-9632500D02*
X17730000Y-9662500D01*
X17735000Y-5532500D02*
X17765000Y-5562500D01*
X17765000Y-5532500D02*
X17735000Y-5562500D01*
X17735000Y-5592500D02*
X17765000Y-5622500D01*
X17765000Y-5592500D02*
X17735000Y-5622500D01*
X17740000Y-5877500D02*
X17770000Y-5907500D01*
X17770000Y-5877500D02*
X17740000Y-5907500D01*
X17740000Y-9902500D02*
X17770000Y-9932500D01*
X17770000Y-9902500D02*
X17740000Y-9932500D01*
X17740000Y-9962500D02*
X17770000Y-9992500D01*
X17770000Y-9962500D02*
X17740000Y-9992500D01*
X17755000Y-8632500D02*
X17785000Y-8662500D01*
X17785000Y-8632500D02*
X17755000Y-8662500D01*
X17755000Y-10502500D02*
X17785000Y-10532500D01*
X17785000Y-10502500D02*
X17755000Y-10532500D01*
X17760000Y-6982500D02*
X17790000Y-7012500D01*
X17790000Y-6982500D02*
X17760000Y-7012500D01*
X17770000Y-6622500D02*
X17800000Y-6652500D01*
X17800000Y-6622500D02*
X17770000Y-6652500D01*
X17770000Y-8972500D02*
X17800000Y-9002500D01*
X17800000Y-8972500D02*
X17770000Y-9002500D01*
X17770000Y-9702500D02*
X17800000Y-9732500D01*
X17800000Y-9702500D02*
X17770000Y-9732500D01*
X17770000Y-9822500D02*
X17800000Y-9852500D01*
X17800000Y-9822500D02*
X17770000Y-9852500D01*
X17775267Y-10653095D02*
X17805267Y-10683095D01*
X17805267Y-10653095D02*
X17775267Y-10683095D01*
X17800000Y-4722500D02*
X17830000Y-4752500D01*
X17830000Y-4722500D02*
X17800000Y-4752500D01*
X17800000Y-4802500D02*
X17830000Y-4832500D01*
X17830000Y-4802500D02*
X17800000Y-4832500D01*
X17800000Y-5802500D02*
X17830000Y-5832500D01*
X17830000Y-5802500D02*
X17800000Y-5832500D01*
X17817838Y-10492702D02*
X17847838Y-10522702D01*
X17847838Y-10492702D02*
X17817838Y-10522702D01*
X17820000Y-4632500D02*
X17850000Y-4662500D01*
X17850000Y-4632500D02*
X17820000Y-4662500D01*
X17830000Y-9407500D02*
X17860000Y-9437500D01*
X17860000Y-9407500D02*
X17830000Y-9437500D01*
X17840000Y-4522500D02*
X17870000Y-4552500D01*
X17870000Y-4522500D02*
X17840000Y-4552500D01*
X17870000Y-4882500D02*
X17900000Y-4912500D01*
X17900000Y-4882500D02*
X17870000Y-4912500D01*
X17880000Y-9457500D02*
X17910000Y-9487500D01*
X17910000Y-9457500D02*
X17880000Y-9487500D01*
X17890000Y-5902500D02*
X17920000Y-5932500D01*
X17920000Y-5902500D02*
X17890000Y-5932500D01*
X17950000Y-8682500D02*
X17980000Y-8712500D01*
X17980000Y-8682500D02*
X17950000Y-8712500D01*
X17950000Y-8782500D02*
X17980000Y-8812500D01*
X17980000Y-8782500D02*
X17950000Y-8812500D01*
X17965000Y-5657500D02*
X17995000Y-5687500D01*
X17995000Y-5657500D02*
X17965000Y-5687500D01*
X17970000Y-8902500D02*
X18000000Y-8932500D01*
X18000000Y-8902500D02*
X17970000Y-8932500D01*
X17980000Y-4882500D02*
X18010000Y-4912500D01*
X18010000Y-4882500D02*
X17980000Y-4912500D01*
X17980000Y-9557500D02*
X18010000Y-9587500D01*
X18010000Y-9557500D02*
X17980000Y-9587500D01*
X17984616Y-8978183D02*
X18014616Y-9008183D01*
X18014616Y-8978183D02*
X17984616Y-9008183D01*
X17984616Y-9344766D02*
X18014616Y-9374766D01*
X18014616Y-9344766D02*
X17984616Y-9374766D01*
X17985046Y-9476348D02*
X18015046Y-9506348D01*
X18015046Y-9476348D02*
X17985046Y-9506348D01*
X18010000Y-5707500D02*
X18040000Y-5737500D01*
X18040000Y-5707500D02*
X18010000Y-5737500D01*
X18020000Y-8682500D02*
X18050000Y-8712500D01*
X18050000Y-8682500D02*
X18020000Y-8712500D01*
X18020000Y-8782500D02*
X18050000Y-8812500D01*
X18050000Y-8782500D02*
X18020000Y-8812500D01*
X18030000Y-8432500D02*
X18060000Y-8462500D01*
X18060000Y-8432500D02*
X18030000Y-8462500D01*
X18050000Y-10632500D02*
X18080000Y-10662500D01*
X18080000Y-10632500D02*
X18050000Y-10662500D01*
X18080000Y-4882500D02*
X18110000Y-4912500D01*
X18110000Y-4882500D02*
X18080000Y-4912500D01*
X18085000Y-4567500D02*
X18115000Y-4597500D01*
X18115000Y-4567500D02*
X18085000Y-4597500D01*
X18090000Y-6622500D02*
X18120000Y-6652500D01*
X18120000Y-6622500D02*
X18090000Y-6652500D01*
X18090000Y-6982500D02*
X18120000Y-7012500D01*
X18120000Y-6982500D02*
X18090000Y-7012500D01*
X18100000Y-6499500D02*
X18130000Y-6529500D01*
X18130000Y-6499500D02*
X18100000Y-6529500D01*
X18107000Y-5906500D02*
X18137000Y-5936500D01*
X18137000Y-5906500D02*
X18107000Y-5936500D01*
X18110000Y-5712500D02*
X18140000Y-5742500D01*
X18140000Y-5712500D02*
X18110000Y-5742500D01*
X18110000Y-10582500D02*
X18140000Y-10612500D01*
X18140000Y-10582500D02*
X18110000Y-10612500D01*
X18125000Y-5260500D02*
X18155000Y-5290500D01*
X18155000Y-5260500D02*
X18125000Y-5290500D01*
X18235000Y-9904500D02*
X18265000Y-9934500D01*
X18265000Y-9904500D02*
X18235000Y-9934500D01*
X18250000Y-4582500D02*
X18280000Y-4612500D01*
X18280000Y-4582500D02*
X18250000Y-4612500D01*
X18250000Y-9452500D02*
X18280000Y-9482500D01*
X18280000Y-9452500D02*
X18250000Y-9482500D01*
X18253000Y-9258500D02*
X18283000Y-9288500D01*
X18283000Y-9258500D02*
X18253000Y-9288500D01*
X18260000Y-8665500D02*
X18290000Y-8695500D01*
X18290000Y-8665500D02*
X18260000Y-8695500D01*
X18270000Y-8182500D02*
X18300000Y-8212500D01*
X18300000Y-8182500D02*
X18270000Y-8212500D01*
X18270000Y-8542500D02*
X18300000Y-8572500D01*
X18300000Y-8542500D02*
X18270000Y-8572500D01*
X18275000Y-10597500D02*
X18305000Y-10627500D01*
X18305000Y-10597500D02*
X18275000Y-10627500D01*
X18280000Y-10282500D02*
X18310000Y-10312500D01*
X18310000Y-10282500D02*
X18280000Y-10312500D01*
X18310000Y-4532500D02*
X18340000Y-4562500D01*
X18340000Y-4532500D02*
X18310000Y-4562500D01*
X18330000Y-6732500D02*
X18360000Y-6762500D01*
X18360000Y-6732500D02*
X18330000Y-6762500D01*
X18340000Y-6382500D02*
X18370000Y-6412500D01*
X18370000Y-6382500D02*
X18340000Y-6412500D01*
X18340000Y-6482500D02*
X18370000Y-6512500D01*
X18370000Y-6482500D02*
X18340000Y-6512500D01*
X18350000Y-9457500D02*
X18380000Y-9487500D01*
X18380000Y-9457500D02*
X18350000Y-9487500D01*
X18374954Y-5688652D02*
X18404954Y-5718652D01*
X18404954Y-5688652D02*
X18374954Y-5718652D01*
X18375384Y-5820234D02*
X18405384Y-5850234D01*
X18405384Y-5820234D02*
X18375384Y-5850234D01*
X18375384Y-6186817D02*
X18405384Y-6216817D01*
X18405384Y-6186817D02*
X18375384Y-6216817D01*
X18380000Y-5607500D02*
X18410000Y-5637500D01*
X18410000Y-5607500D02*
X18380000Y-5637500D01*
X18380000Y-10282500D02*
X18410000Y-10312500D01*
X18410000Y-10282500D02*
X18380000Y-10312500D01*
X18390000Y-6262500D02*
X18420000Y-6292500D01*
X18420000Y-6262500D02*
X18390000Y-6292500D01*
X18395000Y-9507500D02*
X18425000Y-9537500D01*
X18425000Y-9507500D02*
X18395000Y-9537500D01*
X18410000Y-6382500D02*
X18440000Y-6412500D01*
X18440000Y-6382500D02*
X18410000Y-6412500D01*
X18410000Y-6482500D02*
X18440000Y-6512500D01*
X18440000Y-6482500D02*
X18410000Y-6512500D01*
X18470000Y-9262500D02*
X18500000Y-9292500D01*
X18500000Y-9262500D02*
X18470000Y-9292500D01*
X18480000Y-5707500D02*
X18510000Y-5737500D01*
X18510000Y-5707500D02*
X18480000Y-5737500D01*
X18490000Y-10282500D02*
X18520000Y-10312500D01*
X18520000Y-10282500D02*
X18490000Y-10312500D01*
X18520000Y-10642500D02*
X18550000Y-10672500D01*
X18550000Y-10642500D02*
X18520000Y-10672500D01*
X18530000Y-5757500D02*
X18560000Y-5787500D01*
X18560000Y-5757500D02*
X18530000Y-5787500D01*
X18540000Y-10532500D02*
X18570000Y-10562500D01*
X18570000Y-10532500D02*
X18540000Y-10562500D01*
X18542162Y-4672298D02*
X18572162Y-4702298D01*
X18572162Y-4672298D02*
X18542162Y-4702298D01*
X18560000Y-9362500D02*
X18590000Y-9392500D01*
X18590000Y-9362500D02*
X18560000Y-9392500D01*
X18560000Y-10362500D02*
X18590000Y-10392500D01*
X18590000Y-10362500D02*
X18560000Y-10392500D01*
X18560000Y-10442500D02*
X18590000Y-10472500D01*
X18590000Y-10442500D02*
X18560000Y-10472500D01*
X18584733Y-4511905D02*
X18614733Y-4541905D01*
X18614733Y-4511905D02*
X18584733Y-4541905D01*
X18590000Y-5342500D02*
X18620000Y-5372500D01*
X18620000Y-5342500D02*
X18590000Y-5372500D01*
X18590000Y-5462500D02*
X18620000Y-5492500D01*
X18620000Y-5462500D02*
X18590000Y-5492500D01*
X18590000Y-6192500D02*
X18620000Y-6222500D01*
X18620000Y-6192500D02*
X18590000Y-6222500D01*
X18590000Y-8542500D02*
X18620000Y-8572500D01*
X18620000Y-8542500D02*
X18590000Y-8572500D01*
X18600000Y-8182500D02*
X18630000Y-8212500D01*
X18630000Y-8182500D02*
X18600000Y-8212500D01*
X18605000Y-4662500D02*
X18635000Y-4692500D01*
X18635000Y-4662500D02*
X18605000Y-4692500D01*
X18605000Y-6532500D02*
X18635000Y-6562500D01*
X18635000Y-6532500D02*
X18605000Y-6562500D01*
X18620000Y-5202500D02*
X18650000Y-5232500D01*
X18650000Y-5202500D02*
X18620000Y-5232500D01*
X18620000Y-5262500D02*
X18650000Y-5292500D01*
X18650000Y-5262500D02*
X18620000Y-5292500D01*
X18620000Y-9287500D02*
X18650000Y-9317500D01*
X18650000Y-9287500D02*
X18620000Y-9317500D01*
X18625000Y-9572500D02*
X18655000Y-9602500D01*
X18655000Y-9572500D02*
X18625000Y-9602500D01*
X18625000Y-9632500D02*
X18655000Y-9662500D01*
X18655000Y-9632500D02*
X18625000Y-9662500D01*
X18630000Y-5532500D02*
X18660000Y-5562500D01*
X18660000Y-5532500D02*
X18630000Y-5562500D01*
X18630000Y-5592500D02*
X18660000Y-5622500D01*
X18660000Y-5592500D02*
X18630000Y-5622500D01*
X18630000Y-10652500D02*
X18660000Y-10682500D01*
X18660000Y-10652500D02*
X18630000Y-10682500D01*
X18637650Y-9092500D02*
X18667650Y-9122500D01*
X18667650Y-9092500D02*
X18637650Y-9122500D01*
X18640000Y-8972500D02*
X18670000Y-9002500D01*
X18670000Y-8972500D02*
X18640000Y-9002500D01*
X18640000Y-9032500D02*
X18670000Y-9062500D01*
X18670000Y-9032500D02*
X18640000Y-9062500D01*
X18640000Y-10362500D02*
X18670000Y-10392500D01*
X18670000Y-10362500D02*
X18640000Y-10392500D01*
X18640000Y-10442500D02*
X18670000Y-10472500D01*
X18670000Y-10442500D02*
X18640000Y-10472500D01*
X18651742Y-5007500D02*
X18681742Y-5037500D01*
X18681742Y-5007500D02*
X18651742Y-5037500D01*
X18660000Y-8482500D02*
X18690000Y-8512500D01*
X18690000Y-8482500D02*
X18660000Y-8512500D01*
X18680000Y-8192500D02*
X18710000Y-8222500D01*
X18710000Y-8192500D02*
X18680000Y-8222500D01*
X18700000Y-4671653D02*
X18730000Y-4701653D01*
X18730000Y-4671653D02*
X18700000Y-4701653D01*
X18700000Y-4822500D02*
X18730000Y-4852500D01*
X18730000Y-4822500D02*
X18700000Y-4852500D01*
X18720000Y-9732500D02*
X18750000Y-9762500D01*
X18750000Y-9732500D02*
X18720000Y-9762500D01*
X18720000Y-10322500D02*
X18750000Y-10352500D01*
X18750000Y-10322500D02*
X18720000Y-10352500D01*
X18730000Y-4562500D02*
X18760000Y-4592500D01*
X18760000Y-4562500D02*
X18730000Y-4592500D01*
X18730000Y-6532500D02*
X18760000Y-6562500D01*
X18760000Y-6532500D02*
X18730000Y-6562500D01*
X18730000Y-6842500D02*
X18760000Y-6872500D01*
X18760000Y-6842500D02*
X18730000Y-6872500D01*
X18730000Y-8262500D02*
X18760000Y-8292500D01*
X18760000Y-8262500D02*
X18730000Y-8292500D01*
X18760000Y-8622500D02*
X18790000Y-8652500D01*
X18790000Y-8622500D02*
X18760000Y-8652500D01*
X18770000Y-5302500D02*
X18800000Y-5332500D01*
X18800000Y-5302500D02*
X18770000Y-5332500D01*
X18780000Y-5132500D02*
X18810000Y-5162500D01*
X18810000Y-5132500D02*
X18780000Y-5162500D01*
X18800000Y-4662500D02*
X18830000Y-4692500D01*
X18830000Y-4662500D02*
X18800000Y-4692500D01*
X18800000Y-6842500D02*
X18830000Y-6872500D01*
X18830000Y-6842500D02*
X18800000Y-6872500D01*
X18815000Y-9177500D02*
X18845000Y-9207500D01*
X18845000Y-9177500D02*
X18815000Y-9207500D01*
X18820000Y-8262500D02*
X18850000Y-8292500D01*
X18850000Y-8262500D02*
X18820000Y-8292500D01*
X18820000Y-9002500D02*
X18850000Y-9032500D01*
X18850000Y-9002500D02*
X18820000Y-9032500D01*
X18820000Y-9962500D02*
X18850000Y-9992500D01*
X18850000Y-9962500D02*
X18820000Y-9992500D01*
X18820000Y-10652500D02*
X18850000Y-10682500D01*
X18850000Y-10652500D02*
X18820000Y-10682500D01*
X18830611Y-8796263D02*
X18860611Y-8826263D01*
X18860611Y-8796263D02*
X18830611Y-8826263D01*
X18840000Y-8452500D02*
X18870000Y-8482500D01*
X18870000Y-8452500D02*
X18840000Y-8482500D01*
X18840000Y-10432500D02*
X18870000Y-10462500D01*
X18870000Y-10432500D02*
X18840000Y-10462500D01*
X18850000Y-5092500D02*
X18880000Y-5122500D01*
X18880000Y-5092500D02*
X18850000Y-5122500D01*
X18870000Y-4662500D02*
X18900000Y-4692500D01*
X18900000Y-4662500D02*
X18870000Y-4692500D01*
X18890000Y-10652500D02*
X18920000Y-10682500D01*
X18920000Y-10652500D02*
X18890000Y-10682500D01*
X18910000Y-8262500D02*
X18940000Y-8292500D01*
X18940000Y-8262500D02*
X18910000Y-8292500D01*
X18920000Y-4512500D02*
X18950000Y-4542500D01*
X18950000Y-4512500D02*
X18920000Y-4542500D01*
X18930000Y-8452500D02*
X18960000Y-8482500D01*
X18960000Y-8452500D02*
X18930000Y-8482500D01*
X18930000Y-9972500D02*
X18960000Y-10002500D01*
X18960000Y-9972500D02*
X18930000Y-10002500D01*
X18950000Y-9822500D02*
X18980000Y-9852500D01*
X18980000Y-9822500D02*
X18950000Y-9852500D01*
X18955000Y-5657500D02*
X18985000Y-5687500D01*
X18985000Y-5657500D02*
X18955000Y-5687500D01*
X18955000Y-5757500D02*
X18985000Y-5787500D01*
X18985000Y-5757500D02*
X18955000Y-5787500D01*
X18955000Y-5932500D02*
X18985000Y-5962500D01*
X18985000Y-5932500D02*
X18955000Y-5962500D01*
X18955000Y-6032500D02*
X18985000Y-6062500D01*
X18985000Y-6032500D02*
X18955000Y-6062500D01*
X18955000Y-6207500D02*
X18985000Y-6237500D01*
X18985000Y-6207500D02*
X18955000Y-6237500D01*
X18955000Y-6307500D02*
X18985000Y-6337500D01*
X18985000Y-6307500D02*
X18955000Y-6337500D01*
X18955000Y-6857500D02*
X18985000Y-6887500D01*
X18985000Y-6857500D02*
X18955000Y-6887500D01*
X18955000Y-8857500D02*
X18985000Y-8887500D01*
X18985000Y-8857500D02*
X18955000Y-8887500D01*
X18955000Y-8957500D02*
X18985000Y-8987500D01*
X18985000Y-8957500D02*
X18955000Y-8987500D01*
X18955000Y-9132500D02*
X18985000Y-9162500D01*
X18985000Y-9132500D02*
X18955000Y-9162500D01*
X18955000Y-9232500D02*
X18985000Y-9262500D01*
X18985000Y-9232500D02*
X18955000Y-9262500D01*
X18955000Y-9407500D02*
X18985000Y-9437500D01*
X18985000Y-9407500D02*
X18955000Y-9437500D01*
X18955000Y-9507500D02*
X18985000Y-9537500D01*
X18985000Y-9507500D02*
X18955000Y-9537500D01*
X18960000Y-5022500D02*
X18990000Y-5052500D01*
X18990000Y-5022500D02*
X18960000Y-5052500D01*
X18960000Y-10652500D02*
X18990000Y-10682500D01*
X18990000Y-10652500D02*
X18960000Y-10682500D01*
X18980000Y-6422500D02*
X19010000Y-6452500D01*
X19010000Y-6422500D02*
X18980000Y-6452500D01*
X18980000Y-10062500D02*
X19010000Y-10092500D01*
X19010000Y-10062500D02*
X18980000Y-10092500D01*
X19000000Y-6682500D02*
X19030000Y-6712500D01*
X19030000Y-6682500D02*
X19000000Y-6712500D01*
X19000000Y-8262500D02*
X19030000Y-8292500D01*
X19030000Y-8262500D02*
X19000000Y-8292500D01*
X19020000Y-8452500D02*
X19050000Y-8482500D01*
X19050000Y-8452500D02*
X19020000Y-8482500D01*
X19020000Y-9832500D02*
X19050000Y-9862500D01*
X19050000Y-9832500D02*
X19020000Y-9862500D01*
X19030000Y-5022500D02*
X19060000Y-5052500D01*
X19060000Y-5022500D02*
X19030000Y-5052500D01*
X19030000Y-6752500D02*
X19060000Y-6782500D01*
X19060000Y-6752500D02*
X19030000Y-6782500D01*
X19045000Y-8727500D02*
X19075000Y-8757500D01*
X19075000Y-8727500D02*
X19045000Y-8757500D01*
X19050000Y-10542500D02*
X19080000Y-10572500D01*
X19080000Y-10542500D02*
X19050000Y-10572500D01*
X19050000Y-10622500D02*
X19080000Y-10652500D01*
X19080000Y-10622500D02*
X19050000Y-10652500D01*
X19055000Y-5657500D02*
X19085000Y-5687500D01*
X19085000Y-5657500D02*
X19055000Y-5687500D01*
X19055000Y-5757500D02*
X19085000Y-5787500D01*
X19085000Y-5757500D02*
X19055000Y-5787500D01*
X19055000Y-5932500D02*
X19085000Y-5962500D01*
X19085000Y-5932500D02*
X19055000Y-5962500D01*
X19055000Y-6032500D02*
X19085000Y-6062500D01*
X19085000Y-6032500D02*
X19055000Y-6062500D01*
X19055000Y-6207500D02*
X19085000Y-6237500D01*
X19085000Y-6207500D02*
X19055000Y-6237500D01*
X19055000Y-6307500D02*
X19085000Y-6337500D01*
X19085000Y-6307500D02*
X19055000Y-6337500D01*
X19055000Y-8857500D02*
X19085000Y-8887500D01*
X19085000Y-8857500D02*
X19055000Y-8887500D01*
X19055000Y-8957500D02*
X19085000Y-8987500D01*
X19085000Y-8957500D02*
X19055000Y-8987500D01*
X19055000Y-9132500D02*
X19085000Y-9162500D01*
X19085000Y-9132500D02*
X19055000Y-9162500D01*
X19055000Y-9232500D02*
X19085000Y-9262500D01*
X19085000Y-9232500D02*
X19055000Y-9262500D01*
X19055000Y-9407500D02*
X19085000Y-9437500D01*
X19085000Y-9407500D02*
X19055000Y-9437500D01*
X19055000Y-9507500D02*
X19085000Y-9537500D01*
X19085000Y-9507500D02*
X19055000Y-9537500D01*
X19060000Y-5132500D02*
X19090000Y-5162500D01*
X19090000Y-5132500D02*
X19060000Y-5162500D01*
X19060000Y-5202500D02*
X19090000Y-5232500D01*
X19090000Y-5202500D02*
X19060000Y-5232500D01*
X19060000Y-10312500D02*
X19090000Y-10342500D01*
X19090000Y-10312500D02*
X19060000Y-10342500D01*
X19060000Y-10402500D02*
X19090000Y-10432500D01*
X19090000Y-10402500D02*
X19060000Y-10432500D01*
X19070000Y-5502500D02*
X19100000Y-5532500D01*
X19100000Y-5502500D02*
X19070000Y-5532500D01*
X19090000Y-4512500D02*
X19120000Y-4542500D01*
X19120000Y-4512500D02*
X19090000Y-4542500D01*
X19090000Y-8262500D02*
X19120000Y-8292500D01*
X19120000Y-8262500D02*
X19090000Y-8292500D01*
X19100000Y-5022500D02*
X19130000Y-5052500D01*
X19130000Y-5022500D02*
X19100000Y-5052500D01*
X19110000Y-5302500D02*
X19140000Y-5332500D01*
X19140000Y-5302500D02*
X19110000Y-5332500D01*
X19130000Y-9822500D02*
X19160000Y-9852500D01*
X19160000Y-9822500D02*
X19130000Y-9852500D01*
X19140000Y-6422500D02*
X19170000Y-6452500D01*
X19170000Y-6422500D02*
X19140000Y-6452500D01*
X19140000Y-8727500D02*
X19170000Y-8757500D01*
X19170000Y-8727500D02*
X19140000Y-8757500D01*
X19150000Y-6862500D02*
X19180000Y-6892500D01*
X19180000Y-6862500D02*
X19150000Y-6892500D01*
X19156000Y-4767500D02*
X19186000Y-4797500D01*
X19186000Y-4767500D02*
X19156000Y-4797500D01*
X19160000Y-6682500D02*
X19190000Y-6712500D01*
X19190000Y-6682500D02*
X19160000Y-6712500D01*
X19170000Y-4932500D02*
X19200000Y-4962500D01*
X19200000Y-4932500D02*
X19170000Y-4962500D01*
X19170000Y-4992500D02*
X19200000Y-5022500D01*
X19200000Y-4992500D02*
X19170000Y-5022500D01*
X19178925Y-4834809D02*
X19208925Y-4864809D01*
X19208925Y-4834809D02*
X19178925Y-4864809D01*
X19180000Y-10652500D02*
X19210000Y-10682500D01*
X19210000Y-10652500D02*
X19180000Y-10682500D01*
X19190000Y-9822500D02*
X19220000Y-9852500D01*
X19220000Y-9822500D02*
X19190000Y-9852500D01*
X19230000Y-4512500D02*
X19260000Y-4542500D01*
X19260000Y-4512500D02*
X19230000Y-4542500D01*
X19230000Y-5657500D02*
X19260000Y-5687500D01*
X19260000Y-5657500D02*
X19230000Y-5687500D01*
X19230000Y-5757500D02*
X19260000Y-5787500D01*
X19260000Y-5757500D02*
X19230000Y-5787500D01*
X19230000Y-5932500D02*
X19260000Y-5962500D01*
X19260000Y-5932500D02*
X19230000Y-5962500D01*
X19230000Y-6032500D02*
X19260000Y-6062500D01*
X19260000Y-6032500D02*
X19230000Y-6062500D01*
X19230000Y-6207500D02*
X19260000Y-6237500D01*
X19260000Y-6207500D02*
X19230000Y-6237500D01*
X19230000Y-6307500D02*
X19260000Y-6337500D01*
X19260000Y-6307500D02*
X19230000Y-6337500D01*
X19230000Y-6722500D02*
X19260000Y-6752500D01*
X19260000Y-6722500D02*
X19230000Y-6752500D01*
X19230000Y-8857500D02*
X19260000Y-8887500D01*
X19260000Y-8857500D02*
X19230000Y-8887500D01*
X19230000Y-8957500D02*
X19260000Y-8987500D01*
X19260000Y-8957500D02*
X19230000Y-8987500D01*
X19230000Y-9132500D02*
X19260000Y-9162500D01*
X19260000Y-9132500D02*
X19230000Y-9162500D01*
X19230000Y-9232500D02*
X19260000Y-9262500D01*
X19260000Y-9232500D02*
X19230000Y-9262500D01*
X19230000Y-9407500D02*
X19260000Y-9437500D01*
X19260000Y-9407500D02*
X19230000Y-9437500D01*
X19230000Y-9507500D02*
X19260000Y-9537500D01*
X19260000Y-9507500D02*
X19230000Y-9537500D01*
X19230000Y-10382500D02*
X19260000Y-10412500D01*
X19260000Y-10382500D02*
X19230000Y-10412500D01*
X19230065Y-10481000D02*
X19260065Y-10511000D01*
X19260065Y-10481000D02*
X19230065Y-10511000D01*
X19240000Y-8442500D02*
X19270000Y-8472500D01*
X19270000Y-8442500D02*
X19240000Y-8472500D01*
X19320000Y-6722500D02*
X19350000Y-6752500D01*
X19350000Y-6722500D02*
X19320000Y-6752500D01*
X19329935Y-4684000D02*
X19359935Y-4714000D01*
X19359935Y-4684000D02*
X19329935Y-4714000D01*
X19330000Y-4782500D02*
X19360000Y-4812500D01*
X19360000Y-4782500D02*
X19330000Y-4812500D01*
X19330000Y-5657500D02*
X19360000Y-5687500D01*
X19360000Y-5657500D02*
X19330000Y-5687500D01*
X19330000Y-5757500D02*
X19360000Y-5787500D01*
X19360000Y-5757500D02*
X19330000Y-5787500D01*
X19330000Y-5932500D02*
X19360000Y-5962500D01*
X19360000Y-5932500D02*
X19330000Y-5962500D01*
X19330000Y-6032500D02*
X19360000Y-6062500D01*
X19360000Y-6032500D02*
X19330000Y-6062500D01*
X19330000Y-6207500D02*
X19360000Y-6237500D01*
X19360000Y-6207500D02*
X19330000Y-6237500D01*
X19330000Y-6307500D02*
X19360000Y-6337500D01*
X19360000Y-6307500D02*
X19330000Y-6337500D01*
X19330000Y-8442500D02*
X19360000Y-8472500D01*
X19360000Y-8442500D02*
X19330000Y-8472500D01*
X19330000Y-8857500D02*
X19360000Y-8887500D01*
X19360000Y-8857500D02*
X19330000Y-8887500D01*
X19330000Y-8957500D02*
X19360000Y-8987500D01*
X19360000Y-8957500D02*
X19330000Y-8987500D01*
X19330000Y-9132500D02*
X19360000Y-9162500D01*
X19360000Y-9132500D02*
X19330000Y-9162500D01*
X19330000Y-9232500D02*
X19360000Y-9262500D01*
X19360000Y-9232500D02*
X19330000Y-9262500D01*
X19330000Y-9407500D02*
X19360000Y-9437500D01*
X19360000Y-9407500D02*
X19330000Y-9437500D01*
X19330000Y-9507500D02*
X19360000Y-9537500D01*
X19360000Y-9507500D02*
X19330000Y-9537500D01*
X19330000Y-10652500D02*
X19360000Y-10682500D01*
X19360000Y-10652500D02*
X19330000Y-10682500D01*
X19370000Y-5342500D02*
X19400000Y-5372500D01*
X19400000Y-5342500D02*
X19370000Y-5372500D01*
X19380000Y-4512500D02*
X19410000Y-4542500D01*
X19410000Y-4512500D02*
X19380000Y-4542500D01*
X19381075Y-10330191D02*
X19411075Y-10360191D01*
X19411075Y-10330191D02*
X19381075Y-10360191D01*
X19390000Y-10172500D02*
X19420000Y-10202500D01*
X19420000Y-10172500D02*
X19390000Y-10202500D01*
X19390000Y-10232500D02*
X19420000Y-10262500D01*
X19420000Y-10232500D02*
X19390000Y-10262500D01*
X19400000Y-8482500D02*
X19430000Y-8512500D01*
X19430000Y-8482500D02*
X19400000Y-8512500D01*
X19404000Y-10397500D02*
X19434000Y-10427500D01*
X19434000Y-10397500D02*
X19404000Y-10427500D01*
X19410000Y-8302500D02*
X19440000Y-8332500D01*
X19440000Y-8302500D02*
X19410000Y-8332500D01*
X19420000Y-6437500D02*
X19450000Y-6467500D01*
X19450000Y-6437500D02*
X19420000Y-6467500D01*
X19420000Y-8742500D02*
X19450000Y-8772500D01*
X19450000Y-8742500D02*
X19420000Y-8772500D01*
X19430000Y-5342500D02*
X19460000Y-5372500D01*
X19460000Y-5342500D02*
X19430000Y-5372500D01*
X19450000Y-9862500D02*
X19480000Y-9892500D01*
X19480000Y-9862500D02*
X19450000Y-9892500D01*
X19460000Y-10142500D02*
X19490000Y-10172500D01*
X19490000Y-10142500D02*
X19460000Y-10172500D01*
X19470000Y-6902500D02*
X19500000Y-6932500D01*
X19500000Y-6902500D02*
X19470000Y-6932500D01*
X19470000Y-10652500D02*
X19500000Y-10682500D01*
X19500000Y-10652500D02*
X19470000Y-10682500D01*
X19490000Y-9662500D02*
X19520000Y-9692500D01*
X19520000Y-9662500D02*
X19490000Y-9692500D01*
X19500000Y-4762500D02*
X19530000Y-4792500D01*
X19530000Y-4762500D02*
X19500000Y-4792500D01*
X19500000Y-4852500D02*
X19530000Y-4882500D01*
X19530000Y-4852500D02*
X19500000Y-4882500D01*
X19500000Y-9962500D02*
X19530000Y-9992500D01*
X19530000Y-9962500D02*
X19500000Y-9992500D01*
X19500000Y-10032500D02*
X19530000Y-10062500D01*
X19530000Y-10032500D02*
X19500000Y-10062500D01*
X19505000Y-5657500D02*
X19535000Y-5687500D01*
X19535000Y-5657500D02*
X19505000Y-5687500D01*
X19505000Y-5757500D02*
X19535000Y-5787500D01*
X19535000Y-5757500D02*
X19505000Y-5787500D01*
X19505000Y-5932500D02*
X19535000Y-5962500D01*
X19535000Y-5932500D02*
X19505000Y-5962500D01*
X19505000Y-6032500D02*
X19535000Y-6062500D01*
X19535000Y-6032500D02*
X19505000Y-6062500D01*
X19505000Y-6207500D02*
X19535000Y-6237500D01*
X19535000Y-6207500D02*
X19505000Y-6237500D01*
X19505000Y-6307500D02*
X19535000Y-6337500D01*
X19535000Y-6307500D02*
X19505000Y-6337500D01*
X19505000Y-8857500D02*
X19535000Y-8887500D01*
X19535000Y-8857500D02*
X19505000Y-8887500D01*
X19505000Y-8957500D02*
X19535000Y-8987500D01*
X19535000Y-8957500D02*
X19505000Y-8987500D01*
X19505000Y-9132500D02*
X19535000Y-9162500D01*
X19535000Y-9132500D02*
X19505000Y-9162500D01*
X19505000Y-9232500D02*
X19535000Y-9262500D01*
X19535000Y-9232500D02*
X19505000Y-9262500D01*
X19505000Y-9407500D02*
X19535000Y-9437500D01*
X19535000Y-9407500D02*
X19505000Y-9437500D01*
X19505000Y-9507500D02*
X19535000Y-9537500D01*
X19535000Y-9507500D02*
X19505000Y-9537500D01*
X19510000Y-4542500D02*
X19540000Y-4572500D01*
X19540000Y-4542500D02*
X19510000Y-4572500D01*
X19510000Y-4622500D02*
X19540000Y-4652500D01*
X19540000Y-4622500D02*
X19510000Y-4652500D01*
X19515000Y-6437500D02*
X19545000Y-6467500D01*
X19545000Y-6437500D02*
X19515000Y-6467500D01*
X19530000Y-8412500D02*
X19560000Y-8442500D01*
X19560000Y-8412500D02*
X19530000Y-8442500D01*
X19530000Y-10142500D02*
X19560000Y-10172500D01*
X19560000Y-10142500D02*
X19530000Y-10172500D01*
X19540000Y-5332500D02*
X19570000Y-5362500D01*
X19570000Y-5332500D02*
X19540000Y-5362500D01*
X19540000Y-6712500D02*
X19570000Y-6742500D01*
X19570000Y-6712500D02*
X19540000Y-6742500D01*
X19560000Y-6902500D02*
X19590000Y-6932500D01*
X19590000Y-6902500D02*
X19560000Y-6932500D01*
X19560000Y-8482500D02*
X19590000Y-8512500D01*
X19590000Y-8482500D02*
X19560000Y-8512500D01*
X19580000Y-5102500D02*
X19610000Y-5132500D01*
X19610000Y-5102500D02*
X19580000Y-5132500D01*
X19580000Y-8742500D02*
X19610000Y-8772500D01*
X19610000Y-8742500D02*
X19580000Y-8772500D01*
X19600000Y-4512500D02*
X19630000Y-4542500D01*
X19630000Y-4512500D02*
X19600000Y-4542500D01*
X19600000Y-10142500D02*
X19630000Y-10172500D01*
X19630000Y-10142500D02*
X19600000Y-10172500D01*
X19605000Y-5657500D02*
X19635000Y-5687500D01*
X19635000Y-5657500D02*
X19605000Y-5687500D01*
X19605000Y-5757500D02*
X19635000Y-5787500D01*
X19635000Y-5757500D02*
X19605000Y-5787500D01*
X19605000Y-5932500D02*
X19635000Y-5962500D01*
X19635000Y-5932500D02*
X19605000Y-5962500D01*
X19605000Y-6032500D02*
X19635000Y-6062500D01*
X19635000Y-6032500D02*
X19605000Y-6062500D01*
X19605000Y-6207500D02*
X19635000Y-6237500D01*
X19635000Y-6207500D02*
X19605000Y-6237500D01*
X19605000Y-6307500D02*
X19635000Y-6337500D01*
X19635000Y-6307500D02*
X19605000Y-6337500D01*
X19605000Y-8307500D02*
X19635000Y-8337500D01*
X19635000Y-8307500D02*
X19605000Y-8337500D01*
X19605000Y-8857500D02*
X19635000Y-8887500D01*
X19635000Y-8857500D02*
X19605000Y-8887500D01*
X19605000Y-8957500D02*
X19635000Y-8987500D01*
X19635000Y-8957500D02*
X19605000Y-8987500D01*
X19605000Y-9132500D02*
X19635000Y-9162500D01*
X19635000Y-9132500D02*
X19605000Y-9162500D01*
X19605000Y-9232500D02*
X19635000Y-9262500D01*
X19635000Y-9232500D02*
X19605000Y-9262500D01*
X19605000Y-9407500D02*
X19635000Y-9437500D01*
X19635000Y-9407500D02*
X19605000Y-9437500D01*
X19605000Y-9507500D02*
X19635000Y-9537500D01*
X19635000Y-9507500D02*
X19605000Y-9537500D01*
X19610000Y-5342500D02*
X19640000Y-5372500D01*
X19640000Y-5342500D02*
X19610000Y-5372500D01*
X19630000Y-5192500D02*
X19660000Y-5222500D01*
X19660000Y-5192500D02*
X19630000Y-5222500D01*
X19630000Y-6712500D02*
X19660000Y-6742500D01*
X19660000Y-6712500D02*
X19630000Y-6742500D01*
X19640000Y-10652500D02*
X19670000Y-10682500D01*
X19670000Y-10652500D02*
X19640000Y-10682500D01*
X19650000Y-6902500D02*
X19680000Y-6932500D01*
X19680000Y-6902500D02*
X19650000Y-6932500D01*
X19670000Y-4512500D02*
X19700000Y-4542500D01*
X19700000Y-4512500D02*
X19670000Y-4542500D01*
X19690000Y-10502500D02*
X19720000Y-10532500D01*
X19720000Y-10502500D02*
X19690000Y-10532500D01*
X19710000Y-10072500D02*
X19740000Y-10102500D01*
X19740000Y-10072500D02*
X19710000Y-10102500D01*
X19720000Y-4732500D02*
X19750000Y-4762500D01*
X19750000Y-4732500D02*
X19720000Y-4762500D01*
X19720000Y-6712500D02*
X19750000Y-6742500D01*
X19750000Y-6712500D02*
X19720000Y-6742500D01*
X19729389Y-6368737D02*
X19759389Y-6398737D01*
X19759389Y-6368737D02*
X19729389Y-6398737D01*
X19740000Y-4512500D02*
X19770000Y-4542500D01*
X19770000Y-4512500D02*
X19740000Y-4542500D01*
X19740000Y-5202500D02*
X19770000Y-5232500D01*
X19770000Y-5202500D02*
X19740000Y-5232500D01*
X19740000Y-6162500D02*
X19770000Y-6192500D01*
X19770000Y-6162500D02*
X19740000Y-6192500D01*
X19740000Y-6902500D02*
X19770000Y-6932500D01*
X19770000Y-6902500D02*
X19740000Y-6932500D01*
X19745000Y-5987500D02*
X19775000Y-6017500D01*
X19775000Y-5987500D02*
X19745000Y-6017500D01*
X19760000Y-8322500D02*
X19790000Y-8352500D01*
X19790000Y-8322500D02*
X19760000Y-8352500D01*
X19760000Y-10502500D02*
X19790000Y-10532500D01*
X19790000Y-10502500D02*
X19760000Y-10532500D01*
X19780000Y-10032500D02*
X19810000Y-10062500D01*
X19810000Y-10032500D02*
X19780000Y-10062500D01*
X19790000Y-9862500D02*
X19820000Y-9892500D01*
X19820000Y-9862500D02*
X19790000Y-9892500D01*
X19800000Y-6542500D02*
X19830000Y-6572500D01*
X19830000Y-6542500D02*
X19800000Y-6572500D01*
X19830000Y-6902500D02*
X19860000Y-6932500D01*
X19860000Y-6902500D02*
X19830000Y-6932500D01*
X19830000Y-8322500D02*
X19860000Y-8352500D01*
X19860000Y-8322500D02*
X19830000Y-8352500D01*
X19830000Y-8632500D02*
X19860000Y-8662500D01*
X19860000Y-8632500D02*
X19830000Y-8662500D01*
X19830000Y-10602500D02*
X19860000Y-10632500D01*
X19860000Y-10602500D02*
X19830000Y-10632500D01*
X19840000Y-4842500D02*
X19870000Y-4872500D01*
X19870000Y-4842500D02*
X19840000Y-4872500D01*
X19840000Y-5432500D02*
X19870000Y-5462500D01*
X19870000Y-5432500D02*
X19840000Y-5462500D01*
X19860000Y-10342500D02*
X19890000Y-10372500D01*
X19890000Y-10342500D02*
X19860000Y-10372500D01*
X19860000Y-10493347D02*
X19890000Y-10523347D01*
X19890000Y-10493347D02*
X19860000Y-10523347D01*
X19880000Y-6972500D02*
X19910000Y-7002500D01*
X19910000Y-6972500D02*
X19880000Y-7002500D01*
X19900000Y-6682500D02*
X19930000Y-6712500D01*
X19930000Y-6682500D02*
X19900000Y-6712500D01*
X19908258Y-10157500D02*
X19938258Y-10187500D01*
X19938258Y-10157500D02*
X19908258Y-10187500D01*
X19920000Y-4722500D02*
X19950000Y-4752500D01*
X19950000Y-4722500D02*
X19920000Y-4752500D01*
X19920000Y-4802500D02*
X19950000Y-4832500D01*
X19950000Y-4802500D02*
X19920000Y-4832500D01*
X19920000Y-6132500D02*
X19950000Y-6162500D01*
X19950000Y-6132500D02*
X19920000Y-6162500D01*
X19920000Y-6192500D02*
X19950000Y-6222500D01*
X19950000Y-6192500D02*
X19920000Y-6222500D01*
X19922350Y-6072500D02*
X19952350Y-6102500D01*
X19952350Y-6072500D02*
X19922350Y-6102500D01*
X19930000Y-4512500D02*
X19960000Y-4542500D01*
X19960000Y-4512500D02*
X19930000Y-4542500D01*
X19930000Y-9572500D02*
X19960000Y-9602500D01*
X19960000Y-9572500D02*
X19930000Y-9602500D01*
X19930000Y-9632500D02*
X19960000Y-9662500D01*
X19960000Y-9632500D02*
X19930000Y-9662500D01*
X19935000Y-5532500D02*
X19965000Y-5562500D01*
X19965000Y-5532500D02*
X19935000Y-5562500D01*
X19935000Y-5592500D02*
X19965000Y-5622500D01*
X19965000Y-5592500D02*
X19935000Y-5622500D01*
X19940000Y-5877500D02*
X19970000Y-5907500D01*
X19970000Y-5877500D02*
X19940000Y-5907500D01*
X19940000Y-9902500D02*
X19970000Y-9932500D01*
X19970000Y-9902500D02*
X19940000Y-9932500D01*
X19940000Y-9962500D02*
X19970000Y-9992500D01*
X19970000Y-9962500D02*
X19940000Y-9992500D01*
X19955000Y-8632500D02*
X19985000Y-8662500D01*
X19985000Y-8632500D02*
X19955000Y-8662500D01*
X19955000Y-10502500D02*
X19985000Y-10532500D01*
X19985000Y-10502500D02*
X19955000Y-10532500D01*
X19960000Y-6982500D02*
X19990000Y-7012500D01*
X19990000Y-6982500D02*
X19960000Y-7012500D01*
X19970000Y-6622500D02*
X20000000Y-6652500D01*
X20000000Y-6622500D02*
X19970000Y-6652500D01*
X19970000Y-8972500D02*
X20000000Y-9002500D01*
X20000000Y-8972500D02*
X19970000Y-9002500D01*
X19970000Y-9702500D02*
X20000000Y-9732500D01*
X20000000Y-9702500D02*
X19970000Y-9732500D01*
X19970000Y-9822500D02*
X20000000Y-9852500D01*
X20000000Y-9822500D02*
X19970000Y-9852500D01*
X19975267Y-10653095D02*
X20005267Y-10683095D01*
X20005267Y-10653095D02*
X19975267Y-10683095D01*
X20000000Y-4722500D02*
X20030000Y-4752500D01*
X20030000Y-4722500D02*
X20000000Y-4752500D01*
X20000000Y-4802500D02*
X20030000Y-4832500D01*
X20030000Y-4802500D02*
X20000000Y-4832500D01*
X20000000Y-5802500D02*
X20030000Y-5832500D01*
X20030000Y-5802500D02*
X20000000Y-5832500D01*
X20017838Y-10492702D02*
X20047838Y-10522702D01*
X20047838Y-10492702D02*
X20017838Y-10522702D01*
X20020000Y-4632500D02*
X20050000Y-4662500D01*
X20050000Y-4632500D02*
X20020000Y-4662500D01*
X20030000Y-9407500D02*
X20060000Y-9437500D01*
X20060000Y-9407500D02*
X20030000Y-9437500D01*
X20040000Y-4522500D02*
X20070000Y-4552500D01*
X20070000Y-4522500D02*
X20040000Y-4552500D01*
X20070000Y-4882500D02*
X20100000Y-4912500D01*
X20100000Y-4882500D02*
X20070000Y-4912500D01*
X20080000Y-9457500D02*
X20110000Y-9487500D01*
X20110000Y-9457500D02*
X20080000Y-9487500D01*
X20090000Y-5902500D02*
X20120000Y-5932500D01*
X20120000Y-5902500D02*
X20090000Y-5932500D01*
X20150000Y-8682500D02*
X20180000Y-8712500D01*
X20180000Y-8682500D02*
X20150000Y-8712500D01*
X20150000Y-8782500D02*
X20180000Y-8812500D01*
X20180000Y-8782500D02*
X20150000Y-8812500D01*
X20165000Y-5657500D02*
X20195000Y-5687500D01*
X20195000Y-5657500D02*
X20165000Y-5687500D01*
X20170000Y-8902500D02*
X20200000Y-8932500D01*
X20200000Y-8902500D02*
X20170000Y-8932500D01*
X20180000Y-4882500D02*
X20210000Y-4912500D01*
X20210000Y-4882500D02*
X20180000Y-4912500D01*
X20180000Y-9557500D02*
X20210000Y-9587500D01*
X20210000Y-9557500D02*
X20180000Y-9587500D01*
X20184616Y-8978183D02*
X20214616Y-9008183D01*
X20214616Y-8978183D02*
X20184616Y-9008183D01*
X20184616Y-9344766D02*
X20214616Y-9374766D01*
X20214616Y-9344766D02*
X20184616Y-9374766D01*
X20185046Y-9476348D02*
X20215046Y-9506348D01*
X20215046Y-9476348D02*
X20185046Y-9506348D01*
X20210000Y-5707500D02*
X20240000Y-5737500D01*
X20240000Y-5707500D02*
X20210000Y-5737500D01*
X20220000Y-8682500D02*
X20250000Y-8712500D01*
X20250000Y-8682500D02*
X20220000Y-8712500D01*
X20220000Y-8782500D02*
X20250000Y-8812500D01*
X20250000Y-8782500D02*
X20220000Y-8812500D01*
X20230000Y-8432500D02*
X20260000Y-8462500D01*
X20260000Y-8432500D02*
X20230000Y-8462500D01*
X20250000Y-10632500D02*
X20280000Y-10662500D01*
X20280000Y-10632500D02*
X20250000Y-10662500D01*
X20280000Y-4882500D02*
X20310000Y-4912500D01*
X20310000Y-4882500D02*
X20280000Y-4912500D01*
X20285000Y-4567500D02*
X20315000Y-4597500D01*
X20315000Y-4567500D02*
X20285000Y-4597500D01*
X20290000Y-6622500D02*
X20320000Y-6652500D01*
X20320000Y-6622500D02*
X20290000Y-6652500D01*
X20290000Y-6982500D02*
X20320000Y-7012500D01*
X20320000Y-6982500D02*
X20290000Y-7012500D01*
X20300000Y-6499500D02*
X20330000Y-6529500D01*
X20330000Y-6499500D02*
X20300000Y-6529500D01*
X20307000Y-5906500D02*
X20337000Y-5936500D01*
X20337000Y-5906500D02*
X20307000Y-5936500D01*
X20310000Y-5712500D02*
X20340000Y-5742500D01*
X20340000Y-5712500D02*
X20310000Y-5742500D01*
X20310000Y-10582500D02*
X20340000Y-10612500D01*
X20340000Y-10582500D02*
X20310000Y-10612500D01*
X20325000Y-5260500D02*
X20355000Y-5290500D01*
X20355000Y-5260500D02*
X20325000Y-5290500D01*
D13*
X13951510Y-8912500D02*
G75*
G03*
X13951510Y-8912500I-16510J0D01*
G01*
X13951510Y-9077500D02*
G75*
G03*
X13951510Y-9077500I-16510J0D01*
G01*
X15871510Y-6117500D02*
G75*
G03*
X15871510Y-6117500I-16510J0D01*
G01*
X15871510Y-6282500D02*
G75*
G03*
X15871510Y-6282500I-16510J0D01*
G01*
X16151510Y-8912500D02*
G75*
G03*
X16151510Y-8912500I-16510J0D01*
G01*
X16151510Y-9077500D02*
G75*
G03*
X16151510Y-9077500I-16510J0D01*
G01*
X18071510Y-6117500D02*
G75*
G03*
X18071510Y-6117500I-16510J0D01*
G01*
X18071510Y-6282500D02*
G75*
G03*
X18071510Y-6282500I-16510J0D01*
G01*
X18351510Y-8912500D02*
G75*
G03*
X18351510Y-8912500I-16510J0D01*
G01*
X18351510Y-9077500D02*
G75*
G03*
X18351510Y-9077500I-16510J0D01*
G01*
X20271510Y-6117500D02*
G75*
G03*
X20271510Y-6117500I-16510J0D01*
G01*
X20271510Y-6282500D02*
G75*
G03*
X20271510Y-6282500I-16510J0D01*
G01*
D14*
X14895000Y-6987500D02*
X14895000Y-7207500D01*
X14785000Y-7097500D02*
X15005000Y-7097500D01*
X14895000Y-7987500D02*
X14895000Y-8207500D01*
X14785000Y-8097500D02*
X15005000Y-8097500D01*
X17095000Y-6987500D02*
X17095000Y-7207500D01*
X16985000Y-7097500D02*
X17205000Y-7097500D01*
X17095000Y-7987500D02*
X17095000Y-8207500D01*
X16985000Y-8097500D02*
X17205000Y-8097500D01*
X19295000Y-6987500D02*
X19295000Y-7207500D01*
X19185000Y-7097500D02*
X19405000Y-7097500D01*
X19295000Y-7987500D02*
X19295000Y-8207500D01*
X19185000Y-8097500D02*
X19405000Y-8097500D01*
D11*
X13537619Y-11395976D02*
X13537619Y-11195976D01*
X13537619Y-11195976D02*
X13585238Y-11195976D01*
X13585238Y-11195976D02*
X13613809Y-11205500D01*
X13613809Y-11205500D02*
X13632857Y-11224548D01*
X13632857Y-11224548D02*
X13642381Y-11243595D01*
X13642381Y-11243595D02*
X13651905Y-11281690D01*
X13651905Y-11281690D02*
X13651905Y-11310262D01*
X13651905Y-11310262D02*
X13642381Y-11348357D01*
X13642381Y-11348357D02*
X13632857Y-11367405D01*
X13632857Y-11367405D02*
X13613809Y-11386452D01*
X13613809Y-11386452D02*
X13585238Y-11395976D01*
X13585238Y-11395976D02*
X13537619Y-11395976D01*
X13737619Y-11395976D02*
X13737619Y-11262643D01*
X13737619Y-11300738D02*
X13747143Y-11281690D01*
X13747143Y-11281690D02*
X13756667Y-11272167D01*
X13756667Y-11272167D02*
X13775714Y-11262643D01*
X13775714Y-11262643D02*
X13794762Y-11262643D01*
X13861428Y-11395976D02*
X13861428Y-11262643D01*
X13861428Y-11195976D02*
X13851905Y-11205500D01*
X13851905Y-11205500D02*
X13861428Y-11215024D01*
X13861428Y-11215024D02*
X13870952Y-11205500D01*
X13870952Y-11205500D02*
X13861428Y-11195976D01*
X13861428Y-11195976D02*
X13861428Y-11215024D01*
X13985238Y-11395976D02*
X13966190Y-11386452D01*
X13966190Y-11386452D02*
X13956667Y-11367405D01*
X13956667Y-11367405D02*
X13956667Y-11195976D01*
X14090000Y-11395976D02*
X14070952Y-11386452D01*
X14070952Y-11386452D02*
X14061428Y-11367405D01*
X14061428Y-11367405D02*
X14061428Y-11195976D01*
X14286190Y-11395976D02*
X14286190Y-11195976D01*
X14286190Y-11195976D02*
X14352857Y-11338833D01*
X14352857Y-11338833D02*
X14419524Y-11195976D01*
X14419524Y-11195976D02*
X14419524Y-11395976D01*
X14600476Y-11395976D02*
X14600476Y-11291214D01*
X14600476Y-11291214D02*
X14590952Y-11272167D01*
X14590952Y-11272167D02*
X14571905Y-11262643D01*
X14571905Y-11262643D02*
X14533809Y-11262643D01*
X14533809Y-11262643D02*
X14514762Y-11272167D01*
X14600476Y-11386452D02*
X14581428Y-11395976D01*
X14581428Y-11395976D02*
X14533809Y-11395976D01*
X14533809Y-11395976D02*
X14514762Y-11386452D01*
X14514762Y-11386452D02*
X14505238Y-11367405D01*
X14505238Y-11367405D02*
X14505238Y-11348357D01*
X14505238Y-11348357D02*
X14514762Y-11329309D01*
X14514762Y-11329309D02*
X14533809Y-11319786D01*
X14533809Y-11319786D02*
X14581428Y-11319786D01*
X14581428Y-11319786D02*
X14600476Y-11310262D01*
X14695714Y-11262643D02*
X14695714Y-11462643D01*
X14695714Y-11272167D02*
X14714762Y-11262643D01*
X14714762Y-11262643D02*
X14752857Y-11262643D01*
X14752857Y-11262643D02*
X14771905Y-11272167D01*
X14771905Y-11272167D02*
X14781428Y-11281690D01*
X14781428Y-11281690D02*
X14790952Y-11300738D01*
X14790952Y-11300738D02*
X14790952Y-11357881D01*
X14790952Y-11357881D02*
X14781428Y-11376928D01*
X14781428Y-11376928D02*
X14771905Y-11386452D01*
X14771905Y-11386452D02*
X14752857Y-11395976D01*
X14752857Y-11395976D02*
X14714762Y-11395976D01*
X14714762Y-11395976D02*
X14695714Y-11386452D01*
X14876667Y-11376928D02*
X14886190Y-11386452D01*
X14886190Y-11386452D02*
X14876667Y-11395976D01*
X14876667Y-11395976D02*
X14867143Y-11386452D01*
X14867143Y-11386452D02*
X14876667Y-11376928D01*
X14876667Y-11376928D02*
X14876667Y-11395976D01*
X14876667Y-11272167D02*
X14886190Y-11281690D01*
X14886190Y-11281690D02*
X14876667Y-11291214D01*
X14876667Y-11291214D02*
X14867143Y-11281690D01*
X14867143Y-11281690D02*
X14876667Y-11272167D01*
X14876667Y-11272167D02*
X14876667Y-11291214D01*
D12*
X13260000Y-11727500D02*
X13290000Y-11757500D01*
X13290000Y-11727500D02*
X13260000Y-11757500D01*
D11*
X13575714Y-11615976D02*
X13594762Y-11615976D01*
X13594762Y-11615976D02*
X13613809Y-11625500D01*
X13613809Y-11625500D02*
X13623333Y-11635024D01*
X13623333Y-11635024D02*
X13632857Y-11654071D01*
X13632857Y-11654071D02*
X13642381Y-11692167D01*
X13642381Y-11692167D02*
X13642381Y-11739786D01*
X13642381Y-11739786D02*
X13632857Y-11777881D01*
X13632857Y-11777881D02*
X13623333Y-11796928D01*
X13623333Y-11796928D02*
X13613809Y-11806452D01*
X13613809Y-11806452D02*
X13594762Y-11815976D01*
X13594762Y-11815976D02*
X13575714Y-11815976D01*
X13575714Y-11815976D02*
X13556667Y-11806452D01*
X13556667Y-11806452D02*
X13547143Y-11796928D01*
X13547143Y-11796928D02*
X13537619Y-11777881D01*
X13537619Y-11777881D02*
X13528095Y-11739786D01*
X13528095Y-11739786D02*
X13528095Y-11692167D01*
X13528095Y-11692167D02*
X13537619Y-11654071D01*
X13537619Y-11654071D02*
X13547143Y-11635024D01*
X13547143Y-11635024D02*
X13556667Y-11625500D01*
X13556667Y-11625500D02*
X13575714Y-11615976D01*
X13728095Y-11796928D02*
X13737619Y-11806452D01*
X13737619Y-11806452D02*
X13728095Y-11815976D01*
X13728095Y-11815976D02*
X13718571Y-11806452D01*
X13718571Y-11806452D02*
X13728095Y-11796928D01*
X13728095Y-11796928D02*
X13728095Y-11815976D01*
X13804286Y-11615976D02*
X13928095Y-11615976D01*
X13928095Y-11615976D02*
X13861428Y-11692167D01*
X13861428Y-11692167D02*
X13890000Y-11692167D01*
X13890000Y-11692167D02*
X13909048Y-11701690D01*
X13909048Y-11701690D02*
X13918571Y-11711214D01*
X13918571Y-11711214D02*
X13928095Y-11730262D01*
X13928095Y-11730262D02*
X13928095Y-11777881D01*
X13928095Y-11777881D02*
X13918571Y-11796928D01*
X13918571Y-11796928D02*
X13909048Y-11806452D01*
X13909048Y-11806452D02*
X13890000Y-11815976D01*
X13890000Y-11815976D02*
X13832857Y-11815976D01*
X13832857Y-11815976D02*
X13813809Y-11806452D01*
X13813809Y-11806452D02*
X13804286Y-11796928D01*
X14051905Y-11615976D02*
X14070952Y-11615976D01*
X14070952Y-11615976D02*
X14090000Y-11625500D01*
X14090000Y-11625500D02*
X14099524Y-11635024D01*
X14099524Y-11635024D02*
X14109048Y-11654071D01*
X14109048Y-11654071D02*
X14118571Y-11692167D01*
X14118571Y-11692167D02*
X14118571Y-11739786D01*
X14118571Y-11739786D02*
X14109048Y-11777881D01*
X14109048Y-11777881D02*
X14099524Y-11796928D01*
X14099524Y-11796928D02*
X14090000Y-11806452D01*
X14090000Y-11806452D02*
X14070952Y-11815976D01*
X14070952Y-11815976D02*
X14051905Y-11815976D01*
X14051905Y-11815976D02*
X14032857Y-11806452D01*
X14032857Y-11806452D02*
X14023333Y-11796928D01*
X14023333Y-11796928D02*
X14013809Y-11777881D01*
X14013809Y-11777881D02*
X14004286Y-11739786D01*
X14004286Y-11739786D02*
X14004286Y-11692167D01*
X14004286Y-11692167D02*
X14013809Y-11654071D01*
X14013809Y-11654071D02*
X14023333Y-11635024D01*
X14023333Y-11635024D02*
X14032857Y-11625500D01*
X14032857Y-11625500D02*
X14051905Y-11615976D01*
X14242381Y-11615976D02*
X14261429Y-11615976D01*
X14261429Y-11615976D02*
X14280476Y-11625500D01*
X14280476Y-11625500D02*
X14290000Y-11635024D01*
X14290000Y-11635024D02*
X14299524Y-11654071D01*
X14299524Y-11654071D02*
X14309048Y-11692167D01*
X14309048Y-11692167D02*
X14309048Y-11739786D01*
X14309048Y-11739786D02*
X14299524Y-11777881D01*
X14299524Y-11777881D02*
X14290000Y-11796928D01*
X14290000Y-11796928D02*
X14280476Y-11806452D01*
X14280476Y-11806452D02*
X14261429Y-11815976D01*
X14261429Y-11815976D02*
X14242381Y-11815976D01*
X14242381Y-11815976D02*
X14223333Y-11806452D01*
X14223333Y-11806452D02*
X14213809Y-11796928D01*
X14213809Y-11796928D02*
X14204286Y-11777881D01*
X14204286Y-11777881D02*
X14194762Y-11739786D01*
X14194762Y-11739786D02*
X14194762Y-11692167D01*
X14194762Y-11692167D02*
X14204286Y-11654071D01*
X14204286Y-11654071D02*
X14213809Y-11635024D01*
X14213809Y-11635024D02*
X14223333Y-11625500D01*
X14223333Y-11625500D02*
X14242381Y-11615976D01*
X14394762Y-11815976D02*
X14394762Y-11682643D01*
X14394762Y-11701690D02*
X14404286Y-11692167D01*
X14404286Y-11692167D02*
X14423333Y-11682643D01*
X14423333Y-11682643D02*
X14451905Y-11682643D01*
X14451905Y-11682643D02*
X14470952Y-11692167D01*
X14470952Y-11692167D02*
X14480476Y-11711214D01*
X14480476Y-11711214D02*
X14480476Y-11815976D01*
X14480476Y-11711214D02*
X14490000Y-11692167D01*
X14490000Y-11692167D02*
X14509048Y-11682643D01*
X14509048Y-11682643D02*
X14537619Y-11682643D01*
X14537619Y-11682643D02*
X14556667Y-11692167D01*
X14556667Y-11692167D02*
X14566190Y-11711214D01*
X14566190Y-11711214D02*
X14566190Y-11815976D01*
X14661429Y-11815976D02*
X14661429Y-11682643D01*
X14661429Y-11701690D02*
X14670952Y-11692167D01*
X14670952Y-11692167D02*
X14690000Y-11682643D01*
X14690000Y-11682643D02*
X14718571Y-11682643D01*
X14718571Y-11682643D02*
X14737619Y-11692167D01*
X14737619Y-11692167D02*
X14747143Y-11711214D01*
X14747143Y-11711214D02*
X14747143Y-11815976D01*
X14747143Y-11711214D02*
X14756667Y-11692167D01*
X14756667Y-11692167D02*
X14775714Y-11682643D01*
X14775714Y-11682643D02*
X14804286Y-11682643D01*
X14804286Y-11682643D02*
X14823333Y-11692167D01*
X14823333Y-11692167D02*
X14832857Y-11711214D01*
X14832857Y-11711214D02*
X14832857Y-11815976D01*
X15190952Y-11606452D02*
X15019524Y-11863595D01*
X15415714Y-11615976D02*
X15434762Y-11615976D01*
X15434762Y-11615976D02*
X15453810Y-11625500D01*
X15453810Y-11625500D02*
X15463333Y-11635024D01*
X15463333Y-11635024D02*
X15472857Y-11654071D01*
X15472857Y-11654071D02*
X15482381Y-11692167D01*
X15482381Y-11692167D02*
X15482381Y-11739786D01*
X15482381Y-11739786D02*
X15472857Y-11777881D01*
X15472857Y-11777881D02*
X15463333Y-11796928D01*
X15463333Y-11796928D02*
X15453810Y-11806452D01*
X15453810Y-11806452D02*
X15434762Y-11815976D01*
X15434762Y-11815976D02*
X15415714Y-11815976D01*
X15415714Y-11815976D02*
X15396667Y-11806452D01*
X15396667Y-11806452D02*
X15387143Y-11796928D01*
X15387143Y-11796928D02*
X15377619Y-11777881D01*
X15377619Y-11777881D02*
X15368095Y-11739786D01*
X15368095Y-11739786D02*
X15368095Y-11692167D01*
X15368095Y-11692167D02*
X15377619Y-11654071D01*
X15377619Y-11654071D02*
X15387143Y-11635024D01*
X15387143Y-11635024D02*
X15396667Y-11625500D01*
X15396667Y-11625500D02*
X15415714Y-11615976D01*
X15568095Y-11796928D02*
X15577619Y-11806452D01*
X15577619Y-11806452D02*
X15568095Y-11815976D01*
X15568095Y-11815976D02*
X15558571Y-11806452D01*
X15558571Y-11806452D02*
X15568095Y-11796928D01*
X15568095Y-11796928D02*
X15568095Y-11815976D01*
X15701429Y-11615976D02*
X15720476Y-11615976D01*
X15720476Y-11615976D02*
X15739524Y-11625500D01*
X15739524Y-11625500D02*
X15749048Y-11635024D01*
X15749048Y-11635024D02*
X15758571Y-11654071D01*
X15758571Y-11654071D02*
X15768095Y-11692167D01*
X15768095Y-11692167D02*
X15768095Y-11739786D01*
X15768095Y-11739786D02*
X15758571Y-11777881D01*
X15758571Y-11777881D02*
X15749048Y-11796928D01*
X15749048Y-11796928D02*
X15739524Y-11806452D01*
X15739524Y-11806452D02*
X15720476Y-11815976D01*
X15720476Y-11815976D02*
X15701429Y-11815976D01*
X15701429Y-11815976D02*
X15682381Y-11806452D01*
X15682381Y-11806452D02*
X15672857Y-11796928D01*
X15672857Y-11796928D02*
X15663333Y-11777881D01*
X15663333Y-11777881D02*
X15653810Y-11739786D01*
X15653810Y-11739786D02*
X15653810Y-11692167D01*
X15653810Y-11692167D02*
X15663333Y-11654071D01*
X15663333Y-11654071D02*
X15672857Y-11635024D01*
X15672857Y-11635024D02*
X15682381Y-11625500D01*
X15682381Y-11625500D02*
X15701429Y-11615976D01*
X15958571Y-11815976D02*
X15844286Y-11815976D01*
X15901429Y-11815976D02*
X15901429Y-11615976D01*
X15901429Y-11615976D02*
X15882381Y-11644548D01*
X15882381Y-11644548D02*
X15863333Y-11663595D01*
X15863333Y-11663595D02*
X15844286Y-11673119D01*
X16149048Y-11815976D02*
X16034762Y-11815976D01*
X16091905Y-11815976D02*
X16091905Y-11615976D01*
X16091905Y-11615976D02*
X16072857Y-11644548D01*
X16072857Y-11644548D02*
X16053810Y-11663595D01*
X16053810Y-11663595D02*
X16034762Y-11673119D01*
X16263333Y-11701690D02*
X16244286Y-11692167D01*
X16244286Y-11692167D02*
X16234762Y-11682643D01*
X16234762Y-11682643D02*
X16225238Y-11663595D01*
X16225238Y-11663595D02*
X16225238Y-11654071D01*
X16225238Y-11654071D02*
X16234762Y-11635024D01*
X16234762Y-11635024D02*
X16244286Y-11625500D01*
X16244286Y-11625500D02*
X16263333Y-11615976D01*
X16263333Y-11615976D02*
X16301429Y-11615976D01*
X16301429Y-11615976D02*
X16320476Y-11625500D01*
X16320476Y-11625500D02*
X16330000Y-11635024D01*
X16330000Y-11635024D02*
X16339524Y-11654071D01*
X16339524Y-11654071D02*
X16339524Y-11663595D01*
X16339524Y-11663595D02*
X16330000Y-11682643D01*
X16330000Y-11682643D02*
X16320476Y-11692167D01*
X16320476Y-11692167D02*
X16301429Y-11701690D01*
X16301429Y-11701690D02*
X16263333Y-11701690D01*
X16263333Y-11701690D02*
X16244286Y-11711214D01*
X16244286Y-11711214D02*
X16234762Y-11720738D01*
X16234762Y-11720738D02*
X16225238Y-11739786D01*
X16225238Y-11739786D02*
X16225238Y-11777881D01*
X16225238Y-11777881D02*
X16234762Y-11796928D01*
X16234762Y-11796928D02*
X16244286Y-11806452D01*
X16244286Y-11806452D02*
X16263333Y-11815976D01*
X16263333Y-11815976D02*
X16301429Y-11815976D01*
X16301429Y-11815976D02*
X16320476Y-11806452D01*
X16320476Y-11806452D02*
X16330000Y-11796928D01*
X16330000Y-11796928D02*
X16339524Y-11777881D01*
X16339524Y-11777881D02*
X16339524Y-11739786D01*
X16339524Y-11739786D02*
X16330000Y-11720738D01*
X16330000Y-11720738D02*
X16320476Y-11711214D01*
X16320476Y-11711214D02*
X16301429Y-11701690D01*
X16415714Y-11615976D02*
X16415714Y-11654071D01*
X16491905Y-11615976D02*
X16491905Y-11654071D01*
X16754762Y-11892167D02*
X16745238Y-11882643D01*
X16745238Y-11882643D02*
X16726191Y-11854071D01*
X16726191Y-11854071D02*
X16716667Y-11835024D01*
X16716667Y-11835024D02*
X16707143Y-11806452D01*
X16707143Y-11806452D02*
X16697619Y-11758833D01*
X16697619Y-11758833D02*
X16697619Y-11720738D01*
X16697619Y-11720738D02*
X16707143Y-11673119D01*
X16707143Y-11673119D02*
X16716667Y-11644548D01*
X16716667Y-11644548D02*
X16726191Y-11625500D01*
X16726191Y-11625500D02*
X16745238Y-11596928D01*
X16745238Y-11596928D02*
X16754762Y-11587405D01*
X16840476Y-11815976D02*
X16878572Y-11815976D01*
X16878572Y-11815976D02*
X16897619Y-11806452D01*
X16897619Y-11806452D02*
X16907143Y-11796928D01*
X16907143Y-11796928D02*
X16926191Y-11768357D01*
X16926191Y-11768357D02*
X16935714Y-11730262D01*
X16935714Y-11730262D02*
X16935714Y-11654071D01*
X16935714Y-11654071D02*
X16926191Y-11635024D01*
X16926191Y-11635024D02*
X16916667Y-11625500D01*
X16916667Y-11625500D02*
X16897619Y-11615976D01*
X16897619Y-11615976D02*
X16859524Y-11615976D01*
X16859524Y-11615976D02*
X16840476Y-11625500D01*
X16840476Y-11625500D02*
X16830953Y-11635024D01*
X16830953Y-11635024D02*
X16821429Y-11654071D01*
X16821429Y-11654071D02*
X16821429Y-11701690D01*
X16821429Y-11701690D02*
X16830953Y-11720738D01*
X16830953Y-11720738D02*
X16840476Y-11730262D01*
X16840476Y-11730262D02*
X16859524Y-11739786D01*
X16859524Y-11739786D02*
X16897619Y-11739786D01*
X16897619Y-11739786D02*
X16916667Y-11730262D01*
X16916667Y-11730262D02*
X16926191Y-11720738D01*
X16926191Y-11720738D02*
X16935714Y-11701690D01*
X17107143Y-11615976D02*
X17069048Y-11615976D01*
X17069048Y-11615976D02*
X17050000Y-11625500D01*
X17050000Y-11625500D02*
X17040476Y-11635024D01*
X17040476Y-11635024D02*
X17021429Y-11663595D01*
X17021429Y-11663595D02*
X17011905Y-11701690D01*
X17011905Y-11701690D02*
X17011905Y-11777881D01*
X17011905Y-11777881D02*
X17021429Y-11796928D01*
X17021429Y-11796928D02*
X17030953Y-11806452D01*
X17030953Y-11806452D02*
X17050000Y-11815976D01*
X17050000Y-11815976D02*
X17088095Y-11815976D01*
X17088095Y-11815976D02*
X17107143Y-11806452D01*
X17107143Y-11806452D02*
X17116667Y-11796928D01*
X17116667Y-11796928D02*
X17126191Y-11777881D01*
X17126191Y-11777881D02*
X17126191Y-11730262D01*
X17126191Y-11730262D02*
X17116667Y-11711214D01*
X17116667Y-11711214D02*
X17107143Y-11701690D01*
X17107143Y-11701690D02*
X17088095Y-11692167D01*
X17088095Y-11692167D02*
X17050000Y-11692167D01*
X17050000Y-11692167D02*
X17030953Y-11701690D01*
X17030953Y-11701690D02*
X17021429Y-11711214D01*
X17021429Y-11711214D02*
X17011905Y-11730262D01*
X17297619Y-11615976D02*
X17259524Y-11615976D01*
X17259524Y-11615976D02*
X17240476Y-11625500D01*
X17240476Y-11625500D02*
X17230953Y-11635024D01*
X17230953Y-11635024D02*
X17211905Y-11663595D01*
X17211905Y-11663595D02*
X17202381Y-11701690D01*
X17202381Y-11701690D02*
X17202381Y-11777881D01*
X17202381Y-11777881D02*
X17211905Y-11796928D01*
X17211905Y-11796928D02*
X17221429Y-11806452D01*
X17221429Y-11806452D02*
X17240476Y-11815976D01*
X17240476Y-11815976D02*
X17278572Y-11815976D01*
X17278572Y-11815976D02*
X17297619Y-11806452D01*
X17297619Y-11806452D02*
X17307143Y-11796928D01*
X17307143Y-11796928D02*
X17316667Y-11777881D01*
X17316667Y-11777881D02*
X17316667Y-11730262D01*
X17316667Y-11730262D02*
X17307143Y-11711214D01*
X17307143Y-11711214D02*
X17297619Y-11701690D01*
X17297619Y-11701690D02*
X17278572Y-11692167D01*
X17278572Y-11692167D02*
X17240476Y-11692167D01*
X17240476Y-11692167D02*
X17221429Y-11701690D01*
X17221429Y-11701690D02*
X17211905Y-11711214D01*
X17211905Y-11711214D02*
X17202381Y-11730262D01*
X17522381Y-11815976D02*
X17522381Y-11615976D01*
X17608095Y-11815976D02*
X17608095Y-11711214D01*
X17608095Y-11711214D02*
X17598572Y-11692167D01*
X17598572Y-11692167D02*
X17579524Y-11682643D01*
X17579524Y-11682643D02*
X17550953Y-11682643D01*
X17550953Y-11682643D02*
X17531905Y-11692167D01*
X17531905Y-11692167D02*
X17522381Y-11701690D01*
X17731905Y-11815976D02*
X17712857Y-11806452D01*
X17712857Y-11806452D02*
X17703334Y-11796928D01*
X17703334Y-11796928D02*
X17693810Y-11777881D01*
X17693810Y-11777881D02*
X17693810Y-11720738D01*
X17693810Y-11720738D02*
X17703334Y-11701690D01*
X17703334Y-11701690D02*
X17712857Y-11692167D01*
X17712857Y-11692167D02*
X17731905Y-11682643D01*
X17731905Y-11682643D02*
X17760476Y-11682643D01*
X17760476Y-11682643D02*
X17779524Y-11692167D01*
X17779524Y-11692167D02*
X17789048Y-11701690D01*
X17789048Y-11701690D02*
X17798572Y-11720738D01*
X17798572Y-11720738D02*
X17798572Y-11777881D01*
X17798572Y-11777881D02*
X17789048Y-11796928D01*
X17789048Y-11796928D02*
X17779524Y-11806452D01*
X17779524Y-11806452D02*
X17760476Y-11815976D01*
X17760476Y-11815976D02*
X17731905Y-11815976D01*
X17912857Y-11815976D02*
X17893810Y-11806452D01*
X17893810Y-11806452D02*
X17884286Y-11787405D01*
X17884286Y-11787405D02*
X17884286Y-11615976D01*
X18065238Y-11806452D02*
X18046191Y-11815976D01*
X18046191Y-11815976D02*
X18008095Y-11815976D01*
X18008095Y-11815976D02*
X17989048Y-11806452D01*
X17989048Y-11806452D02*
X17979524Y-11787405D01*
X17979524Y-11787405D02*
X17979524Y-11711214D01*
X17979524Y-11711214D02*
X17989048Y-11692167D01*
X17989048Y-11692167D02*
X18008095Y-11682643D01*
X18008095Y-11682643D02*
X18046191Y-11682643D01*
X18046191Y-11682643D02*
X18065238Y-11692167D01*
X18065238Y-11692167D02*
X18074762Y-11711214D01*
X18074762Y-11711214D02*
X18074762Y-11730262D01*
X18074762Y-11730262D02*
X17979524Y-11749309D01*
X18150953Y-11806452D02*
X18170000Y-11815976D01*
X18170000Y-11815976D02*
X18208095Y-11815976D01*
X18208095Y-11815976D02*
X18227143Y-11806452D01*
X18227143Y-11806452D02*
X18236667Y-11787405D01*
X18236667Y-11787405D02*
X18236667Y-11777881D01*
X18236667Y-11777881D02*
X18227143Y-11758833D01*
X18227143Y-11758833D02*
X18208095Y-11749309D01*
X18208095Y-11749309D02*
X18179524Y-11749309D01*
X18179524Y-11749309D02*
X18160476Y-11739786D01*
X18160476Y-11739786D02*
X18150953Y-11720738D01*
X18150953Y-11720738D02*
X18150953Y-11711214D01*
X18150953Y-11711214D02*
X18160476Y-11692167D01*
X18160476Y-11692167D02*
X18179524Y-11682643D01*
X18179524Y-11682643D02*
X18208095Y-11682643D01*
X18208095Y-11682643D02*
X18227143Y-11692167D01*
X18303334Y-11892167D02*
X18312857Y-11882643D01*
X18312857Y-11882643D02*
X18331905Y-11854071D01*
X18331905Y-11854071D02*
X18341429Y-11835024D01*
X18341429Y-11835024D02*
X18350953Y-11806452D01*
X18350953Y-11806452D02*
X18360476Y-11758833D01*
X18360476Y-11758833D02*
X18360476Y-11720738D01*
X18360476Y-11720738D02*
X18350953Y-11673119D01*
X18350953Y-11673119D02*
X18341429Y-11644548D01*
X18341429Y-11644548D02*
X18331905Y-11625500D01*
X18331905Y-11625500D02*
X18312857Y-11596928D01*
X18312857Y-11596928D02*
X18303334Y-11587405D01*
D13*
X13290000Y-12006500D02*
G75*
G03*
X13290000Y-12006500I-16510J0D01*
G01*
D11*
X13575714Y-11879976D02*
X13594762Y-11879976D01*
X13594762Y-11879976D02*
X13613809Y-11889500D01*
X13613809Y-11889500D02*
X13623333Y-11899024D01*
X13623333Y-11899024D02*
X13632857Y-11918071D01*
X13632857Y-11918071D02*
X13642381Y-11956167D01*
X13642381Y-11956167D02*
X13642381Y-12003786D01*
X13642381Y-12003786D02*
X13632857Y-12041881D01*
X13632857Y-12041881D02*
X13623333Y-12060928D01*
X13623333Y-12060928D02*
X13613809Y-12070452D01*
X13613809Y-12070452D02*
X13594762Y-12079976D01*
X13594762Y-12079976D02*
X13575714Y-12079976D01*
X13575714Y-12079976D02*
X13556667Y-12070452D01*
X13556667Y-12070452D02*
X13547143Y-12060928D01*
X13547143Y-12060928D02*
X13537619Y-12041881D01*
X13537619Y-12041881D02*
X13528095Y-12003786D01*
X13528095Y-12003786D02*
X13528095Y-11956167D01*
X13528095Y-11956167D02*
X13537619Y-11918071D01*
X13537619Y-11918071D02*
X13547143Y-11899024D01*
X13547143Y-11899024D02*
X13556667Y-11889500D01*
X13556667Y-11889500D02*
X13575714Y-11879976D01*
X13728095Y-12060928D02*
X13737619Y-12070452D01*
X13737619Y-12070452D02*
X13728095Y-12079976D01*
X13728095Y-12079976D02*
X13718571Y-12070452D01*
X13718571Y-12070452D02*
X13728095Y-12060928D01*
X13728095Y-12060928D02*
X13728095Y-12079976D01*
X13804286Y-11879976D02*
X13928095Y-11879976D01*
X13928095Y-11879976D02*
X13861428Y-11956167D01*
X13861428Y-11956167D02*
X13890000Y-11956167D01*
X13890000Y-11956167D02*
X13909048Y-11965690D01*
X13909048Y-11965690D02*
X13918571Y-11975214D01*
X13918571Y-11975214D02*
X13928095Y-11994262D01*
X13928095Y-11994262D02*
X13928095Y-12041881D01*
X13928095Y-12041881D02*
X13918571Y-12060928D01*
X13918571Y-12060928D02*
X13909048Y-12070452D01*
X13909048Y-12070452D02*
X13890000Y-12079976D01*
X13890000Y-12079976D02*
X13832857Y-12079976D01*
X13832857Y-12079976D02*
X13813809Y-12070452D01*
X13813809Y-12070452D02*
X13804286Y-12060928D01*
X13994762Y-11879976D02*
X14118571Y-11879976D01*
X14118571Y-11879976D02*
X14051905Y-11956167D01*
X14051905Y-11956167D02*
X14080476Y-11956167D01*
X14080476Y-11956167D02*
X14099524Y-11965690D01*
X14099524Y-11965690D02*
X14109048Y-11975214D01*
X14109048Y-11975214D02*
X14118571Y-11994262D01*
X14118571Y-11994262D02*
X14118571Y-12041881D01*
X14118571Y-12041881D02*
X14109048Y-12060928D01*
X14109048Y-12060928D02*
X14099524Y-12070452D01*
X14099524Y-12070452D02*
X14080476Y-12079976D01*
X14080476Y-12079976D02*
X14023333Y-12079976D01*
X14023333Y-12079976D02*
X14004286Y-12070452D01*
X14004286Y-12070452D02*
X13994762Y-12060928D01*
X14242381Y-11879976D02*
X14261429Y-11879976D01*
X14261429Y-11879976D02*
X14280476Y-11889500D01*
X14280476Y-11889500D02*
X14290000Y-11899024D01*
X14290000Y-11899024D02*
X14299524Y-11918071D01*
X14299524Y-11918071D02*
X14309048Y-11956167D01*
X14309048Y-11956167D02*
X14309048Y-12003786D01*
X14309048Y-12003786D02*
X14299524Y-12041881D01*
X14299524Y-12041881D02*
X14290000Y-12060928D01*
X14290000Y-12060928D02*
X14280476Y-12070452D01*
X14280476Y-12070452D02*
X14261429Y-12079976D01*
X14261429Y-12079976D02*
X14242381Y-12079976D01*
X14242381Y-12079976D02*
X14223333Y-12070452D01*
X14223333Y-12070452D02*
X14213809Y-12060928D01*
X14213809Y-12060928D02*
X14204286Y-12041881D01*
X14204286Y-12041881D02*
X14194762Y-12003786D01*
X14194762Y-12003786D02*
X14194762Y-11956167D01*
X14194762Y-11956167D02*
X14204286Y-11918071D01*
X14204286Y-11918071D02*
X14213809Y-11899024D01*
X14213809Y-11899024D02*
X14223333Y-11889500D01*
X14223333Y-11889500D02*
X14242381Y-11879976D01*
X14394762Y-12079976D02*
X14394762Y-11946643D01*
X14394762Y-11965690D02*
X14404286Y-11956167D01*
X14404286Y-11956167D02*
X14423333Y-11946643D01*
X14423333Y-11946643D02*
X14451905Y-11946643D01*
X14451905Y-11946643D02*
X14470952Y-11956167D01*
X14470952Y-11956167D02*
X14480476Y-11975214D01*
X14480476Y-11975214D02*
X14480476Y-12079976D01*
X14480476Y-11975214D02*
X14490000Y-11956167D01*
X14490000Y-11956167D02*
X14509048Y-11946643D01*
X14509048Y-11946643D02*
X14537619Y-11946643D01*
X14537619Y-11946643D02*
X14556667Y-11956167D01*
X14556667Y-11956167D02*
X14566190Y-11975214D01*
X14566190Y-11975214D02*
X14566190Y-12079976D01*
X14661429Y-12079976D02*
X14661429Y-11946643D01*
X14661429Y-11965690D02*
X14670952Y-11956167D01*
X14670952Y-11956167D02*
X14690000Y-11946643D01*
X14690000Y-11946643D02*
X14718571Y-11946643D01*
X14718571Y-11946643D02*
X14737619Y-11956167D01*
X14737619Y-11956167D02*
X14747143Y-11975214D01*
X14747143Y-11975214D02*
X14747143Y-12079976D01*
X14747143Y-11975214D02*
X14756667Y-11956167D01*
X14756667Y-11956167D02*
X14775714Y-11946643D01*
X14775714Y-11946643D02*
X14804286Y-11946643D01*
X14804286Y-11946643D02*
X14823333Y-11956167D01*
X14823333Y-11956167D02*
X14832857Y-11975214D01*
X14832857Y-11975214D02*
X14832857Y-12079976D01*
X15190952Y-11870452D02*
X15019524Y-12127595D01*
X15415714Y-11879976D02*
X15434762Y-11879976D01*
X15434762Y-11879976D02*
X15453810Y-11889500D01*
X15453810Y-11889500D02*
X15463333Y-11899024D01*
X15463333Y-11899024D02*
X15472857Y-11918071D01*
X15472857Y-11918071D02*
X15482381Y-11956167D01*
X15482381Y-11956167D02*
X15482381Y-12003786D01*
X15482381Y-12003786D02*
X15472857Y-12041881D01*
X15472857Y-12041881D02*
X15463333Y-12060928D01*
X15463333Y-12060928D02*
X15453810Y-12070452D01*
X15453810Y-12070452D02*
X15434762Y-12079976D01*
X15434762Y-12079976D02*
X15415714Y-12079976D01*
X15415714Y-12079976D02*
X15396667Y-12070452D01*
X15396667Y-12070452D02*
X15387143Y-12060928D01*
X15387143Y-12060928D02*
X15377619Y-12041881D01*
X15377619Y-12041881D02*
X15368095Y-12003786D01*
X15368095Y-12003786D02*
X15368095Y-11956167D01*
X15368095Y-11956167D02*
X15377619Y-11918071D01*
X15377619Y-11918071D02*
X15387143Y-11899024D01*
X15387143Y-11899024D02*
X15396667Y-11889500D01*
X15396667Y-11889500D02*
X15415714Y-11879976D01*
X15568095Y-12060928D02*
X15577619Y-12070452D01*
X15577619Y-12070452D02*
X15568095Y-12079976D01*
X15568095Y-12079976D02*
X15558571Y-12070452D01*
X15558571Y-12070452D02*
X15568095Y-12060928D01*
X15568095Y-12060928D02*
X15568095Y-12079976D01*
X15701429Y-11879976D02*
X15720476Y-11879976D01*
X15720476Y-11879976D02*
X15739524Y-11889500D01*
X15739524Y-11889500D02*
X15749048Y-11899024D01*
X15749048Y-11899024D02*
X15758571Y-11918071D01*
X15758571Y-11918071D02*
X15768095Y-11956167D01*
X15768095Y-11956167D02*
X15768095Y-12003786D01*
X15768095Y-12003786D02*
X15758571Y-12041881D01*
X15758571Y-12041881D02*
X15749048Y-12060928D01*
X15749048Y-12060928D02*
X15739524Y-12070452D01*
X15739524Y-12070452D02*
X15720476Y-12079976D01*
X15720476Y-12079976D02*
X15701429Y-12079976D01*
X15701429Y-12079976D02*
X15682381Y-12070452D01*
X15682381Y-12070452D02*
X15672857Y-12060928D01*
X15672857Y-12060928D02*
X15663333Y-12041881D01*
X15663333Y-12041881D02*
X15653810Y-12003786D01*
X15653810Y-12003786D02*
X15653810Y-11956167D01*
X15653810Y-11956167D02*
X15663333Y-11918071D01*
X15663333Y-11918071D02*
X15672857Y-11899024D01*
X15672857Y-11899024D02*
X15682381Y-11889500D01*
X15682381Y-11889500D02*
X15701429Y-11879976D01*
X15958571Y-12079976D02*
X15844286Y-12079976D01*
X15901429Y-12079976D02*
X15901429Y-11879976D01*
X15901429Y-11879976D02*
X15882381Y-11908548D01*
X15882381Y-11908548D02*
X15863333Y-11927595D01*
X15863333Y-11927595D02*
X15844286Y-11937119D01*
X16025238Y-11879976D02*
X16149048Y-11879976D01*
X16149048Y-11879976D02*
X16082381Y-11956167D01*
X16082381Y-11956167D02*
X16110952Y-11956167D01*
X16110952Y-11956167D02*
X16130000Y-11965690D01*
X16130000Y-11965690D02*
X16139524Y-11975214D01*
X16139524Y-11975214D02*
X16149048Y-11994262D01*
X16149048Y-11994262D02*
X16149048Y-12041881D01*
X16149048Y-12041881D02*
X16139524Y-12060928D01*
X16139524Y-12060928D02*
X16130000Y-12070452D01*
X16130000Y-12070452D02*
X16110952Y-12079976D01*
X16110952Y-12079976D02*
X16053810Y-12079976D01*
X16053810Y-12079976D02*
X16034762Y-12070452D01*
X16034762Y-12070452D02*
X16025238Y-12060928D01*
X16272857Y-11879976D02*
X16291905Y-11879976D01*
X16291905Y-11879976D02*
X16310952Y-11889500D01*
X16310952Y-11889500D02*
X16320476Y-11899024D01*
X16320476Y-11899024D02*
X16330000Y-11918071D01*
X16330000Y-11918071D02*
X16339524Y-11956167D01*
X16339524Y-11956167D02*
X16339524Y-12003786D01*
X16339524Y-12003786D02*
X16330000Y-12041881D01*
X16330000Y-12041881D02*
X16320476Y-12060928D01*
X16320476Y-12060928D02*
X16310952Y-12070452D01*
X16310952Y-12070452D02*
X16291905Y-12079976D01*
X16291905Y-12079976D02*
X16272857Y-12079976D01*
X16272857Y-12079976D02*
X16253810Y-12070452D01*
X16253810Y-12070452D02*
X16244286Y-12060928D01*
X16244286Y-12060928D02*
X16234762Y-12041881D01*
X16234762Y-12041881D02*
X16225238Y-12003786D01*
X16225238Y-12003786D02*
X16225238Y-11956167D01*
X16225238Y-11956167D02*
X16234762Y-11918071D01*
X16234762Y-11918071D02*
X16244286Y-11899024D01*
X16244286Y-11899024D02*
X16253810Y-11889500D01*
X16253810Y-11889500D02*
X16272857Y-11879976D01*
X16415714Y-11879976D02*
X16415714Y-11918071D01*
X16491905Y-11879976D02*
X16491905Y-11918071D01*
X16754762Y-12156167D02*
X16745238Y-12146643D01*
X16745238Y-12146643D02*
X16726191Y-12118071D01*
X16726191Y-12118071D02*
X16716667Y-12099024D01*
X16716667Y-12099024D02*
X16707143Y-12070452D01*
X16707143Y-12070452D02*
X16697619Y-12022833D01*
X16697619Y-12022833D02*
X16697619Y-11984738D01*
X16697619Y-11984738D02*
X16707143Y-11937119D01*
X16707143Y-11937119D02*
X16716667Y-11908548D01*
X16716667Y-11908548D02*
X16726191Y-11889500D01*
X16726191Y-11889500D02*
X16745238Y-11860928D01*
X16745238Y-11860928D02*
X16754762Y-11851405D01*
X16935714Y-12079976D02*
X16821429Y-12079976D01*
X16878572Y-12079976D02*
X16878572Y-11879976D01*
X16878572Y-11879976D02*
X16859524Y-11908548D01*
X16859524Y-11908548D02*
X16840476Y-11927595D01*
X16840476Y-11927595D02*
X16821429Y-11937119D01*
X17011905Y-11899024D02*
X17021429Y-11889500D01*
X17021429Y-11889500D02*
X17040476Y-11879976D01*
X17040476Y-11879976D02*
X17088095Y-11879976D01*
X17088095Y-11879976D02*
X17107143Y-11889500D01*
X17107143Y-11889500D02*
X17116667Y-11899024D01*
X17116667Y-11899024D02*
X17126191Y-11918071D01*
X17126191Y-11918071D02*
X17126191Y-11937119D01*
X17126191Y-11937119D02*
X17116667Y-11965690D01*
X17116667Y-11965690D02*
X17002381Y-12079976D01*
X17002381Y-12079976D02*
X17126191Y-12079976D01*
X17331905Y-12079976D02*
X17331905Y-11879976D01*
X17417619Y-12079976D02*
X17417619Y-11975214D01*
X17417619Y-11975214D02*
X17408095Y-11956167D01*
X17408095Y-11956167D02*
X17389048Y-11946643D01*
X17389048Y-11946643D02*
X17360476Y-11946643D01*
X17360476Y-11946643D02*
X17341429Y-11956167D01*
X17341429Y-11956167D02*
X17331905Y-11965690D01*
X17541429Y-12079976D02*
X17522381Y-12070452D01*
X17522381Y-12070452D02*
X17512857Y-12060928D01*
X17512857Y-12060928D02*
X17503334Y-12041881D01*
X17503334Y-12041881D02*
X17503334Y-11984738D01*
X17503334Y-11984738D02*
X17512857Y-11965690D01*
X17512857Y-11965690D02*
X17522381Y-11956167D01*
X17522381Y-11956167D02*
X17541429Y-11946643D01*
X17541429Y-11946643D02*
X17570000Y-11946643D01*
X17570000Y-11946643D02*
X17589048Y-11956167D01*
X17589048Y-11956167D02*
X17598572Y-11965690D01*
X17598572Y-11965690D02*
X17608095Y-11984738D01*
X17608095Y-11984738D02*
X17608095Y-12041881D01*
X17608095Y-12041881D02*
X17598572Y-12060928D01*
X17598572Y-12060928D02*
X17589048Y-12070452D01*
X17589048Y-12070452D02*
X17570000Y-12079976D01*
X17570000Y-12079976D02*
X17541429Y-12079976D01*
X17722381Y-12079976D02*
X17703334Y-12070452D01*
X17703334Y-12070452D02*
X17693810Y-12051405D01*
X17693810Y-12051405D02*
X17693810Y-11879976D01*
X17874762Y-12070452D02*
X17855715Y-12079976D01*
X17855715Y-12079976D02*
X17817619Y-12079976D01*
X17817619Y-12079976D02*
X17798572Y-12070452D01*
X17798572Y-12070452D02*
X17789048Y-12051405D01*
X17789048Y-12051405D02*
X17789048Y-11975214D01*
X17789048Y-11975214D02*
X17798572Y-11956167D01*
X17798572Y-11956167D02*
X17817619Y-11946643D01*
X17817619Y-11946643D02*
X17855715Y-11946643D01*
X17855715Y-11946643D02*
X17874762Y-11956167D01*
X17874762Y-11956167D02*
X17884286Y-11975214D01*
X17884286Y-11975214D02*
X17884286Y-11994262D01*
X17884286Y-11994262D02*
X17789048Y-12013309D01*
X17960476Y-12070452D02*
X17979524Y-12079976D01*
X17979524Y-12079976D02*
X18017619Y-12079976D01*
X18017619Y-12079976D02*
X18036667Y-12070452D01*
X18036667Y-12070452D02*
X18046191Y-12051405D01*
X18046191Y-12051405D02*
X18046191Y-12041881D01*
X18046191Y-12041881D02*
X18036667Y-12022833D01*
X18036667Y-12022833D02*
X18017619Y-12013309D01*
X18017619Y-12013309D02*
X17989048Y-12013309D01*
X17989048Y-12013309D02*
X17970000Y-12003786D01*
X17970000Y-12003786D02*
X17960476Y-11984738D01*
X17960476Y-11984738D02*
X17960476Y-11975214D01*
X17960476Y-11975214D02*
X17970000Y-11956167D01*
X17970000Y-11956167D02*
X17989048Y-11946643D01*
X17989048Y-11946643D02*
X18017619Y-11946643D01*
X18017619Y-11946643D02*
X18036667Y-11956167D01*
X18112857Y-12156167D02*
X18122381Y-12146643D01*
X18122381Y-12146643D02*
X18141429Y-12118071D01*
X18141429Y-12118071D02*
X18150953Y-12099024D01*
X18150953Y-12099024D02*
X18160476Y-12070452D01*
X18160476Y-12070452D02*
X18170000Y-12022833D01*
X18170000Y-12022833D02*
X18170000Y-11984738D01*
X18170000Y-11984738D02*
X18160476Y-11937119D01*
X18160476Y-11937119D02*
X18150953Y-11908548D01*
X18150953Y-11908548D02*
X18141429Y-11889500D01*
X18141429Y-11889500D02*
X18122381Y-11860928D01*
X18122381Y-11860928D02*
X18112857Y-11851405D01*
X13190000Y-12170500D02*
X13190000Y-12370500D01*
X13090000Y-12270500D02*
X13290000Y-12270500D01*
X13528095Y-12163024D02*
X13537619Y-12153500D01*
X13537619Y-12153500D02*
X13556667Y-12143976D01*
X13556667Y-12143976D02*
X13604286Y-12143976D01*
X13604286Y-12143976D02*
X13623333Y-12153500D01*
X13623333Y-12153500D02*
X13632857Y-12163024D01*
X13632857Y-12163024D02*
X13642381Y-12182071D01*
X13642381Y-12182071D02*
X13642381Y-12201119D01*
X13642381Y-12201119D02*
X13632857Y-12229690D01*
X13632857Y-12229690D02*
X13518571Y-12343976D01*
X13518571Y-12343976D02*
X13642381Y-12343976D01*
X13728095Y-12324928D02*
X13737619Y-12334452D01*
X13737619Y-12334452D02*
X13728095Y-12343976D01*
X13728095Y-12343976D02*
X13718571Y-12334452D01*
X13718571Y-12334452D02*
X13728095Y-12324928D01*
X13728095Y-12324928D02*
X13728095Y-12343976D01*
X13813809Y-12163024D02*
X13823333Y-12153500D01*
X13823333Y-12153500D02*
X13842381Y-12143976D01*
X13842381Y-12143976D02*
X13890000Y-12143976D01*
X13890000Y-12143976D02*
X13909048Y-12153500D01*
X13909048Y-12153500D02*
X13918571Y-12163024D01*
X13918571Y-12163024D02*
X13928095Y-12182071D01*
X13928095Y-12182071D02*
X13928095Y-12201119D01*
X13928095Y-12201119D02*
X13918571Y-12229690D01*
X13918571Y-12229690D02*
X13804286Y-12343976D01*
X13804286Y-12343976D02*
X13928095Y-12343976D01*
X14051905Y-12143976D02*
X14070952Y-12143976D01*
X14070952Y-12143976D02*
X14090000Y-12153500D01*
X14090000Y-12153500D02*
X14099524Y-12163024D01*
X14099524Y-12163024D02*
X14109048Y-12182071D01*
X14109048Y-12182071D02*
X14118571Y-12220167D01*
X14118571Y-12220167D02*
X14118571Y-12267786D01*
X14118571Y-12267786D02*
X14109048Y-12305881D01*
X14109048Y-12305881D02*
X14099524Y-12324928D01*
X14099524Y-12324928D02*
X14090000Y-12334452D01*
X14090000Y-12334452D02*
X14070952Y-12343976D01*
X14070952Y-12343976D02*
X14051905Y-12343976D01*
X14051905Y-12343976D02*
X14032857Y-12334452D01*
X14032857Y-12334452D02*
X14023333Y-12324928D01*
X14023333Y-12324928D02*
X14013809Y-12305881D01*
X14013809Y-12305881D02*
X14004286Y-12267786D01*
X14004286Y-12267786D02*
X14004286Y-12220167D01*
X14004286Y-12220167D02*
X14013809Y-12182071D01*
X14013809Y-12182071D02*
X14023333Y-12163024D01*
X14023333Y-12163024D02*
X14032857Y-12153500D01*
X14032857Y-12153500D02*
X14051905Y-12143976D01*
X14242381Y-12143976D02*
X14261429Y-12143976D01*
X14261429Y-12143976D02*
X14280476Y-12153500D01*
X14280476Y-12153500D02*
X14290000Y-12163024D01*
X14290000Y-12163024D02*
X14299524Y-12182071D01*
X14299524Y-12182071D02*
X14309048Y-12220167D01*
X14309048Y-12220167D02*
X14309048Y-12267786D01*
X14309048Y-12267786D02*
X14299524Y-12305881D01*
X14299524Y-12305881D02*
X14290000Y-12324928D01*
X14290000Y-12324928D02*
X14280476Y-12334452D01*
X14280476Y-12334452D02*
X14261429Y-12343976D01*
X14261429Y-12343976D02*
X14242381Y-12343976D01*
X14242381Y-12343976D02*
X14223333Y-12334452D01*
X14223333Y-12334452D02*
X14213809Y-12324928D01*
X14213809Y-12324928D02*
X14204286Y-12305881D01*
X14204286Y-12305881D02*
X14194762Y-12267786D01*
X14194762Y-12267786D02*
X14194762Y-12220167D01*
X14194762Y-12220167D02*
X14204286Y-12182071D01*
X14204286Y-12182071D02*
X14213809Y-12163024D01*
X14213809Y-12163024D02*
X14223333Y-12153500D01*
X14223333Y-12153500D02*
X14242381Y-12143976D01*
X14394762Y-12343976D02*
X14394762Y-12210643D01*
X14394762Y-12229690D02*
X14404286Y-12220167D01*
X14404286Y-12220167D02*
X14423333Y-12210643D01*
X14423333Y-12210643D02*
X14451905Y-12210643D01*
X14451905Y-12210643D02*
X14470952Y-12220167D01*
X14470952Y-12220167D02*
X14480476Y-12239214D01*
X14480476Y-12239214D02*
X14480476Y-12343976D01*
X14480476Y-12239214D02*
X14490000Y-12220167D01*
X14490000Y-12220167D02*
X14509048Y-12210643D01*
X14509048Y-12210643D02*
X14537619Y-12210643D01*
X14537619Y-12210643D02*
X14556667Y-12220167D01*
X14556667Y-12220167D02*
X14566190Y-12239214D01*
X14566190Y-12239214D02*
X14566190Y-12343976D01*
X14661429Y-12343976D02*
X14661429Y-12210643D01*
X14661429Y-12229690D02*
X14670952Y-12220167D01*
X14670952Y-12220167D02*
X14690000Y-12210643D01*
X14690000Y-12210643D02*
X14718571Y-12210643D01*
X14718571Y-12210643D02*
X14737619Y-12220167D01*
X14737619Y-12220167D02*
X14747143Y-12239214D01*
X14747143Y-12239214D02*
X14747143Y-12343976D01*
X14747143Y-12239214D02*
X14756667Y-12220167D01*
X14756667Y-12220167D02*
X14775714Y-12210643D01*
X14775714Y-12210643D02*
X14804286Y-12210643D01*
X14804286Y-12210643D02*
X14823333Y-12220167D01*
X14823333Y-12220167D02*
X14832857Y-12239214D01*
X14832857Y-12239214D02*
X14832857Y-12343976D01*
X15190952Y-12134452D02*
X15019524Y-12391595D01*
X15415714Y-12143976D02*
X15434762Y-12143976D01*
X15434762Y-12143976D02*
X15453810Y-12153500D01*
X15453810Y-12153500D02*
X15463333Y-12163024D01*
X15463333Y-12163024D02*
X15472857Y-12182071D01*
X15472857Y-12182071D02*
X15482381Y-12220167D01*
X15482381Y-12220167D02*
X15482381Y-12267786D01*
X15482381Y-12267786D02*
X15472857Y-12305881D01*
X15472857Y-12305881D02*
X15463333Y-12324928D01*
X15463333Y-12324928D02*
X15453810Y-12334452D01*
X15453810Y-12334452D02*
X15434762Y-12343976D01*
X15434762Y-12343976D02*
X15415714Y-12343976D01*
X15415714Y-12343976D02*
X15396667Y-12334452D01*
X15396667Y-12334452D02*
X15387143Y-12324928D01*
X15387143Y-12324928D02*
X15377619Y-12305881D01*
X15377619Y-12305881D02*
X15368095Y-12267786D01*
X15368095Y-12267786D02*
X15368095Y-12220167D01*
X15368095Y-12220167D02*
X15377619Y-12182071D01*
X15377619Y-12182071D02*
X15387143Y-12163024D01*
X15387143Y-12163024D02*
X15396667Y-12153500D01*
X15396667Y-12153500D02*
X15415714Y-12143976D01*
X15568095Y-12324928D02*
X15577619Y-12334452D01*
X15577619Y-12334452D02*
X15568095Y-12343976D01*
X15568095Y-12343976D02*
X15558571Y-12334452D01*
X15558571Y-12334452D02*
X15568095Y-12324928D01*
X15568095Y-12324928D02*
X15568095Y-12343976D01*
X15701429Y-12143976D02*
X15720476Y-12143976D01*
X15720476Y-12143976D02*
X15739524Y-12153500D01*
X15739524Y-12153500D02*
X15749048Y-12163024D01*
X15749048Y-12163024D02*
X15758571Y-12182071D01*
X15758571Y-12182071D02*
X15768095Y-12220167D01*
X15768095Y-12220167D02*
X15768095Y-12267786D01*
X15768095Y-12267786D02*
X15758571Y-12305881D01*
X15758571Y-12305881D02*
X15749048Y-12324928D01*
X15749048Y-12324928D02*
X15739524Y-12334452D01*
X15739524Y-12334452D02*
X15720476Y-12343976D01*
X15720476Y-12343976D02*
X15701429Y-12343976D01*
X15701429Y-12343976D02*
X15682381Y-12334452D01*
X15682381Y-12334452D02*
X15672857Y-12324928D01*
X15672857Y-12324928D02*
X15663333Y-12305881D01*
X15663333Y-12305881D02*
X15653810Y-12267786D01*
X15653810Y-12267786D02*
X15653810Y-12220167D01*
X15653810Y-12220167D02*
X15663333Y-12182071D01*
X15663333Y-12182071D02*
X15672857Y-12163024D01*
X15672857Y-12163024D02*
X15682381Y-12153500D01*
X15682381Y-12153500D02*
X15701429Y-12143976D01*
X15882381Y-12229690D02*
X15863333Y-12220167D01*
X15863333Y-12220167D02*
X15853810Y-12210643D01*
X15853810Y-12210643D02*
X15844286Y-12191595D01*
X15844286Y-12191595D02*
X15844286Y-12182071D01*
X15844286Y-12182071D02*
X15853810Y-12163024D01*
X15853810Y-12163024D02*
X15863333Y-12153500D01*
X15863333Y-12153500D02*
X15882381Y-12143976D01*
X15882381Y-12143976D02*
X15920476Y-12143976D01*
X15920476Y-12143976D02*
X15939524Y-12153500D01*
X15939524Y-12153500D02*
X15949048Y-12163024D01*
X15949048Y-12163024D02*
X15958571Y-12182071D01*
X15958571Y-12182071D02*
X15958571Y-12191595D01*
X15958571Y-12191595D02*
X15949048Y-12210643D01*
X15949048Y-12210643D02*
X15939524Y-12220167D01*
X15939524Y-12220167D02*
X15920476Y-12229690D01*
X15920476Y-12229690D02*
X15882381Y-12229690D01*
X15882381Y-12229690D02*
X15863333Y-12239214D01*
X15863333Y-12239214D02*
X15853810Y-12248738D01*
X15853810Y-12248738D02*
X15844286Y-12267786D01*
X15844286Y-12267786D02*
X15844286Y-12305881D01*
X15844286Y-12305881D02*
X15853810Y-12324928D01*
X15853810Y-12324928D02*
X15863333Y-12334452D01*
X15863333Y-12334452D02*
X15882381Y-12343976D01*
X15882381Y-12343976D02*
X15920476Y-12343976D01*
X15920476Y-12343976D02*
X15939524Y-12334452D01*
X15939524Y-12334452D02*
X15949048Y-12324928D01*
X15949048Y-12324928D02*
X15958571Y-12305881D01*
X15958571Y-12305881D02*
X15958571Y-12267786D01*
X15958571Y-12267786D02*
X15949048Y-12248738D01*
X15949048Y-12248738D02*
X15939524Y-12239214D01*
X15939524Y-12239214D02*
X15920476Y-12229690D01*
X16130000Y-12143976D02*
X16091905Y-12143976D01*
X16091905Y-12143976D02*
X16072857Y-12153500D01*
X16072857Y-12153500D02*
X16063333Y-12163024D01*
X16063333Y-12163024D02*
X16044286Y-12191595D01*
X16044286Y-12191595D02*
X16034762Y-12229690D01*
X16034762Y-12229690D02*
X16034762Y-12305881D01*
X16034762Y-12305881D02*
X16044286Y-12324928D01*
X16044286Y-12324928D02*
X16053810Y-12334452D01*
X16053810Y-12334452D02*
X16072857Y-12343976D01*
X16072857Y-12343976D02*
X16110952Y-12343976D01*
X16110952Y-12343976D02*
X16130000Y-12334452D01*
X16130000Y-12334452D02*
X16139524Y-12324928D01*
X16139524Y-12324928D02*
X16149048Y-12305881D01*
X16149048Y-12305881D02*
X16149048Y-12258262D01*
X16149048Y-12258262D02*
X16139524Y-12239214D01*
X16139524Y-12239214D02*
X16130000Y-12229690D01*
X16130000Y-12229690D02*
X16110952Y-12220167D01*
X16110952Y-12220167D02*
X16072857Y-12220167D01*
X16072857Y-12220167D02*
X16053810Y-12229690D01*
X16053810Y-12229690D02*
X16044286Y-12239214D01*
X16044286Y-12239214D02*
X16034762Y-12258262D01*
X16320476Y-12143976D02*
X16282381Y-12143976D01*
X16282381Y-12143976D02*
X16263333Y-12153500D01*
X16263333Y-12153500D02*
X16253810Y-12163024D01*
X16253810Y-12163024D02*
X16234762Y-12191595D01*
X16234762Y-12191595D02*
X16225238Y-12229690D01*
X16225238Y-12229690D02*
X16225238Y-12305881D01*
X16225238Y-12305881D02*
X16234762Y-12324928D01*
X16234762Y-12324928D02*
X16244286Y-12334452D01*
X16244286Y-12334452D02*
X16263333Y-12343976D01*
X16263333Y-12343976D02*
X16301429Y-12343976D01*
X16301429Y-12343976D02*
X16320476Y-12334452D01*
X16320476Y-12334452D02*
X16330000Y-12324928D01*
X16330000Y-12324928D02*
X16339524Y-12305881D01*
X16339524Y-12305881D02*
X16339524Y-12258262D01*
X16339524Y-12258262D02*
X16330000Y-12239214D01*
X16330000Y-12239214D02*
X16320476Y-12229690D01*
X16320476Y-12229690D02*
X16301429Y-12220167D01*
X16301429Y-12220167D02*
X16263333Y-12220167D01*
X16263333Y-12220167D02*
X16244286Y-12229690D01*
X16244286Y-12229690D02*
X16234762Y-12239214D01*
X16234762Y-12239214D02*
X16225238Y-12258262D01*
X16415714Y-12143976D02*
X16415714Y-12182071D01*
X16491905Y-12143976D02*
X16491905Y-12182071D01*
X16754762Y-12420167D02*
X16745238Y-12410643D01*
X16745238Y-12410643D02*
X16726191Y-12382071D01*
X16726191Y-12382071D02*
X16716667Y-12363024D01*
X16716667Y-12363024D02*
X16707143Y-12334452D01*
X16707143Y-12334452D02*
X16697619Y-12286833D01*
X16697619Y-12286833D02*
X16697619Y-12248738D01*
X16697619Y-12248738D02*
X16707143Y-12201119D01*
X16707143Y-12201119D02*
X16716667Y-12172548D01*
X16716667Y-12172548D02*
X16726191Y-12153500D01*
X16726191Y-12153500D02*
X16745238Y-12124928D01*
X16745238Y-12124928D02*
X16754762Y-12115405D01*
X16916667Y-12143976D02*
X16878572Y-12143976D01*
X16878572Y-12143976D02*
X16859524Y-12153500D01*
X16859524Y-12153500D02*
X16850000Y-12163024D01*
X16850000Y-12163024D02*
X16830953Y-12191595D01*
X16830953Y-12191595D02*
X16821429Y-12229690D01*
X16821429Y-12229690D02*
X16821429Y-12305881D01*
X16821429Y-12305881D02*
X16830953Y-12324928D01*
X16830953Y-12324928D02*
X16840476Y-12334452D01*
X16840476Y-12334452D02*
X16859524Y-12343976D01*
X16859524Y-12343976D02*
X16897619Y-12343976D01*
X16897619Y-12343976D02*
X16916667Y-12334452D01*
X16916667Y-12334452D02*
X16926191Y-12324928D01*
X16926191Y-12324928D02*
X16935714Y-12305881D01*
X16935714Y-12305881D02*
X16935714Y-12258262D01*
X16935714Y-12258262D02*
X16926191Y-12239214D01*
X16926191Y-12239214D02*
X16916667Y-12229690D01*
X16916667Y-12229690D02*
X16897619Y-12220167D01*
X16897619Y-12220167D02*
X16859524Y-12220167D01*
X16859524Y-12220167D02*
X16840476Y-12229690D01*
X16840476Y-12229690D02*
X16830953Y-12239214D01*
X16830953Y-12239214D02*
X16821429Y-12258262D01*
X17141429Y-12343976D02*
X17141429Y-12143976D01*
X17227143Y-12343976D02*
X17227143Y-12239214D01*
X17227143Y-12239214D02*
X17217619Y-12220167D01*
X17217619Y-12220167D02*
X17198572Y-12210643D01*
X17198572Y-12210643D02*
X17170000Y-12210643D01*
X17170000Y-12210643D02*
X17150953Y-12220167D01*
X17150953Y-12220167D02*
X17141429Y-12229690D01*
X17350953Y-12343976D02*
X17331905Y-12334452D01*
X17331905Y-12334452D02*
X17322381Y-12324928D01*
X17322381Y-12324928D02*
X17312857Y-12305881D01*
X17312857Y-12305881D02*
X17312857Y-12248738D01*
X17312857Y-12248738D02*
X17322381Y-12229690D01*
X17322381Y-12229690D02*
X17331905Y-12220167D01*
X17331905Y-12220167D02*
X17350953Y-12210643D01*
X17350953Y-12210643D02*
X17379524Y-12210643D01*
X17379524Y-12210643D02*
X17398572Y-12220167D01*
X17398572Y-12220167D02*
X17408095Y-12229690D01*
X17408095Y-12229690D02*
X17417619Y-12248738D01*
X17417619Y-12248738D02*
X17417619Y-12305881D01*
X17417619Y-12305881D02*
X17408095Y-12324928D01*
X17408095Y-12324928D02*
X17398572Y-12334452D01*
X17398572Y-12334452D02*
X17379524Y-12343976D01*
X17379524Y-12343976D02*
X17350953Y-12343976D01*
X17531905Y-12343976D02*
X17512857Y-12334452D01*
X17512857Y-12334452D02*
X17503334Y-12315405D01*
X17503334Y-12315405D02*
X17503334Y-12143976D01*
X17684286Y-12334452D02*
X17665238Y-12343976D01*
X17665238Y-12343976D02*
X17627143Y-12343976D01*
X17627143Y-12343976D02*
X17608095Y-12334452D01*
X17608095Y-12334452D02*
X17598572Y-12315405D01*
X17598572Y-12315405D02*
X17598572Y-12239214D01*
X17598572Y-12239214D02*
X17608095Y-12220167D01*
X17608095Y-12220167D02*
X17627143Y-12210643D01*
X17627143Y-12210643D02*
X17665238Y-12210643D01*
X17665238Y-12210643D02*
X17684286Y-12220167D01*
X17684286Y-12220167D02*
X17693810Y-12239214D01*
X17693810Y-12239214D02*
X17693810Y-12258262D01*
X17693810Y-12258262D02*
X17598572Y-12277309D01*
X17770000Y-12334452D02*
X17789048Y-12343976D01*
X17789048Y-12343976D02*
X17827143Y-12343976D01*
X17827143Y-12343976D02*
X17846191Y-12334452D01*
X17846191Y-12334452D02*
X17855715Y-12315405D01*
X17855715Y-12315405D02*
X17855715Y-12305881D01*
X17855715Y-12305881D02*
X17846191Y-12286833D01*
X17846191Y-12286833D02*
X17827143Y-12277309D01*
X17827143Y-12277309D02*
X17798572Y-12277309D01*
X17798572Y-12277309D02*
X17779524Y-12267786D01*
X17779524Y-12267786D02*
X17770000Y-12248738D01*
X17770000Y-12248738D02*
X17770000Y-12239214D01*
X17770000Y-12239214D02*
X17779524Y-12220167D01*
X17779524Y-12220167D02*
X17798572Y-12210643D01*
X17798572Y-12210643D02*
X17827143Y-12210643D01*
X17827143Y-12210643D02*
X17846191Y-12220167D01*
X17922381Y-12420167D02*
X17931905Y-12410643D01*
X17931905Y-12410643D02*
X17950953Y-12382071D01*
X17950953Y-12382071D02*
X17960476Y-12363024D01*
X17960476Y-12363024D02*
X17970000Y-12334452D01*
X17970000Y-12334452D02*
X17979524Y-12286833D01*
X17979524Y-12286833D02*
X17979524Y-12248738D01*
X17979524Y-12248738D02*
X17970000Y-12201119D01*
X17970000Y-12201119D02*
X17960476Y-12172548D01*
X17960476Y-12172548D02*
X17950953Y-12153500D01*
X17950953Y-12153500D02*
X17931905Y-12124928D01*
X17931905Y-12124928D02*
X17922381Y-12115405D01*
M02*
